%TF.GenerationSoftware,KiCad,Pcbnew,10.0.5*%
%TF.CreationDate,2026-08-18T06:52:17-06:00*%
%TF.ProjectId,L1IFCape,4c314946-4361-4706-952e-6b696361645f,C*%
%TF.SameCoordinates,Original*%
%TF.FileFunction,Other,User*%
%FSLAX46Y46*%
G04 Gerber Fmt 4.6, Leading zero omitted, Abs format (unit mm)*
G04 Created by KiCad (PCBNEW 10.0.5) date 2026-08-18 06:52:17*
%MOMM*%
%LPD*%
G01*
G04 APERTURE LIST*
%ADD10C,0.050000*%
%ADD11C,0.100000*%
%ADD12C,0.152400*%
G04 APERTURE END LIST*
%TO.C,P8*%
D10*
X117885000Y-45485000D02*
X117885000Y-51635000D01*
X117885000Y-51635000D02*
X177335000Y-51635000D01*
X177335000Y-45485000D02*
X117885000Y-45485000D01*
X177335000Y-51635000D02*
X177335000Y-45485000D01*
%TO.C,P9*%
X117885000Y-93745000D02*
X117885000Y-99895000D01*
X117885000Y-99895000D02*
X177335000Y-99895000D01*
X177335000Y-93745000D02*
X117885000Y-93745000D01*
X177335000Y-99895000D02*
X177335000Y-93745000D01*
%TO.C,FB1*%
X153220000Y-63310000D02*
X156580000Y-63310000D01*
X153220000Y-65210000D02*
X153220000Y-63310000D01*
X156580000Y-63310000D02*
X156580000Y-65210000D01*
X156580000Y-65210000D02*
X153220000Y-65210000D01*
%TO.C,C8*%
X150650000Y-58000000D02*
X153610000Y-58000000D01*
X150650000Y-59460000D02*
X150650000Y-58000000D01*
X153610000Y-58000000D02*
X153610000Y-59460000D01*
X153610000Y-59460000D02*
X150650000Y-59460000D01*
%TO.C,R19*%
X129090000Y-62370000D02*
X132050000Y-62370000D01*
X129090000Y-63830000D02*
X129090000Y-62370000D01*
X132050000Y-62370000D02*
X132050000Y-63830000D01*
X132050000Y-63830000D02*
X129090000Y-63830000D01*
%TO.C,X1*%
D11*
X138033600Y-58995400D02*
X143633600Y-58995400D01*
X143633600Y-63095400D01*
X138033600Y-63095400D01*
X138033600Y-58995400D01*
%TO.C,X2*%
D10*
X130269000Y-79475500D02*
X132469000Y-79475500D01*
X130269000Y-81475500D02*
X130269000Y-79475500D01*
X132469000Y-79475500D02*
X132469000Y-81475500D01*
X132469000Y-81475500D02*
X130269000Y-81475500D01*
%TO.C,C21*%
X133020000Y-78070000D02*
X134480000Y-78070000D01*
X133020000Y-81030000D02*
X133020000Y-78070000D01*
X134480000Y-78070000D02*
X134480000Y-81030000D01*
X134480000Y-81030000D02*
X133020000Y-81030000D01*
%TO.C,C13*%
X128140000Y-79310000D02*
X129600000Y-79310000D01*
X128140000Y-82270000D02*
X128140000Y-79310000D01*
X129600000Y-79310000D02*
X129600000Y-82270000D01*
X129600000Y-82270000D02*
X128140000Y-82270000D01*
%TO.C,C31*%
X153220000Y-65230000D02*
X156580000Y-65230000D01*
X153220000Y-67130000D02*
X153220000Y-65230000D01*
X156580000Y-65230000D02*
X156580000Y-67130000D01*
X156580000Y-67130000D02*
X153220000Y-67130000D01*
%TO.C,C22*%
X136010000Y-73550000D02*
X138970000Y-73550000D01*
X136010000Y-75010000D02*
X136010000Y-73550000D01*
X138970000Y-73550000D02*
X138970000Y-75010000D01*
X138970000Y-75010000D02*
X136010000Y-75010000D01*
%TO.C,H4*%
X183690000Y-93650000D02*
G75*
G02*
X177590000Y-93650000I-3050000J0D01*
G01*
X177590000Y-93650000D02*
G75*
G02*
X183690000Y-93650000I3050000J0D01*
G01*
%TO.C,C4*%
X150470000Y-62440000D02*
X151930000Y-62440000D01*
X150470000Y-65400000D02*
X150470000Y-62440000D01*
X151930000Y-62440000D02*
X151930000Y-65400000D01*
X151930000Y-65400000D02*
X150470000Y-65400000D01*
%TO.C,C9*%
X150633539Y-69713893D02*
X153593539Y-69713893D01*
X150633539Y-71173893D02*
X150633539Y-69713893D01*
X153593539Y-69713893D02*
X153593539Y-71173893D01*
X153593539Y-71173893D02*
X150633539Y-71173893D01*
%TO.C,C18*%
X138990000Y-72640000D02*
X141950000Y-72640000D01*
X138990000Y-74100000D02*
X138990000Y-72640000D01*
X141950000Y-72640000D02*
X141950000Y-74100000D01*
X141950000Y-74100000D02*
X138990000Y-74100000D01*
%TO.C,U2*%
X127839000Y-69849000D02*
X134439000Y-69849000D01*
X127839000Y-76449000D02*
X127839000Y-69849000D01*
X134439000Y-69849000D02*
X134439000Y-76449000D01*
X134439000Y-76449000D02*
X127839000Y-76449000D01*
%TO.C,R22*%
X136280000Y-59770000D02*
X137740000Y-59770000D01*
X136280000Y-62730000D02*
X136280000Y-59770000D01*
X137740000Y-59770000D02*
X137740000Y-62730000D01*
X137740000Y-62730000D02*
X136280000Y-62730000D01*
%TO.C,R18*%
X129090000Y-63890000D02*
X132050000Y-63890000D01*
X129090000Y-65350000D02*
X129090000Y-63890000D01*
X132050000Y-63890000D02*
X132050000Y-65350000D01*
X132050000Y-65350000D02*
X129090000Y-65350000D01*
%TO.C,C7*%
X148972539Y-74168893D02*
X150432539Y-74168893D01*
X148972539Y-77128893D02*
X148972539Y-74168893D01*
X150432539Y-74168893D02*
X150432539Y-77128893D01*
X150432539Y-77128893D02*
X148972539Y-77128893D01*
%TO.C,C10*%
X124620000Y-77600000D02*
X126080000Y-77600000D01*
X124620000Y-80560000D02*
X124620000Y-77600000D01*
X126080000Y-77600000D02*
X126080000Y-80560000D01*
X126080000Y-80560000D02*
X124620000Y-80560000D01*
%TO.C,C24*%
X134580000Y-65200000D02*
X137540000Y-65200000D01*
X134580000Y-66660000D02*
X134580000Y-65200000D01*
X137540000Y-65200000D02*
X137540000Y-66660000D01*
X137540000Y-66660000D02*
X134580000Y-66660000D01*
%TO.C,R8*%
X142110000Y-84927500D02*
X143570000Y-84927500D01*
X142110000Y-87887500D02*
X142110000Y-84927500D01*
X143570000Y-84927500D02*
X143570000Y-87887500D01*
X143570000Y-87887500D02*
X142110000Y-87887500D01*
%TO.C,C26*%
X123520000Y-71076000D02*
X126480000Y-71076000D01*
X123520000Y-72536000D02*
X123520000Y-71076000D01*
X126480000Y-71076000D02*
X126480000Y-72536000D01*
X126480000Y-72536000D02*
X123520000Y-72536000D01*
%TO.C,C11*%
X122440000Y-77605000D02*
X123900000Y-77605000D01*
X122440000Y-80565000D02*
X122440000Y-77605000D01*
X123900000Y-77605000D02*
X123900000Y-80565000D01*
X123900000Y-80565000D02*
X122440000Y-80565000D01*
%TO.C,R13*%
X149670000Y-87020000D02*
X151130000Y-87020000D01*
X149670000Y-89980000D02*
X149670000Y-87020000D01*
X151130000Y-87020000D02*
X151130000Y-89980000D01*
X151130000Y-89980000D02*
X149670000Y-89980000D01*
%TO.C,C39*%
X134580000Y-66700000D02*
X137540000Y-66700000D01*
X134580000Y-68160000D02*
X134580000Y-66700000D01*
X137540000Y-66700000D02*
X137540000Y-68160000D01*
X137540000Y-68160000D02*
X134580000Y-68160000D01*
%TO.C,H3*%
X183730000Y-51740000D02*
G75*
G02*
X177630000Y-51740000I-3050000J0D01*
G01*
X177630000Y-51740000D02*
G75*
G02*
X183730000Y-51740000I3050000J0D01*
G01*
%TO.C,C30*%
X148976539Y-71179893D02*
X150436539Y-71179893D01*
X148976539Y-74139893D02*
X148976539Y-71179893D01*
X150436539Y-71179893D02*
X150436539Y-74139893D01*
X150436539Y-74139893D02*
X148976539Y-74139893D01*
%TO.C,R15*%
X156867500Y-84900000D02*
X159827500Y-84900000D01*
X156867500Y-86360000D02*
X156867500Y-84900000D01*
X159827500Y-84900000D02*
X159827500Y-86360000D01*
X159827500Y-86360000D02*
X156867500Y-86360000D01*
%TO.C,D2*%
X125280000Y-84670000D02*
X126580000Y-84670000D01*
X126580000Y-85570000D01*
X125280000Y-85570000D01*
X125280000Y-84670000D01*
%TO.C,C38*%
X136638307Y-68700000D02*
X139598307Y-68700000D01*
X136638307Y-70160000D02*
X136638307Y-68700000D01*
X139598307Y-68700000D02*
X139598307Y-70160000D01*
X139598307Y-70160000D02*
X136638307Y-70160000D01*
%TO.C,FB2*%
X153196540Y-75042892D02*
X156556540Y-75042892D01*
X153196540Y-76942892D02*
X153196540Y-75042892D01*
X156556540Y-75042892D02*
X156556540Y-76942892D01*
X156556540Y-76942892D02*
X153196540Y-76942892D01*
%TO.C,R9*%
X143610000Y-84927500D02*
X145070000Y-84927500D01*
X143610000Y-87887500D02*
X143610000Y-84927500D01*
X145070000Y-84927500D02*
X145070000Y-87887500D01*
X145070000Y-87887500D02*
X143610000Y-87887500D01*
%TO.C,C1*%
D11*
X159870000Y-54870000D02*
X183370000Y-54870000D01*
X159870000Y-78370000D02*
X159870000Y-54870000D01*
X183370000Y-54870000D02*
X183370000Y-78370000D01*
X183370000Y-78370000D02*
X159870000Y-78370000D01*
%TO.C,U4*%
D12*
X150525200Y-59881500D02*
X151147500Y-59881500D01*
X150525200Y-61943500D02*
X150525200Y-59881500D01*
X151147500Y-59579000D02*
X153052500Y-59579000D01*
X151147500Y-59881500D02*
X151147500Y-59579000D01*
X151147500Y-61943500D02*
X150525200Y-61943500D01*
X151147500Y-62246000D02*
X151147500Y-61943500D01*
X153052500Y-59579000D02*
X153052500Y-59881500D01*
X153052500Y-59881500D02*
X153674800Y-59881500D01*
X153052500Y-61943500D02*
X153052500Y-62246000D01*
X153052500Y-62246000D02*
X151147500Y-62246000D01*
X153674800Y-59881500D02*
X153674800Y-61943500D01*
X153674800Y-61943500D02*
X153052500Y-61943500D01*
%TO.C,C17*%
D10*
X138990000Y-71160000D02*
X141950000Y-71160000D01*
X138990000Y-72620000D02*
X138990000Y-71160000D01*
X141950000Y-71160000D02*
X141950000Y-72620000D01*
X141950000Y-72620000D02*
X138990000Y-72620000D01*
%TO.C,TP5*%
X159830000Y-55440000D02*
G75*
G02*
X157330000Y-55440000I-1250000J0D01*
G01*
X157330000Y-55440000D02*
G75*
G02*
X159830000Y-55440000I1250000J0D01*
G01*
%TO.C,TP1*%
X124010000Y-54390000D02*
G75*
G02*
X121510000Y-54390000I-1250000J0D01*
G01*
X121510000Y-54390000D02*
G75*
G02*
X124010000Y-54390000I1250000J0D01*
G01*
%TO.C,TP2*%
X127075000Y-54400000D02*
G75*
G02*
X124575000Y-54400000I-1250000J0D01*
G01*
X124575000Y-54400000D02*
G75*
G02*
X127075000Y-54400000I1250000J0D01*
G01*
%TO.C,R11*%
X145330000Y-85540000D02*
X148290000Y-85540000D01*
X145330000Y-87000000D02*
X145330000Y-85540000D01*
X148290000Y-85540000D02*
X148290000Y-87000000D01*
X148290000Y-87000000D02*
X145330000Y-87000000D01*
%TO.C,U3*%
D12*
X165822399Y-82169800D02*
X166193599Y-82169800D01*
X165822399Y-86665600D02*
X165822399Y-82169800D01*
X166193599Y-81865000D02*
X166193599Y-82169800D01*
X166193599Y-81865000D02*
X168956399Y-81865000D01*
X166193599Y-86665600D02*
X165822399Y-86665600D01*
X166193599Y-86970400D02*
X166193599Y-86665600D01*
X168956399Y-81865000D02*
X168956399Y-82169800D01*
X168956399Y-82169800D02*
X169327599Y-82169800D01*
X168956399Y-86970400D02*
X166193599Y-86970400D01*
X168956399Y-86970400D02*
X168956399Y-86665600D01*
X169327599Y-82169800D02*
X169327599Y-86665600D01*
X169327599Y-86665600D02*
X168956399Y-86665600D01*
%TO.C,J3*%
D10*
X117058825Y-88243523D02*
X121838825Y-88243523D01*
X117058825Y-93023523D02*
X117058825Y-88243523D01*
X117058825Y-93023523D02*
X121838825Y-93023523D01*
X121838825Y-93023523D02*
X121838825Y-88243523D01*
%TO.C,C19*%
X129635000Y-77990000D02*
X132595000Y-77990000D01*
X129635000Y-79450000D02*
X129635000Y-77990000D01*
X132595000Y-77990000D02*
X132595000Y-79450000D01*
X132595000Y-79450000D02*
X129635000Y-79450000D01*
%TO.C,QR\u002A\u002A\u002A\u002A\u002A*%
X109035000Y-51685000D02*
X118485000Y-51685000D01*
X109035000Y-61135000D02*
X109035000Y-51685000D01*
X118485000Y-51685000D02*
X118485000Y-61135000D01*
X118485000Y-61135000D02*
X109035000Y-61135000D01*
%TO.C,C3*%
X153796539Y-70995893D02*
X155256539Y-70995893D01*
X153796539Y-73955893D02*
X153796539Y-70995893D01*
X155256539Y-70995893D02*
X155256539Y-73955893D01*
X155256539Y-73955893D02*
X153796539Y-73955893D01*
%TO.C,R21*%
X123500000Y-67080000D02*
X126460000Y-67080000D01*
X123500000Y-68540000D02*
X123500000Y-67080000D01*
X126460000Y-67080000D02*
X126460000Y-68540000D01*
X126460000Y-68540000D02*
X123500000Y-68540000D01*
%TO.C,R16*%
X156870000Y-86820000D02*
X159830000Y-86820000D01*
X156870000Y-88280000D02*
X156870000Y-86820000D01*
X159830000Y-86820000D02*
X159830000Y-88280000D01*
X159830000Y-88280000D02*
X156870000Y-88280000D01*
%TO.C,R2*%
X133090000Y-84925000D02*
X134550000Y-84925000D01*
X133090000Y-87885000D02*
X133090000Y-84925000D01*
X134550000Y-84925000D02*
X134550000Y-87885000D01*
X134550000Y-87885000D02*
X133090000Y-87885000D01*
%TO.C,R14*%
X149670000Y-84020000D02*
X151130000Y-84020000D01*
X149670000Y-86980000D02*
X149670000Y-84020000D01*
X151130000Y-84020000D02*
X151130000Y-86980000D01*
X151130000Y-86980000D02*
X149670000Y-86980000D01*
%TO.C,R20*%
X123500000Y-65570000D02*
X126460000Y-65570000D01*
X123500000Y-67030000D02*
X123500000Y-65570000D01*
X126460000Y-65570000D02*
X126460000Y-67030000D01*
X126460000Y-67030000D02*
X123500000Y-67030000D01*
%TO.C,L1*%
X122477500Y-80930000D02*
X125437500Y-80930000D01*
X122477500Y-82390000D02*
X122477500Y-80930000D01*
X125437500Y-80930000D02*
X125437500Y-82390000D01*
X125437500Y-82390000D02*
X122477500Y-82390000D01*
%TO.C,C2*%
X153830000Y-59465000D02*
X155290000Y-59465000D01*
X153830000Y-62425000D02*
X153830000Y-59465000D01*
X155290000Y-59465000D02*
X155290000Y-62425000D01*
X155290000Y-62425000D02*
X153830000Y-62425000D01*
%TO.C,C23*%
X135990000Y-70190000D02*
X138950000Y-70190000D01*
X135990000Y-71650000D02*
X135990000Y-70190000D01*
X138950000Y-70190000D02*
X138950000Y-71650000D01*
X138950000Y-71650000D02*
X135990000Y-71650000D01*
%TO.C,R3*%
X134590000Y-84927500D02*
X136050000Y-84927500D01*
X134590000Y-87887500D02*
X134590000Y-84927500D01*
X136050000Y-84927500D02*
X136050000Y-87887500D01*
X136050000Y-87887500D02*
X134590000Y-87887500D01*
%TO.C,H2*%
X117680000Y-48530000D02*
G75*
G02*
X111580000Y-48530000I-3050000J0D01*
G01*
X111580000Y-48530000D02*
G75*
G02*
X117680000Y-48530000I3050000J0D01*
G01*
%TO.C,C33*%
X153209040Y-76972892D02*
X156569040Y-76972892D01*
X153209040Y-78872892D02*
X153209040Y-76972892D01*
X156569040Y-76972892D02*
X156569040Y-78872892D01*
X156569040Y-78872892D02*
X153209040Y-78872892D01*
%TO.C,C27*%
X153770000Y-88357500D02*
X156730000Y-88357500D01*
X153770000Y-89817500D02*
X153770000Y-88357500D01*
X156730000Y-88357500D02*
X156730000Y-89817500D01*
X156730000Y-89817500D02*
X153770000Y-89817500D01*
%TO.C,R1*%
X131580000Y-84927500D02*
X133040000Y-84927500D01*
X131580000Y-87887500D02*
X131580000Y-84927500D01*
X133040000Y-84927500D02*
X133040000Y-87887500D01*
X133040000Y-87887500D02*
X131580000Y-87887500D01*
%TO.C,C37*%
X136570000Y-75030000D02*
X139530000Y-75030000D01*
X136570000Y-76490000D02*
X136570000Y-75030000D01*
X139530000Y-75030000D02*
X139530000Y-76490000D01*
X139530000Y-76490000D02*
X136570000Y-76490000D01*
%TO.C,C15*%
X143720000Y-59938500D02*
X145180000Y-59938500D01*
X143720000Y-62898500D02*
X143720000Y-59938500D01*
X145180000Y-59938500D02*
X145180000Y-62898500D01*
X145180000Y-62898500D02*
X143720000Y-62898500D01*
%TO.C,R6*%
X139110000Y-84927500D02*
X140570000Y-84927500D01*
X139110000Y-87887500D02*
X139110000Y-84927500D01*
X140570000Y-84927500D02*
X140570000Y-87887500D01*
X140570000Y-87887500D02*
X139110000Y-87887500D01*
%TO.C,U1*%
X152650000Y-84887500D02*
X152650000Y-88287500D01*
X152650000Y-88287500D02*
X156750000Y-88287500D01*
X156750000Y-84887500D02*
X152650000Y-84887500D01*
X156750000Y-88287500D02*
X156750000Y-84887500D01*
%TO.C,R17*%
X166395000Y-88970000D02*
X169355000Y-88970000D01*
X166395000Y-90430000D02*
X166395000Y-88970000D01*
X169355000Y-88970000D02*
X169355000Y-90430000D01*
X169355000Y-90430000D02*
X166395000Y-90430000D01*
%TO.C,C25*%
X129080000Y-65620000D02*
X130540000Y-65620000D01*
X129080000Y-68580000D02*
X129080000Y-65620000D01*
X130540000Y-65620000D02*
X130540000Y-68580000D01*
X130540000Y-68580000D02*
X129080000Y-68580000D01*
%TO.C,R5*%
X137600000Y-84927500D02*
X139060000Y-84927500D01*
X137600000Y-87887500D02*
X137600000Y-84927500D01*
X139060000Y-84927500D02*
X139060000Y-87887500D01*
X139060000Y-87887500D02*
X137600000Y-87887500D01*
%TO.C,R4*%
X136090000Y-84927500D02*
X137550000Y-84927500D01*
X136090000Y-87887500D02*
X136090000Y-84927500D01*
X137550000Y-84927500D02*
X137550000Y-87887500D01*
X137550000Y-87887500D02*
X136090000Y-87887500D01*
%TO.C,H1*%
X117670000Y-96810000D02*
G75*
G02*
X111570000Y-96810000I-3050000J0D01*
G01*
X111570000Y-96810000D02*
G75*
G02*
X117670000Y-96810000I3050000J0D01*
G01*
%TO.C,U5*%
D12*
X150538739Y-71571893D02*
X151161039Y-71571893D01*
X150538739Y-73633893D02*
X150538739Y-71571893D01*
X151161039Y-71269393D02*
X153066039Y-71269393D01*
X151161039Y-71571893D02*
X151161039Y-71269393D01*
X151161039Y-73633893D02*
X150538739Y-73633893D01*
X151161039Y-73936393D02*
X151161039Y-73633893D01*
X153066039Y-71269393D02*
X153066039Y-71571893D01*
X153066039Y-71571893D02*
X153688339Y-71571893D01*
X153066039Y-73633893D02*
X153066039Y-73936393D01*
X153066039Y-73936393D02*
X151161039Y-73936393D01*
X153688339Y-71571893D02*
X153688339Y-73633893D01*
X153688339Y-73633893D02*
X153066039Y-73633893D01*
%TO.C,C5*%
D10*
X150496539Y-74168893D02*
X151956539Y-74168893D01*
X150496539Y-77128893D02*
X150496539Y-74168893D01*
X151956539Y-74168893D02*
X151956539Y-77128893D01*
X151956539Y-77128893D02*
X150496539Y-77128893D01*
%TO.C,C20*%
X134530000Y-78070000D02*
X135990000Y-78070000D01*
X134530000Y-81030000D02*
X134530000Y-78070000D01*
X135990000Y-78070000D02*
X135990000Y-81030000D01*
X135990000Y-81030000D02*
X134530000Y-81030000D01*
%TO.C,C36*%
X123520000Y-69570000D02*
X126480000Y-69570000D01*
X123520000Y-71030000D02*
X123520000Y-69570000D01*
X126480000Y-69570000D02*
X126480000Y-71030000D01*
X126480000Y-71030000D02*
X123520000Y-71030000D01*
%TO.C,R7*%
X140610000Y-84927500D02*
X142070000Y-84927500D01*
X140610000Y-87887500D02*
X140610000Y-84927500D01*
X142070000Y-84927500D02*
X142070000Y-87887500D01*
X142070000Y-87887500D02*
X140610000Y-87887500D01*
%TO.C,J1*%
X120575000Y-56815000D02*
X120575000Y-84315000D01*
X120575000Y-84315000D02*
X148075000Y-84315000D01*
X122075000Y-58315000D02*
X122075000Y-82815000D01*
X146575000Y-58315000D02*
X122075000Y-58315000D01*
X146575000Y-58315000D02*
X146575000Y-82815000D01*
X146575000Y-82815000D02*
X122075000Y-82815000D01*
X148075000Y-56815000D02*
X120575000Y-56815000D01*
X148075000Y-84315000D02*
X148075000Y-56815000D01*
%TO.C,C6*%
X148960000Y-62440000D02*
X150420000Y-62440000D01*
X148960000Y-65400000D02*
X148960000Y-62440000D01*
X150420000Y-62440000D02*
X150420000Y-65400000D01*
X150420000Y-65400000D02*
X148960000Y-65400000D01*
%TO.C,C28*%
X166395000Y-87420000D02*
X169355000Y-87420000D01*
X166395000Y-88880000D02*
X166395000Y-87420000D01*
X169355000Y-87420000D02*
X169355000Y-88880000D01*
X169355000Y-88880000D02*
X166395000Y-88880000D01*
%TO.C,C29*%
X148960000Y-59447500D02*
X150420000Y-59447500D01*
X148960000Y-62407500D02*
X148960000Y-59447500D01*
X150420000Y-59447500D02*
X150420000Y-62407500D01*
X150420000Y-62407500D02*
X148960000Y-62407500D01*
%TO.C,C12*%
X126670000Y-79320000D02*
X128130000Y-79320000D01*
X126670000Y-82280000D02*
X126670000Y-79320000D01*
X128130000Y-79320000D02*
X128130000Y-82280000D01*
X128130000Y-82280000D02*
X126670000Y-82280000D01*
%TO.C,C16*%
X130590000Y-65620000D02*
X132050000Y-65620000D01*
X130590000Y-68580000D02*
X130590000Y-65620000D01*
X132050000Y-65620000D02*
X132050000Y-68580000D01*
X132050000Y-68580000D02*
X130590000Y-68580000D01*
%TO.C,C14*%
X136365000Y-63170000D02*
X139325000Y-63170000D01*
X136365000Y-64630000D02*
X136365000Y-63170000D01*
X139325000Y-63170000D02*
X139325000Y-64630000D01*
X139325000Y-64630000D02*
X136365000Y-64630000D01*
%TO.C,R10*%
X136000000Y-71910000D02*
X138960000Y-71910000D01*
X136000000Y-73370000D02*
X136000000Y-71910000D01*
X138960000Y-71910000D02*
X138960000Y-73370000D01*
X138960000Y-73370000D02*
X136000000Y-73370000D01*
%TO.C,C34*%
X153216540Y-78902892D02*
X156576540Y-78902892D01*
X153216540Y-80802892D02*
X153216540Y-78902892D01*
X156576540Y-78902892D02*
X156576540Y-80802892D01*
X156576540Y-80802892D02*
X153216540Y-80802892D01*
%TO.C,TP3*%
X130230000Y-54390000D02*
G75*
G02*
X127730000Y-54390000I-1250000J0D01*
G01*
X127730000Y-54390000D02*
G75*
G02*
X130230000Y-54390000I1250000J0D01*
G01*
%TO.C,TP4*%
X144850000Y-69640000D02*
G75*
G02*
X142850000Y-69640000I-1000000J0D01*
G01*
X142850000Y-69640000D02*
G75*
G02*
X144850000Y-69640000I1000000J0D01*
G01*
%TO.C,C32*%
X153217500Y-67160000D02*
X156577500Y-67160000D01*
X153217500Y-69060000D02*
X153217500Y-67160000D01*
X156577500Y-67160000D02*
X156577500Y-69060000D01*
X156577500Y-69060000D02*
X153217500Y-69060000D01*
%TO.C,R12*%
X145330000Y-88580000D02*
X148290000Y-88580000D01*
X145330000Y-90040000D02*
X145330000Y-88580000D01*
X148290000Y-88580000D02*
X148290000Y-90040000D01*
X148290000Y-90040000D02*
X145330000Y-90040000D01*
%TO.C,C35*%
X167370000Y-78720000D02*
X168830000Y-78720000D01*
X167370000Y-81680000D02*
X167370000Y-78720000D01*
X168830000Y-78720000D02*
X168830000Y-81680000D01*
X168830000Y-81680000D02*
X167370000Y-81680000D01*
%TO.C,D1*%
X119330000Y-79530000D02*
X120230000Y-79530000D01*
X120230000Y-80830000D01*
X119330000Y-80830000D01*
X119330000Y-79530000D01*
%TO.C,J2*%
X100210000Y-93020000D02*
X100210000Y-84420000D01*
X100210000Y-93020000D02*
X116510000Y-93020000D01*
X116510000Y-84420000D02*
X100210000Y-84420000D01*
X116510000Y-84420000D02*
X116510000Y-93020000D01*
%TD*%
M02*
