%TF.GenerationSoftware,KiCad,Pcbnew,10.0.6*%
%TF.CreationDate,2026-10-07T11:03:35-06:00*%
%TF.ProjectId,L1IFCape,4c314946-4361-4706-952e-6b696361645f,D*%
%TF.SameCoordinates,Original*%
%TF.FileFunction,Copper,L3,Inr*%
%TF.FilePolarity,Positive*%
%FSLAX46Y46*%
G04 Gerber Fmt 4.6, Leading zero omitted, Abs format (unit mm)*
G04 Created by KiCad (PCBNEW 10.0.6) date 2026-10-07 11:03:35*
%MOMM*%
%LPD*%
G01*
G04 APERTURE LIST*
G04 Aperture macros list*
%AMOutline5P*
0 Free polygon, 5 corners , with rotation*
0 The origin of the aperture is its center*
0 number of corners: always 5*
0 $1 to $10 corner X, Y*
0 $11 Rotation angle, in degrees counterclockwise*
0 create outline with 5 corners*
4,1,5,$1,$2,$3,$4,$5,$6,$7,$8,$9,$10,$1,$2,$11*%
%AMOutline6P*
0 Free polygon, 6 corners , with rotation*
0 The origin of the aperture is its center*
0 number of corners: always 6*
0 $1 to $12 corner X, Y*
0 $13 Rotation angle, in degrees counterclockwise*
0 create outline with 6 corners*
4,1,6,$1,$2,$3,$4,$5,$6,$7,$8,$9,$10,$11,$12,$1,$2,$13*%
%AMOutline7P*
0 Free polygon, 7 corners , with rotation*
0 The origin of the aperture is its center*
0 number of corners: always 7*
0 $1 to $14 corner X, Y*
0 $15 Rotation angle, in degrees counterclockwise*
0 create outline with 7 corners*
4,1,7,$1,$2,$3,$4,$5,$6,$7,$8,$9,$10,$11,$12,$13,$14,$1,$2,$15*%
%AMOutline8P*
0 Free polygon, 8 corners , with rotation*
0 The origin of the aperture is its center*
0 number of corners: always 8*
0 $1 to $16 corner X, Y*
0 $17 Rotation angle, in degrees counterclockwise*
0 create outline with 8 corners*
4,1,8,$1,$2,$3,$4,$5,$6,$7,$8,$9,$10,$11,$12,$13,$14,$15,$16,$1,$2,$17*%
G04 Aperture macros list end*
%TA.AperFunction,ComponentPad*%
%ADD10R,1.700000X1.700000*%
%TD*%
%TA.AperFunction,ComponentPad*%
%ADD11O,1.700000X1.700000*%
%TD*%
%TA.AperFunction,ComponentPad*%
%ADD12C,5.600000*%
%TD*%
%TA.AperFunction,ComponentPad*%
%ADD13Outline5P,-0.406250X0.243750X-0.243750X0.406250X0.406250X0.406250X0.406250X-0.406250X-0.406250X-0.406250X90.000000*%
%TD*%
%TA.AperFunction,ComponentPad*%
%ADD14R,0.812500X0.812500*%
%TD*%
%TA.AperFunction,ComponentPad*%
%ADD15R,2.475000X2.475000*%
%TD*%
%TA.AperFunction,ComponentPad*%
%ADD16C,2.475000*%
%TD*%
%TA.AperFunction,ComponentPad*%
%ADD17C,1.500000*%
%TD*%
%TA.AperFunction,ComponentPad*%
%ADD18C,0.600000*%
%TD*%
%TA.AperFunction,ComponentPad*%
%ADD19C,1.240000*%
%TD*%
%TA.AperFunction,ViaPad*%
%ADD20C,0.600000*%
%TD*%
%TA.AperFunction,Conductor*%
%ADD21C,0.200000*%
%TD*%
%TA.AperFunction,Conductor*%
%ADD22C,0.300000*%
%TD*%
%TA.AperFunction,Conductor*%
%ADD23C,0.500000*%
%TD*%
%TA.AperFunction,Conductor*%
%ADD24C,0.350000*%
%TD*%
G04 APERTURE END LIST*
D10*
%TO.N,GND*%
%TO.C,P8*%
X119685000Y-49835000D03*
D11*
X119685000Y-47295000D03*
%TO.N,/GPIO_2.0 LED.0*%
X122225000Y-49835000D03*
%TO.N,/GPIO_2.1 LED.1*%
X122225000Y-47295000D03*
%TO.N,/GPIO_2.2 LED.2*%
X124765000Y-49835000D03*
%TO.N,/GPIO_2.3 LED.3*%
X124765000Y-47295000D03*
%TO.N,/Blinky    LED.4*%
X127305000Y-49835000D03*
%TO.N,/ANTFLAG*%
X127305000Y-47295000D03*
%TO.N,/SPC_IRQ  LED.6*%
X129845000Y-49835000D03*
%TO.N,/LD*%
X129845000Y-47295000D03*
%TO.N,/PPS      LED.8*%
X132385000Y-49835000D03*
%TO.N,/~{SHDN}*%
X132385000Y-47295000D03*
%TO.N,/PWM_2:1*%
X134925000Y-49835000D03*
%TO.N,/~{IDLE}*%
X134925000Y-47295000D03*
%TO.N,/HSIO34NB0*%
X137465000Y-49835000D03*
%TO.N,/CCC_NW_CLKIN_N_1*%
X137465000Y-47295000D03*
%TO.N,/HSIO29PB0*%
X140005000Y-49835000D03*
%TO.N,/CCC_NE_PLL1_OUT0*%
X140005000Y-47295000D03*
%TO.N,/PWM_2:0*%
X142545000Y-49835000D03*
%TO.N,/HSIO15NB0{slash}DQS*%
X142545000Y-47295000D03*
%TO.N,/SI0L*%
X145085000Y-49835000D03*
%TO.N,/SI1L*%
X145085000Y-47295000D03*
%TO.N,/SQ1L*%
X147625000Y-49835000D03*
%TO.N,/SQ0L*%
X147625000Y-47295000D03*
%TO.N,unconnected-(P8-Pin_25-Pad25)*%
X150165000Y-49835000D03*
%TO.N,unconnected-(P8-Pin_26-Pad26)*%
X150165000Y-47295000D03*
%TO.N,unconnected-(P8-Pin_27-Pad27)*%
X152705000Y-49835000D03*
%TO.N,unconnected-(P8-Pin_28-Pad28)*%
X152705000Y-47295000D03*
%TO.N,unconnected-(P8-Pin_29-Pad29)*%
X155245000Y-49835000D03*
%TO.N,/GPIO50NB1{slash}DQS*%
X155245000Y-47295000D03*
%TO.N,/GPIO50PB1{slash}DQS*%
X157785000Y-49835000D03*
%TO.N,/GPIO53NB1*%
X157785000Y-47295000D03*
%TO.N,/BBClk*%
X160325000Y-49835000D03*
%TO.N,/GPIO52NB1{slash}LPRB_B*%
X160325000Y-47295000D03*
%TO.N,/SI0H*%
X162865000Y-49835000D03*
%TO.N,/SI1H*%
X162865000Y-47295000D03*
%TO.N,/SQ0H*%
X165405000Y-49835000D03*
%TO.N,/SQ1H*%
X165405000Y-47295000D03*
%TO.N,/CCC_SE_CLKIN_S_10*%
X167945000Y-49835000D03*
%TO.N,/GPIO5NB1*%
X167945000Y-47295000D03*
%TO.N,/CCC_SE_CLKIN_S_11*%
X170485000Y-49835000D03*
%TO.N,/GPIO36NB1*%
X170485000Y-47295000D03*
%TO.N,/CCC_SW_CLKIN_S_0*%
X173025000Y-49835000D03*
%TO.N,/GPIO42NB1*%
X173025000Y-47295000D03*
%TO.N,/GPIO42PB1*%
X175565000Y-49835000D03*
%TO.N,/CCC_SE_PLL1_OUT1*%
X175565000Y-47295000D03*
%TD*%
D10*
%TO.N,GND*%
%TO.C,P9*%
X119685000Y-98095000D03*
D11*
X119685000Y-95555000D03*
%TO.N,+3V3*%
X122225000Y-98095000D03*
X122225000Y-95555000D03*
%TO.N,+5V*%
X124765000Y-98095000D03*
X124765000Y-95555000D03*
%TO.N,VBUS*%
X127305000Y-98095000D03*
X127305000Y-95555000D03*
%TO.N,/HSIO19PB0*%
X129845000Y-98095000D03*
%TO.N,/~{SYS_RESET}*%
X129845000Y-95555000D03*
%TO.N,/MMUART4 RX*%
X132385000Y-98095000D03*
%TO.N,/GPIO38PB1{slash}DQS*%
X132385000Y-95555000D03*
%TO.N,/MMUART4 TX*%
X134925000Y-98095000D03*
%TO.N,/core_pwm(0)*%
X134925000Y-95555000D03*
%TO.N,/GPIO40NB1*%
X137465000Y-98095000D03*
%TO.N,/core_pwm(1)*%
X137465000Y-95555000D03*
%TO.N,/SPI0.CS0*%
X140005000Y-98095000D03*
%TO.N,/SPI0.SDO*%
X140005000Y-95555000D03*
%TO.N,/I2C0.SCL*%
X142545000Y-98095000D03*
%TO.N,/I2C0.SDA*%
X142545000Y-95555000D03*
%TO.N,/SPI0.SDI*%
X145085000Y-98095000D03*
%TO.N,/SPI0.SCL*%
X145085000Y-95555000D03*
%TO.N,/SPI0.CS1*%
X147625000Y-98095000D03*
%TO.N,/CAN1.RX*%
X147625000Y-95555000D03*
%TO.N,/GPIO41NB1*%
X150165000Y-98095000D03*
%TO.N,/CAN1.TX*%
X150165000Y-95555000D03*
%TO.N,/GPIO46NB1*%
X152705000Y-98095000D03*
%TO.N,/SPI1.CS0*%
X152705000Y-95555000D03*
%TO.N,/SPI1.SDI*%
X155245000Y-98095000D03*
%TO.N,/SPI1.SDO*%
X155245000Y-95555000D03*
%TO.N,/SPI1.SCL*%
X157785000Y-98095000D03*
%TO.N,+1V8*%
X157785000Y-95555000D03*
%TO.N,/AIN4*%
X160325000Y-98095000D03*
%TO.N,/AGND*%
X160325000Y-95555000D03*
%TO.N,/AIN6*%
X162865000Y-98095000D03*
%TO.N,/AIN5*%
X162865000Y-95555000D03*
%TO.N,/AIN2*%
X165405000Y-98095000D03*
%TO.N,/AIN3*%
X165405000Y-95555000D03*
%TO.N,/AIN0*%
X167945000Y-98095000D03*
%TO.N,/AIN1*%
X167945000Y-95555000D03*
%TO.N,/~{RTC_INTR}*%
X170485000Y-98095000D03*
%TO.N,/PWM_0:0*%
X170485000Y-95555000D03*
%TO.N,GND*%
X173025000Y-98095000D03*
X173025000Y-95555000D03*
X175565000Y-98095000D03*
X175565000Y-95555000D03*
%TD*%
D12*
%TO.N,GND*%
%TO.C,H4*%
X180640000Y-93650000D03*
%TD*%
D13*
%TO.N,GND*%
%TO.C,U2*%
X129920250Y-74367750D03*
D14*
X130732750Y-74367750D03*
X131545250Y-74367750D03*
X132357750Y-74367750D03*
X129920250Y-73555250D03*
X130732750Y-73555250D03*
X131545250Y-73555250D03*
X132357750Y-73555250D03*
X129920250Y-72742750D03*
X130732750Y-72742750D03*
X131545250Y-72742750D03*
X132357750Y-72742750D03*
X129920250Y-71930250D03*
X130732750Y-71930250D03*
X131545250Y-71930250D03*
X132357750Y-71930250D03*
%TD*%
D12*
%TO.N,GND*%
%TO.C,H3*%
X180680000Y-51740000D03*
%TD*%
D15*
%TO.N,Net-(U3-VBAT)*%
%TO.C,C1*%
X171620000Y-69120000D03*
D16*
%TO.N,GND*%
X171620000Y-64120000D03*
%TD*%
D17*
%TO.N,/BBClk*%
%TO.C,TP5*%
X158580000Y-55440000D03*
%TD*%
%TO.N,/ANTFLAG*%
%TO.C,TP1*%
X122760000Y-54390000D03*
%TD*%
%TO.N,/LD*%
%TO.C,TP2*%
X125825000Y-54400000D03*
%TD*%
D18*
%TO.N,GND*%
%TO.C,U3*%
X166924999Y-85217700D03*
X167604999Y-85217700D03*
X168264999Y-85217700D03*
X167574999Y-84417700D03*
X166934999Y-84407700D03*
X168254999Y-84397700D03*
X167634999Y-83637700D03*
X168294999Y-83617700D03*
X166934999Y-83607700D03*
%TD*%
D19*
%TO.N,/Passive*%
%TO.C,J3*%
X109930000Y-92310000D03*
%TO.N,GND*%
X108660000Y-91040000D03*
X108660000Y-93580000D03*
X111200000Y-91040000D03*
X111200000Y-93580000D03*
%TD*%
D12*
%TO.N,GND*%
%TO.C,H2*%
X114630000Y-48530000D03*
%TD*%
%TO.N,GND*%
%TO.C,H1*%
X114620000Y-96810000D03*
%TD*%
D17*
%TO.N,/~{SHDN}*%
%TO.C,TP3*%
X128980000Y-54390000D03*
%TD*%
D20*
%TO.N,GND*%
X126990000Y-57560000D03*
X121320000Y-59060000D03*
X124225000Y-70300000D03*
X147330000Y-70565000D03*
X150090000Y-65080000D03*
X121320000Y-60560000D03*
X151630000Y-76800000D03*
X131730000Y-65940000D03*
X153280000Y-58330000D03*
X134325000Y-83570000D03*
X134150000Y-80700000D03*
X154120000Y-71320000D03*
X140160000Y-83570000D03*
X138620000Y-71315000D03*
X130988000Y-81204000D03*
X138640000Y-73870000D03*
X139280000Y-69840000D03*
X153280000Y-59140000D03*
X126600000Y-85135656D03*
X147330000Y-59060000D03*
X128870000Y-81565000D03*
X128490000Y-83570000D03*
X159317500Y-84680000D03*
X153540000Y-68730000D03*
X121320000Y-64730000D03*
X154930000Y-71320000D03*
X126990000Y-83570000D03*
X144480000Y-60030000D03*
X124225000Y-71806000D03*
X121320000Y-57560000D03*
X141660000Y-57560000D03*
X139380000Y-59340000D03*
X151600000Y-65080000D03*
X147330000Y-69065000D03*
X141660000Y-83570000D03*
X132825000Y-57560000D03*
X121320000Y-80570000D03*
X144910000Y-60380000D03*
X150820000Y-76800000D03*
X141630000Y-72970000D03*
X134325000Y-57560000D03*
X145830000Y-57560000D03*
X119790000Y-80840000D03*
X137220000Y-65530000D03*
X138660000Y-57560000D03*
X121320000Y-66230000D03*
X149300000Y-76820000D03*
X121320000Y-82070000D03*
X153270000Y-70040000D03*
X121320000Y-77900000D03*
X147330000Y-77900000D03*
X153530000Y-78550000D03*
X135825000Y-57560000D03*
X121320000Y-74900000D03*
X123820000Y-71410000D03*
X129990000Y-57560000D03*
X124320000Y-57560000D03*
X147330000Y-82070000D03*
X137230000Y-66340000D03*
X136820000Y-84820000D03*
X147330000Y-83570000D03*
X152450000Y-86600000D03*
X138640000Y-74690000D03*
X169200000Y-79400000D03*
X143990000Y-60390000D03*
X129990000Y-83570000D03*
X135825000Y-83570000D03*
X154150000Y-59790000D03*
X138380000Y-59340000D03*
X135670000Y-80700000D03*
X169350000Y-81750000D03*
X138630000Y-70510000D03*
X147330000Y-57560000D03*
X153270000Y-70850000D03*
X153530000Y-77290000D03*
X121320000Y-72065000D03*
X169675000Y-88150000D03*
X121320000Y-83570000D03*
X150800000Y-65070000D03*
X122820000Y-57560000D03*
X138849600Y-59870400D03*
X130220000Y-65940000D03*
X132825000Y-83570000D03*
X149290000Y-65070000D03*
X141630000Y-73780000D03*
X129400000Y-65940000D03*
X123830000Y-70710000D03*
X127400000Y-81575000D03*
X141620000Y-72290000D03*
X153540000Y-79220000D03*
X121320000Y-69065000D03*
X123830000Y-69890000D03*
X144330000Y-57560000D03*
X121320000Y-70565000D03*
X130910000Y-65940000D03*
X137220000Y-67020000D03*
X147330000Y-66230000D03*
X121320000Y-63230000D03*
X128490000Y-57560000D03*
X133340000Y-80700000D03*
X144330000Y-83570000D03*
X147330000Y-64730000D03*
X153540000Y-67490000D03*
X138660000Y-83570000D03*
X140160000Y-57560000D03*
X121320000Y-76400000D03*
X147330000Y-80570000D03*
X153540000Y-65550000D03*
X122820000Y-83570000D03*
X132258000Y-81204000D03*
X147330000Y-76400000D03*
X124320000Y-83570000D03*
X139280000Y-69020000D03*
X154970000Y-59790000D03*
X139210000Y-75340000D03*
X150110000Y-76810000D03*
X145830000Y-83570000D03*
X153550000Y-66790000D03*
X135320000Y-84790000D03*
X137220000Y-67840000D03*
X141620000Y-71490000D03*
X153540000Y-80480000D03*
X133820000Y-84810000D03*
X139220000Y-75945000D03*
X134860000Y-80710000D03*
X131242000Y-79680000D03*
%TO.N,/ANTFLAG*%
X125230000Y-75290000D03*
%TO.N,/LD*%
X144396232Y-76353768D03*
X137140000Y-80810000D03*
%TO.N,/~{SHDN}*%
X139490191Y-81119809D03*
X145920000Y-80240000D03*
%TO.N,/~{IDLE}*%
X123140000Y-59990000D03*
%TO.N,/BBClk*%
X137030000Y-59710000D03*
%TO.N,/SI0H*%
X124190000Y-65380000D03*
%TO.N,/SI1H*%
X123220000Y-67800000D03*
%TO.N,/SQ0H*%
X128780000Y-64580000D03*
%TO.N,/SQ1H*%
X128950000Y-62280000D03*
%TO.N,+3V3*%
X166060000Y-88150000D03*
X155837500Y-66180000D03*
X156430000Y-86980000D03*
X160070000Y-87550000D03*
X155834040Y-79852892D03*
X149520000Y-88460000D03*
X155835000Y-68110000D03*
X155837500Y-64260000D03*
X155814040Y-75992892D03*
X149500000Y-86540000D03*
X155826540Y-77922892D03*
X156730000Y-89780000D03*
X166250000Y-90280000D03*
%TO.N,/SPI0.CS0*%
X144940000Y-92150000D03*
%TO.N,/SPI0.SDO*%
X142870000Y-92320000D03*
%TO.N,/2V85D*%
X129400000Y-67320000D03*
X137870000Y-85630000D03*
X129410000Y-68250000D03*
X144480000Y-62180000D03*
X149050000Y-61160000D03*
X148810000Y-61700000D03*
X131730000Y-67290000D03*
X134900000Y-65530000D03*
X135780000Y-65520000D03*
X134900000Y-67840000D03*
X131800000Y-85630000D03*
X131652893Y-68202893D03*
X140320000Y-85630000D03*
X135770000Y-67830000D03*
X152520000Y-65500000D03*
X144880000Y-62590000D03*
X144870000Y-61740000D03*
X149160000Y-62180000D03*
%TO.N,/SCL.I2C0*%
X141858633Y-59340000D03*
X154380000Y-55400000D03*
X142880000Y-55790000D03*
%TO.N,/SDA.I2C0*%
X143745615Y-61406829D03*
X156290000Y-55925000D03*
X164780000Y-81055000D03*
X164740000Y-83220000D03*
X143690000Y-55925000D03*
%TO.N,/2V85A*%
X126160000Y-71800000D03*
X134520000Y-77920000D03*
X136890000Y-75945000D03*
X136960000Y-69440000D03*
X137850000Y-69420000D03*
X125490000Y-72124000D03*
X137160000Y-73870000D03*
X134160000Y-78390000D03*
X137790000Y-75945000D03*
X149300000Y-73970000D03*
X136302500Y-71312500D03*
X131860000Y-77170000D03*
X148950000Y-73490000D03*
X133750000Y-78775000D03*
X149190000Y-72950000D03*
X136330000Y-73880000D03*
X135285000Y-78775000D03*
X134860000Y-78400000D03*
X126170000Y-69890000D03*
X125320000Y-69900000D03*
X137200000Y-71330000D03*
%TO.N,/ANTBIAS*%
X129420000Y-80010000D03*
X127000000Y-80470000D03*
X129315000Y-77780000D03*
X124310000Y-82070000D03*
%TO.N,/SDATA*%
X143770000Y-81960000D03*
X142080000Y-88400000D03*
X141860000Y-81650000D03*
X139840000Y-88420000D03*
%TO.N,/~{SPICS}*%
X145685018Y-88204982D03*
X135310000Y-88200000D03*
%TO.N,/PGM*%
X128580000Y-85580000D03*
X124030000Y-77040000D03*
%TD*%
%TO.N,/ANTFLAG*%
D21*
X120670000Y-55082132D02*
X120670000Y-72640000D01*
X123320000Y-54560000D02*
X121206274Y-54560000D01*
X123370000Y-73820000D02*
X124564228Y-75014228D01*
X121504680Y-73410000D02*
X122380172Y-73410000D01*
X120670000Y-72640000D02*
G75*
G03*
X120882125Y-73152139I724300J0D01*
G01*
X121206274Y-54560000D02*
G75*
G03*
X120820008Y-54720008I26J-546300D01*
G01*
X122380172Y-73410000D02*
G75*
G02*
X123370008Y-73819992I28J-1399800D01*
G01*
X124564228Y-75014228D02*
G75*
G03*
X125230000Y-75290013I665772J665728D01*
G01*
X120882132Y-73152132D02*
G75*
G03*
X121504680Y-73410019I622568J622532D01*
G01*
X120820000Y-54720000D02*
G75*
G03*
X120670013Y-55082132I362100J-362100D01*
G01*
%TO.N,/LD*%
X144396232Y-76353768D02*
X144396232Y-79251401D01*
X144140000Y-79870000D02*
X144118198Y-79891802D01*
X143350000Y-80210000D02*
X138010000Y-80210000D01*
X137549081Y-80400919D02*
X137140000Y-80810000D01*
X144118198Y-79891802D02*
G75*
G02*
X143350000Y-80209999I-768198J768202D01*
G01*
X138010000Y-80210000D02*
G75*
G03*
X137549089Y-80400927I0J-651800D01*
G01*
X144396232Y-79251401D02*
G75*
G02*
X144140000Y-79870000I-874832J1D01*
G01*
%TO.N,/~{SHDN}*%
X141190000Y-80870000D02*
X141252929Y-80807071D01*
X141656274Y-80640000D02*
X145230000Y-80640000D01*
X139490191Y-81119809D02*
X140586908Y-81119809D01*
X145725061Y-80434939D02*
X145920000Y-80240000D01*
X141252929Y-80807071D02*
G75*
G02*
X141656274Y-80639977I403371J-403329D01*
G01*
X145230000Y-80640000D02*
G75*
G03*
X145725056Y-80434934I0J700100D01*
G01*
X140586908Y-81119809D02*
G75*
G03*
X141189998Y-80869998I-8J852909D01*
G01*
%TO.N,/~{IDLE}*%
X133968701Y-48251300D02*
X134925000Y-47295000D01*
X123140000Y-59990000D02*
X126492053Y-56637947D01*
X127320000Y-56295000D02*
X128670000Y-56295000D01*
X129685728Y-55874271D02*
X133388873Y-52171127D01*
X133700000Y-51420000D02*
X133700000Y-48900000D01*
X128670000Y-56295000D02*
G75*
G03*
X129685737Y-55874280I0J1436500D01*
G01*
X126492053Y-56637947D02*
G75*
G02*
X127320000Y-56295002I827947J-827953D01*
G01*
X133700000Y-48900000D02*
G75*
G02*
X133968701Y-48251300I917400J0D01*
G01*
X133388873Y-52171127D02*
G75*
G03*
X133699987Y-51420000I-751173J751127D01*
G01*
%TO.N,/BBClk*%
D22*
X137740000Y-56500000D02*
X157520000Y-56500000D01*
X137030000Y-59710000D02*
X137030000Y-57210000D01*
X157520000Y-56500000D02*
G75*
G03*
X158580000Y-55440000I0J1060000D01*
G01*
X137740000Y-56500000D02*
G75*
G03*
X137030000Y-57210000I0J-710000D01*
G01*
%TO.N,/SI0H*%
D21*
X130640000Y-58180000D02*
X131160000Y-57660000D01*
X135950330Y-52650000D02*
X161880000Y-52650000D01*
X162865000Y-51665000D02*
X162865000Y-49835000D01*
X124190000Y-64370000D02*
X124190000Y-65380000D01*
X131625061Y-56444939D02*
X135045000Y-53025000D01*
X130035062Y-58430000D02*
X130036447Y-58430000D01*
X124592512Y-63398250D02*
X129225381Y-58765381D01*
X131420000Y-57032304D02*
X131420000Y-56940000D01*
X124190000Y-64370000D02*
G75*
G02*
X124592504Y-63398242I1374300J0D01*
G01*
X135045000Y-53025000D02*
G75*
G02*
X135950330Y-52650012I905300J-905300D01*
G01*
X161880000Y-52650000D02*
G75*
G03*
X162865000Y-51665000I0J985000D01*
G01*
X130036447Y-58430000D02*
G75*
G03*
X130639986Y-58179986I-47J853600D01*
G01*
X131160000Y-57660000D02*
G75*
G03*
X131420002Y-57032304I-627700J627700D01*
G01*
X131420000Y-56940000D02*
G75*
G02*
X131625066Y-56444944I700100J0D01*
G01*
X129225381Y-58765381D02*
G75*
G02*
X130035062Y-58429984I809719J-809719D01*
G01*
%TO.N,/SI1H*%
X123730858Y-63076680D02*
X134398769Y-52408769D01*
X161600000Y-51190000D02*
X161600000Y-49802641D01*
X135264914Y-52050000D02*
X160740000Y-52050000D01*
X123220000Y-67800000D02*
X123220000Y-64310000D01*
X161600000Y-49802641D02*
G75*
G02*
X162478660Y-47681300I3000000J41D01*
G01*
X160740000Y-52050000D02*
G75*
G03*
X161600000Y-51190000I0J860000D01*
G01*
X123220000Y-64310000D02*
G75*
G02*
X123730853Y-63076675I1744200J0D01*
G01*
X134398769Y-52408769D02*
G75*
G02*
X135264914Y-52050006I866131J-866131D01*
G01*
%TO.N,/SQ0H*%
X132452132Y-56267868D02*
X135060000Y-53660000D01*
X132240000Y-57031153D02*
X132240000Y-56780000D01*
X130848805Y-58740814D02*
X132014810Y-57574810D01*
X129883348Y-58935000D02*
X130380000Y-58935000D01*
X135941188Y-53295000D02*
X164065000Y-53295000D01*
X128562616Y-59887767D02*
X129255191Y-59195191D01*
X128425000Y-63830000D02*
X128425000Y-60220000D01*
X165405000Y-52019537D02*
X165405000Y-49835000D01*
X164065000Y-53295000D02*
X164130069Y-53294468D01*
X128704307Y-64504307D02*
X128780000Y-64580000D01*
X132014810Y-57574810D02*
G75*
G03*
X132239981Y-57031153I-543610J543610D01*
G01*
X129255191Y-59195191D02*
G75*
G02*
X129883348Y-58934978I628209J-628209D01*
G01*
X128425000Y-63830000D02*
G75*
G03*
X128704310Y-64504304I953600J0D01*
G01*
X164130069Y-53294468D02*
G75*
G03*
X165405068Y-52019537I31J1274968D01*
G01*
X130380000Y-58935000D02*
G75*
G03*
X130848807Y-58740816I0J663000D01*
G01*
X132240000Y-56780000D02*
G75*
G02*
X132452125Y-56267861I724300J0D01*
G01*
X128425000Y-60220000D02*
G75*
G02*
X128562626Y-59887777I469800J0D01*
G01*
X135060000Y-53660000D02*
G75*
G02*
X135941188Y-53294995I881200J-881200D01*
G01*
%TO.N,/SQ1H*%
X136758857Y-56667929D02*
X136798397Y-56618347D01*
X165562565Y-53081320D02*
X165811321Y-52832564D01*
X129982340Y-59260000D02*
X135772538Y-59260000D01*
X129110000Y-59800000D02*
X129415000Y-59495000D01*
X136820504Y-56595611D02*
X139168057Y-54248057D01*
X136798397Y-56618347D02*
X136820504Y-56595611D01*
X136697600Y-56778762D02*
X136725117Y-56721625D01*
X139863488Y-53960000D02*
X163441244Y-53960000D01*
X136655437Y-56963464D02*
X136662540Y-56900446D01*
X136662540Y-56900446D02*
X136676654Y-56838620D01*
X166690000Y-50711244D02*
X166690000Y-49822641D01*
X136655000Y-56995173D02*
X136655437Y-56963464D01*
X136676654Y-56838620D02*
X136697600Y-56778762D01*
X136725117Y-56721625D02*
X136758857Y-56667929D01*
X136655000Y-58350000D02*
X136655000Y-56995173D01*
X128950000Y-62280000D02*
X128950000Y-60186274D01*
X135772538Y-59260000D02*
G75*
G03*
X136382747Y-59007219I-38J863000D01*
G01*
X139168057Y-54248057D02*
G75*
G02*
X139863488Y-53959995I695443J-695443D01*
G01*
X165811321Y-52832564D02*
G75*
G03*
X166690031Y-50711244I-2121321J2121364D01*
G01*
X136382764Y-59007236D02*
G75*
G03*
X136654992Y-58350000I-657264J657236D01*
G01*
X166690000Y-49822641D02*
G75*
G03*
X165811340Y-47701300I-3000000J41D01*
G01*
X129415000Y-59495000D02*
G75*
G02*
X129982340Y-59260017I567300J-567300D01*
G01*
X163441244Y-53960000D02*
G75*
G03*
X165562543Y-53081298I-44J3000000D01*
G01*
X128950000Y-60186274D02*
G75*
G02*
X129110008Y-59800008I546300J-26D01*
G01*
%TO.N,+3V3*%
D23*
X122225000Y-95555000D02*
X122225000Y-93655000D01*
X122225000Y-98095000D02*
X122225000Y-95555000D01*
X122225000Y-93655000D02*
X122430000Y-93450000D01*
%TO.N,/SPI0.CS0*%
D21*
X141240000Y-95220000D02*
X141240000Y-96400000D01*
X144940000Y-92150000D02*
X144590919Y-92499081D01*
X141600624Y-94349375D02*
X142934731Y-93015269D01*
X144130000Y-92690000D02*
X143720000Y-92690000D01*
X140914731Y-97185269D02*
X140005000Y-98095000D01*
X141240000Y-96400000D02*
G75*
G02*
X140914723Y-97185261I-1110500J0D01*
G01*
X144590919Y-92499081D02*
G75*
G02*
X144130000Y-92690011I-460919J460881D01*
G01*
X141600624Y-94349375D02*
G75*
G03*
X141239985Y-95220000I870576J-870625D01*
G01*
X143720000Y-92690000D02*
G75*
G03*
X142934739Y-93015277I0J-1110500D01*
G01*
%TO.N,/SPI0.SDO*%
X142870000Y-92320000D02*
X140005000Y-95185000D01*
%TO.N,/2V85D*%
D24*
X152520000Y-65500000D02*
X152520000Y-79670000D01*
X137870000Y-85630000D02*
X131800000Y-85630000D01*
D22*
X144870000Y-61790000D02*
X144870000Y-61740000D01*
X144480000Y-62190000D02*
X144880000Y-62590000D01*
X144480000Y-62180000D02*
X144870000Y-61790000D01*
X144480000Y-62180000D02*
X144480000Y-62190000D01*
D23*
X148810000Y-61700000D02*
X148810000Y-61830000D01*
D24*
X138660000Y-85630000D02*
X137870000Y-85630000D01*
D23*
X148810000Y-61400000D02*
X149050000Y-61160000D01*
X148810000Y-61700000D02*
X148810000Y-61400000D01*
D24*
X138660000Y-85630000D02*
X140320000Y-85630000D01*
D23*
X148810000Y-61830000D02*
X149160000Y-62180000D01*
D24*
X146560000Y-85630000D02*
X140320000Y-85630000D01*
X152520000Y-79670000D02*
G75*
G02*
X146560000Y-85630000I-5960000J0D01*
G01*
%TO.N,/SCL.I2C0*%
D21*
X142880000Y-55790000D02*
X143126785Y-55543215D01*
X143472537Y-55400000D02*
X154380000Y-55400000D01*
X143126785Y-55543215D02*
G75*
G02*
X143472537Y-55400036I345715J-345785D01*
G01*
%TO.N,/SDA.I2C0*%
D22*
X164740000Y-81095000D02*
X164780000Y-81055000D01*
X164740000Y-83220000D02*
X164740000Y-81095000D01*
D21*
X143690000Y-55925000D02*
X156290000Y-55925000D01*
%TO.N,/2V85A*%
D22*
X133770000Y-77170000D02*
X131860000Y-77170000D01*
X134520000Y-77920000D02*
G75*
G03*
X133770000Y-77170000I-750000J0D01*
G01*
%TO.N,/ANTBIAS*%
D24*
X128870000Y-79460000D02*
X128870000Y-78225000D01*
X125400000Y-82070000D02*
X124310000Y-82070000D01*
X128870000Y-78225000D02*
G75*
G02*
X129315000Y-77780000I445000J0D01*
G01*
X127000000Y-80470000D02*
G75*
G02*
X125400000Y-82070000I-1600000J0D01*
G01*
X129420000Y-80010000D02*
G75*
G02*
X128870000Y-79460000I0J550000D01*
G01*
%TO.N,/SDATA*%
D21*
X143728700Y-81918701D02*
X143770000Y-81960000D01*
X142060000Y-88420000D02*
X142080000Y-88400000D01*
X141860000Y-81650000D02*
X143080000Y-81650000D01*
X139840000Y-88420000D02*
X142060000Y-88420000D01*
X143080000Y-81650000D02*
G75*
G02*
X143728700Y-81918701I0J-917400D01*
G01*
%TO.N,/~{SPICS}*%
X144767903Y-86817904D02*
X145460000Y-87510000D01*
X135310000Y-87963970D02*
X135310000Y-88200000D01*
X145685018Y-88053242D02*
X145685018Y-88204982D01*
X143590000Y-86330000D02*
X136844975Y-86330000D01*
X136000000Y-86680000D02*
X135730000Y-86950000D01*
X136000000Y-86680000D02*
G75*
G02*
X136844975Y-86329990I845000J-845000D01*
G01*
X135730000Y-86950000D02*
G75*
G03*
X135309987Y-87963970I1014000J-1014000D01*
G01*
X145460000Y-87510000D02*
G75*
G02*
X145684972Y-88053242I-543300J-543200D01*
G01*
X143590000Y-86330000D02*
G75*
G02*
X144767902Y-86817905I0J-1665800D01*
G01*
%TO.N,/PGM*%
X122520000Y-82131299D02*
X122520000Y-77820000D01*
X126990000Y-82850000D02*
X123337696Y-82850000D01*
X128002843Y-85002842D02*
X128580000Y-85580000D01*
X123290000Y-77050000D02*
X124020000Y-77050000D01*
X127720000Y-84320000D02*
X127720000Y-83580000D01*
X124020000Y-77050000D02*
X124030000Y-77040000D01*
X123337696Y-82850000D02*
G75*
G02*
X122710001Y-82589999I4J887700D01*
G01*
X127720000Y-83580000D02*
G75*
G03*
X126990000Y-82850000I-730000J0D01*
G01*
X122520000Y-77820000D02*
G75*
G02*
X123290000Y-77050000I770000J0D01*
G01*
X127720000Y-84320000D02*
G75*
G03*
X128002839Y-85002846I965700J0D01*
G01*
X122710000Y-82590000D02*
G75*
G02*
X122520000Y-82131299I458700J458700D01*
G01*
%TD*%
%TA.AperFunction,Conductor*%
%TO.N,+3V3*%
G36*
X174018623Y-56827982D02*
G01*
X176899514Y-56835403D01*
X176903888Y-56835492D01*
X177466030Y-56856951D01*
X177474789Y-56857598D01*
X178010834Y-56916428D01*
X178031777Y-56918727D01*
X178040507Y-56920001D01*
X178591733Y-57020574D01*
X178600308Y-57022456D01*
X179143002Y-57161969D01*
X179151439Y-57164461D01*
X179682847Y-57342207D01*
X179691066Y-57345285D01*
X180208488Y-57560361D01*
X180216493Y-57564028D01*
X180717295Y-57815337D01*
X180725026Y-57819567D01*
X181156865Y-58076230D01*
X181206688Y-58105842D01*
X181214106Y-58110616D01*
X181674188Y-58430406D01*
X181681244Y-58435692D01*
X182093889Y-58768406D01*
X182117438Y-58787393D01*
X182124104Y-58793171D01*
X182534181Y-59174987D01*
X182540420Y-59181225D01*
X182922307Y-59591224D01*
X182928086Y-59597889D01*
X183279870Y-60034017D01*
X183285160Y-60041075D01*
X183605039Y-60501098D01*
X183609808Y-60508506D01*
X183858707Y-60927102D01*
X183896177Y-60990118D01*
X183900413Y-60997856D01*
X184151814Y-61498604D01*
X184155489Y-61506624D01*
X184370645Y-62023964D01*
X184373741Y-62032224D01*
X184551580Y-62563579D01*
X184554080Y-62572039D01*
X184693685Y-63114666D01*
X184695578Y-63123282D01*
X184796253Y-63674482D01*
X184797528Y-63683211D01*
X184858758Y-64240153D01*
X184859410Y-64248950D01*
X184880974Y-64811040D01*
X184881065Y-64815451D01*
X184957799Y-92570305D01*
X184944887Y-92625743D01*
X184688441Y-93142817D01*
X184685295Y-93148750D01*
X184356233Y-93730774D01*
X184352771Y-93736529D01*
X184162292Y-94034530D01*
X184109601Y-94080414D01*
X184040467Y-94090528D01*
X183976840Y-94061659D01*
X183938921Y-94002975D01*
X183934409Y-93955597D01*
X183948500Y-93812536D01*
X183948500Y-93487464D01*
X183916637Y-93163957D01*
X183892988Y-93045066D01*
X183853224Y-92845151D01*
X183853221Y-92845140D01*
X183853220Y-92845137D01*
X183853219Y-92845131D01*
X183758855Y-92534056D01*
X183634455Y-92233728D01*
X183611896Y-92191524D01*
X183481223Y-91947051D01*
X183481221Y-91947049D01*
X183481217Y-91947040D01*
X183474529Y-91937030D01*
X183300629Y-91676769D01*
X183300622Y-91676759D01*
X183300617Y-91676752D01*
X183094393Y-91425468D01*
X183094392Y-91425467D01*
X183094388Y-91425462D01*
X182864537Y-91195611D01*
X182613253Y-90989387D01*
X182613230Y-90989370D01*
X182342976Y-90808793D01*
X182342948Y-90808776D01*
X182056279Y-90655548D01*
X182056274Y-90655546D01*
X182021024Y-90640945D01*
X181968309Y-90619109D01*
X181755945Y-90531145D01*
X181444859Y-90436778D01*
X181444848Y-90436775D01*
X181126049Y-90373364D01*
X181126032Y-90373361D01*
X180881395Y-90349267D01*
X180802536Y-90341500D01*
X180477464Y-90341500D01*
X180404530Y-90348683D01*
X180153967Y-90373361D01*
X180153950Y-90373364D01*
X179835151Y-90436775D01*
X179835140Y-90436778D01*
X179524054Y-90531145D01*
X179223725Y-90655546D01*
X179223720Y-90655548D01*
X178937051Y-90808776D01*
X178937023Y-90808793D01*
X178666769Y-90989370D01*
X178666746Y-90989387D01*
X178415462Y-91195611D01*
X178185611Y-91425462D01*
X177979387Y-91676746D01*
X177979370Y-91676769D01*
X177798793Y-91947023D01*
X177798776Y-91947051D01*
X177645548Y-92233720D01*
X177645546Y-92233725D01*
X177521145Y-92534054D01*
X177426778Y-92845140D01*
X177426775Y-92845151D01*
X177363364Y-93163950D01*
X177363361Y-93163967D01*
X177331500Y-93487467D01*
X177331500Y-93812532D01*
X177363361Y-94136032D01*
X177363364Y-94136049D01*
X177426775Y-94454848D01*
X177426778Y-94454859D01*
X177521145Y-94765945D01*
X177555043Y-94847781D01*
X177631977Y-95033517D01*
X177645546Y-95066274D01*
X177645548Y-95066279D01*
X177798776Y-95352948D01*
X177798793Y-95352976D01*
X177979370Y-95623230D01*
X177979387Y-95623253D01*
X178185611Y-95874537D01*
X178415462Y-96104388D01*
X178415467Y-96104392D01*
X178415468Y-96104393D01*
X178666752Y-96310617D01*
X178666759Y-96310622D01*
X178666769Y-96310629D01*
X178937023Y-96491206D01*
X178937028Y-96491209D01*
X178937040Y-96491217D01*
X178937049Y-96491221D01*
X178937051Y-96491223D01*
X179223720Y-96644451D01*
X179223722Y-96644451D01*
X179223728Y-96644455D01*
X179524056Y-96768855D01*
X179835131Y-96863219D01*
X179835137Y-96863220D01*
X179835140Y-96863221D01*
X179835151Y-96863224D01*
X180035066Y-96902988D01*
X180153957Y-96926637D01*
X180477464Y-96958500D01*
X180477467Y-96958500D01*
X180802533Y-96958500D01*
X180802536Y-96958500D01*
X181126043Y-96926637D01*
X181254285Y-96901128D01*
X181323875Y-96907355D01*
X181379052Y-96950218D01*
X181402297Y-97016108D01*
X181386229Y-97084105D01*
X181356162Y-97119392D01*
X181218838Y-97229776D01*
X181213492Y-97233840D01*
X180670449Y-97623909D01*
X180664890Y-97627678D01*
X180101528Y-97987771D01*
X180095774Y-97991233D01*
X179513750Y-98320295D01*
X179507817Y-98323441D01*
X178908818Y-98620518D01*
X178902723Y-98623338D01*
X178288526Y-98887546D01*
X178282287Y-98890032D01*
X177654678Y-99120604D01*
X177648314Y-99122748D01*
X177009161Y-99318999D01*
X177002690Y-99320796D01*
X176383693Y-99474733D01*
X176313884Y-99471809D01*
X176256738Y-99431608D01*
X176230398Y-99366894D01*
X176243227Y-99298212D01*
X176280882Y-99254080D01*
X176450004Y-99131206D01*
X176601206Y-98980004D01*
X176726894Y-98807009D01*
X176823972Y-98616483D01*
X176890049Y-98413116D01*
X176923500Y-98201916D01*
X176923500Y-97988084D01*
X176890049Y-97776884D01*
X176823972Y-97573517D01*
X176823972Y-97573516D01*
X176774507Y-97476438D01*
X176726894Y-97382991D01*
X176601206Y-97209996D01*
X176450004Y-97058794D01*
X176300562Y-96950218D01*
X176277005Y-96933103D01*
X176273132Y-96930730D01*
X176226254Y-96878920D01*
X176214829Y-96809991D01*
X176242483Y-96745827D01*
X176273132Y-96719270D01*
X176277005Y-96716896D01*
X176277004Y-96716896D01*
X176277009Y-96716894D01*
X176450004Y-96591206D01*
X176601206Y-96440004D01*
X176726894Y-96267009D01*
X176823972Y-96076483D01*
X176890049Y-95873116D01*
X176923500Y-95661916D01*
X176923500Y-95448084D01*
X176890049Y-95236884D01*
X176823972Y-95033517D01*
X176823972Y-95033516D01*
X176774507Y-94936438D01*
X176726894Y-94842991D01*
X176601206Y-94669996D01*
X176450004Y-94518794D01*
X176277009Y-94393106D01*
X176238232Y-94373348D01*
X176086483Y-94296027D01*
X176086480Y-94296026D01*
X175883117Y-94229951D01*
X175690579Y-94199456D01*
X175671916Y-94196500D01*
X175458084Y-94196500D01*
X175439421Y-94199456D01*
X175246882Y-94229951D01*
X175043519Y-94296026D01*
X175043516Y-94296027D01*
X174852990Y-94393106D01*
X174679993Y-94518796D01*
X174528796Y-94669993D01*
X174403105Y-94842991D01*
X174400727Y-94846873D01*
X174348914Y-94893748D01*
X174279984Y-94905169D01*
X174215822Y-94877512D01*
X174189273Y-94846873D01*
X174186894Y-94842991D01*
X174130916Y-94765944D01*
X174061206Y-94669996D01*
X173910004Y-94518794D01*
X173737009Y-94393106D01*
X173698232Y-94373348D01*
X173546483Y-94296027D01*
X173546480Y-94296026D01*
X173343117Y-94229951D01*
X173150579Y-94199456D01*
X173131916Y-94196500D01*
X172918084Y-94196500D01*
X172899421Y-94199456D01*
X172706882Y-94229951D01*
X172503519Y-94296026D01*
X172503516Y-94296027D01*
X172312990Y-94393106D01*
X172139993Y-94518796D01*
X171988796Y-94669993D01*
X171863105Y-94842991D01*
X171860727Y-94846873D01*
X171808914Y-94893748D01*
X171739984Y-94905169D01*
X171675822Y-94877512D01*
X171649273Y-94846873D01*
X171646894Y-94842991D01*
X171590916Y-94765944D01*
X171521206Y-94669996D01*
X171370004Y-94518794D01*
X171197009Y-94393106D01*
X171158232Y-94373348D01*
X171006483Y-94296027D01*
X171006480Y-94296026D01*
X170803117Y-94229951D01*
X170610579Y-94199456D01*
X170591916Y-94196500D01*
X170378084Y-94196500D01*
X170359421Y-94199456D01*
X170166882Y-94229951D01*
X169963519Y-94296026D01*
X169963516Y-94296027D01*
X169772990Y-94393106D01*
X169599993Y-94518796D01*
X169448796Y-94669993D01*
X169323105Y-94842991D01*
X169320727Y-94846873D01*
X169268914Y-94893748D01*
X169199984Y-94905169D01*
X169135822Y-94877512D01*
X169109273Y-94846873D01*
X169106894Y-94842991D01*
X169050916Y-94765944D01*
X168981206Y-94669996D01*
X168830004Y-94518794D01*
X168657009Y-94393106D01*
X168618232Y-94373348D01*
X168466483Y-94296027D01*
X168466480Y-94296026D01*
X168263117Y-94229951D01*
X168070579Y-94199456D01*
X168051916Y-94196500D01*
X167838084Y-94196500D01*
X167819421Y-94199456D01*
X167626882Y-94229951D01*
X167423519Y-94296026D01*
X167423516Y-94296027D01*
X167232990Y-94393106D01*
X167059993Y-94518796D01*
X166908796Y-94669993D01*
X166783105Y-94842991D01*
X166780727Y-94846873D01*
X166728914Y-94893748D01*
X166659984Y-94905169D01*
X166595822Y-94877512D01*
X166569273Y-94846873D01*
X166566894Y-94842991D01*
X166510916Y-94765944D01*
X166441206Y-94669996D01*
X166290004Y-94518794D01*
X166117009Y-94393106D01*
X166078232Y-94373348D01*
X165926483Y-94296027D01*
X165926480Y-94296026D01*
X165723117Y-94229951D01*
X165530579Y-94199456D01*
X165511916Y-94196500D01*
X165298084Y-94196500D01*
X165279421Y-94199456D01*
X165086882Y-94229951D01*
X164883519Y-94296026D01*
X164883516Y-94296027D01*
X164692990Y-94393106D01*
X164519993Y-94518796D01*
X164368796Y-94669993D01*
X164243105Y-94842991D01*
X164240727Y-94846873D01*
X164188914Y-94893748D01*
X164119984Y-94905169D01*
X164055822Y-94877512D01*
X164029273Y-94846873D01*
X164026894Y-94842991D01*
X163970916Y-94765944D01*
X163901206Y-94669996D01*
X163750004Y-94518794D01*
X163577009Y-94393106D01*
X163538232Y-94373348D01*
X163386483Y-94296027D01*
X163386480Y-94296026D01*
X163183117Y-94229951D01*
X162990579Y-94199456D01*
X162971916Y-94196500D01*
X162758084Y-94196500D01*
X162739421Y-94199456D01*
X162546882Y-94229951D01*
X162343519Y-94296026D01*
X162343516Y-94296027D01*
X162152990Y-94393106D01*
X161979993Y-94518796D01*
X161828796Y-94669993D01*
X161703105Y-94842991D01*
X161700727Y-94846873D01*
X161648914Y-94893748D01*
X161579984Y-94905169D01*
X161515822Y-94877512D01*
X161489273Y-94846873D01*
X161486894Y-94842991D01*
X161430916Y-94765944D01*
X161361206Y-94669996D01*
X161210004Y-94518794D01*
X161037009Y-94393106D01*
X160998232Y-94373348D01*
X160846483Y-94296027D01*
X160846480Y-94296026D01*
X160643117Y-94229951D01*
X160450579Y-94199456D01*
X160431916Y-94196500D01*
X160218084Y-94196500D01*
X160199421Y-94199456D01*
X160006882Y-94229951D01*
X159803519Y-94296026D01*
X159803516Y-94296027D01*
X159612990Y-94393106D01*
X159439993Y-94518796D01*
X159288796Y-94669993D01*
X159163105Y-94842991D01*
X159160727Y-94846873D01*
X159108914Y-94893748D01*
X159039984Y-94905169D01*
X158975822Y-94877512D01*
X158949273Y-94846873D01*
X158946894Y-94842991D01*
X158890916Y-94765944D01*
X158821206Y-94669996D01*
X158670004Y-94518794D01*
X158497009Y-94393106D01*
X158458232Y-94373348D01*
X158306483Y-94296027D01*
X158306480Y-94296026D01*
X158103117Y-94229951D01*
X157910579Y-94199456D01*
X157891916Y-94196500D01*
X157678084Y-94196500D01*
X157659421Y-94199456D01*
X157466882Y-94229951D01*
X157263519Y-94296026D01*
X157263516Y-94296027D01*
X157072990Y-94393106D01*
X156899993Y-94518796D01*
X156748796Y-94669993D01*
X156623105Y-94842991D01*
X156620727Y-94846873D01*
X156568914Y-94893748D01*
X156499984Y-94905169D01*
X156435822Y-94877512D01*
X156409273Y-94846873D01*
X156406894Y-94842991D01*
X156350916Y-94765944D01*
X156281206Y-94669996D01*
X156130004Y-94518794D01*
X155957009Y-94393106D01*
X155918232Y-94373348D01*
X155766483Y-94296027D01*
X155766480Y-94296026D01*
X155563117Y-94229951D01*
X155370579Y-94199456D01*
X155351916Y-94196500D01*
X155138084Y-94196500D01*
X155119421Y-94199456D01*
X154926882Y-94229951D01*
X154723519Y-94296026D01*
X154723516Y-94296027D01*
X154532990Y-94393106D01*
X154359993Y-94518796D01*
X154208796Y-94669993D01*
X154083105Y-94842991D01*
X154080727Y-94846873D01*
X154028914Y-94893748D01*
X153959984Y-94905169D01*
X153895822Y-94877512D01*
X153869273Y-94846873D01*
X153866894Y-94842991D01*
X153810916Y-94765944D01*
X153741206Y-94669996D01*
X153590004Y-94518794D01*
X153417009Y-94393106D01*
X153378232Y-94373348D01*
X153226483Y-94296027D01*
X153226480Y-94296026D01*
X153023117Y-94229951D01*
X152830579Y-94199456D01*
X152811916Y-94196500D01*
X152598084Y-94196500D01*
X152579421Y-94199456D01*
X152386882Y-94229951D01*
X152183519Y-94296026D01*
X152183516Y-94296027D01*
X151992990Y-94393106D01*
X151819993Y-94518796D01*
X151668796Y-94669993D01*
X151543105Y-94842991D01*
X151540727Y-94846873D01*
X151488914Y-94893748D01*
X151419984Y-94905169D01*
X151355822Y-94877512D01*
X151329273Y-94846873D01*
X151326894Y-94842991D01*
X151270916Y-94765944D01*
X151201206Y-94669996D01*
X151050004Y-94518794D01*
X150877009Y-94393106D01*
X150838232Y-94373348D01*
X150686483Y-94296027D01*
X150686480Y-94296026D01*
X150483117Y-94229951D01*
X150290579Y-94199456D01*
X150271916Y-94196500D01*
X150058084Y-94196500D01*
X150039421Y-94199456D01*
X149846882Y-94229951D01*
X149643519Y-94296026D01*
X149643516Y-94296027D01*
X149452990Y-94393106D01*
X149279993Y-94518796D01*
X149128796Y-94669993D01*
X149003105Y-94842991D01*
X149000727Y-94846873D01*
X148948914Y-94893748D01*
X148879984Y-94905169D01*
X148815822Y-94877512D01*
X148789273Y-94846873D01*
X148786894Y-94842991D01*
X148730916Y-94765944D01*
X148661206Y-94669996D01*
X148510004Y-94518794D01*
X148337009Y-94393106D01*
X148298232Y-94373348D01*
X148146483Y-94296027D01*
X148146480Y-94296026D01*
X147943117Y-94229951D01*
X147750579Y-94199456D01*
X147731916Y-94196500D01*
X147518084Y-94196500D01*
X147499421Y-94199456D01*
X147306882Y-94229951D01*
X147103519Y-94296026D01*
X147103516Y-94296027D01*
X146912990Y-94393106D01*
X146739993Y-94518796D01*
X146588796Y-94669993D01*
X146463105Y-94842991D01*
X146460727Y-94846873D01*
X146408914Y-94893748D01*
X146339984Y-94905169D01*
X146275822Y-94877512D01*
X146249273Y-94846873D01*
X146246894Y-94842991D01*
X146190916Y-94765944D01*
X146121206Y-94669996D01*
X145970004Y-94518794D01*
X145797009Y-94393106D01*
X145758232Y-94373348D01*
X145606483Y-94296027D01*
X145606480Y-94296026D01*
X145403117Y-94229951D01*
X145210579Y-94199456D01*
X145191916Y-94196500D01*
X144978084Y-94196500D01*
X144959421Y-94199456D01*
X144766882Y-94229951D01*
X144563519Y-94296026D01*
X144563516Y-94296027D01*
X144372990Y-94393106D01*
X144199993Y-94518796D01*
X144048796Y-94669993D01*
X143923105Y-94842991D01*
X143920727Y-94846873D01*
X143868914Y-94893748D01*
X143799984Y-94905169D01*
X143735822Y-94877512D01*
X143709273Y-94846873D01*
X143706894Y-94842991D01*
X143650916Y-94765944D01*
X143581206Y-94669996D01*
X143430004Y-94518794D01*
X143257009Y-94393106D01*
X143218232Y-94373348D01*
X143066483Y-94296027D01*
X143066480Y-94296026D01*
X142863118Y-94229951D01*
X142859582Y-94229391D01*
X142796450Y-94199456D01*
X142759523Y-94140141D01*
X142760527Y-94070279D01*
X142791307Y-94019241D01*
X143360704Y-93449844D01*
X143369701Y-93441690D01*
X143431648Y-93390851D01*
X143451838Y-93377359D01*
X143517113Y-93342470D01*
X143539563Y-93333172D01*
X143566043Y-93325138D01*
X143610375Y-93311690D01*
X143634207Y-93306950D01*
X143695008Y-93300961D01*
X143713942Y-93299097D01*
X143726095Y-93298500D01*
X144229193Y-93298500D01*
X144305181Y-93286464D01*
X144425129Y-93267467D01*
X144613802Y-93206163D01*
X144790562Y-93116099D01*
X144951056Y-92999493D01*
X144958600Y-92991948D01*
X145019919Y-92958462D01*
X145021978Y-92958032D01*
X145175831Y-92927430D01*
X145322968Y-92866483D01*
X145455389Y-92778003D01*
X145568003Y-92665389D01*
X145656483Y-92532968D01*
X145717430Y-92385831D01*
X145748500Y-92229630D01*
X145748500Y-92070370D01*
X145717430Y-91914169D01*
X145656483Y-91767032D01*
X145606349Y-91692001D01*
X145568004Y-91634612D01*
X145567998Y-91634605D01*
X145455394Y-91522001D01*
X145455387Y-91521995D01*
X145322969Y-91433517D01*
X145175831Y-91372570D01*
X145175823Y-91372568D01*
X145019634Y-91341500D01*
X145019630Y-91341500D01*
X144860370Y-91341500D01*
X144860365Y-91341500D01*
X144704176Y-91372568D01*
X144704168Y-91372570D01*
X144557030Y-91433517D01*
X144424612Y-91521995D01*
X144424605Y-91522001D01*
X144312001Y-91634605D01*
X144311995Y-91634612D01*
X144223517Y-91767030D01*
X144162570Y-91914168D01*
X144161323Y-91920438D01*
X144149138Y-91981691D01*
X144116755Y-92043602D01*
X144056039Y-92078176D01*
X144027522Y-92081500D01*
X143729178Y-92081500D01*
X143662139Y-92061815D01*
X143616384Y-92009011D01*
X143614617Y-92004953D01*
X143586482Y-91937030D01*
X143498004Y-91804612D01*
X143497998Y-91804605D01*
X143385394Y-91692001D01*
X143385387Y-91691995D01*
X143252969Y-91603517D01*
X143105831Y-91542570D01*
X143105823Y-91542568D01*
X142949634Y-91511500D01*
X142949630Y-91511500D01*
X142790370Y-91511500D01*
X142790365Y-91511500D01*
X142634176Y-91542568D01*
X142634168Y-91542570D01*
X142487030Y-91603517D01*
X142354612Y-91691995D01*
X142354605Y-91692001D01*
X142242001Y-91804605D01*
X142241995Y-91804612D01*
X142153517Y-91937030D01*
X142092570Y-92084168D01*
X142092568Y-92084176D01*
X142061989Y-92237907D01*
X142029604Y-92299818D01*
X142028053Y-92301397D01*
X140169269Y-94160181D01*
X140107946Y-94193666D01*
X140081588Y-94196500D01*
X139898084Y-94196500D01*
X139879421Y-94199456D01*
X139686882Y-94229951D01*
X139483519Y-94296026D01*
X139483516Y-94296027D01*
X139292990Y-94393106D01*
X139119993Y-94518796D01*
X138968796Y-94669993D01*
X138843105Y-94842991D01*
X138840727Y-94846873D01*
X138788914Y-94893748D01*
X138719984Y-94905169D01*
X138655822Y-94877512D01*
X138629273Y-94846873D01*
X138626894Y-94842991D01*
X138570916Y-94765944D01*
X138501206Y-94669996D01*
X138350004Y-94518794D01*
X138177009Y-94393106D01*
X138138232Y-94373348D01*
X137986483Y-94296027D01*
X137986480Y-94296026D01*
X137783117Y-94229951D01*
X137590579Y-94199456D01*
X137571916Y-94196500D01*
X137358084Y-94196500D01*
X137339421Y-94199456D01*
X137146882Y-94229951D01*
X136943519Y-94296026D01*
X136943516Y-94296027D01*
X136752990Y-94393106D01*
X136579993Y-94518796D01*
X136428796Y-94669993D01*
X136303105Y-94842991D01*
X136300727Y-94846873D01*
X136248914Y-94893748D01*
X136179984Y-94905169D01*
X136115822Y-94877512D01*
X136089273Y-94846873D01*
X136086894Y-94842991D01*
X136030916Y-94765944D01*
X135961206Y-94669996D01*
X135810004Y-94518794D01*
X135637009Y-94393106D01*
X135598232Y-94373348D01*
X135446483Y-94296027D01*
X135446480Y-94296026D01*
X135243117Y-94229951D01*
X135050579Y-94199456D01*
X135031916Y-94196500D01*
X134818084Y-94196500D01*
X134799421Y-94199456D01*
X134606882Y-94229951D01*
X134403519Y-94296026D01*
X134403516Y-94296027D01*
X134212990Y-94393106D01*
X134039993Y-94518796D01*
X133888796Y-94669993D01*
X133763105Y-94842991D01*
X133760727Y-94846873D01*
X133708914Y-94893748D01*
X133639984Y-94905169D01*
X133575822Y-94877512D01*
X133549273Y-94846873D01*
X133546894Y-94842991D01*
X133490916Y-94765944D01*
X133421206Y-94669996D01*
X133270004Y-94518794D01*
X133097009Y-94393106D01*
X133058232Y-94373348D01*
X132906483Y-94296027D01*
X132906480Y-94296026D01*
X132703117Y-94229951D01*
X132510579Y-94199456D01*
X132491916Y-94196500D01*
X132278084Y-94196500D01*
X132259421Y-94199456D01*
X132066882Y-94229951D01*
X131863519Y-94296026D01*
X131863516Y-94296027D01*
X131672990Y-94393106D01*
X131499993Y-94518796D01*
X131348796Y-94669993D01*
X131223105Y-94842991D01*
X131220727Y-94846873D01*
X131168914Y-94893748D01*
X131099984Y-94905169D01*
X131035822Y-94877512D01*
X131009273Y-94846873D01*
X131006894Y-94842991D01*
X130950916Y-94765944D01*
X130881206Y-94669996D01*
X130730004Y-94518794D01*
X130557009Y-94393106D01*
X130518232Y-94373348D01*
X130366483Y-94296027D01*
X130366480Y-94296026D01*
X130163117Y-94229951D01*
X129970579Y-94199456D01*
X129951916Y-94196500D01*
X129738084Y-94196500D01*
X129719421Y-94199456D01*
X129526882Y-94229951D01*
X129323519Y-94296026D01*
X129323516Y-94296027D01*
X129132990Y-94393106D01*
X128959993Y-94518796D01*
X128808796Y-94669993D01*
X128683105Y-94842991D01*
X128680727Y-94846873D01*
X128628914Y-94893748D01*
X128559984Y-94905169D01*
X128495822Y-94877512D01*
X128469273Y-94846873D01*
X128466894Y-94842991D01*
X128410916Y-94765944D01*
X128341206Y-94669996D01*
X128190004Y-94518794D01*
X128017009Y-94393106D01*
X127978232Y-94373348D01*
X127826483Y-94296027D01*
X127826480Y-94296026D01*
X127623117Y-94229951D01*
X127430579Y-94199456D01*
X127411916Y-94196500D01*
X127198084Y-94196500D01*
X127179421Y-94199456D01*
X126986882Y-94229951D01*
X126783519Y-94296026D01*
X126783516Y-94296027D01*
X126592990Y-94393106D01*
X126419993Y-94518796D01*
X126268796Y-94669993D01*
X126143105Y-94842991D01*
X126140727Y-94846873D01*
X126088914Y-94893748D01*
X126019984Y-94905169D01*
X125955822Y-94877512D01*
X125929273Y-94846873D01*
X125926894Y-94842991D01*
X125870916Y-94765944D01*
X125801206Y-94669996D01*
X125650004Y-94518794D01*
X125477009Y-94393106D01*
X125438232Y-94373348D01*
X125286483Y-94296027D01*
X125286480Y-94296026D01*
X125083117Y-94229951D01*
X124890579Y-94199456D01*
X124871916Y-94196500D01*
X124658084Y-94196500D01*
X124639421Y-94199456D01*
X124446882Y-94229951D01*
X124243519Y-94296026D01*
X124243516Y-94296027D01*
X124052990Y-94393106D01*
X123879993Y-94518796D01*
X123728796Y-94669993D01*
X123603103Y-94842994D01*
X123600709Y-94847693D01*
X123552731Y-94898485D01*
X123484908Y-94915275D01*
X123418775Y-94892732D01*
X123382800Y-94851210D01*
X123382168Y-94851598D01*
X123379829Y-94847781D01*
X123379743Y-94847682D01*
X123379620Y-94847441D01*
X123254727Y-94675540D01*
X123254723Y-94675535D01*
X123104464Y-94525276D01*
X123104459Y-94525272D01*
X122932557Y-94400379D01*
X122743215Y-94303903D01*
X122541124Y-94238241D01*
X122475000Y-94227768D01*
X122475000Y-95121988D01*
X122417993Y-95089075D01*
X122290826Y-95055000D01*
X122159174Y-95055000D01*
X122032007Y-95089075D01*
X121975000Y-95121988D01*
X121975000Y-94227768D01*
X121974999Y-94227768D01*
X121908875Y-94238241D01*
X121706784Y-94303903D01*
X121517443Y-94400378D01*
X121450320Y-94449145D01*
X121384513Y-94472624D01*
X121316460Y-94456798D01*
X121267766Y-94406691D01*
X121255885Y-94373348D01*
X121244525Y-94317037D01*
X121242986Y-94307488D01*
X121180281Y-93790405D01*
X121179491Y-93780727D01*
X121177377Y-93730774D01*
X121157469Y-93260334D01*
X121157439Y-93250643D01*
X121159040Y-93206161D01*
X121176205Y-92729162D01*
X121176928Y-92719532D01*
X121236349Y-92201074D01*
X121237825Y-92191524D01*
X121337528Y-91679324D01*
X121339748Y-91669895D01*
X121375041Y-91542568D01*
X121479136Y-91167017D01*
X121482076Y-91157826D01*
X121660293Y-90667366D01*
X121663941Y-90658433D01*
X121879902Y-90183377D01*
X121884248Y-90174731D01*
X122136623Y-89718003D01*
X122141636Y-89709714D01*
X122428888Y-89274087D01*
X122434514Y-89266237D01*
X122754934Y-88854316D01*
X122761137Y-88846955D01*
X123112717Y-88461320D01*
X123119515Y-88454426D01*
X123134028Y-88440813D01*
X123500115Y-88097422D01*
X123507407Y-88091099D01*
X123914720Y-87764890D01*
X123922482Y-87759156D01*
X124354024Y-87465733D01*
X124362225Y-87460614D01*
X124815343Y-87201780D01*
X124823897Y-87197327D01*
X125295848Y-86974649D01*
X125304742Y-86970870D01*
X125792619Y-86785718D01*
X125801784Y-86782644D01*
X126302635Y-86636139D01*
X126312018Y-86633788D01*
X126822764Y-86526829D01*
X126832280Y-86525221D01*
X127349851Y-86458454D01*
X127359452Y-86457596D01*
X127883062Y-86431314D01*
X127887894Y-86431167D01*
X131498820Y-86391153D01*
X131547645Y-86400585D01*
X131564169Y-86407430D01*
X131636036Y-86421725D01*
X131720365Y-86438499D01*
X131720369Y-86438500D01*
X131720370Y-86438500D01*
X131879631Y-86438500D01*
X131879632Y-86438499D01*
X132035831Y-86407430D01*
X132068840Y-86393756D01*
X132114912Y-86384326D01*
X135168236Y-86350492D01*
X135235484Y-86369431D01*
X135281822Y-86421725D01*
X135292531Y-86490769D01*
X135264212Y-86554642D01*
X135257287Y-86562163D01*
X135218621Y-86600829D01*
X135075586Y-86780190D01*
X134953532Y-86974437D01*
X134854007Y-87181103D01*
X134853998Y-87181125D01*
X134778236Y-87397639D01*
X134778233Y-87397647D01*
X134729777Y-87609951D01*
X134696570Y-87670037D01*
X134681998Y-87684609D01*
X134681995Y-87684613D01*
X134593517Y-87817030D01*
X134532570Y-87964168D01*
X134532568Y-87964176D01*
X134501500Y-88120365D01*
X134501500Y-88279634D01*
X134532568Y-88435823D01*
X134532570Y-88435831D01*
X134593517Y-88582969D01*
X134681995Y-88715387D01*
X134682001Y-88715394D01*
X134794605Y-88827998D01*
X134794612Y-88828004D01*
X134927030Y-88916482D01*
X134927031Y-88916482D01*
X134927032Y-88916483D01*
X135074169Y-88977430D01*
X135230365Y-89008499D01*
X135230369Y-89008500D01*
X135230370Y-89008500D01*
X135389631Y-89008500D01*
X135389632Y-89008499D01*
X135545831Y-88977430D01*
X135692968Y-88916483D01*
X135825389Y-88828003D01*
X135938003Y-88715389D01*
X136026483Y-88582968D01*
X136087430Y-88435831D01*
X136106419Y-88340365D01*
X139031500Y-88340365D01*
X139031500Y-88499634D01*
X139062568Y-88655823D01*
X139062570Y-88655831D01*
X139123517Y-88802969D01*
X139211995Y-88935387D01*
X139212001Y-88935394D01*
X139324605Y-89047998D01*
X139324612Y-89048004D01*
X139457030Y-89136482D01*
X139457031Y-89136482D01*
X139457032Y-89136483D01*
X139604169Y-89197430D01*
X139760365Y-89228499D01*
X139760369Y-89228500D01*
X139760370Y-89228500D01*
X139919631Y-89228500D01*
X139919632Y-89228499D01*
X140075831Y-89197430D01*
X140222968Y-89136483D01*
X140222969Y-89136482D01*
X140222970Y-89136482D01*
X140353302Y-89049398D01*
X140419979Y-89028520D01*
X140422192Y-89028500D01*
X141527740Y-89028500D01*
X141594779Y-89048185D01*
X141596630Y-89049397D01*
X141697033Y-89116484D01*
X141770600Y-89146956D01*
X141844169Y-89177430D01*
X142000365Y-89208499D01*
X142000369Y-89208500D01*
X142000370Y-89208500D01*
X142159631Y-89208500D01*
X142159632Y-89208499D01*
X142315831Y-89177430D01*
X142462968Y-89116483D01*
X142595389Y-89028003D01*
X142708003Y-88915389D01*
X142796483Y-88782968D01*
X142857430Y-88635831D01*
X142888500Y-88479630D01*
X142888500Y-88320370D01*
X142857430Y-88164169D01*
X142796483Y-88017032D01*
X142764490Y-87969151D01*
X142708004Y-87884612D01*
X142707998Y-87884605D01*
X142595394Y-87772001D01*
X142595387Y-87771995D01*
X142462969Y-87683517D01*
X142315831Y-87622570D01*
X142315823Y-87622568D01*
X142159634Y-87591500D01*
X142159630Y-87591500D01*
X142000370Y-87591500D01*
X142000365Y-87591500D01*
X141844176Y-87622568D01*
X141844168Y-87622570D01*
X141697030Y-87683517D01*
X141564612Y-87771995D01*
X141564605Y-87772001D01*
X141561426Y-87775181D01*
X141500103Y-87808666D01*
X141473745Y-87811500D01*
X140422192Y-87811500D01*
X140355153Y-87791815D01*
X140353302Y-87790602D01*
X140222969Y-87703517D01*
X140075831Y-87642570D01*
X140075823Y-87642568D01*
X139919634Y-87611500D01*
X139919630Y-87611500D01*
X139760370Y-87611500D01*
X139760365Y-87611500D01*
X139604176Y-87642568D01*
X139604168Y-87642570D01*
X139457030Y-87703517D01*
X139324612Y-87791995D01*
X139324605Y-87792001D01*
X139212001Y-87904605D01*
X139211995Y-87904612D01*
X139123517Y-88037030D01*
X139062570Y-88184168D01*
X139062568Y-88184176D01*
X139031500Y-88340365D01*
X136106419Y-88340365D01*
X136112442Y-88310087D01*
X136112442Y-88310086D01*
X136117508Y-88284616D01*
X136118500Y-88279630D01*
X136118500Y-88120370D01*
X136087430Y-87964169D01*
X136054473Y-87884605D01*
X136026484Y-87817033D01*
X135998519Y-87775181D01*
X135993931Y-87768314D01*
X135973055Y-87701639D01*
X135982472Y-87651980D01*
X136004743Y-87598214D01*
X136013563Y-87580904D01*
X136071057Y-87487082D01*
X136082479Y-87471360D01*
X136157125Y-87383962D01*
X136163712Y-87376836D01*
X136212520Y-87328029D01*
X136425974Y-87114574D01*
X136434969Y-87106421D01*
X136509712Y-87045081D01*
X136529911Y-87031585D01*
X136609779Y-86988894D01*
X136632212Y-86979602D01*
X136718878Y-86953312D01*
X136742709Y-86948572D01*
X136838914Y-86939097D01*
X136851068Y-86938500D01*
X136918860Y-86938500D01*
X143516115Y-86938500D01*
X143585125Y-86938500D01*
X143594853Y-86938882D01*
X143620515Y-86940901D01*
X143745674Y-86950751D01*
X143764884Y-86953794D01*
X143907243Y-86987971D01*
X143925735Y-86993980D01*
X144016513Y-87031581D01*
X144060992Y-87050005D01*
X144078329Y-87058839D01*
X144203146Y-87135327D01*
X144218888Y-87146764D01*
X144333927Y-87245017D01*
X144341076Y-87251626D01*
X144893232Y-87803781D01*
X144926717Y-87865104D01*
X144921733Y-87934795D01*
X144920112Y-87938914D01*
X144907589Y-87969146D01*
X144907586Y-87969158D01*
X144876518Y-88125347D01*
X144876518Y-88284616D01*
X144907586Y-88440805D01*
X144907588Y-88440813D01*
X144968535Y-88587951D01*
X145057013Y-88720369D01*
X145057019Y-88720376D01*
X145169623Y-88832980D01*
X145169630Y-88832986D01*
X145302048Y-88921464D01*
X145302049Y-88921464D01*
X145302050Y-88921465D01*
X145449187Y-88982412D01*
X145580337Y-89008499D01*
X145605383Y-89013481D01*
X145605387Y-89013482D01*
X145605388Y-89013482D01*
X145764649Y-89013482D01*
X145764650Y-89013481D01*
X145920849Y-88982412D01*
X146067986Y-88921465D01*
X146200407Y-88832985D01*
X146313021Y-88720371D01*
X146401501Y-88587950D01*
X146462448Y-88440813D01*
X146493518Y-88284612D01*
X146493518Y-88125352D01*
X146491082Y-88113110D01*
X146486182Y-88088469D01*
X146482581Y-88070365D01*
X168866500Y-88070365D01*
X168866500Y-88229634D01*
X168897568Y-88385823D01*
X168897570Y-88385831D01*
X168958517Y-88532969D01*
X169046995Y-88665387D01*
X169047001Y-88665394D01*
X169159605Y-88777998D01*
X169159612Y-88778004D01*
X169292030Y-88866482D01*
X169292031Y-88866482D01*
X169292032Y-88866483D01*
X169439169Y-88927430D01*
X169595365Y-88958499D01*
X169595369Y-88958500D01*
X169595370Y-88958500D01*
X169754631Y-88958500D01*
X169754632Y-88958499D01*
X169910831Y-88927430D01*
X170057968Y-88866483D01*
X170190389Y-88778003D01*
X170303003Y-88665389D01*
X170391483Y-88532968D01*
X170452430Y-88385831D01*
X170483500Y-88229630D01*
X170483500Y-88070370D01*
X170452430Y-87914169D01*
X170391483Y-87767032D01*
X170386220Y-87759156D01*
X170303004Y-87634612D01*
X170302998Y-87634605D01*
X170190394Y-87522001D01*
X170190387Y-87521995D01*
X170057969Y-87433517D01*
X169910831Y-87372570D01*
X169910823Y-87372568D01*
X169754634Y-87341500D01*
X169754630Y-87341500D01*
X169595370Y-87341500D01*
X169595365Y-87341500D01*
X169439176Y-87372568D01*
X169439168Y-87372570D01*
X169292030Y-87433517D01*
X169159612Y-87521995D01*
X169159605Y-87522001D01*
X169047001Y-87634605D01*
X169046995Y-87634612D01*
X168958517Y-87767030D01*
X168897570Y-87914168D01*
X168897568Y-87914176D01*
X168866500Y-88070365D01*
X146482581Y-88070365D01*
X146462449Y-87969158D01*
X146462448Y-87969151D01*
X146401501Y-87822014D01*
X146398172Y-87817032D01*
X146313022Y-87689594D01*
X146313021Y-87689593D01*
X146275401Y-87651973D01*
X146233670Y-87610242D01*
X146206793Y-87570016D01*
X146154191Y-87443022D01*
X146154184Y-87443007D01*
X146063949Y-87286716D01*
X145954085Y-87143537D01*
X145954079Y-87143530D01*
X145951969Y-87141420D01*
X145646372Y-86835823D01*
X145335728Y-86525180D01*
X145302244Y-86463858D01*
X145307228Y-86394167D01*
X145349099Y-86338233D01*
X145414564Y-86313816D01*
X145423410Y-86313500D01*
X146808580Y-86313500D01*
X146808582Y-86313500D01*
X146808585Y-86313499D01*
X146808601Y-86313499D01*
X147229871Y-86281928D01*
X147304357Y-86276347D01*
X147727947Y-86212500D01*
X147745020Y-86211126D01*
X151566559Y-86168779D01*
X151633806Y-86187718D01*
X151680144Y-86240012D01*
X151690853Y-86309056D01*
X151682489Y-86340220D01*
X151672571Y-86364164D01*
X151672568Y-86364176D01*
X151641500Y-86520365D01*
X151641500Y-86679634D01*
X151672568Y-86835823D01*
X151672570Y-86835831D01*
X151733517Y-86982969D01*
X151821995Y-87115387D01*
X151822001Y-87115394D01*
X151934605Y-87227998D01*
X151934612Y-87228004D01*
X152067030Y-87316482D01*
X152067031Y-87316482D01*
X152067032Y-87316483D01*
X152214169Y-87377430D01*
X152370365Y-87408499D01*
X152370369Y-87408500D01*
X152370370Y-87408500D01*
X152529631Y-87408500D01*
X152529632Y-87408499D01*
X152685831Y-87377430D01*
X152832968Y-87316483D01*
X152965389Y-87228003D01*
X153078003Y-87115389D01*
X153166483Y-86982968D01*
X153227430Y-86835831D01*
X153258500Y-86679630D01*
X153258500Y-86520370D01*
X153227430Y-86364169D01*
X153216687Y-86338233D01*
X153209451Y-86320763D01*
X153201982Y-86251294D01*
X153233257Y-86188815D01*
X153293346Y-86153163D01*
X153322625Y-86149320D01*
X154703510Y-86134019D01*
X154701977Y-85995129D01*
X154686583Y-84600365D01*
X158509000Y-84600365D01*
X158509000Y-84759634D01*
X158540068Y-84915823D01*
X158540070Y-84915831D01*
X158601017Y-85062969D01*
X158689495Y-85195387D01*
X158689501Y-85195394D01*
X158802105Y-85307998D01*
X158802112Y-85308004D01*
X158934530Y-85396482D01*
X158934531Y-85396482D01*
X158934532Y-85396483D01*
X159081669Y-85457430D01*
X159237865Y-85488499D01*
X159237869Y-85488500D01*
X159237870Y-85488500D01*
X159397131Y-85488500D01*
X159397132Y-85488499D01*
X159553331Y-85457430D01*
X159700468Y-85396483D01*
X159832889Y-85308003D01*
X159945503Y-85195389D01*
X159983806Y-85138065D01*
X166116499Y-85138065D01*
X166116499Y-85297334D01*
X166147567Y-85453523D01*
X166147569Y-85453531D01*
X166208516Y-85600669D01*
X166296994Y-85733087D01*
X166297000Y-85733094D01*
X166409604Y-85845698D01*
X166409611Y-85845704D01*
X166542029Y-85934182D01*
X166542030Y-85934182D01*
X166542031Y-85934183D01*
X166689168Y-85995130D01*
X166778847Y-86012968D01*
X166845364Y-86026199D01*
X166845368Y-86026200D01*
X166845369Y-86026200D01*
X167004630Y-86026200D01*
X167004631Y-86026199D01*
X167160830Y-85995130D01*
X167217546Y-85971636D01*
X167287013Y-85964167D01*
X167312446Y-85971634D01*
X167369168Y-85995130D01*
X167458847Y-86012968D01*
X167525364Y-86026199D01*
X167525368Y-86026200D01*
X167525369Y-86026200D01*
X167684630Y-86026200D01*
X167684631Y-86026199D01*
X167840830Y-85995130D01*
X167887546Y-85975778D01*
X167957015Y-85968310D01*
X167982448Y-85975777D01*
X168029168Y-85995130D01*
X168118847Y-86012968D01*
X168185364Y-86026199D01*
X168185368Y-86026200D01*
X168185369Y-86026200D01*
X168344630Y-86026200D01*
X168344631Y-86026199D01*
X168500830Y-85995130D01*
X168647967Y-85934183D01*
X168780388Y-85845703D01*
X168893002Y-85733089D01*
X168981482Y-85600668D01*
X169042429Y-85453531D01*
X169073499Y-85297330D01*
X169073499Y-85138070D01*
X169042429Y-84981869D01*
X168984939Y-84843079D01*
X168977471Y-84773612D01*
X168984939Y-84748179D01*
X169032429Y-84633531D01*
X169063499Y-84477330D01*
X169063499Y-84318070D01*
X169032429Y-84161869D01*
X169008106Y-84103150D01*
X169000638Y-84033685D01*
X169010041Y-84006664D01*
X169009151Y-84006296D01*
X169031240Y-83952968D01*
X169072429Y-83853531D01*
X169103499Y-83697330D01*
X169103499Y-83538070D01*
X169072429Y-83381869D01*
X169011482Y-83234732D01*
X169004800Y-83224732D01*
X168923003Y-83102312D01*
X168922997Y-83102305D01*
X168810393Y-82989701D01*
X168810386Y-82989695D01*
X168677968Y-82901217D01*
X168530830Y-82840270D01*
X168530822Y-82840268D01*
X168374633Y-82809200D01*
X168374629Y-82809200D01*
X168215369Y-82809200D01*
X168215364Y-82809200D01*
X168059175Y-82840268D01*
X168059172Y-82840269D01*
X168059171Y-82840269D01*
X168059168Y-82840270D01*
X168002229Y-82863854D01*
X167988308Y-82869621D01*
X167918838Y-82877089D01*
X167893404Y-82869620D01*
X167870834Y-82860271D01*
X167870822Y-82860268D01*
X167714633Y-82829200D01*
X167714629Y-82829200D01*
X167555369Y-82829200D01*
X167555364Y-82829200D01*
X167399175Y-82860268D01*
X167399163Y-82860271D01*
X167368663Y-82872905D01*
X167299193Y-82880374D01*
X167273759Y-82872905D01*
X167170830Y-82830270D01*
X167170822Y-82830268D01*
X167014633Y-82799200D01*
X167014629Y-82799200D01*
X166855369Y-82799200D01*
X166855364Y-82799200D01*
X166699175Y-82830268D01*
X166699167Y-82830270D01*
X166552029Y-82891217D01*
X166419611Y-82979695D01*
X166419604Y-82979701D01*
X166307000Y-83092305D01*
X166306994Y-83092312D01*
X166218516Y-83224730D01*
X166157569Y-83371868D01*
X166157567Y-83371876D01*
X166126499Y-83528065D01*
X166126499Y-83687334D01*
X166157567Y-83843523D01*
X166157570Y-83843535D01*
X166205914Y-83960248D01*
X166213383Y-84029717D01*
X166205914Y-84055152D01*
X166157570Y-84171864D01*
X166157567Y-84171876D01*
X166126499Y-84328065D01*
X166126499Y-84487334D01*
X166157567Y-84643523D01*
X166157569Y-84643531D01*
X166193539Y-84730370D01*
X166202986Y-84753175D01*
X166210455Y-84822644D01*
X166202986Y-84848081D01*
X166147569Y-84981868D01*
X166147567Y-84981876D01*
X166116499Y-85138065D01*
X159983806Y-85138065D01*
X159999477Y-85114611D01*
X160033904Y-85063087D01*
X160033982Y-85062969D01*
X160033983Y-85062968D01*
X160094930Y-84915831D01*
X160126000Y-84759630D01*
X160126000Y-84600370D01*
X160094930Y-84444169D01*
X160033983Y-84297032D01*
X160032365Y-84294611D01*
X159945504Y-84164612D01*
X159945498Y-84164605D01*
X159832894Y-84052001D01*
X159832887Y-84051995D01*
X159700469Y-83963517D01*
X159553331Y-83902570D01*
X159553323Y-83902568D01*
X159397134Y-83871500D01*
X159397130Y-83871500D01*
X159237870Y-83871500D01*
X159237865Y-83871500D01*
X159081676Y-83902568D01*
X159081668Y-83902570D01*
X158934530Y-83963517D01*
X158802112Y-84051995D01*
X158802105Y-84052001D01*
X158689501Y-84164605D01*
X158689495Y-84164612D01*
X158601017Y-84297030D01*
X158540070Y-84444168D01*
X158540068Y-84444176D01*
X158509000Y-84600365D01*
X154686583Y-84600365D01*
X154686531Y-84595647D01*
X154670469Y-83140365D01*
X163931500Y-83140365D01*
X163931500Y-83299634D01*
X163962568Y-83455823D01*
X163962570Y-83455831D01*
X164023517Y-83602969D01*
X164111995Y-83735387D01*
X164112001Y-83735394D01*
X164224605Y-83847998D01*
X164224612Y-83848004D01*
X164357030Y-83936482D01*
X164357031Y-83936482D01*
X164357032Y-83936483D01*
X164504169Y-83997430D01*
X164612389Y-84018956D01*
X164660365Y-84028499D01*
X164660369Y-84028500D01*
X164660370Y-84028500D01*
X164819631Y-84028500D01*
X164819632Y-84028499D01*
X164975831Y-83997430D01*
X165122968Y-83936483D01*
X165255389Y-83848003D01*
X165368003Y-83735389D01*
X165456483Y-83602968D01*
X165517430Y-83455831D01*
X165548500Y-83299630D01*
X165548500Y-83140370D01*
X165517430Y-82984169D01*
X165456483Y-82837032D01*
X165419397Y-82781528D01*
X165398520Y-82714850D01*
X165398500Y-82712638D01*
X165398500Y-81670365D01*
X168541500Y-81670365D01*
X168541500Y-81829634D01*
X168572568Y-81985823D01*
X168572570Y-81985831D01*
X168633517Y-82132969D01*
X168721995Y-82265387D01*
X168722001Y-82265394D01*
X168834605Y-82377998D01*
X168834612Y-82378004D01*
X168967030Y-82466482D01*
X168967031Y-82466482D01*
X168967032Y-82466483D01*
X169114169Y-82527430D01*
X169257661Y-82555972D01*
X169270365Y-82558499D01*
X169270369Y-82558500D01*
X169270370Y-82558500D01*
X169429631Y-82558500D01*
X169429632Y-82558499D01*
X169585831Y-82527430D01*
X169732968Y-82466483D01*
X169865389Y-82378003D01*
X169978003Y-82265389D01*
X170066483Y-82132968D01*
X170127430Y-81985831D01*
X170158500Y-81829630D01*
X170158500Y-81670370D01*
X170127430Y-81514169D01*
X170066483Y-81367032D01*
X170058871Y-81355640D01*
X169978004Y-81234612D01*
X169977998Y-81234605D01*
X169865394Y-81122001D01*
X169865387Y-81121995D01*
X169732969Y-81033517D01*
X169585831Y-80972570D01*
X169585823Y-80972568D01*
X169429634Y-80941500D01*
X169429630Y-80941500D01*
X169270370Y-80941500D01*
X169270365Y-80941500D01*
X169114176Y-80972568D01*
X169114168Y-80972570D01*
X168967030Y-81033517D01*
X168834612Y-81121995D01*
X168834605Y-81122001D01*
X168722001Y-81234605D01*
X168721995Y-81234612D01*
X168633517Y-81367030D01*
X168572570Y-81514168D01*
X168572568Y-81514176D01*
X168541500Y-81670365D01*
X165398500Y-81670365D01*
X165398500Y-81622225D01*
X165418185Y-81555186D01*
X165419364Y-81553384D01*
X165496483Y-81437968D01*
X165557430Y-81290831D01*
X165588500Y-81134630D01*
X165588500Y-80975370D01*
X165557430Y-80819169D01*
X165496483Y-80672032D01*
X165414697Y-80549630D01*
X165408004Y-80539612D01*
X165407998Y-80539605D01*
X165295394Y-80427001D01*
X165295387Y-80426995D01*
X165162969Y-80338517D01*
X165015831Y-80277570D01*
X165015823Y-80277568D01*
X164859634Y-80246500D01*
X164859630Y-80246500D01*
X164700370Y-80246500D01*
X164700365Y-80246500D01*
X164544176Y-80277568D01*
X164544168Y-80277570D01*
X164397030Y-80338517D01*
X164264612Y-80426995D01*
X164264605Y-80427001D01*
X164152001Y-80539605D01*
X164151995Y-80539612D01*
X164063517Y-80672030D01*
X164002570Y-80819168D01*
X164002568Y-80819176D01*
X163971500Y-80975365D01*
X163971500Y-81134634D01*
X164002568Y-81290823D01*
X164002570Y-81290831D01*
X164063516Y-81437966D01*
X164066386Y-81443335D01*
X164064028Y-81444595D01*
X164081479Y-81500208D01*
X164081500Y-81502495D01*
X164081500Y-82712638D01*
X164061815Y-82779677D01*
X164060603Y-82781528D01*
X164023516Y-82837033D01*
X163962570Y-82984168D01*
X163962568Y-82984176D01*
X163931500Y-83140365D01*
X154670469Y-83140365D01*
X154670417Y-83135647D01*
X154634875Y-79915394D01*
X154628308Y-79320365D01*
X168391500Y-79320365D01*
X168391500Y-79479634D01*
X168422568Y-79635823D01*
X168422570Y-79635831D01*
X168483517Y-79782969D01*
X168571995Y-79915387D01*
X168572001Y-79915394D01*
X168684605Y-80027998D01*
X168684612Y-80028004D01*
X168817030Y-80116482D01*
X168817031Y-80116482D01*
X168817032Y-80116483D01*
X168964169Y-80177430D01*
X169120365Y-80208499D01*
X169120369Y-80208500D01*
X169120370Y-80208500D01*
X169279631Y-80208500D01*
X169279632Y-80208499D01*
X169435831Y-80177430D01*
X169582968Y-80116483D01*
X169715389Y-80028003D01*
X169828003Y-79915389D01*
X169916483Y-79782968D01*
X169977430Y-79635831D01*
X170008500Y-79479630D01*
X170008500Y-79320370D01*
X169977430Y-79164169D01*
X169916483Y-79017032D01*
X169907876Y-79004151D01*
X169828004Y-78884612D01*
X169827998Y-78884605D01*
X169715394Y-78772001D01*
X169715387Y-78771995D01*
X169582969Y-78683517D01*
X169435831Y-78622570D01*
X169435823Y-78622568D01*
X169279634Y-78591500D01*
X169279630Y-78591500D01*
X169120370Y-78591500D01*
X169120365Y-78591500D01*
X168964176Y-78622568D01*
X168964168Y-78622570D01*
X168817030Y-78683517D01*
X168684612Y-78771995D01*
X168684605Y-78772001D01*
X168572001Y-78884605D01*
X168571995Y-78884612D01*
X168483517Y-79017030D01*
X168422570Y-79164168D01*
X168422568Y-79164176D01*
X168391500Y-79320365D01*
X154628308Y-79320365D01*
X154549953Y-72221200D01*
X154568895Y-72153952D01*
X154621191Y-72107617D01*
X154690235Y-72096911D01*
X154698135Y-72098219D01*
X154744443Y-72107430D01*
X154850367Y-72128499D01*
X154850369Y-72128500D01*
X154850370Y-72128500D01*
X155009631Y-72128500D01*
X155009632Y-72128499D01*
X155165831Y-72097430D01*
X155312968Y-72036483D01*
X155445389Y-71948003D01*
X155558003Y-71835389D01*
X155646483Y-71702968D01*
X155707430Y-71555831D01*
X155738500Y-71399630D01*
X155738500Y-71240370D01*
X155707430Y-71084169D01*
X155646483Y-70937032D01*
X155635091Y-70919983D01*
X155558004Y-70804612D01*
X155557998Y-70804605D01*
X155445394Y-70692001D01*
X155445387Y-70691995D01*
X155312969Y-70603517D01*
X155165831Y-70542570D01*
X155165823Y-70542568D01*
X155009634Y-70511500D01*
X155009630Y-70511500D01*
X154850370Y-70511500D01*
X154850365Y-70511500D01*
X154694172Y-70542568D01*
X154690130Y-70543795D01*
X154620263Y-70544418D01*
X154561151Y-70507169D01*
X154531560Y-70443874D01*
X154530145Y-70426517D01*
X154501529Y-67833845D01*
X169874000Y-67833845D01*
X169874000Y-70406154D01*
X169880511Y-70466702D01*
X169880511Y-70466704D01*
X169913998Y-70556483D01*
X169931611Y-70603704D01*
X170019239Y-70720761D01*
X170136296Y-70808389D01*
X170273299Y-70859489D01*
X170296628Y-70861997D01*
X170333845Y-70865999D01*
X170333862Y-70866000D01*
X172906138Y-70866000D01*
X172906154Y-70865999D01*
X172933192Y-70863091D01*
X172966701Y-70859489D01*
X173103704Y-70808389D01*
X173220761Y-70720761D01*
X173308389Y-70603704D01*
X173359489Y-70466701D01*
X173364191Y-70422968D01*
X173365999Y-70406154D01*
X173366000Y-70406137D01*
X173366000Y-67833862D01*
X173365999Y-67833845D01*
X173359942Y-67777516D01*
X173359489Y-67773299D01*
X173308389Y-67636296D01*
X173220761Y-67519239D01*
X173103704Y-67431611D01*
X173064617Y-67417032D01*
X172966703Y-67380511D01*
X172906154Y-67374000D01*
X172906138Y-67374000D01*
X170333862Y-67374000D01*
X170333845Y-67374000D01*
X170273297Y-67380511D01*
X170273295Y-67380511D01*
X170136295Y-67431611D01*
X170019239Y-67519239D01*
X169931611Y-67636295D01*
X169880511Y-67773295D01*
X169880511Y-67773297D01*
X169874000Y-67833845D01*
X154501529Y-67833845D01*
X154469024Y-64888736D01*
X154469054Y-64884348D01*
X154483272Y-64315155D01*
X154483816Y-64306257D01*
X154489821Y-64244547D01*
X154513073Y-64005553D01*
X169874000Y-64005553D01*
X169874000Y-64234446D01*
X169902642Y-64451997D01*
X169903875Y-64461359D01*
X169914328Y-64500370D01*
X169963113Y-64682437D01*
X170050695Y-64893881D01*
X170050702Y-64893896D01*
X170165138Y-65092106D01*
X170304469Y-65273686D01*
X170304475Y-65273693D01*
X170466306Y-65435524D01*
X170466313Y-65435530D01*
X170647893Y-65574861D01*
X170846103Y-65689297D01*
X170846118Y-65689304D01*
X170937242Y-65727048D01*
X171057563Y-65776887D01*
X171278641Y-65836125D01*
X171505561Y-65866000D01*
X171505568Y-65866000D01*
X171734432Y-65866000D01*
X171734439Y-65866000D01*
X171961359Y-65836125D01*
X172182437Y-65776887D01*
X172393893Y-65689299D01*
X172592107Y-65574861D01*
X172773688Y-65435529D01*
X172935529Y-65273688D01*
X173074861Y-65092107D01*
X173189299Y-64893893D01*
X173276887Y-64682437D01*
X173336125Y-64461359D01*
X173366000Y-64234439D01*
X173366000Y-64005561D01*
X173336125Y-63778641D01*
X173276887Y-63557563D01*
X173211001Y-63398500D01*
X173189304Y-63346118D01*
X173189297Y-63346103D01*
X173074861Y-63147893D01*
X172935530Y-62966313D01*
X172935524Y-62966306D01*
X172773693Y-62804475D01*
X172773686Y-62804469D01*
X172592106Y-62665138D01*
X172393896Y-62550702D01*
X172393881Y-62550695D01*
X172182437Y-62463113D01*
X171961355Y-62403874D01*
X171734446Y-62374000D01*
X171734439Y-62374000D01*
X171505561Y-62374000D01*
X171505553Y-62374000D01*
X171278644Y-62403874D01*
X171057562Y-62463113D01*
X170846118Y-62550695D01*
X170846103Y-62550702D01*
X170647893Y-62665138D01*
X170466313Y-62804469D01*
X170466306Y-62804475D01*
X170304475Y-62966306D01*
X170304469Y-62966313D01*
X170165138Y-63147893D01*
X170050702Y-63346103D01*
X170050695Y-63346118D01*
X169963113Y-63557562D01*
X169903874Y-63778644D01*
X169874000Y-64005553D01*
X154513073Y-64005553D01*
X154538733Y-63741819D01*
X154539916Y-63732981D01*
X154549159Y-63678819D01*
X154635304Y-63173971D01*
X154637120Y-63165239D01*
X154641384Y-63147893D01*
X154772493Y-62614507D01*
X154774921Y-62605969D01*
X154949579Y-62066387D01*
X154952616Y-62058044D01*
X155165639Y-61532447D01*
X155169274Y-61524331D01*
X155419570Y-61015417D01*
X155423780Y-61007583D01*
X155710045Y-60518000D01*
X155714783Y-60510527D01*
X156035549Y-60042792D01*
X156040845Y-60035637D01*
X156042137Y-60034017D01*
X156394408Y-59592229D01*
X156400200Y-59585479D01*
X156784764Y-59168648D01*
X156791026Y-59162334D01*
X157204582Y-58774262D01*
X157211275Y-58768420D01*
X157651693Y-58411104D01*
X157658797Y-58405753D01*
X158123766Y-58081066D01*
X158131239Y-58076238D01*
X158618385Y-57785839D01*
X158626168Y-57781571D01*
X159132958Y-57526974D01*
X159141023Y-57523279D01*
X159664833Y-57305803D01*
X159673129Y-57302704D01*
X160211197Y-57123493D01*
X160219737Y-57120985D01*
X160769321Y-56980953D01*
X160777997Y-56979073D01*
X161336198Y-56878955D01*
X161345028Y-56877697D01*
X161908994Y-56818005D01*
X161917852Y-56817388D01*
X162486918Y-56798355D01*
X162491299Y-56798287D01*
X174018623Y-56827982D01*
G37*
%TD.AperFunction*%
%TA.AperFunction,Conductor*%
G36*
X122475000Y-97246155D02*
G01*
X122457693Y-97224282D01*
X122162071Y-96783703D01*
X121975000Y-96451296D01*
X121975000Y-95988012D01*
X122032007Y-96020925D01*
X122159174Y-96055000D01*
X122290826Y-96055000D01*
X122417993Y-96020925D01*
X122475000Y-95988012D01*
X122475000Y-97246155D01*
G37*
%TD.AperFunction*%
%TD*%
%TA.AperFunction,Conductor*%
%TO.N,/2V85D*%
G36*
X150253511Y-60372362D02*
G01*
X150262272Y-60373193D01*
X150265893Y-60373537D01*
X150278259Y-60375343D01*
X150324353Y-60384471D01*
X150348233Y-60391763D01*
X150370921Y-60401282D01*
X150392853Y-60413211D01*
X150415874Y-60428927D01*
X150434974Y-60445011D01*
X150452103Y-60462675D01*
X150467588Y-60482255D01*
X150482590Y-60505751D01*
X150493842Y-60528046D01*
X150502656Y-60551010D01*
X150509211Y-60575107D01*
X150516914Y-60621441D01*
X150518340Y-60633862D01*
X150519135Y-60646291D01*
X150519303Y-60658795D01*
X150510687Y-60891435D01*
X150510000Y-60909987D01*
X150510000Y-60910000D01*
X150518369Y-61276006D01*
X150519539Y-61327194D01*
X150523596Y-61504635D01*
X150554870Y-62872502D01*
X150554859Y-62878604D01*
X150554699Y-62884673D01*
X150554390Y-62890740D01*
X150541693Y-63058924D01*
X150540182Y-63071004D01*
X150538086Y-63082958D01*
X150535397Y-63094833D01*
X150492580Y-63248466D01*
X150488744Y-63260008D01*
X150484357Y-63271321D01*
X150479399Y-63282451D01*
X150407415Y-63424784D01*
X150401392Y-63435368D01*
X150394885Y-63445599D01*
X150387857Y-63455536D01*
X150289481Y-63581077D01*
X150281510Y-63590280D01*
X150273128Y-63599048D01*
X150264295Y-63607423D01*
X150143309Y-63711351D01*
X150133695Y-63718821D01*
X150123758Y-63725788D01*
X150113459Y-63732280D01*
X149974512Y-63810596D01*
X149963627Y-63816045D01*
X149952541Y-63820930D01*
X149941172Y-63825287D01*
X149789602Y-63874981D01*
X149777864Y-63878200D01*
X149766031Y-63880829D01*
X149754028Y-63882884D01*
X149586569Y-63903141D01*
X149580516Y-63903723D01*
X149578162Y-63903891D01*
X149574462Y-63904155D01*
X149568380Y-63904440D01*
X147781412Y-63944055D01*
X147781411Y-63944055D01*
X147569303Y-63948755D01*
X147555778Y-63948316D01*
X147547316Y-63947577D01*
X147542351Y-63947144D01*
X147528945Y-63945232D01*
X147523027Y-63944055D01*
X147428216Y-63925197D01*
X147428216Y-63925196D01*
X147428213Y-63925196D01*
X147409632Y-63921500D01*
X147409630Y-63921500D01*
X147250370Y-63921500D01*
X147250366Y-63921500D01*
X147135482Y-63944351D01*
X147130976Y-63943947D01*
X147065062Y-63957814D01*
X147042283Y-63960440D01*
X146160000Y-63980000D01*
X146169226Y-64967215D01*
X146170640Y-65118506D01*
X146190557Y-67249658D01*
X146190463Y-67255759D01*
X146190220Y-67261851D01*
X146189829Y-67267919D01*
X146174849Y-67435960D01*
X146173173Y-67448025D01*
X146170915Y-67459947D01*
X146168065Y-67471783D01*
X146123144Y-67624882D01*
X146119143Y-67636391D01*
X146114598Y-67647649D01*
X146109492Y-67658701D01*
X146035549Y-67800069D01*
X146029380Y-67810572D01*
X146022724Y-67820727D01*
X146015558Y-67830570D01*
X145915426Y-67954794D01*
X145907324Y-67963892D01*
X145898826Y-67972539D01*
X145889877Y-67980792D01*
X145767414Y-68083080D01*
X145757691Y-68090422D01*
X145747660Y-68097249D01*
X145737271Y-68103596D01*
X145597206Y-68179997D01*
X145586243Y-68185296D01*
X145575074Y-68190033D01*
X145563642Y-68194232D01*
X145411358Y-68241818D01*
X145399560Y-68244877D01*
X145387667Y-68247344D01*
X145375644Y-68249228D01*
X145207895Y-68267136D01*
X145201821Y-68267634D01*
X145195726Y-68267983D01*
X145189641Y-68268182D01*
X139722945Y-68312460D01*
X139698245Y-68310178D01*
X139674258Y-68305508D01*
X139650507Y-68298355D01*
X139515839Y-68242573D01*
X139515836Y-68242572D01*
X139515831Y-68242570D01*
X139515823Y-68242568D01*
X139515815Y-68242566D01*
X139515805Y-68242564D01*
X139359636Y-68211500D01*
X139359634Y-68211500D01*
X139359630Y-68211500D01*
X139200370Y-68211500D01*
X139200365Y-68211500D01*
X139200363Y-68211500D01*
X139044193Y-68242564D01*
X139044166Y-68242570D01*
X138900362Y-68302135D01*
X138883521Y-68307736D01*
X138851379Y-68315924D01*
X138821772Y-68319758D01*
X138098311Y-68325618D01*
X138063334Y-68320877D01*
X138049988Y-68317075D01*
X137990907Y-68279777D01*
X137961370Y-68216457D01*
X137961369Y-68216451D01*
X137960605Y-68211424D01*
X137968636Y-68145341D01*
X137997430Y-68075831D01*
X138028500Y-67919630D01*
X138028500Y-67760370D01*
X138028500Y-67760369D01*
X138028500Y-67760367D01*
X138028499Y-67760365D01*
X138007202Y-67653296D01*
X137997430Y-67604169D01*
X137951763Y-67493921D01*
X137943035Y-67459726D01*
X137941133Y-67442034D01*
X137940223Y-67433574D01*
X137948952Y-67372864D01*
X137997428Y-67255836D01*
X137997429Y-67255833D01*
X137997430Y-67255831D01*
X138028500Y-67099630D01*
X138028500Y-66940370D01*
X137997430Y-66784169D01*
X137997428Y-66784164D01*
X137985756Y-66755985D01*
X137977031Y-66721796D01*
X137976562Y-66717430D01*
X137974219Y-66695641D01*
X137982947Y-66634933D01*
X138007430Y-66575831D01*
X138038500Y-66419630D01*
X138038500Y-66260370D01*
X138007430Y-66104169D01*
X137958834Y-65986850D01*
X137950105Y-65952651D01*
X137947294Y-65926502D01*
X137956023Y-65865795D01*
X137964629Y-65845016D01*
X137997430Y-65765831D01*
X138028500Y-65609630D01*
X138028500Y-65450370D01*
X137997430Y-65294169D01*
X137936483Y-65147032D01*
X137926105Y-65131500D01*
X137913722Y-65112967D01*
X137913721Y-65112967D01*
X137848004Y-65014612D01*
X137848001Y-65014609D01*
X137847998Y-65014605D01*
X137735394Y-64902001D01*
X137735387Y-64901995D01*
X137606440Y-64815836D01*
X137602968Y-64813516D01*
X137516777Y-64777814D01*
X137455831Y-64752570D01*
X137455823Y-64752568D01*
X137455815Y-64752566D01*
X137455805Y-64752564D01*
X137299636Y-64721500D01*
X137299634Y-64721500D01*
X137299630Y-64721500D01*
X137140370Y-64721500D01*
X137140365Y-64721500D01*
X137140363Y-64721500D01*
X136984193Y-64752564D01*
X136984168Y-64752570D01*
X136837030Y-64813516D01*
X136704609Y-64901997D01*
X136704596Y-64902009D01*
X136592009Y-65014596D01*
X136591997Y-65014609D01*
X136503516Y-65147030D01*
X136442570Y-65294168D01*
X136442564Y-65294193D01*
X136411500Y-65450362D01*
X136411500Y-65450365D01*
X136411500Y-65609634D01*
X136411500Y-65609636D01*
X136411499Y-65609636D01*
X136442564Y-65765805D01*
X136442568Y-65765823D01*
X136442570Y-65765831D01*
X136487988Y-65875480D01*
X136491164Y-65883147D01*
X136499891Y-65917341D01*
X136500877Y-65926502D01*
X136502704Y-65943498D01*
X136493975Y-66004203D01*
X136452571Y-66104164D01*
X136452570Y-66104168D01*
X136452564Y-66104193D01*
X136421500Y-66260362D01*
X136421500Y-66419632D01*
X136452573Y-66575855D01*
X136452802Y-66576535D01*
X136453017Y-66577187D01*
X136454246Y-66579880D01*
X136464238Y-66604002D01*
X136472967Y-66638200D01*
X136475779Y-66664354D01*
X136467052Y-66725061D01*
X136442569Y-66784168D01*
X136442565Y-66784182D01*
X136411500Y-66940360D01*
X136411500Y-66940365D01*
X136411500Y-67099634D01*
X136411500Y-67099636D01*
X136411499Y-67099636D01*
X136442564Y-67255805D01*
X136442570Y-67255831D01*
X136442571Y-67255833D01*
X136488235Y-67366078D01*
X136496963Y-67400273D01*
X136499775Y-67426424D01*
X136491047Y-67487134D01*
X136442573Y-67604159D01*
X136442569Y-67604172D01*
X136442564Y-67604193D01*
X136411500Y-67760362D01*
X136411500Y-67760365D01*
X136411500Y-67919634D01*
X136411500Y-67919636D01*
X136411499Y-67919636D01*
X136442564Y-68075805D01*
X136442568Y-68075823D01*
X136442570Y-68075831D01*
X136442573Y-68075839D01*
X136442575Y-68075844D01*
X136474004Y-68151721D01*
X136482732Y-68185912D01*
X136484216Y-68199709D01*
X136471814Y-68268469D01*
X136424207Y-68319607D01*
X136424190Y-68319618D01*
X136419549Y-68322371D01*
X136357290Y-68339719D01*
X130105886Y-68390354D01*
X130099816Y-68390254D01*
X130093705Y-68390003D01*
X130087651Y-68389605D01*
X129919554Y-68374404D01*
X129907496Y-68372713D01*
X129895565Y-68370438D01*
X129883719Y-68367570D01*
X129730635Y-68322429D01*
X129719129Y-68318411D01*
X129707876Y-68313850D01*
X129696835Y-68308731D01*
X129691141Y-68305743D01*
X129691133Y-68305739D01*
X129689736Y-68305006D01*
X129592917Y-68254190D01*
X129582230Y-68248581D01*
X129555507Y-68234555D01*
X129545008Y-68228368D01*
X129534870Y-68221702D01*
X129525036Y-68214520D01*
X129400921Y-68114175D01*
X129391835Y-68106060D01*
X129383188Y-68097537D01*
X129374942Y-68088569D01*
X129281952Y-67976889D01*
X129281952Y-67976888D01*
X129272813Y-67965912D01*
X129265495Y-67956190D01*
X129258676Y-67946139D01*
X129252351Y-67935750D01*
X129176137Y-67795496D01*
X129170860Y-67784534D01*
X129166125Y-67773320D01*
X129161946Y-67761877D01*
X129161477Y-67760367D01*
X129114601Y-67609465D01*
X129111571Y-67597701D01*
X129109116Y-67585769D01*
X129107257Y-67573769D01*
X129097144Y-67477453D01*
X129089625Y-67405855D01*
X129089143Y-67399844D01*
X129088803Y-67393728D01*
X129088616Y-67387704D01*
X129085344Y-66871424D01*
X129090148Y-66836462D01*
X129093974Y-66823120D01*
X129131379Y-66764107D01*
X129194743Y-66734686D01*
X129205352Y-66733092D01*
X129247966Y-66734098D01*
X129275236Y-66739522D01*
X129308389Y-66746116D01*
X129316247Y-66748500D01*
X129479631Y-66748500D01*
X129483752Y-66748500D01*
X129491605Y-66746117D01*
X129635831Y-66717430D01*
X129635836Y-66717427D01*
X129635839Y-66717427D01*
X129746076Y-66671764D01*
X129780273Y-66663035D01*
X129796466Y-66661293D01*
X129806424Y-66660223D01*
X129867130Y-66668950D01*
X129984169Y-66717430D01*
X130099427Y-66740356D01*
X130137394Y-66747908D01*
X130139629Y-66748409D01*
X130140367Y-66748500D01*
X130299631Y-66748500D01*
X130303752Y-66748500D01*
X130311605Y-66746117D01*
X130455831Y-66717430D01*
X130501078Y-66698686D01*
X130535265Y-66689959D01*
X130561430Y-66687146D01*
X130622133Y-66695875D01*
X130661713Y-66712270D01*
X130669207Y-66715375D01*
X130674169Y-66717430D01*
X130674173Y-66717431D01*
X130789427Y-66740356D01*
X130827394Y-66747908D01*
X130829629Y-66748409D01*
X130830367Y-66748500D01*
X130989631Y-66748500D01*
X130993752Y-66748500D01*
X131001605Y-66746117D01*
X131145831Y-66717430D01*
X131145836Y-66717427D01*
X131145839Y-66717427D01*
X131256076Y-66671764D01*
X131290273Y-66663035D01*
X131306466Y-66661293D01*
X131316424Y-66660223D01*
X131377130Y-66668950D01*
X131494169Y-66717430D01*
X131609427Y-66740356D01*
X131647394Y-66747908D01*
X131649629Y-66748409D01*
X131650367Y-66748500D01*
X131809631Y-66748500D01*
X131813752Y-66748500D01*
X131821605Y-66746117D01*
X131965831Y-66717430D01*
X132112968Y-66656483D01*
X132245389Y-66568003D01*
X132358003Y-66455389D01*
X132446483Y-66322968D01*
X132507430Y-66175831D01*
X132538500Y-66019630D01*
X132538500Y-65860370D01*
X132507430Y-65704169D01*
X132446483Y-65557032D01*
X132417407Y-65513517D01*
X132375211Y-65450365D01*
X132358007Y-65424616D01*
X132358005Y-65424614D01*
X132358004Y-65424612D01*
X132357998Y-65424605D01*
X132245394Y-65312001D01*
X132245387Y-65311995D01*
X132112969Y-65223517D01*
X132112970Y-65223517D01*
X132112968Y-65223516D01*
X132026777Y-65187814D01*
X131965831Y-65162570D01*
X131965823Y-65162568D01*
X131965815Y-65162566D01*
X131965805Y-65162564D01*
X131809636Y-65131500D01*
X131809634Y-65131500D01*
X131809630Y-65131500D01*
X131650370Y-65131500D01*
X131650365Y-65131500D01*
X131650363Y-65131500D01*
X131494193Y-65162564D01*
X131494177Y-65162567D01*
X131494176Y-65162568D01*
X131494168Y-65162570D01*
X131494163Y-65162571D01*
X131494154Y-65162575D01*
X131383921Y-65208235D01*
X131349726Y-65216963D01*
X131323575Y-65219775D01*
X131262866Y-65211047D01*
X131149884Y-65164249D01*
X131145831Y-65162570D01*
X131145823Y-65162568D01*
X131145818Y-65162567D01*
X131145805Y-65162564D01*
X130989636Y-65131500D01*
X130989634Y-65131500D01*
X130989630Y-65131500D01*
X130830370Y-65131500D01*
X130830365Y-65131500D01*
X130774409Y-65142630D01*
X130686141Y-65160187D01*
X130677979Y-65160990D01*
X130677759Y-65161082D01*
X130673649Y-65162635D01*
X130670118Y-65164247D01*
X130652648Y-65171483D01*
X130645192Y-65174572D01*
X130639352Y-65176990D01*
X130628919Y-65181312D01*
X130594721Y-65190039D01*
X130568565Y-65192850D01*
X130507870Y-65184124D01*
X130499380Y-65180608D01*
X130499372Y-65180605D01*
X130459885Y-65164249D01*
X130457188Y-65163018D01*
X130456506Y-65162793D01*
X130455849Y-65162572D01*
X130355590Y-65142630D01*
X130299634Y-65131500D01*
X130299633Y-65131500D01*
X130140363Y-65131500D01*
X129984193Y-65162564D01*
X129984177Y-65162567D01*
X129984176Y-65162568D01*
X129984168Y-65162570D01*
X129984163Y-65162571D01*
X129984154Y-65162575D01*
X129873921Y-65208235D01*
X129869266Y-65208735D01*
X129865414Y-65211400D01*
X129839726Y-65216963D01*
X129813575Y-65219775D01*
X129752866Y-65211047D01*
X129639884Y-65164249D01*
X129635831Y-65162570D01*
X129635823Y-65162568D01*
X129618333Y-65159088D01*
X129594606Y-65154369D01*
X129561328Y-65142630D01*
X129549027Y-65136196D01*
X129498746Y-65087682D01*
X129482676Y-65019687D01*
X129482981Y-65014006D01*
X129492235Y-64973221D01*
X129492688Y-64972127D01*
X129496379Y-64964045D01*
X129506338Y-64944156D01*
X129506290Y-64942009D01*
X129511461Y-64926806D01*
X129557430Y-64815831D01*
X129588500Y-64659630D01*
X129588500Y-64500370D01*
X129557430Y-64344169D01*
X129496483Y-64197032D01*
X129432983Y-64101997D01*
X129432981Y-64101994D01*
X129408012Y-64064623D01*
X129408005Y-64064613D01*
X129408001Y-64064609D01*
X129407998Y-64064605D01*
X129295391Y-63951998D01*
X129295390Y-63951997D01*
X129295389Y-63951996D01*
X129295386Y-63951994D01*
X129162979Y-63863522D01*
X129162972Y-63863518D01*
X129162961Y-63863514D01*
X129158520Y-63861674D01*
X129128170Y-63843666D01*
X129116000Y-63833859D01*
X129076151Y-63776467D01*
X129076150Y-63776463D01*
X129071747Y-63763233D01*
X129065404Y-63724868D01*
X129062093Y-63202435D01*
X129066894Y-63167480D01*
X129071205Y-63152444D01*
X129108602Y-63093437D01*
X129114036Y-63088668D01*
X129171636Y-63060252D01*
X129185831Y-63057430D01*
X129332968Y-62996483D01*
X129465389Y-62908003D01*
X129578003Y-62795389D01*
X129666483Y-62662968D01*
X129727430Y-62515831D01*
X129758500Y-62359630D01*
X129758500Y-62200370D01*
X129727430Y-62044169D01*
X129668812Y-61902655D01*
X129667165Y-61898052D01*
X129666482Y-61897029D01*
X129589301Y-61781519D01*
X129574071Y-61749685D01*
X129564165Y-61718047D01*
X129558500Y-61680996D01*
X129558500Y-60725078D01*
X129563522Y-60690147D01*
X129566824Y-60678900D01*
X129568575Y-60672934D01*
X129603173Y-60617004D01*
X129611891Y-60608908D01*
X129637110Y-60590798D01*
X129646776Y-60585553D01*
X129657704Y-60580301D01*
X129668891Y-60575584D01*
X129680310Y-60571418D01*
X129832613Y-60524172D01*
X129844371Y-60521148D01*
X129856260Y-60518705D01*
X129868257Y-60516849D01*
X130036007Y-60499264D01*
X130042017Y-60498783D01*
X130048085Y-60498447D01*
X130054145Y-60498261D01*
X136682051Y-60456742D01*
X136706626Y-60459047D01*
X136730509Y-60463720D01*
X136754126Y-60470844D01*
X136758821Y-60472788D01*
X136758835Y-60472799D01*
X136758837Y-60472795D01*
X136778159Y-60480798D01*
X136794169Y-60487430D01*
X136945257Y-60517483D01*
X136947394Y-60517908D01*
X136949628Y-60518409D01*
X136950367Y-60518500D01*
X137109631Y-60518500D01*
X137113752Y-60518500D01*
X137121605Y-60516117D01*
X137265831Y-60487430D01*
X137316504Y-60466439D01*
X137339373Y-60459463D01*
X137352830Y-60456742D01*
X137362490Y-60454788D01*
X137386279Y-60452331D01*
X138212884Y-60447153D01*
X138229907Y-60451998D01*
X138247359Y-60451818D01*
X138247473Y-60451850D01*
X138273003Y-60459174D01*
X138326492Y-60490685D01*
X138334205Y-60498398D01*
X138334212Y-60498404D01*
X138466630Y-60586882D01*
X138466631Y-60586882D01*
X138466632Y-60586883D01*
X138613769Y-60647830D01*
X138724985Y-60669952D01*
X138766994Y-60678308D01*
X138769229Y-60678809D01*
X138769967Y-60678900D01*
X138929231Y-60678900D01*
X138933352Y-60678900D01*
X138941205Y-60676517D01*
X139085431Y-60647830D01*
X139232568Y-60586883D01*
X139364989Y-60498403D01*
X139375218Y-60488173D01*
X139403470Y-60467022D01*
X139426682Y-60454347D01*
X139485325Y-60439183D01*
X143050615Y-60416849D01*
X143085575Y-60421653D01*
X143100602Y-60425964D01*
X143159614Y-60463370D01*
X143164377Y-60468798D01*
X143192789Y-60526392D01*
X143212564Y-60625805D01*
X143212570Y-60625833D01*
X143224023Y-60653483D01*
X143232750Y-60687676D01*
X143234421Y-60703215D01*
X143222017Y-60771975D01*
X143222015Y-60771978D01*
X143215918Y-60784158D01*
X143192716Y-60816334D01*
X143117614Y-60891435D01*
X143117608Y-60891442D01*
X143029132Y-61023857D01*
X142968185Y-61170997D01*
X142968179Y-61171022D01*
X142937115Y-61327191D01*
X142937115Y-61327194D01*
X142937115Y-61486463D01*
X142937115Y-61486465D01*
X142937114Y-61486465D01*
X142968179Y-61642634D01*
X142968183Y-61642652D01*
X142968185Y-61642660D01*
X142991028Y-61697808D01*
X143029131Y-61789797D01*
X143029132Y-61789798D01*
X143117610Y-61922216D01*
X143117616Y-61922223D01*
X143230220Y-62034827D01*
X143230227Y-62034833D01*
X143362645Y-62123311D01*
X143362646Y-62123311D01*
X143362647Y-62123312D01*
X143362649Y-62123312D01*
X143363667Y-62123993D01*
X143368265Y-62125639D01*
X143509784Y-62184259D01*
X143654000Y-62212945D01*
X143663009Y-62214737D01*
X143665244Y-62215238D01*
X143665982Y-62215329D01*
X143825246Y-62215329D01*
X143829367Y-62215329D01*
X143837220Y-62212946D01*
X143981446Y-62184259D01*
X144128583Y-62123312D01*
X144261004Y-62034832D01*
X144373618Y-61922218D01*
X144462098Y-61789797D01*
X144523045Y-61642660D01*
X144554115Y-61486459D01*
X144554115Y-61327199D01*
X144553691Y-61325070D01*
X144551802Y-61289835D01*
X144553039Y-61276003D01*
X144578620Y-61210987D01*
X144635288Y-61170121D01*
X144640234Y-61168376D01*
X144705675Y-61163697D01*
X144764306Y-61175359D01*
X144764326Y-61175362D01*
X144764348Y-61175367D01*
X144828190Y-61188066D01*
X144830186Y-61188500D01*
X144989631Y-61188500D01*
X144993752Y-61188500D01*
X145001605Y-61186117D01*
X145145831Y-61157430D01*
X145292968Y-61096483D01*
X145425389Y-61008003D01*
X145538003Y-60895389D01*
X145626483Y-60762968D01*
X145687430Y-60615831D01*
X145695905Y-60573224D01*
X145706791Y-60518499D01*
X145706797Y-60518500D01*
X145706797Y-60518463D01*
X145707151Y-60516686D01*
X145718881Y-60483447D01*
X145726130Y-60469588D01*
X145774637Y-60419314D01*
X145781144Y-60415608D01*
X145841719Y-60399366D01*
X150241022Y-60371809D01*
X150253511Y-60372362D01*
G37*
%TD.AperFunction*%
%TD*%
%TA.AperFunction,Conductor*%
%TO.N,/2V85A*%
G36*
X150390894Y-68755637D02*
G01*
X150423798Y-68764234D01*
X150440094Y-68768493D01*
X150496097Y-68800456D01*
X150520133Y-68824313D01*
X150552512Y-68880076D01*
X150561306Y-68912734D01*
X150565735Y-68929179D01*
X150570000Y-68961422D01*
X150570000Y-69124559D01*
X150569997Y-69125489D01*
X150569895Y-69139090D01*
X150569867Y-69140931D01*
X150569568Y-69154309D01*
X150569544Y-69155238D01*
X150530000Y-70479987D01*
X150515755Y-71414797D01*
X150467744Y-74565554D01*
X150467395Y-74588500D01*
X150467208Y-74600744D01*
X150467208Y-74600745D01*
X150465450Y-74716068D01*
X150464674Y-74728157D01*
X150444727Y-74903970D01*
X150439665Y-74927634D01*
X150387803Y-75090409D01*
X150378242Y-75112640D01*
X150295748Y-75262250D01*
X150282051Y-75282200D01*
X150172073Y-75412935D01*
X150154762Y-75429845D01*
X150021485Y-75536730D01*
X150001220Y-75549956D01*
X149950605Y-75576338D01*
X149849720Y-75628921D01*
X149827273Y-75637958D01*
X149663319Y-75685993D01*
X149639543Y-75690498D01*
X149463321Y-75706319D01*
X149451217Y-75706812D01*
X147759386Y-75692944D01*
X147712949Y-75683509D01*
X147565831Y-75622570D01*
X147565823Y-75622568D01*
X147409634Y-75591500D01*
X147409630Y-75591500D01*
X147250370Y-75591500D01*
X147250365Y-75591500D01*
X147094176Y-75622568D01*
X147094168Y-75622570D01*
X146963754Y-75676590D01*
X146915285Y-75686025D01*
X144863582Y-75669208D01*
X144796706Y-75648974D01*
X144795709Y-75648316D01*
X144786696Y-75642294D01*
X144779200Y-75637285D01*
X144779199Y-75637284D01*
X144779197Y-75637283D01*
X144632063Y-75576338D01*
X144632055Y-75576336D01*
X144475866Y-75545268D01*
X144475862Y-75545268D01*
X144316602Y-75545268D01*
X144316597Y-75545268D01*
X144160408Y-75576336D01*
X144160400Y-75576338D01*
X144013259Y-75637286D01*
X144008098Y-75640735D01*
X143941419Y-75661608D01*
X143938199Y-75661624D01*
X141579820Y-75642294D01*
X141575166Y-76645849D01*
X141567556Y-78287037D01*
X141566905Y-78299162D01*
X141548742Y-78475567D01*
X141543910Y-78499335D01*
X141493552Y-78662991D01*
X141484186Y-78685364D01*
X141402931Y-78836092D01*
X141389388Y-78856214D01*
X141280351Y-78988234D01*
X141263151Y-79005335D01*
X141130493Y-79113609D01*
X141110293Y-79127035D01*
X140959102Y-79207411D01*
X140936675Y-79216647D01*
X140772727Y-79266055D01*
X140748930Y-79270749D01*
X140572417Y-79287887D01*
X140560289Y-79288467D01*
X138921520Y-79286553D01*
X132012223Y-79278482D01*
X131945207Y-79258719D01*
X131909266Y-79223373D01*
X131870001Y-79164608D01*
X131757394Y-79052001D01*
X131757387Y-79051995D01*
X131624969Y-78963517D01*
X131477831Y-78902570D01*
X131477823Y-78902568D01*
X131321634Y-78871500D01*
X131321630Y-78871500D01*
X131162370Y-78871500D01*
X131162365Y-78871500D01*
X131006176Y-78902568D01*
X131006168Y-78902570D01*
X130859030Y-78963517D01*
X130726612Y-79051995D01*
X130726605Y-79052001D01*
X130613999Y-79164607D01*
X130613996Y-79164611D01*
X130575934Y-79221575D01*
X130522321Y-79266380D01*
X130472687Y-79276684D01*
X129784913Y-79275881D01*
X129737605Y-79266442D01*
X129655831Y-79232570D01*
X129655821Y-79232567D01*
X129653297Y-79232065D01*
X129652098Y-79231437D01*
X129649999Y-79230801D01*
X129650119Y-79230402D01*
X129591389Y-79199674D01*
X129556821Y-79138955D01*
X129553500Y-79110450D01*
X129553500Y-78639178D01*
X129573185Y-78572139D01*
X129625989Y-78526384D01*
X129630047Y-78524617D01*
X129631730Y-78523919D01*
X129697968Y-78496483D01*
X129830389Y-78408003D01*
X129943003Y-78295389D01*
X130031483Y-78162968D01*
X130092430Y-78015831D01*
X130123500Y-77859630D01*
X130123500Y-77700370D01*
X130092430Y-77544169D01*
X130031483Y-77397032D01*
X129972191Y-77308295D01*
X129943004Y-77264612D01*
X129942998Y-77264605D01*
X129830394Y-77152001D01*
X129830387Y-77151995D01*
X129697969Y-77063517D01*
X129550831Y-77002570D01*
X129550823Y-77002568D01*
X129394634Y-76971500D01*
X129394630Y-76971500D01*
X129235370Y-76971500D01*
X129235365Y-76971500D01*
X129079176Y-77002568D01*
X129079168Y-77002570D01*
X128932030Y-77063517D01*
X128799612Y-77151995D01*
X128799611Y-77151996D01*
X128686994Y-77264614D01*
X128686991Y-77264617D01*
X128675242Y-77282201D01*
X128651849Y-77308295D01*
X128513981Y-77423980D01*
X128387056Y-77575243D01*
X128288326Y-77746249D01*
X128288323Y-77746256D01*
X128220787Y-77931808D01*
X128186499Y-78126269D01*
X128186499Y-78126273D01*
X128186500Y-78199769D01*
X128186500Y-79149869D01*
X128166815Y-79216908D01*
X128114011Y-79262663D01*
X128062355Y-79273869D01*
X125598494Y-79270992D01*
X125586337Y-79270380D01*
X125409439Y-79252743D01*
X125385596Y-79247970D01*
X125221388Y-79197932D01*
X125198935Y-79188598D01*
X125047646Y-79107474D01*
X125027447Y-79093937D01*
X124894905Y-78984855D01*
X124877735Y-78967637D01*
X124824491Y-78902568D01*
X124769022Y-78834779D01*
X124755544Y-78814542D01*
X124674853Y-78663030D01*
X124665582Y-78640551D01*
X124630613Y-78524617D01*
X124616008Y-78476196D01*
X124611305Y-78452354D01*
X124594165Y-78275383D01*
X124593589Y-78263226D01*
X124594576Y-77669967D01*
X124614371Y-77602965D01*
X124630886Y-77582505D01*
X124658003Y-77555389D01*
X124746483Y-77422968D01*
X124807430Y-77275831D01*
X124838500Y-77119630D01*
X124838500Y-76960370D01*
X124807430Y-76804169D01*
X124746483Y-76657032D01*
X124690337Y-76573003D01*
X124658004Y-76524612D01*
X124657998Y-76524605D01*
X124632989Y-76499596D01*
X124599504Y-76438273D01*
X124596670Y-76411709D01*
X124597236Y-76071354D01*
X124617032Y-76004349D01*
X124669912Y-75958682D01*
X124739087Y-75948854D01*
X124790124Y-75968459D01*
X124847032Y-76006483D01*
X124994169Y-76067430D01*
X125125319Y-76093517D01*
X125150365Y-76098499D01*
X125150369Y-76098500D01*
X125150370Y-76098500D01*
X125309631Y-76098500D01*
X125309632Y-76098499D01*
X125465831Y-76067430D01*
X125612968Y-76006483D01*
X125745389Y-75918003D01*
X125858003Y-75805389D01*
X125946483Y-75672968D01*
X126007430Y-75525831D01*
X126038500Y-75369630D01*
X126038500Y-75210370D01*
X126007430Y-75054169D01*
X125946483Y-74907032D01*
X125924171Y-74873640D01*
X125858004Y-74774612D01*
X125857998Y-74774605D01*
X125745394Y-74662001D01*
X125745387Y-74661995D01*
X125612969Y-74573517D01*
X125465831Y-74512570D01*
X125465823Y-74512568D01*
X125309634Y-74481500D01*
X125309630Y-74481500D01*
X125150370Y-74481500D01*
X125150365Y-74481500D01*
X124999912Y-74511427D01*
X124930320Y-74505200D01*
X124888040Y-74477491D01*
X124636770Y-74226221D01*
X124603285Y-74164898D01*
X124600452Y-74138345D01*
X124603024Y-72591852D01*
X124622819Y-72524852D01*
X124658129Y-72488966D01*
X124740389Y-72434003D01*
X124853003Y-72321389D01*
X124941483Y-72188968D01*
X125002430Y-72041831D01*
X125033500Y-71885630D01*
X125033500Y-71726370D01*
X125002430Y-71570169D01*
X124941483Y-71423032D01*
X124935979Y-71414795D01*
X124853004Y-71290612D01*
X124852998Y-71290605D01*
X124740394Y-71178001D01*
X124740387Y-71177995D01*
X124707621Y-71156102D01*
X124662815Y-71102490D01*
X124654108Y-71033165D01*
X124684262Y-70970138D01*
X124707621Y-70949898D01*
X124737954Y-70929630D01*
X124740389Y-70928003D01*
X124853003Y-70815389D01*
X124941483Y-70682968D01*
X125002430Y-70535831D01*
X125033500Y-70379630D01*
X125033500Y-70220370D01*
X125002430Y-70064169D01*
X124941483Y-69917032D01*
X124931843Y-69902605D01*
X124849619Y-69779546D01*
X124851985Y-69777964D01*
X124829411Y-69724895D01*
X124841163Y-69656021D01*
X124856890Y-69631595D01*
X124879497Y-69604173D01*
X124893600Y-69587064D01*
X124910835Y-69569907D01*
X125043864Y-69461259D01*
X125064111Y-69447802D01*
X125215794Y-69367216D01*
X125238277Y-69357972D01*
X125402771Y-69308553D01*
X125426638Y-69303874D01*
X125603722Y-69286939D01*
X125615856Y-69286378D01*
X126422948Y-69288728D01*
X128111545Y-69293643D01*
X128123686Y-69294274D01*
X128300474Y-69312201D01*
X128324278Y-69317006D01*
X128488331Y-69367280D01*
X128510752Y-69376642D01*
X128661834Y-69457939D01*
X128682003Y-69471496D01*
X128814326Y-69580698D01*
X128831463Y-69597929D01*
X128939950Y-69730848D01*
X128953398Y-69751091D01*
X129033870Y-69902605D01*
X129043112Y-69925081D01*
X129092491Y-70089394D01*
X129097170Y-70113242D01*
X129114135Y-70290103D01*
X129114702Y-70302255D01*
X129112515Y-71170840D01*
X129092661Y-71237830D01*
X129087783Y-71244837D01*
X129063113Y-71277792D01*
X129063110Y-71277799D01*
X129012011Y-71414795D01*
X129012011Y-71414797D01*
X129005500Y-71475345D01*
X129005500Y-73912862D01*
X129005499Y-74653123D01*
X129005499Y-74653128D01*
X129016228Y-74738545D01*
X129016229Y-74738549D01*
X129072185Y-74873639D01*
X129076909Y-74879720D01*
X129102490Y-74944739D01*
X129102983Y-74956102D01*
X129102300Y-75227773D01*
X129409670Y-75224620D01*
X129458385Y-75234050D01*
X129549451Y-75271771D01*
X129634870Y-75282500D01*
X129634873Y-75282500D01*
X132812638Y-75282500D01*
X132812654Y-75282499D01*
X132839692Y-75279591D01*
X132873201Y-75275989D01*
X132873205Y-75275987D01*
X132873207Y-75275987D01*
X132985640Y-75234051D01*
X133010204Y-75224889D01*
X133028114Y-75211481D01*
X133093577Y-75187064D01*
X133101140Y-75186755D01*
X133590835Y-75181733D01*
X133577222Y-73790365D01*
X137831500Y-73790365D01*
X137831500Y-73949634D01*
X137862568Y-74105823D01*
X137862570Y-74105831D01*
X137915058Y-74232547D01*
X137922527Y-74302016D01*
X137915058Y-74327453D01*
X137862570Y-74454168D01*
X137862568Y-74454176D01*
X137831500Y-74610365D01*
X137831500Y-74769634D01*
X137862568Y-74925823D01*
X137862570Y-74925831D01*
X137923517Y-75072969D01*
X138011995Y-75205387D01*
X138012001Y-75205394D01*
X138124605Y-75317998D01*
X138124612Y-75318004D01*
X138257028Y-75406481D01*
X138257030Y-75406482D01*
X138257032Y-75406483D01*
X138288774Y-75419631D01*
X138350388Y-75445153D01*
X138404791Y-75488995D01*
X138424551Y-75535521D01*
X138432568Y-75575826D01*
X138432571Y-75575835D01*
X138445529Y-75607118D01*
X138452998Y-75676587D01*
X138445531Y-75702018D01*
X138442573Y-75709159D01*
X138442568Y-75709175D01*
X138411500Y-75865365D01*
X138411500Y-76024634D01*
X138442568Y-76180823D01*
X138442570Y-76180831D01*
X138503517Y-76327969D01*
X138591995Y-76460387D01*
X138592001Y-76460394D01*
X138704605Y-76572998D01*
X138704612Y-76573004D01*
X138837030Y-76661482D01*
X138837031Y-76661482D01*
X138837032Y-76661483D01*
X138984169Y-76722430D01*
X139140365Y-76753499D01*
X139140369Y-76753500D01*
X139140370Y-76753500D01*
X139299631Y-76753500D01*
X139299632Y-76753499D01*
X139455831Y-76722430D01*
X139602968Y-76661483D01*
X139735389Y-76573003D01*
X139848003Y-76460389D01*
X139936483Y-76327968D01*
X139997430Y-76180831D01*
X140028500Y-76024630D01*
X140028500Y-75865370D01*
X139997430Y-75709169D01*
X139984469Y-75677881D01*
X139977001Y-75608413D01*
X139984472Y-75582971D01*
X139987430Y-75575831D01*
X140018500Y-75419630D01*
X140018500Y-75260370D01*
X139987430Y-75104169D01*
X139926483Y-74957032D01*
X139916192Y-74941631D01*
X139838004Y-74824612D01*
X139837998Y-74824605D01*
X139725394Y-74712001D01*
X139725387Y-74711995D01*
X139592969Y-74623517D01*
X139537314Y-74600464D01*
X139499610Y-74584846D01*
X139445208Y-74541006D01*
X139425447Y-74494478D01*
X139417430Y-74454169D01*
X139364940Y-74327450D01*
X139357472Y-74257984D01*
X139364938Y-74232555D01*
X139417430Y-74105831D01*
X139448500Y-73949630D01*
X139448500Y-73790370D01*
X139417430Y-73634169D01*
X139356483Y-73487032D01*
X139313332Y-73422452D01*
X139268004Y-73354612D01*
X139267998Y-73354605D01*
X139155394Y-73242001D01*
X139155387Y-73241995D01*
X139022969Y-73153517D01*
X138875831Y-73092570D01*
X138875823Y-73092568D01*
X138719634Y-73061500D01*
X138719630Y-73061500D01*
X138560370Y-73061500D01*
X138560365Y-73061500D01*
X138404176Y-73092568D01*
X138404168Y-73092570D01*
X138257030Y-73153517D01*
X138124612Y-73241995D01*
X138124605Y-73242001D01*
X138012001Y-73354605D01*
X138011995Y-73354612D01*
X137923517Y-73487030D01*
X137862570Y-73634168D01*
X137862568Y-73634176D01*
X137831500Y-73790365D01*
X133577222Y-73790365D01*
X133539017Y-69885344D01*
X133539496Y-69873195D01*
X133555235Y-69695889D01*
X133559757Y-69671971D01*
X133571594Y-69631595D01*
X133608109Y-69507042D01*
X133617215Y-69484474D01*
X133696859Y-69332171D01*
X133710201Y-69311815D01*
X133755337Y-69255823D01*
X133818062Y-69178010D01*
X133835116Y-69160658D01*
X133967057Y-69050494D01*
X133987174Y-69036810D01*
X134138082Y-68954553D01*
X134160487Y-68945061D01*
X134324566Y-68893872D01*
X134348387Y-68888941D01*
X134525402Y-68870149D01*
X134537544Y-68869460D01*
X135180013Y-68864675D01*
X138346578Y-68841087D01*
X138413761Y-68860272D01*
X138459908Y-68912734D01*
X138471500Y-68965084D01*
X138471500Y-69099634D01*
X138502568Y-69255823D01*
X138502570Y-69255831D01*
X138555058Y-69382547D01*
X138562527Y-69452016D01*
X138555058Y-69477453D01*
X138502570Y-69604168D01*
X138502568Y-69604173D01*
X138496606Y-69634148D01*
X138464220Y-69696059D01*
X138403503Y-69730632D01*
X138399188Y-69731571D01*
X138394174Y-69732568D01*
X138394168Y-69732570D01*
X138247030Y-69793517D01*
X138114612Y-69881995D01*
X138114605Y-69882001D01*
X138002001Y-69994605D01*
X138001995Y-69994612D01*
X137913517Y-70127030D01*
X137852570Y-70274168D01*
X137852568Y-70274176D01*
X137821500Y-70430365D01*
X137821500Y-70589634D01*
X137852568Y-70745823D01*
X137852570Y-70745831D01*
X137896951Y-70852976D01*
X137904420Y-70922446D01*
X137896951Y-70947882D01*
X137842570Y-71079168D01*
X137842568Y-71079176D01*
X137811500Y-71235365D01*
X137811500Y-71394634D01*
X137842568Y-71550823D01*
X137842570Y-71550831D01*
X137903517Y-71697969D01*
X137991995Y-71830387D01*
X137992001Y-71830394D01*
X138104605Y-71942998D01*
X138104612Y-71943004D01*
X138237030Y-72031482D01*
X138237031Y-72031482D01*
X138237032Y-72031483D01*
X138384169Y-72092430D01*
X138540365Y-72123499D01*
X138540369Y-72123500D01*
X138540370Y-72123500D01*
X138699631Y-72123500D01*
X138699632Y-72123499D01*
X138855831Y-72092430D01*
X139002968Y-72031483D01*
X139135389Y-71943003D01*
X139248003Y-71830389D01*
X139336483Y-71697968D01*
X139397430Y-71550831D01*
X139425370Y-71410365D01*
X140811500Y-71410365D01*
X140811500Y-71569634D01*
X140842568Y-71725823D01*
X140842571Y-71725835D01*
X140890915Y-71842548D01*
X140898384Y-71912017D01*
X140890915Y-71937452D01*
X140842571Y-72054164D01*
X140842568Y-72054176D01*
X140811500Y-72210365D01*
X140811500Y-72369634D01*
X140842568Y-72525823D01*
X140842571Y-72525835D01*
X140871062Y-72594619D01*
X140878531Y-72664089D01*
X140871063Y-72689521D01*
X140852570Y-72734168D01*
X140852567Y-72734176D01*
X140821500Y-72890365D01*
X140821500Y-73049634D01*
X140852568Y-73205823D01*
X140852571Y-73205835D01*
X140902986Y-73327548D01*
X140910455Y-73397017D01*
X140902986Y-73422452D01*
X140852571Y-73544164D01*
X140852568Y-73544176D01*
X140821500Y-73700365D01*
X140821500Y-73859634D01*
X140852568Y-74015823D01*
X140852570Y-74015831D01*
X140913517Y-74162969D01*
X141001995Y-74295387D01*
X141002001Y-74295394D01*
X141114605Y-74407998D01*
X141114612Y-74408004D01*
X141247030Y-74496482D01*
X141247031Y-74496482D01*
X141247032Y-74496483D01*
X141394169Y-74557430D01*
X141532005Y-74584847D01*
X141550365Y-74588499D01*
X141550369Y-74588500D01*
X141550370Y-74588500D01*
X141709631Y-74588500D01*
X141709632Y-74588499D01*
X141865831Y-74557430D01*
X142012968Y-74496483D01*
X142145389Y-74408003D01*
X142258003Y-74295389D01*
X142346483Y-74162968D01*
X142407430Y-74015831D01*
X142438500Y-73859630D01*
X142438500Y-73700370D01*
X142407430Y-73544169D01*
X142357011Y-73422449D01*
X142349543Y-73352985D01*
X142357008Y-73327556D01*
X142407430Y-73205831D01*
X142438500Y-73049630D01*
X142438500Y-72890370D01*
X142407430Y-72734169D01*
X142378936Y-72665381D01*
X142371468Y-72595913D01*
X142378937Y-72570476D01*
X142397430Y-72525831D01*
X142428500Y-72369630D01*
X142428500Y-72210370D01*
X142397430Y-72054169D01*
X142349082Y-71937449D01*
X142341614Y-71867985D01*
X142349079Y-71842557D01*
X142397430Y-71725831D01*
X142428500Y-71569630D01*
X142428500Y-71410370D01*
X142397430Y-71254169D01*
X142336483Y-71107032D01*
X142318684Y-71080394D01*
X142248004Y-70974612D01*
X142247998Y-70974605D01*
X142135394Y-70862001D01*
X142135387Y-70861995D01*
X142002969Y-70773517D01*
X141855831Y-70712570D01*
X141855823Y-70712568D01*
X141699634Y-70681500D01*
X141699630Y-70681500D01*
X141540370Y-70681500D01*
X141540365Y-70681500D01*
X141384176Y-70712568D01*
X141384168Y-70712570D01*
X141237030Y-70773517D01*
X141104612Y-70861995D01*
X141104605Y-70862001D01*
X140992001Y-70974605D01*
X140991995Y-70974612D01*
X140903517Y-71107030D01*
X140842570Y-71254168D01*
X140842568Y-71254176D01*
X140811500Y-71410365D01*
X139425370Y-71410365D01*
X139428500Y-71394630D01*
X139428500Y-71235370D01*
X139397430Y-71079169D01*
X139353047Y-70972022D01*
X139345579Y-70902554D01*
X139353045Y-70877125D01*
X139407430Y-70745831D01*
X139413392Y-70715852D01*
X139445777Y-70653942D01*
X139506492Y-70619368D01*
X139510795Y-70618431D01*
X139515831Y-70617430D01*
X139662968Y-70556483D01*
X139795389Y-70468003D01*
X139908003Y-70355389D01*
X139996483Y-70222968D01*
X140057430Y-70075831D01*
X140088500Y-69919630D01*
X140088500Y-69760370D01*
X140057430Y-69604169D01*
X140004940Y-69477450D01*
X139997472Y-69407984D01*
X140004938Y-69382555D01*
X140057430Y-69255831D01*
X140088500Y-69099630D01*
X140088500Y-68951192D01*
X140108185Y-68884153D01*
X140160989Y-68838398D01*
X140211572Y-68827195D01*
X146410131Y-68781023D01*
X146477314Y-68800208D01*
X146523461Y-68852670D01*
X146533919Y-68921752D01*
X146532670Y-68929211D01*
X146521500Y-68985365D01*
X146521500Y-69144634D01*
X146552568Y-69300823D01*
X146552570Y-69300831D01*
X146613517Y-69447969D01*
X146701995Y-69580387D01*
X146702001Y-69580394D01*
X146814608Y-69693001D01*
X146814611Y-69693003D01*
X146842888Y-69711897D01*
X146842890Y-69711898D01*
X146887695Y-69765510D01*
X146896402Y-69834835D01*
X146866248Y-69897862D01*
X146842891Y-69918100D01*
X146840597Y-69919634D01*
X146814608Y-69936998D01*
X146702001Y-70049605D01*
X146701995Y-70049612D01*
X146613517Y-70182030D01*
X146552570Y-70329168D01*
X146552568Y-70329176D01*
X146521500Y-70485365D01*
X146521500Y-70644634D01*
X146552568Y-70800823D01*
X146552570Y-70800831D01*
X146613517Y-70947969D01*
X146701995Y-71080387D01*
X146702001Y-71080394D01*
X146814605Y-71192998D01*
X146814612Y-71193004D01*
X146947030Y-71281482D01*
X146947031Y-71281482D01*
X146947032Y-71281483D01*
X147094169Y-71342430D01*
X147209593Y-71365389D01*
X147250365Y-71373499D01*
X147250369Y-71373500D01*
X147250370Y-71373500D01*
X147409631Y-71373500D01*
X147409632Y-71373499D01*
X147565831Y-71342430D01*
X147712968Y-71281483D01*
X147845389Y-71193003D01*
X147958003Y-71080389D01*
X148046483Y-70947968D01*
X148107430Y-70800831D01*
X148138500Y-70644630D01*
X148138500Y-70485370D01*
X148107430Y-70329169D01*
X148046483Y-70182032D01*
X148009732Y-70127030D01*
X147958004Y-70049612D01*
X147957998Y-70049605D01*
X147845394Y-69937001D01*
X147845389Y-69936997D01*
X147827555Y-69925081D01*
X147817109Y-69918101D01*
X147772305Y-69864492D01*
X147763596Y-69795167D01*
X147793750Y-69732139D01*
X147817110Y-69711898D01*
X147845389Y-69693003D01*
X147958003Y-69580389D01*
X148046483Y-69447968D01*
X148107430Y-69300831D01*
X148138500Y-69144630D01*
X148138500Y-68985370D01*
X148124610Y-68915540D01*
X148130837Y-68845951D01*
X148173699Y-68790773D01*
X148239589Y-68767528D01*
X148245262Y-68767354D01*
X150358622Y-68751612D01*
X150390894Y-68755637D01*
G37*
%TD.AperFunction*%
%TD*%
M02*
