%TF.GenerationSoftware,KiCad,Pcbnew,10.0.5*%
%TF.CreationDate,2026-08-18T06:52:16-06:00*%
%TF.ProjectId,L1IFCape,4c314946-4361-4706-952e-6b696361645f,C*%
%TF.SameCoordinates,Original*%
%TF.FileFunction,Copper,L2,Inr*%
%TF.FilePolarity,Positive*%
%FSLAX46Y46*%
G04 Gerber Fmt 4.6, Leading zero omitted, Abs format (unit mm)*
G04 Created by KiCad (PCBNEW 10.0.5) date 2026-08-18 06:52:16*
%MOMM*%
%LPD*%
G01*
G04 APERTURE LIST*
%TA.AperFunction,ComponentPad*%
%ADD10R,1.700000X1.700000*%
%TD*%
%TA.AperFunction,ComponentPad*%
%ADD11O,1.700000X1.700000*%
%TD*%
%TA.AperFunction,ComponentPad*%
%ADD12C,5.600000*%
%TD*%
%TA.AperFunction,ComponentPad*%
%ADD13R,0.812500X0.812500*%
%TD*%
%TA.AperFunction,ComponentPad*%
%ADD14R,2.475000X2.475000*%
%TD*%
%TA.AperFunction,ComponentPad*%
%ADD15C,2.475000*%
%TD*%
%TA.AperFunction,ComponentPad*%
%ADD16C,1.500000*%
%TD*%
%TA.AperFunction,ComponentPad*%
%ADD17C,0.600000*%
%TD*%
%TA.AperFunction,ComponentPad*%
%ADD18C,1.240000*%
%TD*%
%TA.AperFunction,ComponentPad*%
%ADD19C,2.500000*%
%TD*%
%TA.AperFunction,ViaPad*%
%ADD20C,0.600000*%
%TD*%
G04 APERTURE END LIST*
D10*
%TO.N,GND*%
%TO.C,P8*%
X119685000Y-49835000D03*
D11*
X119685000Y-47295000D03*
%TO.N,/GPIO_2.0 LED.0*%
X122225000Y-49835000D03*
%TO.N,/GPIO_2.1 LED.1*%
X122225000Y-47295000D03*
%TO.N,/GPIO_2.2 LED.2*%
X124765000Y-49835000D03*
%TO.N,/GPIO_2.3 LED.3*%
X124765000Y-47295000D03*
%TO.N,/Blinky    LED.4*%
X127305000Y-49835000D03*
%TO.N,/ANTFLAG*%
X127305000Y-47295000D03*
%TO.N,/SPC_IRQ  LED.6*%
X129845000Y-49835000D03*
%TO.N,/LD*%
X129845000Y-47295000D03*
%TO.N,/PPS      LED.8*%
X132385000Y-49835000D03*
%TO.N,/~{SHDN}*%
X132385000Y-47295000D03*
%TO.N,/PWM_2:1*%
X134925000Y-49835000D03*
%TO.N,/~{IDLE}*%
X134925000Y-47295000D03*
%TO.N,/HSIO34NB0*%
X137465000Y-49835000D03*
%TO.N,/CCC_NW_CLKIN_N_1*%
X137465000Y-47295000D03*
%TO.N,/HSIO29PB0*%
X140005000Y-49835000D03*
%TO.N,/CCC_NE_PLL1_OUT0*%
X140005000Y-47295000D03*
%TO.N,/PWM_2:0*%
X142545000Y-49835000D03*
%TO.N,/HSIO15NB0{slash}DQS*%
X142545000Y-47295000D03*
%TO.N,/SI0L*%
X145085000Y-49835000D03*
%TO.N,/SI1L*%
X145085000Y-47295000D03*
%TO.N,/SQ1L*%
X147625000Y-49835000D03*
%TO.N,/SQ0L*%
X147625000Y-47295000D03*
%TO.N,unconnected-(P8-Pin_25-Pad25)*%
X150165000Y-49835000D03*
%TO.N,unconnected-(P8-Pin_26-Pad26)*%
X150165000Y-47295000D03*
%TO.N,unconnected-(P8-Pin_27-Pad27)*%
X152705000Y-49835000D03*
%TO.N,unconnected-(P8-Pin_28-Pad28)*%
X152705000Y-47295000D03*
%TO.N,unconnected-(P8-Pin_29-Pad29)*%
X155245000Y-49835000D03*
%TO.N,/GPIO50NB1{slash}DQS*%
X155245000Y-47295000D03*
%TO.N,/GPIO50PB1{slash}DQS*%
X157785000Y-49835000D03*
%TO.N,/GPIO53NB1*%
X157785000Y-47295000D03*
%TO.N,/BBClk*%
X160325000Y-49835000D03*
%TO.N,/GPIO52NB1{slash}LPRB_B*%
X160325000Y-47295000D03*
%TO.N,/SI0H*%
X162865000Y-49835000D03*
%TO.N,/SI1H*%
X162865000Y-47295000D03*
%TO.N,/SQ0H*%
X165405000Y-49835000D03*
%TO.N,/SQ1H*%
X165405000Y-47295000D03*
%TO.N,/CCC_SE_CLKIN_S_10*%
X167945000Y-49835000D03*
%TO.N,/GPIO5NB1*%
X167945000Y-47295000D03*
%TO.N,/CCC_SE_CLKIN_S_11*%
X170485000Y-49835000D03*
%TO.N,/GPIO36NB1*%
X170485000Y-47295000D03*
%TO.N,/CCC_SW_CLKIN_S_0*%
X173025000Y-49835000D03*
%TO.N,/GPIO42NB1*%
X173025000Y-47295000D03*
%TO.N,/GPIO42PB1*%
X175565000Y-49835000D03*
%TO.N,/CCC_SE_PLL1_OUT1*%
X175565000Y-47295000D03*
%TD*%
D10*
%TO.N,GND*%
%TO.C,P9*%
X119685000Y-98095000D03*
D11*
X119685000Y-95555000D03*
%TO.N,+3V3*%
X122225000Y-98095000D03*
X122225000Y-95555000D03*
%TO.N,+5V*%
X124765000Y-98095000D03*
X124765000Y-95555000D03*
%TO.N,VBUS*%
X127305000Y-98095000D03*
X127305000Y-95555000D03*
%TO.N,/HSIO19PB0*%
X129845000Y-98095000D03*
%TO.N,/~{SYS_RESET}*%
X129845000Y-95555000D03*
%TO.N,/MMUART4 RX*%
X132385000Y-98095000D03*
%TO.N,/GPIO38PB1{slash}DQS*%
X132385000Y-95555000D03*
%TO.N,/MMUART4 TX*%
X134925000Y-98095000D03*
%TO.N,/core_pwm(0)*%
X134925000Y-95555000D03*
%TO.N,/GPIO40NB1*%
X137465000Y-98095000D03*
%TO.N,/core_pwm(1)*%
X137465000Y-95555000D03*
%TO.N,/SPI0.CS0*%
X140005000Y-98095000D03*
%TO.N,/SPI0.SDO*%
X140005000Y-95555000D03*
%TO.N,/I2C0.SCL*%
X142545000Y-98095000D03*
%TO.N,/I2C0.SDA*%
X142545000Y-95555000D03*
%TO.N,/SPI0.SDI*%
X145085000Y-98095000D03*
%TO.N,/SPI0.SCL*%
X145085000Y-95555000D03*
%TO.N,/SPI0.CS1*%
X147625000Y-98095000D03*
%TO.N,/CAN1.RX*%
X147625000Y-95555000D03*
%TO.N,/GPIO41NB1*%
X150165000Y-98095000D03*
%TO.N,/CAN1.TX*%
X150165000Y-95555000D03*
%TO.N,/GPIO46NB1*%
X152705000Y-98095000D03*
%TO.N,/SPI1.CS0*%
X152705000Y-95555000D03*
%TO.N,/SPI1.SDI*%
X155245000Y-98095000D03*
%TO.N,/SPI1.SDO*%
X155245000Y-95555000D03*
%TO.N,/SPI1.SCL*%
X157785000Y-98095000D03*
%TO.N,+1V8*%
X157785000Y-95555000D03*
%TO.N,/AIN4*%
X160325000Y-98095000D03*
%TO.N,/AGND*%
X160325000Y-95555000D03*
%TO.N,/AIN6*%
X162865000Y-98095000D03*
%TO.N,/AIN5*%
X162865000Y-95555000D03*
%TO.N,/AIN2*%
X165405000Y-98095000D03*
%TO.N,/AIN3*%
X165405000Y-95555000D03*
%TO.N,/AIN0*%
X167945000Y-98095000D03*
%TO.N,/AIN1*%
X167945000Y-95555000D03*
%TO.N,/~{RTC_INTR}*%
X170485000Y-98095000D03*
%TO.N,/PWM_0:0*%
X170485000Y-95555000D03*
%TO.N,GND*%
X173025000Y-98095000D03*
X173025000Y-95555000D03*
X175565000Y-98095000D03*
X175565000Y-95555000D03*
%TD*%
D12*
%TO.N,GND*%
%TO.C,H4*%
X180640000Y-93650000D03*
%TD*%
D13*
%TO.N,GND*%
%TO.C,U2*%
X129920250Y-74367750D03*
X130732750Y-74367750D03*
X131545250Y-74367750D03*
X132357750Y-74367750D03*
X129920250Y-73555250D03*
X130732750Y-73555250D03*
X131545250Y-73555250D03*
X132357750Y-73555250D03*
X129920250Y-72742750D03*
X130732750Y-72742750D03*
X131545250Y-72742750D03*
X132357750Y-72742750D03*
X129920250Y-71930250D03*
X130732750Y-71930250D03*
X131545250Y-71930250D03*
X132357750Y-71930250D03*
%TD*%
D12*
%TO.N,GND*%
%TO.C,H3*%
X180680000Y-51740000D03*
%TD*%
D14*
%TO.N,Net-(U3-VBAT)*%
%TO.C,C1*%
X171620000Y-69120000D03*
D15*
%TO.N,GND*%
X171620000Y-64120000D03*
%TD*%
D16*
%TO.N,/BBClk*%
%TO.C,TP5*%
X158580000Y-55440000D03*
%TD*%
%TO.N,/ANTFLAG*%
%TO.C,TP1*%
X122760000Y-54390000D03*
%TD*%
%TO.N,/LD*%
%TO.C,TP2*%
X125825000Y-54400000D03*
%TD*%
D17*
%TO.N,GND*%
%TO.C,U3*%
X166924999Y-85217700D03*
X167604999Y-85217700D03*
X168264999Y-85217700D03*
X167574999Y-84417700D03*
X166934999Y-84407700D03*
X168254999Y-84397700D03*
X167634999Y-83637700D03*
X168294999Y-83617700D03*
X166934999Y-83607700D03*
%TD*%
D18*
%TO.N,/Passive*%
%TO.C,J3*%
X119448825Y-90633523D03*
%TO.N,GND*%
X118178825Y-89363523D03*
X118178825Y-91903523D03*
X120718825Y-89363523D03*
X120718825Y-91903523D03*
%TD*%
D12*
%TO.N,GND*%
%TO.C,H2*%
X114630000Y-48530000D03*
%TD*%
%TO.N,GND*%
%TO.C,H1*%
X114620000Y-96810000D03*
%TD*%
D16*
%TO.N,/~{SHDN}*%
%TO.C,TP3*%
X128980000Y-54390000D03*
%TD*%
D19*
%TO.N,GND*%
%TO.C,J2*%
X109670000Y-91260000D03*
X114750000Y-91260000D03*
X109670000Y-86180000D03*
X114750000Y-86180000D03*
%TD*%
D20*
%TO.N,GND*%
X126990000Y-57560000D03*
X121320000Y-59060000D03*
X116280000Y-90090000D03*
X124225000Y-70300000D03*
X147330000Y-70565000D03*
X150090000Y-65080000D03*
X121320000Y-60560000D03*
X151630000Y-76800000D03*
X114626571Y-82280571D03*
X131730000Y-65940000D03*
X153280000Y-58330000D03*
X134325000Y-83570000D03*
X103580000Y-87550000D03*
X134150000Y-80700000D03*
X154120000Y-71320000D03*
X123741422Y-91040230D03*
X140160000Y-83570000D03*
X138620000Y-71315000D03*
X101040000Y-92630000D03*
X130988000Y-81204000D03*
X138640000Y-73870000D03*
X139280000Y-69840000D03*
X153280000Y-59140000D03*
X103580000Y-90090000D03*
X147330000Y-59060000D03*
X123622167Y-88650690D03*
X128870000Y-81565000D03*
X128490000Y-83570000D03*
X111242474Y-84787776D03*
X159317500Y-84680000D03*
X153540000Y-68730000D03*
X121320000Y-64730000D03*
X103580000Y-85010000D03*
X154930000Y-71320000D03*
X115249782Y-81701442D03*
X113281894Y-84580036D03*
X126990000Y-83570000D03*
X144480000Y-60030000D03*
X124225000Y-71806000D03*
X121320000Y-57560000D03*
X141660000Y-57560000D03*
X124610000Y-85135656D03*
X139380000Y-59340000D03*
X121360000Y-92630000D03*
X151600000Y-65080000D03*
X147330000Y-69065000D03*
X141660000Y-83570000D03*
X132825000Y-57560000D03*
X121320000Y-80570000D03*
X144910000Y-60380000D03*
X150820000Y-76800000D03*
X111200000Y-79930000D03*
X141630000Y-72970000D03*
X113740000Y-79930000D03*
X112090821Y-82241127D03*
X113688144Y-83454093D03*
X134325000Y-57560000D03*
X145830000Y-57560000D03*
X119790000Y-80840000D03*
X137220000Y-65530000D03*
X138660000Y-57560000D03*
X115850597Y-81315262D03*
X116280000Y-92630000D03*
X103580000Y-82470000D03*
X103580000Y-79930000D03*
X121320000Y-66230000D03*
X116280000Y-87550000D03*
X149300000Y-76820000D03*
X126600000Y-85918146D03*
X101040000Y-95170000D03*
X121320000Y-82070000D03*
X153270000Y-70040000D03*
X121320000Y-77900000D03*
X147330000Y-77900000D03*
X153530000Y-78550000D03*
X118820000Y-82470000D03*
X108660000Y-85010000D03*
X135825000Y-57560000D03*
X116280000Y-82470000D03*
X121320000Y-74900000D03*
X123820000Y-71410000D03*
X124596742Y-86700111D03*
X126011707Y-88769945D03*
X106120000Y-97710000D03*
X125472281Y-89579501D03*
X118820000Y-87550000D03*
X129990000Y-57560000D03*
X101040000Y-79930000D03*
X124320000Y-57560000D03*
X106120000Y-79930000D03*
X108660000Y-92630000D03*
X147330000Y-82070000D03*
X137230000Y-66340000D03*
X136820000Y-84820000D03*
X147330000Y-83570000D03*
X117208366Y-80890170D03*
X126574996Y-86917311D03*
X152450000Y-86600000D03*
X111671342Y-83066881D03*
X138640000Y-74690000D03*
X126440000Y-90090000D03*
X169200000Y-79400000D03*
X124052434Y-88161731D03*
X143990000Y-60390000D03*
X129990000Y-83570000D03*
X103580000Y-97710000D03*
X125029310Y-90057833D03*
X135825000Y-83570000D03*
X154150000Y-59790000D03*
X138380000Y-59340000D03*
X118820000Y-92630000D03*
X101040000Y-82470000D03*
X135670000Y-80700000D03*
X169350000Y-81750000D03*
X138630000Y-70510000D03*
X106120000Y-85010000D03*
X147330000Y-57560000D03*
X153270000Y-70850000D03*
X153530000Y-77290000D03*
X121320000Y-72065000D03*
X108660000Y-87550000D03*
X169675000Y-88150000D03*
X111200000Y-95170000D03*
X123900000Y-87550000D03*
X121320000Y-83570000D03*
X150800000Y-65070000D03*
X123133208Y-89080957D03*
X126600000Y-85135656D03*
X106120000Y-82470000D03*
X106120000Y-95170000D03*
X122820000Y-57560000D03*
X138849600Y-59870400D03*
X130220000Y-65940000D03*
X101040000Y-87550000D03*
X132825000Y-83570000D03*
X121360000Y-87550000D03*
X149290000Y-65070000D03*
X108660000Y-97710000D03*
X141630000Y-73780000D03*
X129400000Y-65940000D03*
X123830000Y-70710000D03*
X122539587Y-89409781D03*
X127400000Y-81575000D03*
X141620000Y-72290000D03*
X124473848Y-87312427D03*
X113740000Y-85010000D03*
X114047442Y-82903782D03*
X153540000Y-79220000D03*
X121320000Y-69065000D03*
X122120831Y-91574713D03*
X123830000Y-69890000D03*
X144330000Y-57560000D03*
X118820000Y-85010000D03*
X121320000Y-70565000D03*
X123900000Y-85010000D03*
X130910000Y-65940000D03*
X103580000Y-95170000D03*
X137220000Y-67020000D03*
X147330000Y-66230000D03*
X106120000Y-87550000D03*
X121320000Y-63230000D03*
X128490000Y-57560000D03*
X121360000Y-85010000D03*
X108660000Y-79930000D03*
X133340000Y-80700000D03*
X144330000Y-83570000D03*
X147330000Y-64730000D03*
X153540000Y-67490000D03*
X138660000Y-83570000D03*
X111384062Y-83947393D03*
X140160000Y-57560000D03*
X121320000Y-76400000D03*
X111200000Y-92630000D03*
X147330000Y-80570000D03*
X124550978Y-90500804D03*
X153540000Y-65550000D03*
X122820000Y-83570000D03*
X132258000Y-81204000D03*
X106120000Y-90090000D03*
X116510454Y-81041940D03*
X106120000Y-92630000D03*
X108660000Y-90090000D03*
X101040000Y-85010000D03*
X147330000Y-76400000D03*
X124320000Y-83570000D03*
X113442717Y-84001801D03*
X113740000Y-92630000D03*
X111200000Y-97710000D03*
X122842662Y-91412508D03*
X139280000Y-69020000D03*
X114587127Y-79744821D03*
X154970000Y-59790000D03*
X139210000Y-75340000D03*
X150110000Y-76810000D03*
X108660000Y-82470000D03*
X126383985Y-87871185D03*
X145830000Y-83570000D03*
X116280000Y-85010000D03*
X153550000Y-66790000D03*
X112632486Y-81489841D03*
X135320000Y-84790000D03*
X137220000Y-67840000D03*
X101040000Y-90090000D03*
X108660000Y-95170000D03*
X141620000Y-71490000D03*
X153540000Y-80480000D03*
X133820000Y-84810000D03*
X139220000Y-75945000D03*
X103580000Y-92630000D03*
X124610000Y-85918146D03*
X111200000Y-82470000D03*
X113219429Y-80873429D03*
X134860000Y-80710000D03*
X131242000Y-79680000D03*
%TO.N,/ANTFLAG*%
X125230000Y-75290000D03*
%TO.N,/LD*%
X144396232Y-76353768D03*
X137140000Y-80810000D03*
%TO.N,/~{SHDN}*%
X139490191Y-81119809D03*
X145920000Y-80240000D03*
%TO.N,/~{IDLE}*%
X123140000Y-59990000D03*
%TO.N,/BBClk*%
X137030000Y-59710000D03*
%TO.N,/SI0H*%
X124190000Y-65380000D03*
%TO.N,/SI1H*%
X123220000Y-67800000D03*
%TO.N,/SQ0H*%
X128780000Y-64580000D03*
%TO.N,/SQ1H*%
X128950000Y-62280000D03*
%TO.N,+3V3*%
X166060000Y-88150000D03*
X155837500Y-66180000D03*
X156430000Y-86980000D03*
X160070000Y-87550000D03*
X155834040Y-79852892D03*
X149520000Y-88460000D03*
X155835000Y-68110000D03*
X155837500Y-64260000D03*
X155814040Y-75992892D03*
X149500000Y-86540000D03*
X155826540Y-77922892D03*
X156730000Y-89780000D03*
X166250000Y-90280000D03*
%TO.N,/SPI0.CS0*%
X144940000Y-92150000D03*
%TO.N,/SPI0.SDO*%
X142870000Y-92320000D03*
%TO.N,/2V85D*%
X129400000Y-67320000D03*
X137870000Y-85630000D03*
X129410000Y-68250000D03*
X144480000Y-62180000D03*
X149050000Y-61160000D03*
X148810000Y-61700000D03*
X131730000Y-67290000D03*
X134900000Y-65530000D03*
X135780000Y-65520000D03*
X134900000Y-67840000D03*
X131800000Y-85630000D03*
X131652893Y-68202893D03*
X140320000Y-85630000D03*
X135770000Y-67830000D03*
X152520000Y-65500000D03*
X144880000Y-62590000D03*
X144870000Y-61740000D03*
X149160000Y-62180000D03*
%TO.N,/2V85A*%
X126160000Y-71800000D03*
X134520000Y-77920000D03*
X136890000Y-75945000D03*
X136960000Y-69440000D03*
X137850000Y-69420000D03*
X125490000Y-72124000D03*
X137160000Y-73870000D03*
X134160000Y-78390000D03*
X137790000Y-75945000D03*
X149300000Y-73970000D03*
X136302500Y-71312500D03*
X131860000Y-77170000D03*
X148950000Y-73490000D03*
X133750000Y-78775000D03*
X149190000Y-72950000D03*
X136330000Y-73880000D03*
X135285000Y-78775000D03*
X134860000Y-78400000D03*
X126170000Y-69890000D03*
X125320000Y-69900000D03*
X137200000Y-71330000D03*
%TO.N,/ANTBIAS*%
X129420000Y-80010000D03*
X127000000Y-80470000D03*
X129315000Y-77780000D03*
X124310000Y-82070000D03*
%TO.N,/SDATA*%
X143770000Y-81960000D03*
X142080000Y-88400000D03*
X141860000Y-81650000D03*
X139840000Y-88420000D03*
%TO.N,/~{SPICS}*%
X145685018Y-88204982D03*
X135310000Y-88200000D03*
%TO.N,/PGM*%
X128580000Y-85580000D03*
X124030000Y-77040000D03*
%TO.N,/SDA.I2C0*%
X164780000Y-81055000D03*
X164740000Y-83220000D03*
%TD*%
%TA.AperFunction,Conductor*%
%TO.N,GND*%
G36*
X112422893Y-45910185D02*
G01*
X112468648Y-45962989D01*
X112479705Y-46020585D01*
X112479444Y-46025892D01*
X113689301Y-47235748D01*
X113587670Y-47309588D01*
X113409588Y-47487670D01*
X113335748Y-47589301D01*
X112125891Y-46379443D01*
X112125890Y-46379444D01*
X111976222Y-46561815D01*
X111976212Y-46561829D01*
X111796090Y-46831401D01*
X111796079Y-46831419D01*
X111643240Y-47117359D01*
X111643238Y-47117364D01*
X111519157Y-47416921D01*
X111425033Y-47727207D01*
X111425030Y-47727218D01*
X111361782Y-48045198D01*
X111361779Y-48045215D01*
X111330000Y-48367884D01*
X111330000Y-48692115D01*
X111361779Y-49014784D01*
X111361782Y-49014801D01*
X111425030Y-49332781D01*
X111425033Y-49332792D01*
X111519157Y-49643078D01*
X111643238Y-49942635D01*
X111643240Y-49942640D01*
X111796079Y-50228580D01*
X111796090Y-50228598D01*
X111976212Y-50498170D01*
X111976222Y-50498184D01*
X112125890Y-50680554D01*
X112125891Y-50680555D01*
X113335748Y-49470698D01*
X113409588Y-49572330D01*
X113587670Y-49750412D01*
X113689300Y-49824251D01*
X112479443Y-51034107D01*
X112479444Y-51034108D01*
X112661815Y-51183777D01*
X112661829Y-51183787D01*
X112931401Y-51363909D01*
X112931419Y-51363920D01*
X113217359Y-51516759D01*
X113217364Y-51516761D01*
X113516921Y-51640842D01*
X113827207Y-51734966D01*
X113827218Y-51734969D01*
X114145198Y-51798217D01*
X114145215Y-51798220D01*
X114467884Y-51830000D01*
X114792116Y-51830000D01*
X115114784Y-51798220D01*
X115114801Y-51798217D01*
X115432781Y-51734969D01*
X115432792Y-51734966D01*
X115743078Y-51640842D01*
X116042635Y-51516761D01*
X116042640Y-51516759D01*
X116138579Y-51465479D01*
X116328580Y-51363920D01*
X116328598Y-51363909D01*
X116598170Y-51183787D01*
X116598183Y-51183777D01*
X116780554Y-51034108D01*
X116780554Y-51034107D01*
X115570698Y-49824251D01*
X115672330Y-49750412D01*
X115850412Y-49572330D01*
X115924251Y-49470698D01*
X117134107Y-50680554D01*
X117134108Y-50680554D01*
X117283777Y-50498183D01*
X117283787Y-50498170D01*
X117463909Y-50228598D01*
X117463920Y-50228580D01*
X117599364Y-49975185D01*
X117616759Y-49942640D01*
X117616761Y-49942635D01*
X117740842Y-49643078D01*
X117834966Y-49332792D01*
X117834969Y-49332781D01*
X117898217Y-49014801D01*
X117898220Y-49014784D01*
X117907389Y-48921697D01*
X117930000Y-48692115D01*
X117930000Y-48367884D01*
X117898220Y-48045215D01*
X117898217Y-48045198D01*
X117834969Y-47727218D01*
X117834966Y-47727207D01*
X117740842Y-47416921D01*
X117616761Y-47117364D01*
X117616759Y-47117359D01*
X117463920Y-46831419D01*
X117463909Y-46831401D01*
X117283787Y-46561829D01*
X117283777Y-46561815D01*
X117134108Y-46379444D01*
X117134107Y-46379443D01*
X115924250Y-47589300D01*
X115850412Y-47487670D01*
X115672330Y-47309588D01*
X115570697Y-47235747D01*
X116780554Y-46025892D01*
X116780294Y-46020585D01*
X116796665Y-45952660D01*
X116847161Y-45904369D01*
X116904145Y-45890500D01*
X118951360Y-45890500D01*
X119018399Y-45910185D01*
X119064154Y-45962989D01*
X119074098Y-46032147D01*
X119045073Y-46095703D01*
X119007655Y-46124985D01*
X118977441Y-46140379D01*
X118805540Y-46265272D01*
X118805535Y-46265276D01*
X118655276Y-46415535D01*
X118655272Y-46415540D01*
X118530379Y-46587442D01*
X118433904Y-46776782D01*
X118368242Y-46978870D01*
X118368242Y-46978873D01*
X118357769Y-47045000D01*
X119251988Y-47045000D01*
X119219075Y-47102007D01*
X119185000Y-47229174D01*
X119185000Y-47360826D01*
X119219075Y-47487993D01*
X119251988Y-47545000D01*
X118357769Y-47545000D01*
X118368242Y-47611126D01*
X118368242Y-47611129D01*
X118433904Y-47813217D01*
X118530379Y-48002557D01*
X118655272Y-48174459D01*
X118655276Y-48174464D01*
X118769334Y-48288522D01*
X118802819Y-48349845D01*
X118797835Y-48419537D01*
X118755963Y-48475470D01*
X118724987Y-48492385D01*
X118592911Y-48541646D01*
X118592906Y-48541649D01*
X118477812Y-48627809D01*
X118477809Y-48627812D01*
X118391649Y-48742906D01*
X118391645Y-48742913D01*
X118341403Y-48877620D01*
X118341401Y-48877627D01*
X118335000Y-48937155D01*
X118335000Y-49585000D01*
X119251988Y-49585000D01*
X119219075Y-49642007D01*
X119185000Y-49769174D01*
X119185000Y-49900826D01*
X119219075Y-50027993D01*
X119251988Y-50085000D01*
X118335000Y-50085000D01*
X118335000Y-50732844D01*
X118341401Y-50792372D01*
X118341403Y-50792379D01*
X118391645Y-50927086D01*
X118391649Y-50927093D01*
X118477809Y-51042187D01*
X118477812Y-51042190D01*
X118592906Y-51128350D01*
X118592913Y-51128354D01*
X118727620Y-51178596D01*
X118727627Y-51178598D01*
X118787155Y-51184999D01*
X118787172Y-51185000D01*
X119435000Y-51185000D01*
X119435000Y-50268012D01*
X119492007Y-50300925D01*
X119619174Y-50335000D01*
X119750826Y-50335000D01*
X119877993Y-50300925D01*
X119935000Y-50268012D01*
X119935000Y-51185000D01*
X120582828Y-51185000D01*
X120582844Y-51184999D01*
X120642372Y-51178598D01*
X120642379Y-51178596D01*
X120777086Y-51128354D01*
X120777093Y-51128350D01*
X120892187Y-51042190D01*
X120892190Y-51042187D01*
X120978350Y-50927093D01*
X120978355Y-50927084D01*
X121024348Y-50803770D01*
X121066219Y-50747836D01*
X121131683Y-50723418D01*
X121199956Y-50738269D01*
X121228211Y-50759421D01*
X121339996Y-50871206D01*
X121512991Y-50996894D01*
X121601883Y-51042187D01*
X121703516Y-51093972D01*
X121703519Y-51093973D01*
X121801515Y-51125813D01*
X121906884Y-51160049D01*
X122118084Y-51193500D01*
X122118085Y-51193500D01*
X122331915Y-51193500D01*
X122331916Y-51193500D01*
X122543116Y-51160049D01*
X122746483Y-51093972D01*
X122937009Y-50996894D01*
X123110004Y-50871206D01*
X123261206Y-50720004D01*
X123386894Y-50547009D01*
X123386896Y-50547004D01*
X123389270Y-50543132D01*
X123441080Y-50496254D01*
X123510009Y-50484829D01*
X123574173Y-50512483D01*
X123600730Y-50543132D01*
X123603103Y-50547005D01*
X123603106Y-50547009D01*
X123728794Y-50720004D01*
X123879996Y-50871206D01*
X124052991Y-50996894D01*
X124141883Y-51042187D01*
X124243516Y-51093972D01*
X124243519Y-51093973D01*
X124341515Y-51125813D01*
X124446884Y-51160049D01*
X124658084Y-51193500D01*
X124658085Y-51193500D01*
X124871915Y-51193500D01*
X124871916Y-51193500D01*
X125083116Y-51160049D01*
X125286483Y-51093972D01*
X125477009Y-50996894D01*
X125650004Y-50871206D01*
X125801206Y-50720004D01*
X125926894Y-50547009D01*
X125926896Y-50547004D01*
X125929270Y-50543132D01*
X125981080Y-50496254D01*
X126050009Y-50484829D01*
X126114173Y-50512483D01*
X126140730Y-50543132D01*
X126143103Y-50547005D01*
X126143106Y-50547009D01*
X126268794Y-50720004D01*
X126419996Y-50871206D01*
X126592991Y-50996894D01*
X126681883Y-51042187D01*
X126783516Y-51093972D01*
X126783519Y-51093973D01*
X126881515Y-51125813D01*
X126986884Y-51160049D01*
X127198084Y-51193500D01*
X127198085Y-51193500D01*
X127411915Y-51193500D01*
X127411916Y-51193500D01*
X127623116Y-51160049D01*
X127826483Y-51093972D01*
X128017009Y-50996894D01*
X128190004Y-50871206D01*
X128341206Y-50720004D01*
X128466894Y-50547009D01*
X128466896Y-50547004D01*
X128469270Y-50543132D01*
X128521080Y-50496254D01*
X128590009Y-50484829D01*
X128654173Y-50512483D01*
X128680730Y-50543132D01*
X128683103Y-50547005D01*
X128683106Y-50547009D01*
X128808794Y-50720004D01*
X128959996Y-50871206D01*
X129132991Y-50996894D01*
X129221883Y-51042187D01*
X129323516Y-51093972D01*
X129323519Y-51093973D01*
X129421515Y-51125813D01*
X129526884Y-51160049D01*
X129738084Y-51193500D01*
X129738085Y-51193500D01*
X129951915Y-51193500D01*
X129951916Y-51193500D01*
X130163116Y-51160049D01*
X130366483Y-51093972D01*
X130557009Y-50996894D01*
X130730004Y-50871206D01*
X130881206Y-50720004D01*
X131006894Y-50547009D01*
X131006896Y-50547004D01*
X131009270Y-50543132D01*
X131061080Y-50496254D01*
X131130009Y-50484829D01*
X131194173Y-50512483D01*
X131220730Y-50543132D01*
X131223103Y-50547005D01*
X131223106Y-50547009D01*
X131348794Y-50720004D01*
X131499996Y-50871206D01*
X131672991Y-50996894D01*
X131761883Y-51042187D01*
X131863516Y-51093972D01*
X131863519Y-51093973D01*
X131961515Y-51125813D01*
X132066884Y-51160049D01*
X132278084Y-51193500D01*
X132278085Y-51193500D01*
X132491915Y-51193500D01*
X132491916Y-51193500D01*
X132703116Y-51160049D01*
X132906483Y-51093972D01*
X133097009Y-50996894D01*
X133270004Y-50871206D01*
X133421206Y-50720004D01*
X133546894Y-50547009D01*
X133546896Y-50547004D01*
X133549270Y-50543132D01*
X133601080Y-50496254D01*
X133670009Y-50484829D01*
X133734173Y-50512483D01*
X133760730Y-50543132D01*
X133763103Y-50547005D01*
X133763106Y-50547009D01*
X133888794Y-50720004D01*
X134039996Y-50871206D01*
X134212991Y-50996894D01*
X134301883Y-51042187D01*
X134403516Y-51093972D01*
X134403519Y-51093973D01*
X134501515Y-51125813D01*
X134606884Y-51160049D01*
X134818084Y-51193500D01*
X134818085Y-51193500D01*
X135031915Y-51193500D01*
X135031916Y-51193500D01*
X135243116Y-51160049D01*
X135446483Y-51093972D01*
X135637009Y-50996894D01*
X135810004Y-50871206D01*
X135961206Y-50720004D01*
X136086894Y-50547009D01*
X136086896Y-50547004D01*
X136089270Y-50543132D01*
X136141080Y-50496254D01*
X136210009Y-50484829D01*
X136274173Y-50512483D01*
X136300730Y-50543132D01*
X136303103Y-50547005D01*
X136303106Y-50547009D01*
X136428794Y-50720004D01*
X136579996Y-50871206D01*
X136752991Y-50996894D01*
X136841883Y-51042187D01*
X136943516Y-51093972D01*
X136943519Y-51093973D01*
X137041515Y-51125813D01*
X137146884Y-51160049D01*
X137358084Y-51193500D01*
X137358085Y-51193500D01*
X137571915Y-51193500D01*
X137571916Y-51193500D01*
X137783116Y-51160049D01*
X137986483Y-51093972D01*
X138177009Y-50996894D01*
X138350004Y-50871206D01*
X138501206Y-50720004D01*
X138626894Y-50547009D01*
X138626896Y-50547004D01*
X138629270Y-50543132D01*
X138681080Y-50496254D01*
X138750009Y-50484829D01*
X138814173Y-50512483D01*
X138840730Y-50543132D01*
X138843103Y-50547005D01*
X138843106Y-50547009D01*
X138968794Y-50720004D01*
X139119996Y-50871206D01*
X139292991Y-50996894D01*
X139381883Y-51042187D01*
X139483516Y-51093972D01*
X139483519Y-51093973D01*
X139581515Y-51125813D01*
X139686884Y-51160049D01*
X139898084Y-51193500D01*
X139898085Y-51193500D01*
X140111915Y-51193500D01*
X140111916Y-51193500D01*
X140323116Y-51160049D01*
X140526483Y-51093972D01*
X140717009Y-50996894D01*
X140890004Y-50871206D01*
X141041206Y-50720004D01*
X141166894Y-50547009D01*
X141166896Y-50547004D01*
X141169270Y-50543132D01*
X141221080Y-50496254D01*
X141290009Y-50484829D01*
X141354173Y-50512483D01*
X141380730Y-50543132D01*
X141383103Y-50547005D01*
X141383106Y-50547009D01*
X141508794Y-50720004D01*
X141659996Y-50871206D01*
X141832991Y-50996894D01*
X141921883Y-51042187D01*
X142023516Y-51093972D01*
X142023519Y-51093973D01*
X142121515Y-51125813D01*
X142226884Y-51160049D01*
X142438084Y-51193500D01*
X142438085Y-51193500D01*
X142651915Y-51193500D01*
X142651916Y-51193500D01*
X142863116Y-51160049D01*
X143066483Y-51093972D01*
X143257009Y-50996894D01*
X143430004Y-50871206D01*
X143581206Y-50720004D01*
X143706894Y-50547009D01*
X143706896Y-50547004D01*
X143709270Y-50543132D01*
X143761080Y-50496254D01*
X143830009Y-50484829D01*
X143894173Y-50512483D01*
X143920730Y-50543132D01*
X143923103Y-50547005D01*
X143923106Y-50547009D01*
X144048794Y-50720004D01*
X144199996Y-50871206D01*
X144372991Y-50996894D01*
X144461883Y-51042187D01*
X144563516Y-51093972D01*
X144563519Y-51093973D01*
X144661515Y-51125813D01*
X144766884Y-51160049D01*
X144978084Y-51193500D01*
X144978085Y-51193500D01*
X145191915Y-51193500D01*
X145191916Y-51193500D01*
X145403116Y-51160049D01*
X145606483Y-51093972D01*
X145797009Y-50996894D01*
X145970004Y-50871206D01*
X146121206Y-50720004D01*
X146246894Y-50547009D01*
X146246896Y-50547004D01*
X146249270Y-50543132D01*
X146301080Y-50496254D01*
X146370009Y-50484829D01*
X146434173Y-50512483D01*
X146460730Y-50543132D01*
X146463103Y-50547005D01*
X146463106Y-50547009D01*
X146588794Y-50720004D01*
X146739996Y-50871206D01*
X146912991Y-50996894D01*
X147001883Y-51042187D01*
X147103516Y-51093972D01*
X147103519Y-51093973D01*
X147201515Y-51125813D01*
X147306884Y-51160049D01*
X147518084Y-51193500D01*
X147518085Y-51193500D01*
X147731915Y-51193500D01*
X147731916Y-51193500D01*
X147943116Y-51160049D01*
X148146483Y-51093972D01*
X148337009Y-50996894D01*
X148510004Y-50871206D01*
X148661206Y-50720004D01*
X148786894Y-50547009D01*
X148786896Y-50547004D01*
X148789270Y-50543132D01*
X148841080Y-50496254D01*
X148910009Y-50484829D01*
X148974173Y-50512483D01*
X149000730Y-50543132D01*
X149003103Y-50547005D01*
X149003106Y-50547009D01*
X149128794Y-50720004D01*
X149279996Y-50871206D01*
X149452991Y-50996894D01*
X149541883Y-51042187D01*
X149643516Y-51093972D01*
X149643519Y-51093973D01*
X149741515Y-51125813D01*
X149846884Y-51160049D01*
X150058084Y-51193500D01*
X150058085Y-51193500D01*
X150271915Y-51193500D01*
X150271916Y-51193500D01*
X150483116Y-51160049D01*
X150686483Y-51093972D01*
X150877009Y-50996894D01*
X151050004Y-50871206D01*
X151201206Y-50720004D01*
X151326894Y-50547009D01*
X151326896Y-50547004D01*
X151329270Y-50543132D01*
X151381080Y-50496254D01*
X151450009Y-50484829D01*
X151514173Y-50512483D01*
X151540730Y-50543132D01*
X151543103Y-50547005D01*
X151543106Y-50547009D01*
X151668794Y-50720004D01*
X151819996Y-50871206D01*
X151992991Y-50996894D01*
X152081883Y-51042187D01*
X152183516Y-51093972D01*
X152183519Y-51093973D01*
X152281515Y-51125813D01*
X152386884Y-51160049D01*
X152598084Y-51193500D01*
X152598085Y-51193500D01*
X152811915Y-51193500D01*
X152811916Y-51193500D01*
X153023116Y-51160049D01*
X153226483Y-51093972D01*
X153417009Y-50996894D01*
X153590004Y-50871206D01*
X153741206Y-50720004D01*
X153866894Y-50547009D01*
X153866896Y-50547004D01*
X153869270Y-50543132D01*
X153921080Y-50496254D01*
X153990009Y-50484829D01*
X154054173Y-50512483D01*
X154080730Y-50543132D01*
X154083103Y-50547005D01*
X154083106Y-50547009D01*
X154208794Y-50720004D01*
X154359996Y-50871206D01*
X154532991Y-50996894D01*
X154621883Y-51042187D01*
X154723516Y-51093972D01*
X154723519Y-51093973D01*
X154821515Y-51125813D01*
X154926884Y-51160049D01*
X155138084Y-51193500D01*
X155138085Y-51193500D01*
X155351915Y-51193500D01*
X155351916Y-51193500D01*
X155563116Y-51160049D01*
X155766483Y-51093972D01*
X155957009Y-50996894D01*
X156130004Y-50871206D01*
X156281206Y-50720004D01*
X156406894Y-50547009D01*
X156406896Y-50547004D01*
X156409270Y-50543132D01*
X156461080Y-50496254D01*
X156530009Y-50484829D01*
X156594173Y-50512483D01*
X156620730Y-50543132D01*
X156623103Y-50547005D01*
X156623106Y-50547009D01*
X156748794Y-50720004D01*
X156899996Y-50871206D01*
X157072991Y-50996894D01*
X157161883Y-51042187D01*
X157263516Y-51093972D01*
X157263519Y-51093973D01*
X157361515Y-51125813D01*
X157466884Y-51160049D01*
X157678084Y-51193500D01*
X157678085Y-51193500D01*
X157891915Y-51193500D01*
X157891916Y-51193500D01*
X158103116Y-51160049D01*
X158306483Y-51093972D01*
X158497009Y-50996894D01*
X158670004Y-50871206D01*
X158821206Y-50720004D01*
X158946894Y-50547009D01*
X158946896Y-50547004D01*
X158949270Y-50543132D01*
X159001080Y-50496254D01*
X159070009Y-50484829D01*
X159134173Y-50512483D01*
X159160730Y-50543132D01*
X159163103Y-50547005D01*
X159163106Y-50547009D01*
X159288794Y-50720004D01*
X159439996Y-50871206D01*
X159612991Y-50996894D01*
X159701883Y-51042187D01*
X159803516Y-51093972D01*
X159803519Y-51093973D01*
X159901515Y-51125813D01*
X160006884Y-51160049D01*
X160218084Y-51193500D01*
X160218085Y-51193500D01*
X160431915Y-51193500D01*
X160431916Y-51193500D01*
X160643116Y-51160049D01*
X160846483Y-51093972D01*
X161037009Y-50996894D01*
X161210004Y-50871206D01*
X161361206Y-50720004D01*
X161486894Y-50547009D01*
X161486896Y-50547004D01*
X161489270Y-50543132D01*
X161541080Y-50496254D01*
X161610009Y-50484829D01*
X161674173Y-50512483D01*
X161700730Y-50543132D01*
X161703103Y-50547005D01*
X161703106Y-50547009D01*
X161828794Y-50720004D01*
X161979996Y-50871206D01*
X162152991Y-50996894D01*
X162241883Y-51042187D01*
X162343516Y-51093972D01*
X162343519Y-51093973D01*
X162441515Y-51125813D01*
X162546884Y-51160049D01*
X162758084Y-51193500D01*
X162758085Y-51193500D01*
X162971915Y-51193500D01*
X162971916Y-51193500D01*
X163183116Y-51160049D01*
X163386483Y-51093972D01*
X163577009Y-50996894D01*
X163750004Y-50871206D01*
X163901206Y-50720004D01*
X164026894Y-50547009D01*
X164026896Y-50547004D01*
X164029270Y-50543132D01*
X164081080Y-50496254D01*
X164150009Y-50484829D01*
X164214173Y-50512483D01*
X164240730Y-50543132D01*
X164243103Y-50547005D01*
X164243106Y-50547009D01*
X164368794Y-50720004D01*
X164519996Y-50871206D01*
X164692991Y-50996894D01*
X164781883Y-51042187D01*
X164883516Y-51093972D01*
X164883519Y-51093973D01*
X164981515Y-51125813D01*
X165086884Y-51160049D01*
X165298084Y-51193500D01*
X165298085Y-51193500D01*
X165511915Y-51193500D01*
X165511916Y-51193500D01*
X165723116Y-51160049D01*
X165926483Y-51093972D01*
X166117009Y-50996894D01*
X166290004Y-50871206D01*
X166441206Y-50720004D01*
X166566894Y-50547009D01*
X166566896Y-50547004D01*
X166569270Y-50543132D01*
X166621080Y-50496254D01*
X166690009Y-50484829D01*
X166754173Y-50512483D01*
X166780730Y-50543132D01*
X166783103Y-50547005D01*
X166783106Y-50547009D01*
X166908794Y-50720004D01*
X167059996Y-50871206D01*
X167232991Y-50996894D01*
X167321883Y-51042187D01*
X167423516Y-51093972D01*
X167423519Y-51093973D01*
X167521515Y-51125813D01*
X167626884Y-51160049D01*
X167838084Y-51193500D01*
X167838085Y-51193500D01*
X168051915Y-51193500D01*
X168051916Y-51193500D01*
X168263116Y-51160049D01*
X168466483Y-51093972D01*
X168657009Y-50996894D01*
X168830004Y-50871206D01*
X168981206Y-50720004D01*
X169106894Y-50547009D01*
X169106896Y-50547004D01*
X169109270Y-50543132D01*
X169161080Y-50496254D01*
X169230009Y-50484829D01*
X169294173Y-50512483D01*
X169320730Y-50543132D01*
X169323103Y-50547005D01*
X169323106Y-50547009D01*
X169448794Y-50720004D01*
X169599996Y-50871206D01*
X169772991Y-50996894D01*
X169861883Y-51042187D01*
X169963516Y-51093972D01*
X169963519Y-51093973D01*
X170061515Y-51125813D01*
X170166884Y-51160049D01*
X170378084Y-51193500D01*
X170378085Y-51193500D01*
X170591915Y-51193500D01*
X170591916Y-51193500D01*
X170803116Y-51160049D01*
X171006483Y-51093972D01*
X171197009Y-50996894D01*
X171370004Y-50871206D01*
X171521206Y-50720004D01*
X171646894Y-50547009D01*
X171646896Y-50547004D01*
X171649270Y-50543132D01*
X171701080Y-50496254D01*
X171770009Y-50484829D01*
X171834173Y-50512483D01*
X171860730Y-50543132D01*
X171863103Y-50547005D01*
X171863106Y-50547009D01*
X171988794Y-50720004D01*
X172139996Y-50871206D01*
X172312991Y-50996894D01*
X172401883Y-51042187D01*
X172503516Y-51093972D01*
X172503519Y-51093973D01*
X172601515Y-51125813D01*
X172706884Y-51160049D01*
X172918084Y-51193500D01*
X172918085Y-51193500D01*
X173131915Y-51193500D01*
X173131916Y-51193500D01*
X173343116Y-51160049D01*
X173546483Y-51093972D01*
X173737009Y-50996894D01*
X173910004Y-50871206D01*
X174061206Y-50720004D01*
X174186894Y-50547009D01*
X174186896Y-50547004D01*
X174189270Y-50543132D01*
X174241080Y-50496254D01*
X174310009Y-50484829D01*
X174374173Y-50512483D01*
X174400730Y-50543132D01*
X174403103Y-50547005D01*
X174403106Y-50547009D01*
X174528794Y-50720004D01*
X174679996Y-50871206D01*
X174852991Y-50996894D01*
X174941883Y-51042187D01*
X175043516Y-51093972D01*
X175043519Y-51093973D01*
X175141515Y-51125813D01*
X175246884Y-51160049D01*
X175458084Y-51193500D01*
X175458085Y-51193500D01*
X175671915Y-51193500D01*
X175671916Y-51193500D01*
X175883116Y-51160049D01*
X176086483Y-51093972D01*
X176277009Y-50996894D01*
X176450004Y-50871206D01*
X176601206Y-50720004D01*
X176726894Y-50547009D01*
X176823972Y-50356483D01*
X176890049Y-50153116D01*
X176923500Y-49941916D01*
X176923500Y-49728084D01*
X176890049Y-49516884D01*
X176823972Y-49313517D01*
X176823972Y-49313516D01*
X176726893Y-49122990D01*
X176601206Y-48949996D01*
X176450004Y-48798794D01*
X176277009Y-48673106D01*
X176277005Y-48673103D01*
X176273132Y-48670730D01*
X176226254Y-48618920D01*
X176214829Y-48549991D01*
X176242483Y-48485827D01*
X176273132Y-48459270D01*
X176277005Y-48456896D01*
X176277004Y-48456896D01*
X176277009Y-48456894D01*
X176450004Y-48331206D01*
X176601206Y-48180004D01*
X176726894Y-48007009D01*
X176823972Y-47816483D01*
X176890049Y-47613116D01*
X176923500Y-47401916D01*
X176923500Y-47188084D01*
X176890049Y-46976884D01*
X176842785Y-46831419D01*
X176823973Y-46773519D01*
X176823972Y-46773516D01*
X176774507Y-46676438D01*
X176726894Y-46582991D01*
X176665254Y-46498151D01*
X176641775Y-46432347D01*
X176657600Y-46364293D01*
X176707706Y-46315598D01*
X176776184Y-46301722D01*
X176796541Y-46305196D01*
X177033908Y-46366425D01*
X177040559Y-46368342D01*
X177685935Y-46574042D01*
X177692471Y-46576329D01*
X178325315Y-46817899D01*
X178331709Y-46820547D01*
X178949999Y-47097213D01*
X178956245Y-47100221D01*
X179558035Y-47411114D01*
X179564118Y-47414476D01*
X179900862Y-47613116D01*
X180147528Y-47758620D01*
X180153418Y-47762321D01*
X180716613Y-48138636D01*
X180722285Y-48142661D01*
X180820962Y-48216923D01*
X180862691Y-48272963D01*
X180867498Y-48342667D01*
X180833856Y-48403905D01*
X180772448Y-48437233D01*
X180746399Y-48440000D01*
X180517884Y-48440000D01*
X180195215Y-48471779D01*
X180195198Y-48471782D01*
X179877218Y-48535030D01*
X179877207Y-48535033D01*
X179566921Y-48629157D01*
X179267364Y-48753238D01*
X179267359Y-48753240D01*
X178981419Y-48906079D01*
X178981401Y-48906090D01*
X178711829Y-49086212D01*
X178711815Y-49086222D01*
X178529444Y-49235890D01*
X178529443Y-49235891D01*
X179739301Y-50445748D01*
X179637670Y-50519588D01*
X179459588Y-50697670D01*
X179385748Y-50799301D01*
X178175891Y-49589443D01*
X178175890Y-49589444D01*
X178026222Y-49771815D01*
X178026212Y-49771829D01*
X177846090Y-50041401D01*
X177846079Y-50041419D01*
X177693240Y-50327359D01*
X177693238Y-50327364D01*
X177569157Y-50626921D01*
X177475033Y-50937207D01*
X177475030Y-50937218D01*
X177411782Y-51255198D01*
X177411779Y-51255215D01*
X177380000Y-51577884D01*
X177380000Y-51902115D01*
X177411779Y-52224784D01*
X177411782Y-52224801D01*
X177475030Y-52542781D01*
X177475033Y-52542792D01*
X177569157Y-52853078D01*
X177693238Y-53152635D01*
X177693240Y-53152640D01*
X177846079Y-53438580D01*
X177846090Y-53438598D01*
X178026212Y-53708170D01*
X178026222Y-53708184D01*
X178175890Y-53890554D01*
X178175891Y-53890555D01*
X179385748Y-52680698D01*
X179459588Y-52782330D01*
X179637670Y-52960412D01*
X179739300Y-53034251D01*
X178529443Y-54244107D01*
X178529444Y-54244108D01*
X178711815Y-54393777D01*
X178711829Y-54393787D01*
X178981401Y-54573909D01*
X178981419Y-54573920D01*
X179267359Y-54726759D01*
X179267364Y-54726761D01*
X179566921Y-54850842D01*
X179877207Y-54944966D01*
X179877218Y-54944969D01*
X180195198Y-55008217D01*
X180195215Y-55008220D01*
X180517884Y-55040000D01*
X180842116Y-55040000D01*
X181164784Y-55008220D01*
X181164801Y-55008217D01*
X181482781Y-54944969D01*
X181482792Y-54944966D01*
X181793078Y-54850842D01*
X182092635Y-54726761D01*
X182092640Y-54726759D01*
X182378580Y-54573920D01*
X182378598Y-54573909D01*
X182648170Y-54393787D01*
X182648183Y-54393777D01*
X182830554Y-54244108D01*
X182830554Y-54244107D01*
X181620698Y-53034251D01*
X181722330Y-52960412D01*
X181900412Y-52782330D01*
X181974251Y-52680698D01*
X183184107Y-53890554D01*
X183184108Y-53890554D01*
X183333777Y-53708183D01*
X183333787Y-53708170D01*
X183513909Y-53438598D01*
X183513920Y-53438580D01*
X183666759Y-53152640D01*
X183666761Y-53152635D01*
X183790842Y-52853078D01*
X183884966Y-52542792D01*
X183884969Y-52542781D01*
X183948217Y-52224801D01*
X183948220Y-52224785D01*
X183969689Y-52006804D01*
X183995850Y-51942017D01*
X184052884Y-51901658D01*
X184122684Y-51898541D01*
X184183089Y-51933655D01*
X184199895Y-51955957D01*
X184335521Y-52185877D01*
X184338885Y-52191964D01*
X184649773Y-52793744D01*
X184652791Y-52800011D01*
X184929445Y-53418274D01*
X184932107Y-53424700D01*
X185173665Y-54057513D01*
X185175962Y-54064078D01*
X185381652Y-54709423D01*
X185383578Y-54716107D01*
X185552767Y-55371999D01*
X185554314Y-55378780D01*
X185686454Y-56043096D01*
X185687619Y-56049953D01*
X185782305Y-56720640D01*
X185783084Y-56727552D01*
X185840015Y-57402501D01*
X185840405Y-57409445D01*
X185859451Y-58088253D01*
X185859500Y-58091731D01*
X185859500Y-87298268D01*
X185859451Y-87301746D01*
X185840405Y-87980554D01*
X185840015Y-87987498D01*
X185783084Y-88662447D01*
X185782305Y-88669359D01*
X185687619Y-89340046D01*
X185686454Y-89346903D01*
X185554314Y-90011219D01*
X185552767Y-90018000D01*
X185383578Y-90673892D01*
X185381652Y-90680576D01*
X185175962Y-91325921D01*
X185173665Y-91332486D01*
X184932107Y-91965299D01*
X184929445Y-91971725D01*
X184652791Y-92589988D01*
X184649773Y-92596255D01*
X184338885Y-93198035D01*
X184335521Y-93204122D01*
X184165618Y-93492150D01*
X184114602Y-93539891D01*
X184045875Y-93552472D01*
X183981255Y-93525899D01*
X183941261Y-93468608D01*
X183935412Y-93441303D01*
X183908220Y-93165214D01*
X183908217Y-93165198D01*
X183844969Y-92847218D01*
X183844966Y-92847207D01*
X183750842Y-92536921D01*
X183626761Y-92237364D01*
X183626759Y-92237359D01*
X183473920Y-91951419D01*
X183473909Y-91951401D01*
X183293787Y-91681829D01*
X183293777Y-91681815D01*
X183144108Y-91499444D01*
X183144107Y-91499443D01*
X181934251Y-92709300D01*
X181860412Y-92607670D01*
X181682330Y-92429588D01*
X181580697Y-92355747D01*
X182790555Y-91145891D01*
X182790554Y-91145890D01*
X182608184Y-90996222D01*
X182608170Y-90996212D01*
X182338598Y-90816090D01*
X182338580Y-90816079D01*
X182052640Y-90663240D01*
X182052635Y-90663238D01*
X181753078Y-90539157D01*
X181442792Y-90445033D01*
X181442781Y-90445030D01*
X181124801Y-90381782D01*
X181124784Y-90381779D01*
X180802116Y-90350000D01*
X180477884Y-90350000D01*
X180155215Y-90381779D01*
X180155198Y-90381782D01*
X179837218Y-90445030D01*
X179837207Y-90445033D01*
X179526921Y-90539157D01*
X179227364Y-90663238D01*
X179227359Y-90663240D01*
X178941419Y-90816079D01*
X178941401Y-90816090D01*
X178671829Y-90996212D01*
X178671815Y-90996222D01*
X178489444Y-91145890D01*
X178489443Y-91145891D01*
X179699301Y-92355748D01*
X179597670Y-92429588D01*
X179419588Y-92607670D01*
X179345748Y-92709301D01*
X178135891Y-91499443D01*
X178135890Y-91499444D01*
X177986222Y-91681815D01*
X177986212Y-91681829D01*
X177806090Y-91951401D01*
X177806079Y-91951419D01*
X177653240Y-92237359D01*
X177653238Y-92237364D01*
X177529157Y-92536921D01*
X177435033Y-92847207D01*
X177435030Y-92847218D01*
X177371782Y-93165198D01*
X177371779Y-93165215D01*
X177340000Y-93487884D01*
X177340000Y-93812115D01*
X177371779Y-94134784D01*
X177371782Y-94134801D01*
X177435030Y-94452781D01*
X177435033Y-94452792D01*
X177529157Y-94763078D01*
X177653238Y-95062635D01*
X177653240Y-95062640D01*
X177806079Y-95348580D01*
X177806090Y-95348598D01*
X177986212Y-95618170D01*
X177986222Y-95618184D01*
X178135890Y-95800554D01*
X178135891Y-95800555D01*
X179345748Y-94590698D01*
X179419588Y-94692330D01*
X179597670Y-94870412D01*
X179699300Y-94944251D01*
X178489443Y-96154107D01*
X178489444Y-96154108D01*
X178671815Y-96303777D01*
X178671829Y-96303787D01*
X178941401Y-96483909D01*
X178941419Y-96483920D01*
X179227359Y-96636759D01*
X179227364Y-96636761D01*
X179526921Y-96760842D01*
X179837207Y-96854966D01*
X179837218Y-96854969D01*
X180155198Y-96918217D01*
X180155215Y-96918220D01*
X180477884Y-96950000D01*
X180746399Y-96950000D01*
X180813438Y-96969685D01*
X180859193Y-97022489D01*
X180869137Y-97091647D01*
X180840112Y-97155203D01*
X180820967Y-97173073D01*
X180764539Y-97215540D01*
X180722285Y-97247339D01*
X180716613Y-97251363D01*
X180153418Y-97627678D01*
X180147528Y-97631379D01*
X179564122Y-97975521D01*
X179558035Y-97978885D01*
X178956255Y-98289773D01*
X178949988Y-98292791D01*
X178331725Y-98569445D01*
X178325299Y-98572107D01*
X177692486Y-98813665D01*
X177685921Y-98815962D01*
X177040576Y-99021652D01*
X177033892Y-99023578D01*
X176783615Y-99088137D01*
X176713784Y-99085821D01*
X176656290Y-99046119D01*
X176629388Y-98981636D01*
X176641618Y-98912845D01*
X176652325Y-98895181D01*
X176719622Y-98802554D01*
X176816095Y-98613217D01*
X176881757Y-98411129D01*
X176881757Y-98411126D01*
X176892231Y-98345000D01*
X175998012Y-98345000D01*
X176030925Y-98287993D01*
X176065000Y-98160826D01*
X176065000Y-98029174D01*
X176030925Y-97902007D01*
X175998012Y-97845000D01*
X176892231Y-97845000D01*
X176881757Y-97778873D01*
X176881757Y-97778870D01*
X176816095Y-97576782D01*
X176719620Y-97387442D01*
X176594727Y-97215540D01*
X176594723Y-97215535D01*
X176444464Y-97065276D01*
X176444459Y-97065272D01*
X176272558Y-96940379D01*
X176262954Y-96935486D01*
X176212157Y-96887512D01*
X176195361Y-96819692D01*
X176217897Y-96753556D01*
X176262954Y-96714514D01*
X176272558Y-96709620D01*
X176444459Y-96584727D01*
X176444464Y-96584723D01*
X176594723Y-96434464D01*
X176594727Y-96434459D01*
X176719620Y-96262557D01*
X176816095Y-96073217D01*
X176881757Y-95871129D01*
X176881757Y-95871126D01*
X176892231Y-95805000D01*
X175998012Y-95805000D01*
X176030925Y-95747993D01*
X176065000Y-95620826D01*
X176065000Y-95489174D01*
X176030925Y-95362007D01*
X175998012Y-95305000D01*
X176892231Y-95305000D01*
X176881757Y-95238873D01*
X176881757Y-95238870D01*
X176816095Y-95036782D01*
X176719620Y-94847442D01*
X176594727Y-94675540D01*
X176594723Y-94675535D01*
X176444464Y-94525276D01*
X176444459Y-94525272D01*
X176272557Y-94400379D01*
X176083215Y-94303903D01*
X175881124Y-94238241D01*
X175815000Y-94227768D01*
X175815000Y-95121988D01*
X175757993Y-95089075D01*
X175630826Y-95055000D01*
X175499174Y-95055000D01*
X175372007Y-95089075D01*
X175315000Y-95121988D01*
X175315000Y-94227768D01*
X175314999Y-94227768D01*
X175248875Y-94238241D01*
X175046784Y-94303903D01*
X174857442Y-94400379D01*
X174685540Y-94525272D01*
X174685535Y-94525276D01*
X174535276Y-94675535D01*
X174535272Y-94675540D01*
X174410377Y-94847444D01*
X174405484Y-94857048D01*
X174357509Y-94907844D01*
X174289688Y-94924638D01*
X174223553Y-94902100D01*
X174184516Y-94857048D01*
X174179622Y-94847444D01*
X174054727Y-94675540D01*
X174054723Y-94675535D01*
X173904464Y-94525276D01*
X173904459Y-94525272D01*
X173732557Y-94400379D01*
X173543215Y-94303903D01*
X173341124Y-94238241D01*
X173275000Y-94227768D01*
X173275000Y-95121988D01*
X173217993Y-95089075D01*
X173090826Y-95055000D01*
X172959174Y-95055000D01*
X172832007Y-95089075D01*
X172775000Y-95121988D01*
X172775000Y-94227768D01*
X172774999Y-94227768D01*
X172708875Y-94238241D01*
X172506784Y-94303903D01*
X172317442Y-94400379D01*
X172145540Y-94525272D01*
X172145535Y-94525276D01*
X171995276Y-94675535D01*
X171995272Y-94675540D01*
X171870376Y-94847446D01*
X171870374Y-94847448D01*
X171870246Y-94847701D01*
X171870172Y-94847779D01*
X171867832Y-94851598D01*
X171867029Y-94851106D01*
X171822264Y-94898489D01*
X171754441Y-94915274D01*
X171688309Y-94892727D01*
X171649285Y-94847683D01*
X171646895Y-94842992D01*
X171588834Y-94763078D01*
X171521206Y-94669996D01*
X171370004Y-94518794D01*
X171197009Y-94393106D01*
X171131054Y-94359500D01*
X171006483Y-94296027D01*
X171006480Y-94296026D01*
X170803117Y-94229951D01*
X170697516Y-94213225D01*
X170591916Y-94196500D01*
X170378084Y-94196500D01*
X170307684Y-94207650D01*
X170166882Y-94229951D01*
X169963519Y-94296026D01*
X169963516Y-94296027D01*
X169772990Y-94393106D01*
X169599993Y-94518796D01*
X169448796Y-94669993D01*
X169323105Y-94842991D01*
X169320727Y-94846873D01*
X169268914Y-94893748D01*
X169199984Y-94905169D01*
X169135822Y-94877512D01*
X169109273Y-94846873D01*
X169106894Y-94842991D01*
X169048834Y-94763078D01*
X168981206Y-94669996D01*
X168830004Y-94518794D01*
X168657009Y-94393106D01*
X168591054Y-94359500D01*
X168466483Y-94296027D01*
X168466480Y-94296026D01*
X168263117Y-94229951D01*
X168157516Y-94213225D01*
X168051916Y-94196500D01*
X167838084Y-94196500D01*
X167767684Y-94207650D01*
X167626882Y-94229951D01*
X167423519Y-94296026D01*
X167423516Y-94296027D01*
X167232990Y-94393106D01*
X167059993Y-94518796D01*
X166908796Y-94669993D01*
X166783105Y-94842991D01*
X166780727Y-94846873D01*
X166728914Y-94893748D01*
X166659984Y-94905169D01*
X166595822Y-94877512D01*
X166569273Y-94846873D01*
X166566894Y-94842991D01*
X166508834Y-94763078D01*
X166441206Y-94669996D01*
X166290004Y-94518794D01*
X166117009Y-94393106D01*
X166051054Y-94359500D01*
X165926483Y-94296027D01*
X165926480Y-94296026D01*
X165723117Y-94229951D01*
X165617516Y-94213225D01*
X165511916Y-94196500D01*
X165298084Y-94196500D01*
X165227684Y-94207650D01*
X165086882Y-94229951D01*
X164883519Y-94296026D01*
X164883516Y-94296027D01*
X164692990Y-94393106D01*
X164519993Y-94518796D01*
X164368796Y-94669993D01*
X164243105Y-94842991D01*
X164240727Y-94846873D01*
X164188914Y-94893748D01*
X164119984Y-94905169D01*
X164055822Y-94877512D01*
X164029273Y-94846873D01*
X164026894Y-94842991D01*
X163968834Y-94763078D01*
X163901206Y-94669996D01*
X163750004Y-94518794D01*
X163577009Y-94393106D01*
X163511054Y-94359500D01*
X163386483Y-94296027D01*
X163386480Y-94296026D01*
X163183117Y-94229951D01*
X163077516Y-94213225D01*
X162971916Y-94196500D01*
X162758084Y-94196500D01*
X162687684Y-94207650D01*
X162546882Y-94229951D01*
X162343519Y-94296026D01*
X162343516Y-94296027D01*
X162152990Y-94393106D01*
X161979993Y-94518796D01*
X161828796Y-94669993D01*
X161703105Y-94842991D01*
X161700727Y-94846873D01*
X161648914Y-94893748D01*
X161579984Y-94905169D01*
X161515822Y-94877512D01*
X161489273Y-94846873D01*
X161486894Y-94842991D01*
X161428834Y-94763078D01*
X161361206Y-94669996D01*
X161210004Y-94518794D01*
X161037009Y-94393106D01*
X160971054Y-94359500D01*
X160846483Y-94296027D01*
X160846480Y-94296026D01*
X160643117Y-94229951D01*
X160537516Y-94213225D01*
X160431916Y-94196500D01*
X160218084Y-94196500D01*
X160147684Y-94207650D01*
X160006882Y-94229951D01*
X159803519Y-94296026D01*
X159803516Y-94296027D01*
X159612990Y-94393106D01*
X159439993Y-94518796D01*
X159288796Y-94669993D01*
X159163105Y-94842991D01*
X159160727Y-94846873D01*
X159108914Y-94893748D01*
X159039984Y-94905169D01*
X158975822Y-94877512D01*
X158949273Y-94846873D01*
X158946894Y-94842991D01*
X158888834Y-94763078D01*
X158821206Y-94669996D01*
X158670004Y-94518794D01*
X158497009Y-94393106D01*
X158431054Y-94359500D01*
X158306483Y-94296027D01*
X158306480Y-94296026D01*
X158103117Y-94229951D01*
X157997516Y-94213225D01*
X157891916Y-94196500D01*
X157678084Y-94196500D01*
X157607684Y-94207650D01*
X157466882Y-94229951D01*
X157263519Y-94296026D01*
X157263516Y-94296027D01*
X157072990Y-94393106D01*
X156899993Y-94518796D01*
X156748796Y-94669993D01*
X156623105Y-94842991D01*
X156620727Y-94846873D01*
X156568914Y-94893748D01*
X156499984Y-94905169D01*
X156435822Y-94877512D01*
X156409273Y-94846873D01*
X156406894Y-94842991D01*
X156348834Y-94763078D01*
X156281206Y-94669996D01*
X156130004Y-94518794D01*
X155957009Y-94393106D01*
X155891054Y-94359500D01*
X155766483Y-94296027D01*
X155766480Y-94296026D01*
X155563117Y-94229951D01*
X155457516Y-94213225D01*
X155351916Y-94196500D01*
X155138084Y-94196500D01*
X155067684Y-94207650D01*
X154926882Y-94229951D01*
X154723519Y-94296026D01*
X154723516Y-94296027D01*
X154532990Y-94393106D01*
X154359993Y-94518796D01*
X154208796Y-94669993D01*
X154083105Y-94842991D01*
X154080727Y-94846873D01*
X154028914Y-94893748D01*
X153959984Y-94905169D01*
X153895822Y-94877512D01*
X153869273Y-94846873D01*
X153866894Y-94842991D01*
X153808834Y-94763078D01*
X153741206Y-94669996D01*
X153590004Y-94518794D01*
X153417009Y-94393106D01*
X153351054Y-94359500D01*
X153226483Y-94296027D01*
X153226480Y-94296026D01*
X153023117Y-94229951D01*
X152917516Y-94213225D01*
X152811916Y-94196500D01*
X152598084Y-94196500D01*
X152527684Y-94207650D01*
X152386882Y-94229951D01*
X152183519Y-94296026D01*
X152183516Y-94296027D01*
X151992990Y-94393106D01*
X151819993Y-94518796D01*
X151668796Y-94669993D01*
X151543105Y-94842991D01*
X151540727Y-94846873D01*
X151488914Y-94893748D01*
X151419984Y-94905169D01*
X151355822Y-94877512D01*
X151329273Y-94846873D01*
X151326894Y-94842991D01*
X151268834Y-94763078D01*
X151201206Y-94669996D01*
X151050004Y-94518794D01*
X150877009Y-94393106D01*
X150811054Y-94359500D01*
X150686483Y-94296027D01*
X150686480Y-94296026D01*
X150483117Y-94229951D01*
X150377516Y-94213225D01*
X150271916Y-94196500D01*
X150058084Y-94196500D01*
X149987684Y-94207650D01*
X149846882Y-94229951D01*
X149643519Y-94296026D01*
X149643516Y-94296027D01*
X149452990Y-94393106D01*
X149279993Y-94518796D01*
X149128796Y-94669993D01*
X149003105Y-94842991D01*
X149000727Y-94846873D01*
X148948914Y-94893748D01*
X148879984Y-94905169D01*
X148815822Y-94877512D01*
X148789273Y-94846873D01*
X148786894Y-94842991D01*
X148728834Y-94763078D01*
X148661206Y-94669996D01*
X148510004Y-94518794D01*
X148337009Y-94393106D01*
X148271054Y-94359500D01*
X148146483Y-94296027D01*
X148146480Y-94296026D01*
X147943117Y-94229951D01*
X147837516Y-94213225D01*
X147731916Y-94196500D01*
X147518084Y-94196500D01*
X147447684Y-94207650D01*
X147306882Y-94229951D01*
X147103519Y-94296026D01*
X147103516Y-94296027D01*
X146912990Y-94393106D01*
X146739993Y-94518796D01*
X146588796Y-94669993D01*
X146463105Y-94842991D01*
X146460727Y-94846873D01*
X146408914Y-94893748D01*
X146339984Y-94905169D01*
X146275822Y-94877512D01*
X146249273Y-94846873D01*
X146246894Y-94842991D01*
X146188834Y-94763078D01*
X146121206Y-94669996D01*
X145970004Y-94518794D01*
X145797009Y-94393106D01*
X145731054Y-94359500D01*
X145606483Y-94296027D01*
X145606480Y-94296026D01*
X145403117Y-94229951D01*
X145297516Y-94213225D01*
X145191916Y-94196500D01*
X144978084Y-94196500D01*
X144907684Y-94207650D01*
X144766882Y-94229951D01*
X144563519Y-94296026D01*
X144563516Y-94296027D01*
X144372990Y-94393106D01*
X144199993Y-94518796D01*
X144048796Y-94669993D01*
X143923105Y-94842991D01*
X143920727Y-94846873D01*
X143868914Y-94893748D01*
X143799984Y-94905169D01*
X143735822Y-94877512D01*
X143709273Y-94846873D01*
X143706894Y-94842991D01*
X143648834Y-94763078D01*
X143581206Y-94669996D01*
X143430004Y-94518794D01*
X143257009Y-94393106D01*
X143191054Y-94359500D01*
X143066483Y-94296027D01*
X143066480Y-94296026D01*
X142863117Y-94229951D01*
X142757516Y-94213225D01*
X142651916Y-94196500D01*
X142438084Y-94196500D01*
X142367684Y-94207650D01*
X142226882Y-94229951D01*
X142023519Y-94296026D01*
X142023516Y-94296027D01*
X141832990Y-94393106D01*
X141659993Y-94518796D01*
X141508796Y-94669993D01*
X141383105Y-94842991D01*
X141380727Y-94846873D01*
X141328914Y-94893748D01*
X141259984Y-94905169D01*
X141195822Y-94877512D01*
X141169273Y-94846873D01*
X141166894Y-94842991D01*
X141108834Y-94763078D01*
X141041206Y-94669996D01*
X140890004Y-94518794D01*
X140717009Y-94393106D01*
X140651054Y-94359500D01*
X140526483Y-94296027D01*
X140526480Y-94296026D01*
X140323117Y-94229951D01*
X140217516Y-94213225D01*
X140111916Y-94196500D01*
X139898084Y-94196500D01*
X139827684Y-94207650D01*
X139686882Y-94229951D01*
X139483519Y-94296026D01*
X139483516Y-94296027D01*
X139292990Y-94393106D01*
X139119993Y-94518796D01*
X138968796Y-94669993D01*
X138843105Y-94842991D01*
X138840727Y-94846873D01*
X138788914Y-94893748D01*
X138719984Y-94905169D01*
X138655822Y-94877512D01*
X138629273Y-94846873D01*
X138626894Y-94842991D01*
X138568834Y-94763078D01*
X138501206Y-94669996D01*
X138350004Y-94518794D01*
X138177009Y-94393106D01*
X138111054Y-94359500D01*
X137986483Y-94296027D01*
X137986480Y-94296026D01*
X137783117Y-94229951D01*
X137677516Y-94213225D01*
X137571916Y-94196500D01*
X137358084Y-94196500D01*
X137287684Y-94207650D01*
X137146882Y-94229951D01*
X136943519Y-94296026D01*
X136943516Y-94296027D01*
X136752990Y-94393106D01*
X136579993Y-94518796D01*
X136428796Y-94669993D01*
X136303105Y-94842991D01*
X136300727Y-94846873D01*
X136248914Y-94893748D01*
X136179984Y-94905169D01*
X136115822Y-94877512D01*
X136089273Y-94846873D01*
X136086894Y-94842991D01*
X136028834Y-94763078D01*
X135961206Y-94669996D01*
X135810004Y-94518794D01*
X135637009Y-94393106D01*
X135571054Y-94359500D01*
X135446483Y-94296027D01*
X135446480Y-94296026D01*
X135243117Y-94229951D01*
X135137516Y-94213225D01*
X135031916Y-94196500D01*
X134818084Y-94196500D01*
X134747684Y-94207650D01*
X134606882Y-94229951D01*
X134403519Y-94296026D01*
X134403516Y-94296027D01*
X134212990Y-94393106D01*
X134039993Y-94518796D01*
X133888796Y-94669993D01*
X133763105Y-94842991D01*
X133760727Y-94846873D01*
X133708914Y-94893748D01*
X133639984Y-94905169D01*
X133575822Y-94877512D01*
X133549273Y-94846873D01*
X133546894Y-94842991D01*
X133488834Y-94763078D01*
X133421206Y-94669996D01*
X133270004Y-94518794D01*
X133097009Y-94393106D01*
X133031054Y-94359500D01*
X132906483Y-94296027D01*
X132906480Y-94296026D01*
X132703117Y-94229951D01*
X132597516Y-94213225D01*
X132491916Y-94196500D01*
X132278084Y-94196500D01*
X132207684Y-94207650D01*
X132066882Y-94229951D01*
X131863519Y-94296026D01*
X131863516Y-94296027D01*
X131672990Y-94393106D01*
X131499993Y-94518796D01*
X131348796Y-94669993D01*
X131223105Y-94842991D01*
X131220727Y-94846873D01*
X131168914Y-94893748D01*
X131099984Y-94905169D01*
X131035822Y-94877512D01*
X131009273Y-94846873D01*
X131006894Y-94842991D01*
X130948834Y-94763078D01*
X130881206Y-94669996D01*
X130730004Y-94518794D01*
X130557009Y-94393106D01*
X130491054Y-94359500D01*
X130366483Y-94296027D01*
X130366480Y-94296026D01*
X130163117Y-94229951D01*
X130057516Y-94213225D01*
X129951916Y-94196500D01*
X129738084Y-94196500D01*
X129667684Y-94207650D01*
X129526882Y-94229951D01*
X129323519Y-94296026D01*
X129323516Y-94296027D01*
X129132990Y-94393106D01*
X128959993Y-94518796D01*
X128808796Y-94669993D01*
X128683105Y-94842991D01*
X128680727Y-94846873D01*
X128628914Y-94893748D01*
X128559984Y-94905169D01*
X128495822Y-94877512D01*
X128469273Y-94846873D01*
X128466894Y-94842991D01*
X128408834Y-94763078D01*
X128341206Y-94669996D01*
X128190004Y-94518794D01*
X128017009Y-94393106D01*
X127951054Y-94359500D01*
X127826483Y-94296027D01*
X127826480Y-94296026D01*
X127623117Y-94229951D01*
X127517516Y-94213225D01*
X127411916Y-94196500D01*
X127198084Y-94196500D01*
X127127684Y-94207650D01*
X126986882Y-94229951D01*
X126783519Y-94296026D01*
X126783516Y-94296027D01*
X126592990Y-94393106D01*
X126419993Y-94518796D01*
X126268796Y-94669993D01*
X126143105Y-94842991D01*
X126140727Y-94846873D01*
X126088914Y-94893748D01*
X126019984Y-94905169D01*
X125955822Y-94877512D01*
X125929273Y-94846873D01*
X125926894Y-94842991D01*
X125868834Y-94763078D01*
X125801206Y-94669996D01*
X125650004Y-94518794D01*
X125477009Y-94393106D01*
X125411054Y-94359500D01*
X125286483Y-94296027D01*
X125286480Y-94296026D01*
X125083117Y-94229951D01*
X124977516Y-94213225D01*
X124871916Y-94196500D01*
X124658084Y-94196500D01*
X124587684Y-94207650D01*
X124446882Y-94229951D01*
X124243519Y-94296026D01*
X124243516Y-94296027D01*
X124052990Y-94393106D01*
X123879993Y-94518796D01*
X123728796Y-94669993D01*
X123603105Y-94842991D01*
X123600727Y-94846873D01*
X123548914Y-94893748D01*
X123479984Y-94905169D01*
X123415822Y-94877512D01*
X123389273Y-94846873D01*
X123386894Y-94842991D01*
X123328834Y-94763078D01*
X123261206Y-94669996D01*
X123110004Y-94518794D01*
X122937009Y-94393106D01*
X122871054Y-94359500D01*
X122746483Y-94296027D01*
X122746480Y-94296026D01*
X122543117Y-94229951D01*
X122437516Y-94213225D01*
X122331916Y-94196500D01*
X122118084Y-94196500D01*
X122047684Y-94207650D01*
X121906882Y-94229951D01*
X121703519Y-94296026D01*
X121703516Y-94296027D01*
X121512990Y-94393106D01*
X121339993Y-94518796D01*
X121188796Y-94669993D01*
X121063103Y-94842994D01*
X121060709Y-94847693D01*
X121012731Y-94898485D01*
X120944908Y-94915275D01*
X120878775Y-94892732D01*
X120842800Y-94851210D01*
X120842168Y-94851598D01*
X120839829Y-94847781D01*
X120839743Y-94847682D01*
X120839620Y-94847441D01*
X120714727Y-94675540D01*
X120714723Y-94675535D01*
X120564464Y-94525276D01*
X120564459Y-94525272D01*
X120392557Y-94400379D01*
X120203215Y-94303903D01*
X120001124Y-94238241D01*
X119935000Y-94227768D01*
X119935000Y-95121988D01*
X119877993Y-95089075D01*
X119750826Y-95055000D01*
X119619174Y-95055000D01*
X119492007Y-95089075D01*
X119435000Y-95121988D01*
X119435000Y-94227768D01*
X119434999Y-94227768D01*
X119368875Y-94238241D01*
X119166784Y-94303903D01*
X118977442Y-94400379D01*
X118805540Y-94525272D01*
X118805535Y-94525276D01*
X118655276Y-94675535D01*
X118655272Y-94675540D01*
X118530379Y-94847442D01*
X118433904Y-95036782D01*
X118368242Y-95238870D01*
X118368242Y-95238873D01*
X118357769Y-95305000D01*
X119251988Y-95305000D01*
X119219075Y-95362007D01*
X119185000Y-95489174D01*
X119185000Y-95620826D01*
X119219075Y-95747993D01*
X119251988Y-95805000D01*
X118357769Y-95805000D01*
X118368242Y-95871126D01*
X118368242Y-95871129D01*
X118433904Y-96073217D01*
X118530379Y-96262557D01*
X118655272Y-96434459D01*
X118655276Y-96434464D01*
X118769334Y-96548522D01*
X118802819Y-96609845D01*
X118797835Y-96679537D01*
X118755963Y-96735470D01*
X118724987Y-96752385D01*
X118592911Y-96801646D01*
X118592906Y-96801649D01*
X118477812Y-96887809D01*
X118477809Y-96887812D01*
X118391649Y-97002906D01*
X118391645Y-97002913D01*
X118341403Y-97137620D01*
X118341401Y-97137627D01*
X118335000Y-97197155D01*
X118335000Y-97845000D01*
X119251988Y-97845000D01*
X119219075Y-97902007D01*
X119185000Y-98029174D01*
X119185000Y-98160826D01*
X119219075Y-98287993D01*
X119251988Y-98345000D01*
X118335000Y-98345000D01*
X118335000Y-98992844D01*
X118341401Y-99052372D01*
X118341403Y-99052379D01*
X118391645Y-99187086D01*
X118391649Y-99187093D01*
X118477062Y-99301189D01*
X118501480Y-99366653D01*
X118486629Y-99434926D01*
X118437224Y-99484332D01*
X118377796Y-99499500D01*
X116891211Y-99499500D01*
X116824172Y-99479815D01*
X116778417Y-99427011D01*
X116770092Y-99369117D01*
X116767858Y-99369008D01*
X116770554Y-99314107D01*
X115560698Y-98104251D01*
X115662330Y-98030412D01*
X115840412Y-97852330D01*
X115914251Y-97750698D01*
X117124107Y-98960554D01*
X117124108Y-98960554D01*
X117273777Y-98778183D01*
X117273787Y-98778170D01*
X117453909Y-98508598D01*
X117453920Y-98508580D01*
X117606759Y-98222640D01*
X117606761Y-98222635D01*
X117730842Y-97923078D01*
X117824966Y-97612792D01*
X117824969Y-97612781D01*
X117888217Y-97294801D01*
X117888220Y-97294783D01*
X117899358Y-97181698D01*
X117899358Y-97181697D01*
X117920000Y-96972115D01*
X117920000Y-96647884D01*
X117888220Y-96325215D01*
X117888217Y-96325198D01*
X117824969Y-96007218D01*
X117824966Y-96007207D01*
X117730842Y-95696921D01*
X117606765Y-95397373D01*
X117606754Y-95397351D01*
X117453920Y-95111419D01*
X117453909Y-95111401D01*
X117273787Y-94841829D01*
X117273777Y-94841815D01*
X117124108Y-94659444D01*
X117124107Y-94659443D01*
X115914250Y-95869300D01*
X115840412Y-95767670D01*
X115662330Y-95589588D01*
X115560697Y-95515747D01*
X116770555Y-94305891D01*
X116770554Y-94305890D01*
X116588184Y-94156222D01*
X116588170Y-94156212D01*
X116318598Y-93976090D01*
X116318580Y-93976079D01*
X116032640Y-93823240D01*
X116032635Y-93823238D01*
X115733078Y-93699157D01*
X115422786Y-93605032D01*
X115104801Y-93541782D01*
X115104784Y-93541779D01*
X114782116Y-93510000D01*
X114457884Y-93510000D01*
X114135215Y-93541779D01*
X114135198Y-93541782D01*
X113817218Y-93605030D01*
X113817207Y-93605033D01*
X113506921Y-93699157D01*
X113207364Y-93823238D01*
X113207359Y-93823240D01*
X112921419Y-93976079D01*
X112921401Y-93976090D01*
X112651829Y-94156212D01*
X112651815Y-94156222D01*
X112469444Y-94305890D01*
X112469443Y-94305891D01*
X113679301Y-95515748D01*
X113577670Y-95589588D01*
X113399588Y-95767670D01*
X113325748Y-95869301D01*
X112115891Y-94659443D01*
X112115890Y-94659444D01*
X111966222Y-94841815D01*
X111966212Y-94841829D01*
X111786090Y-95111401D01*
X111786079Y-95111419D01*
X111633240Y-95397359D01*
X111633238Y-95397364D01*
X111509157Y-95696921D01*
X111415033Y-96007207D01*
X111415030Y-96007218D01*
X111351782Y-96325198D01*
X111351779Y-96325215D01*
X111320000Y-96647884D01*
X111320000Y-96972115D01*
X111351779Y-97294784D01*
X111351782Y-97294801D01*
X111415030Y-97612781D01*
X111415033Y-97612792D01*
X111509157Y-97923078D01*
X111633238Y-98222635D01*
X111633240Y-98222640D01*
X111786079Y-98508580D01*
X111786090Y-98508598D01*
X111966212Y-98778170D01*
X111966222Y-98778184D01*
X112115890Y-98960554D01*
X112115891Y-98960555D01*
X113325748Y-97750698D01*
X113399588Y-97852330D01*
X113577670Y-98030412D01*
X113679300Y-98104251D01*
X112469443Y-99314107D01*
X112472141Y-99369007D01*
X112467640Y-99369228D01*
X112468646Y-99407281D01*
X112432437Y-99467036D01*
X112369670Y-99497729D01*
X112348788Y-99499500D01*
X106352425Y-99499500D01*
X106347557Y-99499404D01*
X105895921Y-99481659D01*
X105886214Y-99480895D01*
X105439775Y-99428055D01*
X105430159Y-99426532D01*
X104989240Y-99338828D01*
X104979772Y-99336555D01*
X104547102Y-99214529D01*
X104537842Y-99211521D01*
X104116062Y-99055918D01*
X104107067Y-99052192D01*
X103698808Y-98863983D01*
X103690133Y-98859562D01*
X103297891Y-98639895D01*
X103289589Y-98634808D01*
X102915800Y-98385051D01*
X102907923Y-98379328D01*
X102554877Y-98101009D01*
X102547474Y-98094686D01*
X102432153Y-97988084D01*
X102217350Y-97789522D01*
X102210477Y-97782649D01*
X101905308Y-97452519D01*
X101898990Y-97445122D01*
X101890023Y-97433748D01*
X101620668Y-97092073D01*
X101614948Y-97084199D01*
X101602301Y-97065272D01*
X101518851Y-96940379D01*
X101367408Y-96713728D01*
X101367408Y-96713727D01*
X101365191Y-96710409D01*
X101360104Y-96702108D01*
X101140437Y-96309866D01*
X101136022Y-96301203D01*
X100947807Y-95892932D01*
X100944081Y-95883937D01*
X100788478Y-95462157D01*
X100785470Y-95452897D01*
X100756055Y-95348598D01*
X100663443Y-95020223D01*
X100661171Y-95010759D01*
X100640168Y-94905169D01*
X100573466Y-94569835D01*
X100571944Y-94560224D01*
X100567041Y-94518796D01*
X100519102Y-94113766D01*
X100518341Y-94104096D01*
X100500596Y-93652443D01*
X100500500Y-93647575D01*
X100500500Y-91145305D01*
X107920000Y-91145305D01*
X107920000Y-91374694D01*
X107920001Y-91374710D01*
X107949942Y-91602137D01*
X108009318Y-91823730D01*
X108097102Y-92035659D01*
X108097106Y-92035669D01*
X108211799Y-92234324D01*
X108211805Y-92234331D01*
X108268381Y-92308064D01*
X108915884Y-91660560D01*
X108916740Y-91662626D01*
X109009762Y-91801844D01*
X109128156Y-91920238D01*
X109267374Y-92013260D01*
X109269437Y-92014114D01*
X108621934Y-92661617D01*
X108621934Y-92661618D01*
X108695666Y-92718194D01*
X108894330Y-92832893D01*
X108894340Y-92832897D01*
X109106269Y-92920681D01*
X109327862Y-92980057D01*
X109555289Y-93009998D01*
X109555306Y-93010000D01*
X109784694Y-93010000D01*
X109784710Y-93009998D01*
X110012137Y-92980057D01*
X110233730Y-92920681D01*
X110445659Y-92832897D01*
X110445668Y-92832893D01*
X110644327Y-92718197D01*
X110644334Y-92718192D01*
X110718064Y-92661617D01*
X110070561Y-92014114D01*
X110072626Y-92013260D01*
X110211844Y-91920238D01*
X110330238Y-91801844D01*
X110423260Y-91662626D01*
X110424114Y-91660561D01*
X111071617Y-92308064D01*
X111128192Y-92234334D01*
X111128197Y-92234327D01*
X111242893Y-92035668D01*
X111242897Y-92035659D01*
X111330681Y-91823730D01*
X111390057Y-91602137D01*
X111419998Y-91374710D01*
X111420000Y-91374694D01*
X111420000Y-91145305D01*
X113000000Y-91145305D01*
X113000000Y-91374694D01*
X113000001Y-91374710D01*
X113029942Y-91602137D01*
X113089318Y-91823730D01*
X113177102Y-92035659D01*
X113177106Y-92035669D01*
X113291799Y-92234324D01*
X113291805Y-92234331D01*
X113348381Y-92308064D01*
X113995884Y-91660560D01*
X113996740Y-91662626D01*
X114089762Y-91801844D01*
X114208156Y-91920238D01*
X114347374Y-92013260D01*
X114349437Y-92014114D01*
X113701934Y-92661617D01*
X113701934Y-92661618D01*
X113775666Y-92718194D01*
X113974330Y-92832893D01*
X113974340Y-92832897D01*
X114186269Y-92920681D01*
X114407862Y-92980057D01*
X114635289Y-93009998D01*
X114635306Y-93010000D01*
X114864694Y-93010000D01*
X114864710Y-93009998D01*
X115092137Y-92980057D01*
X115313730Y-92920681D01*
X115525659Y-92832897D01*
X115525668Y-92832893D01*
X115724327Y-92718197D01*
X115724342Y-92718187D01*
X115736967Y-92708500D01*
X115736972Y-92708496D01*
X115798064Y-92661617D01*
X115150561Y-92014114D01*
X115152626Y-92013260D01*
X115291844Y-91920238D01*
X115410238Y-91801844D01*
X115503260Y-91662626D01*
X115504114Y-91660561D01*
X116151617Y-92308064D01*
X116208192Y-92234334D01*
X116208197Y-92234327D01*
X116322893Y-92035668D01*
X116322897Y-92035659D01*
X116410681Y-91823730D01*
X116422825Y-91778411D01*
X116470057Y-91602137D01*
X116499998Y-91374710D01*
X116500000Y-91374694D01*
X116500000Y-91145305D01*
X116499999Y-91145291D01*
X116483024Y-91016357D01*
X116483024Y-91016356D01*
X116470057Y-90917862D01*
X116410681Y-90696269D01*
X116322897Y-90484340D01*
X116322893Y-90484330D01*
X116208194Y-90285666D01*
X116151618Y-90211934D01*
X116151617Y-90211934D01*
X115504114Y-90859437D01*
X115503260Y-90857374D01*
X115410238Y-90718156D01*
X115291844Y-90599762D01*
X115152626Y-90506740D01*
X115150560Y-90505884D01*
X115798064Y-89858381D01*
X115798064Y-89858380D01*
X115724331Y-89801805D01*
X115724324Y-89801799D01*
X115525669Y-89687106D01*
X115525659Y-89687102D01*
X115313730Y-89599318D01*
X115092137Y-89539942D01*
X114864710Y-89510001D01*
X114864694Y-89510000D01*
X114635306Y-89510000D01*
X114635289Y-89510001D01*
X114407862Y-89539942D01*
X114186269Y-89599318D01*
X113974340Y-89687102D01*
X113974330Y-89687106D01*
X113775673Y-89801801D01*
X113775659Y-89801810D01*
X113701934Y-89858380D01*
X114349438Y-90505884D01*
X114347374Y-90506740D01*
X114208156Y-90599762D01*
X114089762Y-90718156D01*
X113996740Y-90857374D01*
X113995884Y-90859438D01*
X113348380Y-90211934D01*
X113291810Y-90285659D01*
X113291801Y-90285673D01*
X113177106Y-90484330D01*
X113177102Y-90484340D01*
X113089318Y-90696269D01*
X113029942Y-90917862D01*
X113000001Y-91145289D01*
X113000000Y-91145305D01*
X111420000Y-91145305D01*
X111419998Y-91145289D01*
X111390057Y-90917862D01*
X111330681Y-90696269D01*
X111242897Y-90484340D01*
X111242893Y-90484330D01*
X111128194Y-90285666D01*
X111071618Y-90211934D01*
X111071617Y-90211934D01*
X110424114Y-90859437D01*
X110423260Y-90857374D01*
X110330238Y-90718156D01*
X110211844Y-90599762D01*
X110072626Y-90506740D01*
X110070560Y-90505884D01*
X110718064Y-89858381D01*
X110718064Y-89858380D01*
X110644331Y-89801805D01*
X110644324Y-89801799D01*
X110445669Y-89687106D01*
X110445659Y-89687102D01*
X110233730Y-89599318D01*
X110012137Y-89539942D01*
X109784710Y-89510001D01*
X109784694Y-89510000D01*
X109555306Y-89510000D01*
X109555289Y-89510001D01*
X109327862Y-89539942D01*
X109106269Y-89599318D01*
X108894340Y-89687102D01*
X108894330Y-89687106D01*
X108695673Y-89801801D01*
X108695659Y-89801810D01*
X108621934Y-89858380D01*
X109269438Y-90505884D01*
X109267374Y-90506740D01*
X109128156Y-90599762D01*
X109009762Y-90718156D01*
X108916740Y-90857374D01*
X108915884Y-90859438D01*
X108268380Y-90211934D01*
X108211810Y-90285659D01*
X108211801Y-90285673D01*
X108097106Y-90484330D01*
X108097102Y-90484340D01*
X108009318Y-90696269D01*
X107949942Y-90917862D01*
X107920001Y-91145289D01*
X107920000Y-91145305D01*
X100500500Y-91145305D01*
X100500500Y-88620948D01*
X110951500Y-88620948D01*
X110951500Y-88819051D01*
X110982487Y-89014700D01*
X111043703Y-89203101D01*
X111113481Y-89340046D01*
X111133634Y-89379598D01*
X111250070Y-89539858D01*
X111390142Y-89679930D01*
X111550402Y-89796366D01*
X111633790Y-89838854D01*
X111726898Y-89886296D01*
X111726900Y-89886296D01*
X111726903Y-89886298D01*
X111827888Y-89919110D01*
X111915299Y-89947512D01*
X112110949Y-89978500D01*
X112110954Y-89978500D01*
X112309051Y-89978500D01*
X112504700Y-89947512D01*
X112693097Y-89886298D01*
X112869598Y-89796366D01*
X113029858Y-89679930D01*
X113169930Y-89539858D01*
X113286366Y-89379598D01*
X113339473Y-89275371D01*
X117058825Y-89275371D01*
X117058825Y-89451674D01*
X117086402Y-89625786D01*
X117140882Y-89793456D01*
X117220917Y-89950534D01*
X117228214Y-89960578D01*
X117228215Y-89960578D01*
X117761181Y-89427612D01*
X117787447Y-89525637D01*
X117842741Y-89621409D01*
X117920939Y-89699607D01*
X118016711Y-89754901D01*
X118114734Y-89781166D01*
X117581767Y-90314131D01*
X117581768Y-90314132D01*
X117591806Y-90321425D01*
X117591815Y-90321431D01*
X117748891Y-90401465D01*
X117916561Y-90455945D01*
X118090674Y-90483523D01*
X118196325Y-90483523D01*
X118263364Y-90503208D01*
X118309119Y-90556012D01*
X118320325Y-90607523D01*
X118320325Y-90659523D01*
X118300640Y-90726562D01*
X118247836Y-90772317D01*
X118196325Y-90783523D01*
X118090674Y-90783523D01*
X117916561Y-90811100D01*
X117748891Y-90865580D01*
X117591817Y-90945613D01*
X117581767Y-90952913D01*
X118114735Y-91485879D01*
X118016711Y-91512145D01*
X117920939Y-91567439D01*
X117842741Y-91645637D01*
X117787447Y-91741409D01*
X117761181Y-91839432D01*
X117228215Y-91306465D01*
X117220915Y-91316515D01*
X117140882Y-91473589D01*
X117086402Y-91641259D01*
X117058825Y-91815371D01*
X117058825Y-91991674D01*
X117086402Y-92165786D01*
X117140882Y-92333456D01*
X117220917Y-92490534D01*
X117228214Y-92500578D01*
X117228215Y-92500578D01*
X117761181Y-91967612D01*
X117787447Y-92065637D01*
X117842741Y-92161409D01*
X117920939Y-92239607D01*
X118016711Y-92294901D01*
X118114734Y-92321166D01*
X117581767Y-92854131D01*
X117581768Y-92854132D01*
X117591806Y-92861425D01*
X117591815Y-92861431D01*
X117748891Y-92941465D01*
X117916561Y-92995945D01*
X118090674Y-93023523D01*
X118266976Y-93023523D01*
X118441088Y-92995945D01*
X118608761Y-92941464D01*
X118765825Y-92861437D01*
X118765834Y-92861432D01*
X118775880Y-92854132D01*
X118775881Y-92854131D01*
X118242915Y-92321165D01*
X118340939Y-92294901D01*
X118436711Y-92239607D01*
X118514909Y-92161409D01*
X118570203Y-92065637D01*
X118596468Y-91967612D01*
X119129433Y-92500578D01*
X119129434Y-92500578D01*
X119136734Y-92490532D01*
X119136739Y-92490523D01*
X119216766Y-92333459D01*
X119271247Y-92165786D01*
X119298825Y-91991674D01*
X119298825Y-91886023D01*
X119318510Y-91818984D01*
X119371314Y-91773229D01*
X119422825Y-91762023D01*
X119474825Y-91762023D01*
X119541864Y-91781708D01*
X119587619Y-91834512D01*
X119598825Y-91886023D01*
X119598825Y-91991674D01*
X119626402Y-92165786D01*
X119680882Y-92333456D01*
X119760917Y-92490534D01*
X119768214Y-92500578D01*
X119768215Y-92500578D01*
X120301181Y-91967612D01*
X120327447Y-92065637D01*
X120382741Y-92161409D01*
X120460939Y-92239607D01*
X120556711Y-92294901D01*
X120654734Y-92321166D01*
X120121767Y-92854131D01*
X120121768Y-92854132D01*
X120131806Y-92861425D01*
X120131815Y-92861431D01*
X120288891Y-92941465D01*
X120456561Y-92995945D01*
X120630674Y-93023523D01*
X120806976Y-93023523D01*
X120981088Y-92995945D01*
X121148761Y-92941464D01*
X121305825Y-92861437D01*
X121305834Y-92861432D01*
X121315880Y-92854132D01*
X121315881Y-92854131D01*
X120782915Y-92321165D01*
X120880939Y-92294901D01*
X120976711Y-92239607D01*
X121054909Y-92161409D01*
X121110203Y-92065637D01*
X121136467Y-91967613D01*
X121669433Y-92500579D01*
X121669434Y-92500578D01*
X121676734Y-92490532D01*
X121676739Y-92490523D01*
X121756766Y-92333461D01*
X121787015Y-92240365D01*
X142061500Y-92240365D01*
X142061500Y-92399634D01*
X142092568Y-92555823D01*
X142092570Y-92555831D01*
X142153517Y-92702969D01*
X142241995Y-92835387D01*
X142242001Y-92835394D01*
X142354605Y-92947998D01*
X142354612Y-92948004D01*
X142487030Y-93036482D01*
X142487031Y-93036482D01*
X142487032Y-93036483D01*
X142634169Y-93097430D01*
X142790365Y-93128499D01*
X142790369Y-93128500D01*
X142790370Y-93128500D01*
X142949631Y-93128500D01*
X142949632Y-93128499D01*
X143105831Y-93097430D01*
X143252968Y-93036483D01*
X143385389Y-92948003D01*
X143498003Y-92835389D01*
X143586483Y-92702968D01*
X143647430Y-92555831D01*
X143678500Y-92399630D01*
X143678500Y-92240370D01*
X143677297Y-92234324D01*
X143648286Y-92088469D01*
X143647431Y-92084173D01*
X143647430Y-92084171D01*
X143647430Y-92084169D01*
X143641712Y-92070365D01*
X144131500Y-92070365D01*
X144131500Y-92229634D01*
X144162568Y-92385823D01*
X144162570Y-92385831D01*
X144223517Y-92532969D01*
X144311995Y-92665387D01*
X144312001Y-92665394D01*
X144424605Y-92777998D01*
X144424612Y-92778004D01*
X144557030Y-92866482D01*
X144557031Y-92866482D01*
X144557032Y-92866483D01*
X144704169Y-92927430D01*
X144807603Y-92948004D01*
X144860365Y-92958499D01*
X144860369Y-92958500D01*
X144860370Y-92958500D01*
X145019631Y-92958500D01*
X145019632Y-92958499D01*
X145175831Y-92927430D01*
X145322968Y-92866483D01*
X145455389Y-92778003D01*
X145568003Y-92665389D01*
X145656483Y-92532968D01*
X145717430Y-92385831D01*
X145748500Y-92229630D01*
X145748500Y-92070370D01*
X145717430Y-91914169D01*
X145656483Y-91767032D01*
X145639362Y-91741409D01*
X145568004Y-91634612D01*
X145567998Y-91634605D01*
X145455394Y-91522001D01*
X145455387Y-91521995D01*
X145322969Y-91433517D01*
X145175831Y-91372570D01*
X145175823Y-91372568D01*
X145019634Y-91341500D01*
X145019630Y-91341500D01*
X144860370Y-91341500D01*
X144860365Y-91341500D01*
X144704176Y-91372568D01*
X144704168Y-91372570D01*
X144557030Y-91433517D01*
X144424612Y-91521995D01*
X144424605Y-91522001D01*
X144312001Y-91634605D01*
X144311995Y-91634612D01*
X144223517Y-91767030D01*
X144162570Y-91914168D01*
X144162568Y-91914176D01*
X144131500Y-92070365D01*
X143641712Y-92070365D01*
X143586483Y-91937032D01*
X143571211Y-91914176D01*
X143498004Y-91804612D01*
X143497998Y-91804605D01*
X143385394Y-91692001D01*
X143385387Y-91691995D01*
X143252969Y-91603517D01*
X143105831Y-91542570D01*
X143105823Y-91542568D01*
X142949634Y-91511500D01*
X142949630Y-91511500D01*
X142790370Y-91511500D01*
X142790365Y-91511500D01*
X142634176Y-91542568D01*
X142634168Y-91542570D01*
X142487030Y-91603517D01*
X142354612Y-91691995D01*
X142354605Y-91692001D01*
X142242001Y-91804605D01*
X142241995Y-91804612D01*
X142153517Y-91937030D01*
X142092570Y-92084168D01*
X142092568Y-92084176D01*
X142061500Y-92240365D01*
X121787015Y-92240365D01*
X121801444Y-92195959D01*
X121801444Y-92195958D01*
X121811247Y-92165787D01*
X121811247Y-92165786D01*
X121838825Y-91991674D01*
X121838825Y-91815371D01*
X121811247Y-91641259D01*
X121756767Y-91473589D01*
X121676733Y-91316513D01*
X121676727Y-91316504D01*
X121669434Y-91306466D01*
X121669433Y-91306465D01*
X121136467Y-91839431D01*
X121110203Y-91741409D01*
X121054909Y-91645637D01*
X120976711Y-91567439D01*
X120880939Y-91512145D01*
X120782914Y-91485879D01*
X121315880Y-90952913D01*
X121315880Y-90952912D01*
X121305836Y-90945615D01*
X121148758Y-90865580D01*
X120981088Y-90811100D01*
X120806976Y-90783523D01*
X120701325Y-90783523D01*
X120634286Y-90763838D01*
X120588531Y-90711034D01*
X120577325Y-90659523D01*
X120577325Y-90607523D01*
X120597010Y-90540484D01*
X120649814Y-90494729D01*
X120701325Y-90483523D01*
X120806976Y-90483523D01*
X120981088Y-90455945D01*
X121148761Y-90401464D01*
X121305825Y-90321437D01*
X121305834Y-90321432D01*
X121315880Y-90314132D01*
X121315880Y-90314131D01*
X120782914Y-89781166D01*
X120880939Y-89754901D01*
X120976711Y-89699607D01*
X121054909Y-89621409D01*
X121110203Y-89525637D01*
X121136467Y-89427613D01*
X121669433Y-89960579D01*
X121669434Y-89960578D01*
X121676734Y-89950532D01*
X121676739Y-89950523D01*
X121756766Y-89793461D01*
X121787015Y-89700365D01*
X155921500Y-89700365D01*
X155921500Y-89859634D01*
X155952568Y-90015823D01*
X155952570Y-90015831D01*
X156013517Y-90162969D01*
X156101995Y-90295387D01*
X156102001Y-90295394D01*
X156214605Y-90407998D01*
X156214612Y-90408004D01*
X156347030Y-90496482D01*
X156347031Y-90496482D01*
X156347032Y-90496483D01*
X156494169Y-90557430D01*
X156650365Y-90588499D01*
X156650369Y-90588500D01*
X156650370Y-90588500D01*
X156809631Y-90588500D01*
X156809632Y-90588499D01*
X156965831Y-90557430D01*
X157112968Y-90496483D01*
X157245389Y-90408003D01*
X157358003Y-90295389D01*
X157421495Y-90200365D01*
X165441500Y-90200365D01*
X165441500Y-90359634D01*
X165472568Y-90515823D01*
X165472570Y-90515831D01*
X165533517Y-90662969D01*
X165621995Y-90795387D01*
X165622001Y-90795394D01*
X165734605Y-90907998D01*
X165734612Y-90908004D01*
X165867030Y-90996482D01*
X165867031Y-90996482D01*
X165867032Y-90996483D01*
X166014169Y-91057430D01*
X166170365Y-91088499D01*
X166170369Y-91088500D01*
X166170370Y-91088500D01*
X166329631Y-91088500D01*
X166329632Y-91088499D01*
X166349920Y-91084464D01*
X166407110Y-91073089D01*
X166445954Y-91065361D01*
X166485831Y-91057430D01*
X166632968Y-90996483D01*
X166765389Y-90908003D01*
X166878003Y-90795389D01*
X166966483Y-90662968D01*
X167027430Y-90515831D01*
X167058500Y-90359630D01*
X167058500Y-90200370D01*
X167027430Y-90044169D01*
X166966483Y-89897032D01*
X166940657Y-89858381D01*
X166878004Y-89764612D01*
X166877998Y-89764605D01*
X166765394Y-89652001D01*
X166765387Y-89651995D01*
X166632969Y-89563517D01*
X166485831Y-89502570D01*
X166485823Y-89502568D01*
X166329634Y-89471500D01*
X166329630Y-89471500D01*
X166170370Y-89471500D01*
X166170365Y-89471500D01*
X166014176Y-89502568D01*
X166014168Y-89502570D01*
X165867030Y-89563517D01*
X165734612Y-89651995D01*
X165734605Y-89652001D01*
X165622001Y-89764605D01*
X165621995Y-89764612D01*
X165533517Y-89897030D01*
X165472570Y-90044168D01*
X165472568Y-90044176D01*
X165441500Y-90200365D01*
X157421495Y-90200365D01*
X157446483Y-90162968D01*
X157507430Y-90015831D01*
X157538500Y-89859630D01*
X157538500Y-89700370D01*
X157507430Y-89544169D01*
X157446483Y-89397032D01*
X157435786Y-89381023D01*
X157358004Y-89264612D01*
X157357998Y-89264605D01*
X157245394Y-89152001D01*
X157245387Y-89151995D01*
X157112969Y-89063517D01*
X156965831Y-89002570D01*
X156965823Y-89002568D01*
X156809634Y-88971500D01*
X156809630Y-88971500D01*
X156650370Y-88971500D01*
X156650365Y-88971500D01*
X156494176Y-89002568D01*
X156494168Y-89002570D01*
X156347030Y-89063517D01*
X156214612Y-89151995D01*
X156214605Y-89152001D01*
X156102001Y-89264605D01*
X156101995Y-89264612D01*
X156013517Y-89397030D01*
X155952570Y-89544168D01*
X155952568Y-89544176D01*
X155921500Y-89700365D01*
X121787015Y-89700365D01*
X121801444Y-89655959D01*
X121801444Y-89655958D01*
X121811247Y-89625787D01*
X121811247Y-89625786D01*
X121838825Y-89451674D01*
X121838825Y-89275371D01*
X121811247Y-89101259D01*
X121756767Y-88933589D01*
X121676733Y-88776513D01*
X121676727Y-88776504D01*
X121669434Y-88766466D01*
X121669433Y-88766465D01*
X121136467Y-89299431D01*
X121110203Y-89201409D01*
X121054909Y-89105637D01*
X120976711Y-89027439D01*
X120880939Y-88972145D01*
X120782914Y-88945879D01*
X121315880Y-88412913D01*
X121315880Y-88412912D01*
X121305836Y-88405615D01*
X121148758Y-88325580D01*
X120981088Y-88271100D01*
X120806976Y-88243523D01*
X120630674Y-88243523D01*
X120456561Y-88271100D01*
X120288891Y-88325580D01*
X120131817Y-88405613D01*
X120121767Y-88412913D01*
X120654735Y-88945879D01*
X120556711Y-88972145D01*
X120460939Y-89027439D01*
X120382741Y-89105637D01*
X120327447Y-89201409D01*
X120301181Y-89299433D01*
X119768215Y-88766465D01*
X119760915Y-88776515D01*
X119680882Y-88933589D01*
X119626402Y-89101259D01*
X119598825Y-89275371D01*
X119598825Y-89381023D01*
X119579140Y-89448062D01*
X119526336Y-89493817D01*
X119474825Y-89505023D01*
X119422825Y-89505023D01*
X119355786Y-89485338D01*
X119310031Y-89432534D01*
X119298825Y-89381023D01*
X119298825Y-89275371D01*
X119271247Y-89101259D01*
X119216767Y-88933589D01*
X119136733Y-88776513D01*
X119136727Y-88776504D01*
X119129434Y-88766466D01*
X119129433Y-88766465D01*
X118596468Y-89299432D01*
X118570203Y-89201409D01*
X118514909Y-89105637D01*
X118436711Y-89027439D01*
X118340939Y-88972145D01*
X118242914Y-88945879D01*
X118775880Y-88412913D01*
X118775880Y-88412912D01*
X118765836Y-88405615D01*
X118608758Y-88325580D01*
X118441088Y-88271100D01*
X118266976Y-88243523D01*
X118090674Y-88243523D01*
X117916561Y-88271100D01*
X117748891Y-88325580D01*
X117591817Y-88405613D01*
X117581767Y-88412913D01*
X118114735Y-88945879D01*
X118016711Y-88972145D01*
X117920939Y-89027439D01*
X117842741Y-89105637D01*
X117787447Y-89201409D01*
X117761181Y-89299432D01*
X117228215Y-88766465D01*
X117220915Y-88776515D01*
X117140882Y-88933589D01*
X117086402Y-89101259D01*
X117058825Y-89275371D01*
X113339473Y-89275371D01*
X113358804Y-89237431D01*
X113370636Y-89214210D01*
X113370637Y-89214208D01*
X113376295Y-89203104D01*
X113376295Y-89203100D01*
X113376298Y-89203097D01*
X113437512Y-89014700D01*
X113439433Y-89002570D01*
X113468500Y-88819051D01*
X113468500Y-88620948D01*
X113446108Y-88479569D01*
X113439969Y-88440813D01*
X113437512Y-88425300D01*
X113376298Y-88236903D01*
X113376296Y-88236900D01*
X113376296Y-88236898D01*
X113342501Y-88170573D01*
X113339238Y-88164169D01*
X113316919Y-88120365D01*
X134501500Y-88120365D01*
X134501500Y-88279634D01*
X134532568Y-88435823D01*
X134532570Y-88435831D01*
X134593517Y-88582969D01*
X134681995Y-88715387D01*
X134682001Y-88715394D01*
X134794605Y-88827998D01*
X134794612Y-88828004D01*
X134927030Y-88916482D01*
X134927031Y-88916482D01*
X134927032Y-88916483D01*
X135074169Y-88977430D01*
X135200548Y-89002568D01*
X135230365Y-89008499D01*
X135230369Y-89008500D01*
X135230370Y-89008500D01*
X135389631Y-89008500D01*
X135389632Y-89008499D01*
X135545831Y-88977430D01*
X135692968Y-88916483D01*
X135825389Y-88828003D01*
X135938003Y-88715389D01*
X136026483Y-88582968D01*
X136087430Y-88435831D01*
X136106419Y-88340365D01*
X139031500Y-88340365D01*
X139031500Y-88499634D01*
X139062568Y-88655823D01*
X139062570Y-88655831D01*
X139123517Y-88802969D01*
X139211995Y-88935387D01*
X139212001Y-88935394D01*
X139324605Y-89047998D01*
X139324612Y-89048004D01*
X139457030Y-89136482D01*
X139457031Y-89136482D01*
X139457032Y-89136483D01*
X139604169Y-89197430D01*
X139760365Y-89228499D01*
X139760369Y-89228500D01*
X139760370Y-89228500D01*
X139919631Y-89228500D01*
X139919632Y-89228499D01*
X140075831Y-89197430D01*
X140222968Y-89136483D01*
X140355389Y-89048003D01*
X140468003Y-88935389D01*
X140556483Y-88802968D01*
X140617430Y-88655831D01*
X140648500Y-88499630D01*
X140648500Y-88340370D01*
X140648123Y-88338474D01*
X140648123Y-88338472D01*
X140648122Y-88338469D01*
X140644521Y-88320365D01*
X141271500Y-88320365D01*
X141271500Y-88479634D01*
X141302568Y-88635823D01*
X141302570Y-88635831D01*
X141363517Y-88782969D01*
X141451995Y-88915387D01*
X141452001Y-88915394D01*
X141564605Y-89027998D01*
X141564612Y-89028004D01*
X141697030Y-89116482D01*
X141697031Y-89116482D01*
X141697032Y-89116483D01*
X141844169Y-89177430D01*
X142000365Y-89208499D01*
X142000369Y-89208500D01*
X142000370Y-89208500D01*
X142159631Y-89208500D01*
X142159632Y-89208499D01*
X142315831Y-89177430D01*
X142462968Y-89116483D01*
X142595389Y-89028003D01*
X142708003Y-88915389D01*
X142796483Y-88782968D01*
X142857430Y-88635831D01*
X142888500Y-88479630D01*
X142888500Y-88320370D01*
X142857430Y-88164169D01*
X142841349Y-88125347D01*
X144876518Y-88125347D01*
X144876518Y-88284616D01*
X144907586Y-88440805D01*
X144907588Y-88440813D01*
X144968535Y-88587951D01*
X145057013Y-88720369D01*
X145057019Y-88720376D01*
X145169623Y-88832980D01*
X145169630Y-88832986D01*
X145302048Y-88921464D01*
X145302049Y-88921464D01*
X145302050Y-88921465D01*
X145449187Y-88982412D01*
X145580337Y-89008499D01*
X145605383Y-89013481D01*
X145605387Y-89013482D01*
X145605388Y-89013482D01*
X145764649Y-89013482D01*
X145764650Y-89013481D01*
X145920849Y-88982412D01*
X146067986Y-88921465D01*
X146200407Y-88832985D01*
X146313021Y-88720371D01*
X146401501Y-88587950D01*
X146462448Y-88440813D01*
X146470996Y-88397834D01*
X146474471Y-88380365D01*
X148711500Y-88380365D01*
X148711500Y-88539634D01*
X148742568Y-88695823D01*
X148742570Y-88695831D01*
X148803517Y-88842969D01*
X148891995Y-88975387D01*
X148892001Y-88975394D01*
X149004605Y-89087998D01*
X149004612Y-89088004D01*
X149137030Y-89176482D01*
X149137031Y-89176482D01*
X149137032Y-89176483D01*
X149284169Y-89237430D01*
X149420824Y-89264612D01*
X149440365Y-89268499D01*
X149440369Y-89268500D01*
X149440370Y-89268500D01*
X149599631Y-89268500D01*
X149599632Y-89268499D01*
X149755831Y-89237430D01*
X149902968Y-89176483D01*
X150035389Y-89088003D01*
X150148003Y-88975389D01*
X150236483Y-88842968D01*
X150297430Y-88695831D01*
X150328500Y-88539630D01*
X150328500Y-88380370D01*
X150297430Y-88224169D01*
X150236483Y-88077032D01*
X150232028Y-88070365D01*
X150148004Y-87944612D01*
X150147998Y-87944605D01*
X150035394Y-87832001D01*
X150035387Y-87831995D01*
X149902969Y-87743517D01*
X149755831Y-87682570D01*
X149755823Y-87682568D01*
X149599634Y-87651500D01*
X149599630Y-87651500D01*
X149440370Y-87651500D01*
X149440365Y-87651500D01*
X149284176Y-87682568D01*
X149284168Y-87682570D01*
X149137030Y-87743517D01*
X149004612Y-87831995D01*
X149004605Y-87832001D01*
X148892001Y-87944605D01*
X148891995Y-87944612D01*
X148803517Y-88077030D01*
X148742570Y-88224168D01*
X148742568Y-88224176D01*
X148711500Y-88380365D01*
X146474471Y-88380365D01*
X146480495Y-88350087D01*
X146493517Y-88284616D01*
X146493518Y-88284613D01*
X146493518Y-88125351D01*
X146493517Y-88125347D01*
X146483906Y-88077030D01*
X146462448Y-87969151D01*
X146401501Y-87822014D01*
X146398172Y-87817032D01*
X146313022Y-87689594D01*
X146313016Y-87689587D01*
X146200412Y-87576983D01*
X146200405Y-87576977D01*
X146067987Y-87488499D01*
X145920849Y-87427552D01*
X145920841Y-87427550D01*
X145764652Y-87396482D01*
X145764648Y-87396482D01*
X145605388Y-87396482D01*
X145605383Y-87396482D01*
X145449194Y-87427550D01*
X145449186Y-87427552D01*
X145302048Y-87488499D01*
X145169630Y-87576977D01*
X145169623Y-87576983D01*
X145057019Y-87689587D01*
X145057013Y-87689594D01*
X144968535Y-87822012D01*
X144907588Y-87969150D01*
X144907586Y-87969158D01*
X144876518Y-88125347D01*
X142841349Y-88125347D01*
X142796483Y-88017032D01*
X142782020Y-87995387D01*
X142708004Y-87884612D01*
X142707998Y-87884605D01*
X142595394Y-87772001D01*
X142595387Y-87771995D01*
X142462969Y-87683517D01*
X142315831Y-87622570D01*
X142315823Y-87622568D01*
X142159634Y-87591500D01*
X142159630Y-87591500D01*
X142000370Y-87591500D01*
X142000365Y-87591500D01*
X141844176Y-87622568D01*
X141844168Y-87622570D01*
X141697030Y-87683517D01*
X141564612Y-87771995D01*
X141564605Y-87772001D01*
X141452001Y-87884605D01*
X141451995Y-87884612D01*
X141363517Y-88017030D01*
X141302570Y-88164168D01*
X141302568Y-88164176D01*
X141271500Y-88320365D01*
X140644521Y-88320365D01*
X140626473Y-88229631D01*
X140617430Y-88184169D01*
X140556483Y-88037032D01*
X140543118Y-88017030D01*
X140468004Y-87904612D01*
X140467998Y-87904605D01*
X140355394Y-87792001D01*
X140355387Y-87791995D01*
X140222969Y-87703517D01*
X140075831Y-87642570D01*
X140075823Y-87642568D01*
X139919634Y-87611500D01*
X139919630Y-87611500D01*
X139760370Y-87611500D01*
X139760365Y-87611500D01*
X139604176Y-87642568D01*
X139604168Y-87642570D01*
X139457030Y-87703517D01*
X139324612Y-87791995D01*
X139324605Y-87792001D01*
X139212001Y-87904605D01*
X139211995Y-87904612D01*
X139123517Y-88037030D01*
X139062570Y-88184168D01*
X139062568Y-88184176D01*
X139031500Y-88340365D01*
X136106419Y-88340365D01*
X136109360Y-88325580D01*
X136112442Y-88310087D01*
X136112442Y-88310086D01*
X136117508Y-88284616D01*
X136118500Y-88279630D01*
X136118500Y-88120370D01*
X136087430Y-87964169D01*
X136026483Y-87817032D01*
X136009755Y-87791997D01*
X135938004Y-87684612D01*
X135937998Y-87684605D01*
X135825394Y-87572001D01*
X135825387Y-87571995D01*
X135692969Y-87483517D01*
X135545831Y-87422570D01*
X135545823Y-87422568D01*
X135389634Y-87391500D01*
X135389630Y-87391500D01*
X135230370Y-87391500D01*
X135230365Y-87391500D01*
X135074176Y-87422568D01*
X135074168Y-87422570D01*
X134927030Y-87483517D01*
X134794612Y-87571995D01*
X134794605Y-87572001D01*
X134682001Y-87684605D01*
X134681995Y-87684612D01*
X134593517Y-87817030D01*
X134532570Y-87964168D01*
X134532568Y-87964176D01*
X134501500Y-88120365D01*
X113316919Y-88120365D01*
X113286366Y-88060402D01*
X113169930Y-87900142D01*
X113029858Y-87760070D01*
X112869598Y-87643634D01*
X112806532Y-87611500D01*
X112693101Y-87553703D01*
X112504700Y-87492487D01*
X112309051Y-87461500D01*
X112309046Y-87461500D01*
X112110954Y-87461500D01*
X112110949Y-87461500D01*
X111915299Y-87492487D01*
X111726898Y-87553703D01*
X111550401Y-87643634D01*
X111477663Y-87696482D01*
X111390142Y-87760070D01*
X111390140Y-87760072D01*
X111390139Y-87760072D01*
X111250072Y-87900139D01*
X111250072Y-87900140D01*
X111250070Y-87900142D01*
X111226220Y-87932969D01*
X111133634Y-88060401D01*
X111043703Y-88236898D01*
X110982487Y-88425299D01*
X110951500Y-88620948D01*
X100500500Y-88620948D01*
X100500500Y-86065305D01*
X107920000Y-86065305D01*
X107920000Y-86294694D01*
X107920001Y-86294710D01*
X107949942Y-86522137D01*
X108009318Y-86743730D01*
X108097102Y-86955659D01*
X108097106Y-86955669D01*
X108211799Y-87154324D01*
X108211805Y-87154331D01*
X108268381Y-87228064D01*
X108915884Y-86580560D01*
X108916740Y-86582626D01*
X109009762Y-86721844D01*
X109128156Y-86840238D01*
X109267374Y-86933260D01*
X109269437Y-86934114D01*
X108621934Y-87581617D01*
X108621934Y-87581618D01*
X108695666Y-87638194D01*
X108894330Y-87752893D01*
X108894340Y-87752897D01*
X109106269Y-87840681D01*
X109327862Y-87900057D01*
X109555289Y-87929998D01*
X109555306Y-87930000D01*
X109784694Y-87930000D01*
X109784710Y-87929998D01*
X110012137Y-87900057D01*
X110233730Y-87840681D01*
X110445659Y-87752897D01*
X110445668Y-87752893D01*
X110644327Y-87638197D01*
X110644334Y-87638192D01*
X110718064Y-87581617D01*
X110070561Y-86934114D01*
X110072626Y-86933260D01*
X110211844Y-86840238D01*
X110330238Y-86721844D01*
X110423260Y-86582626D01*
X110424114Y-86580561D01*
X111071617Y-87228064D01*
X111128192Y-87154334D01*
X111128197Y-87154327D01*
X111242893Y-86955668D01*
X111242897Y-86955659D01*
X111330681Y-86743730D01*
X111390057Y-86522137D01*
X111419998Y-86294710D01*
X111420000Y-86294694D01*
X111420000Y-86065305D01*
X113000000Y-86065305D01*
X113000000Y-86294694D01*
X113000001Y-86294710D01*
X113029942Y-86522137D01*
X113089318Y-86743730D01*
X113177102Y-86955659D01*
X113177106Y-86955669D01*
X113291799Y-87154324D01*
X113291805Y-87154331D01*
X113348381Y-87228064D01*
X113995884Y-86580560D01*
X113996740Y-86582626D01*
X114089762Y-86721844D01*
X114208156Y-86840238D01*
X114347374Y-86933260D01*
X114349437Y-86934114D01*
X113701934Y-87581617D01*
X113701934Y-87581618D01*
X113775666Y-87638194D01*
X113974330Y-87752893D01*
X113974340Y-87752897D01*
X114186269Y-87840681D01*
X114407862Y-87900057D01*
X114635289Y-87929998D01*
X114635306Y-87930000D01*
X114864694Y-87930000D01*
X114864710Y-87929998D01*
X115092137Y-87900057D01*
X115313730Y-87840681D01*
X115525659Y-87752897D01*
X115525668Y-87752893D01*
X115724327Y-87638197D01*
X115724334Y-87638192D01*
X115798064Y-87581617D01*
X115150561Y-86934114D01*
X115152626Y-86933260D01*
X115291844Y-86840238D01*
X115410238Y-86721844D01*
X115503260Y-86582626D01*
X115504114Y-86580561D01*
X116151617Y-87228064D01*
X116208192Y-87154334D01*
X116208197Y-87154327D01*
X116322893Y-86955668D01*
X116322897Y-86955659D01*
X116410681Y-86743730D01*
X116470057Y-86522137D01*
X116478189Y-86460365D01*
X148691500Y-86460365D01*
X148691500Y-86619634D01*
X148722568Y-86775823D01*
X148722570Y-86775831D01*
X148783517Y-86922969D01*
X148871995Y-87055387D01*
X148872001Y-87055394D01*
X148984605Y-87167998D01*
X148984612Y-87168004D01*
X149117030Y-87256482D01*
X149117031Y-87256482D01*
X149117032Y-87256483D01*
X149264169Y-87317430D01*
X149420365Y-87348499D01*
X149420369Y-87348500D01*
X149420370Y-87348500D01*
X149579631Y-87348500D01*
X149579632Y-87348499D01*
X149735831Y-87317430D01*
X149882968Y-87256483D01*
X150015389Y-87168003D01*
X150128003Y-87055389D01*
X150216483Y-86922968D01*
X150225846Y-86900365D01*
X155621500Y-86900365D01*
X155621500Y-87059634D01*
X155652568Y-87215823D01*
X155652570Y-87215831D01*
X155713517Y-87362969D01*
X155801995Y-87495387D01*
X155802001Y-87495394D01*
X155914605Y-87607998D01*
X155914612Y-87608004D01*
X156047030Y-87696482D01*
X156047031Y-87696482D01*
X156047032Y-87696483D01*
X156194169Y-87757430D01*
X156336912Y-87785823D01*
X156350365Y-87788499D01*
X156350369Y-87788500D01*
X156350370Y-87788500D01*
X156509631Y-87788500D01*
X156509632Y-87788499D01*
X156665831Y-87757430D01*
X156812968Y-87696483D01*
X156945389Y-87608003D01*
X157058003Y-87495389D01*
X157074723Y-87470365D01*
X159261500Y-87470365D01*
X159261500Y-87629634D01*
X159292568Y-87785823D01*
X159292570Y-87785831D01*
X159353517Y-87932969D01*
X159441995Y-88065387D01*
X159442001Y-88065394D01*
X159554605Y-88177998D01*
X159554612Y-88178004D01*
X159687030Y-88266482D01*
X159687031Y-88266482D01*
X159687032Y-88266483D01*
X159834169Y-88327430D01*
X159948075Y-88350087D01*
X159990365Y-88358499D01*
X159990369Y-88358500D01*
X159990370Y-88358500D01*
X160149631Y-88358500D01*
X160149632Y-88358499D01*
X160305831Y-88327430D01*
X160452968Y-88266483D01*
X160585389Y-88178003D01*
X160693027Y-88070365D01*
X165251500Y-88070365D01*
X165251500Y-88229634D01*
X165282568Y-88385823D01*
X165282570Y-88385831D01*
X165343517Y-88532969D01*
X165431995Y-88665387D01*
X165432001Y-88665394D01*
X165544605Y-88777998D01*
X165544612Y-88778004D01*
X165677030Y-88866482D01*
X165677031Y-88866482D01*
X165677032Y-88866483D01*
X165824169Y-88927430D01*
X165980365Y-88958499D01*
X165980369Y-88958500D01*
X165980370Y-88958500D01*
X166139631Y-88958500D01*
X166139632Y-88958499D01*
X166295831Y-88927430D01*
X166442968Y-88866483D01*
X166575389Y-88778003D01*
X166688003Y-88665389D01*
X166776483Y-88532968D01*
X166837430Y-88385831D01*
X166868500Y-88229630D01*
X166868500Y-88070370D01*
X166837430Y-87914169D01*
X166776483Y-87767032D01*
X166771831Y-87760070D01*
X166688004Y-87634612D01*
X166687998Y-87634605D01*
X166575394Y-87522001D01*
X166575387Y-87521995D01*
X166442969Y-87433517D01*
X166295831Y-87372570D01*
X166295823Y-87372568D01*
X166139634Y-87341500D01*
X166139630Y-87341500D01*
X165980370Y-87341500D01*
X165980365Y-87341500D01*
X165824176Y-87372568D01*
X165824168Y-87372570D01*
X165677030Y-87433517D01*
X165544612Y-87521995D01*
X165544605Y-87522001D01*
X165432001Y-87634605D01*
X165431995Y-87634612D01*
X165343517Y-87767030D01*
X165282570Y-87914168D01*
X165282568Y-87914176D01*
X165251500Y-88070365D01*
X160693027Y-88070365D01*
X160698003Y-88065389D01*
X160786483Y-87932968D01*
X160847430Y-87785831D01*
X160878500Y-87629630D01*
X160878500Y-87470370D01*
X160847430Y-87314169D01*
X160786483Y-87167032D01*
X160711886Y-87055389D01*
X160698004Y-87034612D01*
X160697998Y-87034605D01*
X160585394Y-86922001D01*
X160585387Y-86921995D01*
X160452969Y-86833517D01*
X160305831Y-86772570D01*
X160305823Y-86772568D01*
X160149634Y-86741500D01*
X160149630Y-86741500D01*
X159990370Y-86741500D01*
X159990365Y-86741500D01*
X159834176Y-86772568D01*
X159834168Y-86772570D01*
X159687030Y-86833517D01*
X159554612Y-86921995D01*
X159554605Y-86922001D01*
X159442001Y-87034605D01*
X159441995Y-87034612D01*
X159353517Y-87167030D01*
X159292570Y-87314168D01*
X159292568Y-87314176D01*
X159261500Y-87470365D01*
X157074723Y-87470365D01*
X157146483Y-87362968D01*
X157207430Y-87215831D01*
X157238500Y-87059630D01*
X157238500Y-86900370D01*
X157207430Y-86744169D01*
X157146483Y-86597032D01*
X157136857Y-86582626D01*
X157058004Y-86464612D01*
X157057998Y-86464605D01*
X156945394Y-86352001D01*
X156945387Y-86351995D01*
X156812969Y-86263517D01*
X156665831Y-86202570D01*
X156665823Y-86202568D01*
X156509634Y-86171500D01*
X156509630Y-86171500D01*
X156350370Y-86171500D01*
X156350365Y-86171500D01*
X156194176Y-86202568D01*
X156194168Y-86202570D01*
X156047030Y-86263517D01*
X155914612Y-86351995D01*
X155914605Y-86352001D01*
X155802001Y-86464605D01*
X155801995Y-86464612D01*
X155713517Y-86597030D01*
X155652570Y-86744168D01*
X155652568Y-86744176D01*
X155621500Y-86900365D01*
X150225846Y-86900365D01*
X150277430Y-86775831D01*
X150308500Y-86619630D01*
X150308500Y-86460370D01*
X150277430Y-86304169D01*
X150216483Y-86157032D01*
X150208703Y-86145389D01*
X150128004Y-86024612D01*
X150127998Y-86024605D01*
X150036938Y-85933545D01*
X166562705Y-85933545D01*
X166691651Y-85986957D01*
X166691655Y-85986958D01*
X166846201Y-86017699D01*
X166846205Y-86017700D01*
X167003793Y-86017700D01*
X167003796Y-86017699D01*
X167158342Y-85986958D01*
X167158355Y-85986955D01*
X167217545Y-85962437D01*
X167287014Y-85954967D01*
X167312453Y-85962437D01*
X167371642Y-85986955D01*
X167371655Y-85986958D01*
X167526201Y-86017699D01*
X167526205Y-86017700D01*
X167683793Y-86017700D01*
X167683796Y-86017699D01*
X167838342Y-85986958D01*
X167838351Y-85986956D01*
X167887544Y-85966579D01*
X167957013Y-85959109D01*
X167982454Y-85966579D01*
X168031646Y-85986956D01*
X168031655Y-85986958D01*
X168186201Y-86017699D01*
X168186205Y-86017700D01*
X168343793Y-86017700D01*
X168343796Y-86017699D01*
X168498342Y-85986958D01*
X168498346Y-85986957D01*
X168627292Y-85933545D01*
X168088222Y-85394477D01*
X168088220Y-85394474D01*
X167935000Y-85241253D01*
X167934998Y-85241253D01*
X167869456Y-85306795D01*
X167808133Y-85340280D01*
X167738441Y-85335296D01*
X167714756Y-85320074D01*
X167732163Y-85302668D01*
X167754999Y-85247537D01*
X167754999Y-85187863D01*
X168114999Y-85187863D01*
X168114999Y-85247537D01*
X168137835Y-85302668D01*
X168180031Y-85344864D01*
X168235162Y-85367700D01*
X168294836Y-85367700D01*
X168349967Y-85344864D01*
X168392163Y-85302668D01*
X168414999Y-85247537D01*
X168414999Y-85187863D01*
X168392163Y-85132732D01*
X168349967Y-85090536D01*
X168294836Y-85067700D01*
X168235162Y-85067700D01*
X168180031Y-85090536D01*
X168137835Y-85132732D01*
X168114999Y-85187863D01*
X167754999Y-85187863D01*
X167732163Y-85132732D01*
X167689967Y-85090536D01*
X167634836Y-85067700D01*
X167575162Y-85067700D01*
X167520031Y-85090536D01*
X167477835Y-85132732D01*
X167454999Y-85187863D01*
X167454999Y-85247537D01*
X167477835Y-85302668D01*
X167493949Y-85318782D01*
X167454580Y-85340280D01*
X167384888Y-85335296D01*
X167340540Y-85306795D01*
X167264999Y-85231253D01*
X167264998Y-85231253D01*
X167101775Y-85394477D01*
X166562705Y-85933545D01*
X150036938Y-85933545D01*
X150015394Y-85912001D01*
X150015387Y-85911995D01*
X149882969Y-85823517D01*
X149735831Y-85762570D01*
X149735823Y-85762568D01*
X149579634Y-85731500D01*
X149579630Y-85731500D01*
X149420370Y-85731500D01*
X149420365Y-85731500D01*
X149264176Y-85762568D01*
X149264168Y-85762570D01*
X149117030Y-85823517D01*
X148984612Y-85911995D01*
X148984605Y-85912001D01*
X148872001Y-86024605D01*
X148871995Y-86024612D01*
X148783517Y-86157030D01*
X148722570Y-86304168D01*
X148722568Y-86304176D01*
X148691500Y-86460365D01*
X116478189Y-86460365D01*
X116499998Y-86294710D01*
X116500000Y-86294694D01*
X116500000Y-86065305D01*
X116499998Y-86065289D01*
X116470057Y-85837862D01*
X116410680Y-85616266D01*
X116379807Y-85541730D01*
X116362673Y-85500365D01*
X127771500Y-85500365D01*
X127771500Y-85659634D01*
X127802568Y-85815823D01*
X127802570Y-85815831D01*
X127863517Y-85962969D01*
X127951995Y-86095387D01*
X127952001Y-86095394D01*
X128064605Y-86207998D01*
X128064612Y-86208004D01*
X128197030Y-86296482D01*
X128197031Y-86296482D01*
X128197032Y-86296483D01*
X128344169Y-86357430D01*
X128500365Y-86388499D01*
X128500369Y-86388500D01*
X128500370Y-86388500D01*
X128659631Y-86388500D01*
X128659632Y-86388499D01*
X128815831Y-86357430D01*
X128962968Y-86296483D01*
X129095389Y-86208003D01*
X129208003Y-86095389D01*
X129296483Y-85962968D01*
X129357430Y-85815831D01*
X129388500Y-85659630D01*
X129388500Y-85550365D01*
X130991500Y-85550365D01*
X130991500Y-85709634D01*
X131022568Y-85865823D01*
X131022570Y-85865831D01*
X131083517Y-86012969D01*
X131171995Y-86145387D01*
X131172001Y-86145394D01*
X131284605Y-86257998D01*
X131284612Y-86258004D01*
X131417030Y-86346482D01*
X131417031Y-86346482D01*
X131417032Y-86346483D01*
X131564169Y-86407430D01*
X131667261Y-86427936D01*
X131720365Y-86438499D01*
X131720369Y-86438500D01*
X131720370Y-86438500D01*
X131879631Y-86438500D01*
X131879632Y-86438499D01*
X132035831Y-86407430D01*
X132182968Y-86346483D01*
X132315389Y-86258003D01*
X132428003Y-86145389D01*
X132516483Y-86012968D01*
X132577430Y-85865831D01*
X132608500Y-85709630D01*
X132608500Y-85550370D01*
X132608499Y-85550365D01*
X137061500Y-85550365D01*
X137061500Y-85709634D01*
X137092568Y-85865823D01*
X137092570Y-85865831D01*
X137153517Y-86012969D01*
X137241995Y-86145387D01*
X137242001Y-86145394D01*
X137354605Y-86257998D01*
X137354612Y-86258004D01*
X137487030Y-86346482D01*
X137487031Y-86346482D01*
X137487032Y-86346483D01*
X137634169Y-86407430D01*
X137737261Y-86427936D01*
X137790365Y-86438499D01*
X137790369Y-86438500D01*
X137790370Y-86438500D01*
X137949631Y-86438500D01*
X137949632Y-86438499D01*
X138105831Y-86407430D01*
X138252968Y-86346483D01*
X138385389Y-86258003D01*
X138498003Y-86145389D01*
X138586483Y-86012968D01*
X138647430Y-85865831D01*
X138678500Y-85709630D01*
X138678500Y-85550370D01*
X138678499Y-85550365D01*
X139511500Y-85550365D01*
X139511500Y-85709634D01*
X139542568Y-85865823D01*
X139542570Y-85865831D01*
X139603517Y-86012969D01*
X139691995Y-86145387D01*
X139692001Y-86145394D01*
X139804605Y-86257998D01*
X139804612Y-86258004D01*
X139937030Y-86346482D01*
X139937031Y-86346482D01*
X139937032Y-86346483D01*
X140084169Y-86407430D01*
X140187261Y-86427936D01*
X140240365Y-86438499D01*
X140240369Y-86438500D01*
X140240370Y-86438500D01*
X140399631Y-86438500D01*
X140399632Y-86438499D01*
X140555831Y-86407430D01*
X140702968Y-86346483D01*
X140835389Y-86258003D01*
X140948003Y-86145389D01*
X141036483Y-86012968D01*
X141097430Y-85865831D01*
X141128500Y-85709630D01*
X141128500Y-85550370D01*
X141097430Y-85394169D01*
X141036483Y-85247032D01*
X140964234Y-85138902D01*
X166124999Y-85138902D01*
X166124999Y-85296497D01*
X166155740Y-85451043D01*
X166155742Y-85451051D01*
X166209152Y-85579993D01*
X166601283Y-85187863D01*
X166774999Y-85187863D01*
X166774999Y-85247537D01*
X166797835Y-85302668D01*
X166840031Y-85344864D01*
X166895162Y-85367700D01*
X166954836Y-85367700D01*
X167009967Y-85344864D01*
X167052163Y-85302668D01*
X167074999Y-85247537D01*
X167074999Y-85187863D01*
X167052163Y-85132732D01*
X167009967Y-85090536D01*
X166954836Y-85067700D01*
X166895162Y-85067700D01*
X166840031Y-85090536D01*
X166797835Y-85132732D01*
X166774999Y-85187863D01*
X166601283Y-85187863D01*
X166748223Y-85040923D01*
X166815612Y-84973532D01*
X166815612Y-84962988D01*
X166794808Y-84924889D01*
X166799792Y-84855197D01*
X166828293Y-84810850D01*
X166836445Y-84802698D01*
X166836445Y-84784533D01*
X166824809Y-84763224D01*
X166829793Y-84693532D01*
X166840612Y-84676697D01*
X166840612Y-84662467D01*
X166812418Y-84610834D01*
X166817402Y-84541142D01*
X166832623Y-84517456D01*
X166850031Y-84534864D01*
X166905162Y-84557700D01*
X166964836Y-84557700D01*
X167019967Y-84534864D01*
X167062163Y-84492668D01*
X167084999Y-84437537D01*
X167084999Y-84387863D01*
X167424999Y-84387863D01*
X167424999Y-84447537D01*
X167447835Y-84502668D01*
X167490031Y-84544864D01*
X167545162Y-84567700D01*
X167604836Y-84567700D01*
X167659967Y-84544864D01*
X167702163Y-84502668D01*
X167724999Y-84447537D01*
X167724999Y-84387863D01*
X167716715Y-84367863D01*
X168104999Y-84367863D01*
X168104999Y-84427537D01*
X168127835Y-84482668D01*
X168170031Y-84524864D01*
X168225162Y-84547700D01*
X168284836Y-84547700D01*
X168339967Y-84524864D01*
X168356081Y-84508749D01*
X168377579Y-84548118D01*
X168372595Y-84617810D01*
X168354385Y-84646144D01*
X168354385Y-84654095D01*
X168385189Y-84710509D01*
X168380205Y-84780201D01*
X168351704Y-84824548D01*
X168343552Y-84832700D01*
X168343552Y-84850864D01*
X168355188Y-84872174D01*
X168353043Y-84902169D01*
X168354385Y-84902169D01*
X168354385Y-84953532D01*
X168441776Y-85040923D01*
X168980844Y-85579993D01*
X169034256Y-85451047D01*
X169034257Y-85451043D01*
X169064998Y-85296497D01*
X169064999Y-85296494D01*
X169064999Y-85138906D01*
X169064998Y-85138902D01*
X169034257Y-84984356D01*
X169034255Y-84984348D01*
X168975740Y-84843081D01*
X168968271Y-84773612D01*
X168975740Y-84748174D01*
X169024256Y-84631047D01*
X169024257Y-84631043D01*
X169054998Y-84476497D01*
X169054999Y-84476494D01*
X169054999Y-84318906D01*
X169054998Y-84318902D01*
X169024257Y-84164356D01*
X169024255Y-84164348D01*
X168998696Y-84102643D01*
X168991227Y-84033174D01*
X169001931Y-84002399D01*
X169001619Y-84002270D01*
X169003852Y-83996878D01*
X169003906Y-83996724D01*
X169003951Y-83996639D01*
X169064255Y-83851051D01*
X169064257Y-83851043D01*
X169094998Y-83696497D01*
X169094999Y-83696494D01*
X169094999Y-83538906D01*
X169094998Y-83538902D01*
X169064257Y-83384356D01*
X169064256Y-83384352D01*
X169010844Y-83255406D01*
X168471776Y-83794476D01*
X168471776Y-83794477D01*
X168369385Y-83896867D01*
X168369385Y-83925503D01*
X168349700Y-83992542D01*
X168348552Y-83993966D01*
X168348552Y-83997698D01*
X168381704Y-84030851D01*
X168415188Y-84092175D01*
X168410203Y-84161866D01*
X168399385Y-84178699D01*
X168399385Y-84201952D01*
X168379700Y-84268991D01*
X168363066Y-84289633D01*
X168361065Y-84291634D01*
X168339967Y-84270536D01*
X168284836Y-84247700D01*
X168225162Y-84247700D01*
X168170031Y-84270536D01*
X168127835Y-84312732D01*
X168104999Y-84367863D01*
X167716715Y-84367863D01*
X167702163Y-84332732D01*
X167659967Y-84290536D01*
X167604836Y-84267700D01*
X167545162Y-84267700D01*
X167490031Y-84290536D01*
X167447835Y-84332732D01*
X167424999Y-84387863D01*
X167084999Y-84387863D01*
X167084999Y-84377863D01*
X167062163Y-84322732D01*
X167019967Y-84280536D01*
X166964836Y-84257700D01*
X166905162Y-84257700D01*
X166850031Y-84280536D01*
X166833915Y-84296651D01*
X166812417Y-84257280D01*
X166817401Y-84187588D01*
X166835612Y-84159251D01*
X166835612Y-84134895D01*
X166855297Y-84067856D01*
X166861445Y-84060226D01*
X166861445Y-84057700D01*
X166828292Y-84024547D01*
X166794808Y-83963223D01*
X166799793Y-83893532D01*
X166825612Y-83853356D01*
X166825612Y-83851867D01*
X166758222Y-83784478D01*
X166758222Y-83784477D01*
X166551609Y-83577863D01*
X166784999Y-83577863D01*
X166784999Y-83637537D01*
X166807835Y-83692668D01*
X166850031Y-83734864D01*
X166905162Y-83757700D01*
X166964836Y-83757700D01*
X167019967Y-83734864D01*
X167062163Y-83692668D01*
X167084999Y-83637537D01*
X167084999Y-83577863D01*
X167062163Y-83522732D01*
X167019967Y-83480536D01*
X166964836Y-83457700D01*
X166905162Y-83457700D01*
X166850031Y-83480536D01*
X166807835Y-83522732D01*
X166784999Y-83577863D01*
X166551609Y-83577863D01*
X166219152Y-83245405D01*
X166165742Y-83374348D01*
X166165740Y-83374356D01*
X166134999Y-83528902D01*
X166134999Y-83686497D01*
X166165740Y-83841043D01*
X166165742Y-83841051D01*
X166215115Y-83960247D01*
X166222584Y-84029716D01*
X166215115Y-84055153D01*
X166165742Y-84174348D01*
X166165740Y-84174356D01*
X166134999Y-84328902D01*
X166134999Y-84486497D01*
X166165740Y-84641043D01*
X166165743Y-84641055D01*
X166212185Y-84753177D01*
X166219654Y-84822646D01*
X166212185Y-84848081D01*
X166155743Y-84984344D01*
X166155740Y-84984356D01*
X166124999Y-85138902D01*
X140964234Y-85138902D01*
X140948003Y-85114611D01*
X140948001Y-85114609D01*
X140947999Y-85114606D01*
X140835394Y-85002001D01*
X140835387Y-85001995D01*
X140702969Y-84913517D01*
X140555831Y-84852570D01*
X140555823Y-84852568D01*
X140399634Y-84821500D01*
X140399630Y-84821500D01*
X140240370Y-84821500D01*
X140240365Y-84821500D01*
X140084176Y-84852568D01*
X140084168Y-84852570D01*
X139937030Y-84913517D01*
X139804612Y-85001995D01*
X139804605Y-85002001D01*
X139692001Y-85114605D01*
X139691995Y-85114612D01*
X139603517Y-85247030D01*
X139542570Y-85394168D01*
X139542568Y-85394176D01*
X139511500Y-85550365D01*
X138678499Y-85550365D01*
X138647430Y-85394169D01*
X138586483Y-85247032D01*
X138566884Y-85217700D01*
X138498004Y-85114612D01*
X138497998Y-85114605D01*
X138385394Y-85002001D01*
X138385387Y-85001995D01*
X138252969Y-84913517D01*
X138105831Y-84852570D01*
X138105823Y-84852568D01*
X137949634Y-84821500D01*
X137949630Y-84821500D01*
X137790370Y-84821500D01*
X137790365Y-84821500D01*
X137634176Y-84852568D01*
X137634168Y-84852570D01*
X137487030Y-84913517D01*
X137354612Y-85001995D01*
X137354605Y-85002001D01*
X137242001Y-85114605D01*
X137241995Y-85114612D01*
X137153517Y-85247030D01*
X137092570Y-85394168D01*
X137092568Y-85394176D01*
X137061500Y-85550365D01*
X132608499Y-85550365D01*
X132577430Y-85394169D01*
X132516483Y-85247032D01*
X132496884Y-85217700D01*
X132428004Y-85114612D01*
X132427998Y-85114605D01*
X132315394Y-85002001D01*
X132315387Y-85001995D01*
X132182969Y-84913517D01*
X132035831Y-84852570D01*
X132035823Y-84852568D01*
X131879634Y-84821500D01*
X131879630Y-84821500D01*
X131720370Y-84821500D01*
X131720365Y-84821500D01*
X131564176Y-84852568D01*
X131564168Y-84852570D01*
X131417030Y-84913517D01*
X131284612Y-85001995D01*
X131284605Y-85002001D01*
X131172001Y-85114605D01*
X131171995Y-85114612D01*
X131083517Y-85247030D01*
X131022570Y-85394168D01*
X131022568Y-85394176D01*
X130991500Y-85550365D01*
X129388500Y-85550365D01*
X129388500Y-85500370D01*
X129357430Y-85344169D01*
X129296483Y-85197032D01*
X129252986Y-85131934D01*
X129208004Y-85064612D01*
X129207998Y-85064605D01*
X129095394Y-84952001D01*
X129095387Y-84951995D01*
X128962969Y-84863517D01*
X128815831Y-84802570D01*
X128815823Y-84802568D01*
X128659634Y-84771500D01*
X128659630Y-84771500D01*
X128500370Y-84771500D01*
X128500365Y-84771500D01*
X128344176Y-84802568D01*
X128344168Y-84802570D01*
X128197030Y-84863517D01*
X128064612Y-84951995D01*
X128064605Y-84952001D01*
X127952001Y-85064605D01*
X127951995Y-85064612D01*
X127863517Y-85197030D01*
X127802570Y-85344168D01*
X127802568Y-85344176D01*
X127771500Y-85500365D01*
X116362673Y-85500365D01*
X116322897Y-85404340D01*
X116322893Y-85404330D01*
X116208194Y-85205666D01*
X116151618Y-85131934D01*
X116151617Y-85131934D01*
X115504114Y-85779437D01*
X115503260Y-85777374D01*
X115410238Y-85638156D01*
X115291844Y-85519762D01*
X115152626Y-85426740D01*
X115150560Y-85425884D01*
X115798064Y-84778381D01*
X115798064Y-84778380D01*
X115724331Y-84721805D01*
X115724324Y-84721799D01*
X115525669Y-84607106D01*
X115525659Y-84607102D01*
X115313730Y-84519318D01*
X115092137Y-84459942D01*
X114864710Y-84430001D01*
X114864694Y-84430000D01*
X114635306Y-84430000D01*
X114635289Y-84430001D01*
X114407862Y-84459942D01*
X114186269Y-84519318D01*
X113974340Y-84607102D01*
X113974330Y-84607106D01*
X113775673Y-84721801D01*
X113775659Y-84721810D01*
X113701934Y-84778380D01*
X114349438Y-85425884D01*
X114347374Y-85426740D01*
X114208156Y-85519762D01*
X114089762Y-85638156D01*
X113996740Y-85777374D01*
X113995884Y-85779438D01*
X113348380Y-85131934D01*
X113291810Y-85205659D01*
X113291801Y-85205673D01*
X113177106Y-85404330D01*
X113177102Y-85404340D01*
X113089318Y-85616269D01*
X113029942Y-85837862D01*
X113000001Y-86065289D01*
X113000000Y-86065305D01*
X111420000Y-86065305D01*
X111419998Y-86065289D01*
X111390057Y-85837862D01*
X111330681Y-85616269D01*
X111242897Y-85404340D01*
X111242893Y-85404330D01*
X111128194Y-85205666D01*
X111071618Y-85131934D01*
X111071617Y-85131934D01*
X110424114Y-85779437D01*
X110423260Y-85777374D01*
X110330238Y-85638156D01*
X110211844Y-85519762D01*
X110072626Y-85426740D01*
X110070560Y-85425884D01*
X110718064Y-84778381D01*
X110718064Y-84778380D01*
X110644331Y-84721805D01*
X110644324Y-84721799D01*
X110445669Y-84607106D01*
X110445659Y-84607102D01*
X110233730Y-84519318D01*
X110012137Y-84459942D01*
X109784710Y-84430001D01*
X109784694Y-84430000D01*
X109555306Y-84430000D01*
X109555289Y-84430001D01*
X109327862Y-84459942D01*
X109106269Y-84519318D01*
X108894340Y-84607102D01*
X108894330Y-84607106D01*
X108695673Y-84721801D01*
X108695659Y-84721810D01*
X108621934Y-84778380D01*
X109269438Y-85425884D01*
X109267374Y-85426740D01*
X109128156Y-85519762D01*
X109009762Y-85638156D01*
X108916740Y-85777374D01*
X108915884Y-85779438D01*
X108268380Y-85131934D01*
X108211810Y-85205659D01*
X108211801Y-85205673D01*
X108097106Y-85404330D01*
X108097102Y-85404340D01*
X108009318Y-85616269D01*
X107949942Y-85837862D01*
X107920001Y-86065289D01*
X107920000Y-86065305D01*
X100500500Y-86065305D01*
X100500500Y-83140365D01*
X163931500Y-83140365D01*
X163931500Y-83299634D01*
X163962568Y-83455823D01*
X163962570Y-83455831D01*
X164023517Y-83602969D01*
X164111995Y-83735387D01*
X164112001Y-83735394D01*
X164224605Y-83847998D01*
X164224612Y-83848004D01*
X164357030Y-83936482D01*
X164357031Y-83936482D01*
X164357032Y-83936483D01*
X164504169Y-83997430D01*
X164640497Y-84024547D01*
X164660365Y-84028499D01*
X164660369Y-84028500D01*
X164660370Y-84028500D01*
X164819631Y-84028500D01*
X164819632Y-84028499D01*
X164975831Y-83997430D01*
X165122968Y-83936483D01*
X165255389Y-83848003D01*
X165368003Y-83735389D01*
X165456483Y-83602968D01*
X165517430Y-83455831D01*
X165548500Y-83299630D01*
X165548500Y-83140370D01*
X165517430Y-82984169D01*
X165479191Y-82891853D01*
X166572704Y-82891853D01*
X167111776Y-83430923D01*
X167111777Y-83430923D01*
X167299997Y-83619145D01*
X167370541Y-83548603D01*
X167431864Y-83515119D01*
X167501556Y-83520103D01*
X167525241Y-83535325D01*
X167507835Y-83552732D01*
X167484999Y-83607863D01*
X167484999Y-83667537D01*
X167507835Y-83722668D01*
X167550031Y-83764864D01*
X167605162Y-83787700D01*
X167664836Y-83787700D01*
X167719967Y-83764864D01*
X167762163Y-83722668D01*
X167784999Y-83667537D01*
X167784999Y-83607863D01*
X167762163Y-83552732D01*
X167746047Y-83536616D01*
X167785418Y-83515119D01*
X167855110Y-83520103D01*
X167899457Y-83548604D01*
X167954999Y-83604146D01*
X167971282Y-83587863D01*
X168144999Y-83587863D01*
X168144999Y-83647537D01*
X168167835Y-83702668D01*
X168210031Y-83744864D01*
X168265162Y-83767700D01*
X168324836Y-83767700D01*
X168379967Y-83744864D01*
X168422163Y-83702668D01*
X168444999Y-83647537D01*
X168444999Y-83587863D01*
X168422163Y-83532732D01*
X168379967Y-83490536D01*
X168324836Y-83467700D01*
X168265162Y-83467700D01*
X168210031Y-83490536D01*
X168167835Y-83532732D01*
X168144999Y-83587863D01*
X167971282Y-83587863D01*
X168657292Y-82901853D01*
X168528350Y-82848443D01*
X168528342Y-82848441D01*
X168373796Y-82817700D01*
X168216201Y-82817700D01*
X168061656Y-82848441D01*
X168061648Y-82848443D01*
X167988307Y-82878821D01*
X167918837Y-82886288D01*
X167893405Y-82878821D01*
X167868349Y-82868443D01*
X167868342Y-82868441D01*
X167713796Y-82837700D01*
X167556201Y-82837700D01*
X167401656Y-82868441D01*
X167401644Y-82868444D01*
X167368661Y-82882106D01*
X167299192Y-82889573D01*
X167273758Y-82882105D01*
X167168350Y-82838443D01*
X167168342Y-82838441D01*
X167013796Y-82807700D01*
X166856201Y-82807700D01*
X166701655Y-82838441D01*
X166701647Y-82838443D01*
X166572704Y-82891853D01*
X165479191Y-82891853D01*
X165456483Y-82837032D01*
X165436884Y-82807700D01*
X165368004Y-82704612D01*
X165367998Y-82704605D01*
X165255394Y-82592001D01*
X165255387Y-82591995D01*
X165122969Y-82503517D01*
X164975831Y-82442570D01*
X164975823Y-82442568D01*
X164819634Y-82411500D01*
X164819630Y-82411500D01*
X164660370Y-82411500D01*
X164660365Y-82411500D01*
X164504176Y-82442568D01*
X164504168Y-82442570D01*
X164357030Y-82503517D01*
X164224612Y-82591995D01*
X164224605Y-82592001D01*
X164112001Y-82704605D01*
X164111995Y-82704612D01*
X164023517Y-82837030D01*
X163962570Y-82984168D01*
X163962568Y-82984176D01*
X163931500Y-83140365D01*
X100500500Y-83140365D01*
X100500500Y-81990365D01*
X123501500Y-81990365D01*
X123501500Y-82149634D01*
X123532568Y-82305823D01*
X123532570Y-82305831D01*
X123593517Y-82452969D01*
X123681995Y-82585387D01*
X123682001Y-82585394D01*
X123794605Y-82697998D01*
X123794612Y-82698004D01*
X123927030Y-82786482D01*
X123927031Y-82786482D01*
X123927032Y-82786483D01*
X124074169Y-82847430D01*
X124179810Y-82868443D01*
X124230365Y-82878499D01*
X124230369Y-82878500D01*
X124230370Y-82878500D01*
X124389631Y-82878500D01*
X124389632Y-82878499D01*
X124545831Y-82847430D01*
X124692968Y-82786483D01*
X124825389Y-82698003D01*
X124938003Y-82585389D01*
X125026483Y-82452968D01*
X125087430Y-82305831D01*
X125118500Y-82149630D01*
X125118500Y-81990370D01*
X125087430Y-81834169D01*
X125026483Y-81687032D01*
X124991852Y-81635203D01*
X124938004Y-81554612D01*
X124937998Y-81554605D01*
X124825394Y-81442001D01*
X124825387Y-81441995D01*
X124692969Y-81353517D01*
X124545831Y-81292570D01*
X124545823Y-81292568D01*
X124389634Y-81261500D01*
X124389630Y-81261500D01*
X124230370Y-81261500D01*
X124230365Y-81261500D01*
X124074176Y-81292568D01*
X124074168Y-81292570D01*
X123927030Y-81353517D01*
X123794612Y-81441995D01*
X123794605Y-81442001D01*
X123682001Y-81554605D01*
X123681995Y-81554612D01*
X123593517Y-81687030D01*
X123532570Y-81834168D01*
X123532568Y-81834176D01*
X123501500Y-81990365D01*
X100500500Y-81990365D01*
X100500500Y-80390365D01*
X126191500Y-80390365D01*
X126191500Y-80549634D01*
X126222568Y-80705823D01*
X126222570Y-80705831D01*
X126283517Y-80852969D01*
X126371995Y-80985387D01*
X126372001Y-80985394D01*
X126484605Y-81097998D01*
X126484612Y-81098004D01*
X126617030Y-81186482D01*
X126617031Y-81186482D01*
X126617032Y-81186483D01*
X126764169Y-81247430D01*
X126920365Y-81278499D01*
X126920369Y-81278500D01*
X126920370Y-81278500D01*
X127079631Y-81278500D01*
X127079632Y-81278499D01*
X127235831Y-81247430D01*
X127382968Y-81186483D01*
X127515389Y-81098003D01*
X127628003Y-80985389D01*
X127716483Y-80852968D01*
X127777430Y-80705831D01*
X127808500Y-80549630D01*
X127808500Y-80390370D01*
X127777430Y-80234169D01*
X127716483Y-80087032D01*
X127628003Y-79954611D01*
X127628001Y-79954609D01*
X127627999Y-79954606D01*
X127603758Y-79930365D01*
X128611500Y-79930365D01*
X128611500Y-80089634D01*
X128642568Y-80245823D01*
X128642570Y-80245831D01*
X128703517Y-80392969D01*
X128791995Y-80525387D01*
X128792001Y-80525394D01*
X128904605Y-80637998D01*
X128904612Y-80638004D01*
X129037030Y-80726482D01*
X129037031Y-80726482D01*
X129037032Y-80726483D01*
X129184169Y-80787430D01*
X129340365Y-80818499D01*
X129340369Y-80818500D01*
X129340370Y-80818500D01*
X129499631Y-80818500D01*
X129499632Y-80818499D01*
X129655831Y-80787430D01*
X129793596Y-80730365D01*
X136331500Y-80730365D01*
X136331500Y-80889634D01*
X136362568Y-81045823D01*
X136362570Y-81045831D01*
X136423517Y-81192969D01*
X136511995Y-81325387D01*
X136512001Y-81325394D01*
X136624605Y-81437998D01*
X136624612Y-81438004D01*
X136757030Y-81526482D01*
X136757031Y-81526482D01*
X136757032Y-81526483D01*
X136904169Y-81587430D01*
X137060365Y-81618499D01*
X137060369Y-81618500D01*
X137060370Y-81618500D01*
X137219631Y-81618500D01*
X137219632Y-81618499D01*
X137375831Y-81587430D01*
X137522968Y-81526483D01*
X137655389Y-81438003D01*
X137768003Y-81325389D01*
X137856483Y-81192968D01*
X137917430Y-81045831D01*
X137918555Y-81040174D01*
X138681691Y-81040174D01*
X138681691Y-81199443D01*
X138712759Y-81355632D01*
X138712761Y-81355640D01*
X138773708Y-81502778D01*
X138862186Y-81635196D01*
X138862192Y-81635203D01*
X138974796Y-81747807D01*
X138974803Y-81747813D01*
X139107221Y-81836291D01*
X139107222Y-81836291D01*
X139107223Y-81836292D01*
X139254360Y-81897239D01*
X139410556Y-81928308D01*
X139410560Y-81928309D01*
X139410561Y-81928309D01*
X139569822Y-81928309D01*
X139569823Y-81928308D01*
X139726022Y-81897239D01*
X139873159Y-81836292D01*
X140005580Y-81747812D01*
X140118194Y-81635198D01*
X140161514Y-81570365D01*
X141051500Y-81570365D01*
X141051500Y-81729634D01*
X141082568Y-81885823D01*
X141082570Y-81885831D01*
X141143517Y-82032969D01*
X141231995Y-82165387D01*
X141232001Y-82165394D01*
X141344605Y-82277998D01*
X141344612Y-82278004D01*
X141477030Y-82366482D01*
X141477031Y-82366482D01*
X141477032Y-82366483D01*
X141624169Y-82427430D01*
X141752564Y-82452969D01*
X141780365Y-82458499D01*
X141780369Y-82458500D01*
X141780370Y-82458500D01*
X141939631Y-82458500D01*
X141939632Y-82458499D01*
X142095831Y-82427430D01*
X142242968Y-82366483D01*
X142375389Y-82278003D01*
X142488003Y-82165389D01*
X142576483Y-82032968D01*
X142637430Y-81885831D01*
X142638517Y-81880365D01*
X142961500Y-81880365D01*
X142961500Y-82039634D01*
X142992568Y-82195823D01*
X142992570Y-82195831D01*
X143053517Y-82342969D01*
X143141995Y-82475387D01*
X143142001Y-82475394D01*
X143254605Y-82587998D01*
X143254612Y-82588004D01*
X143387030Y-82676482D01*
X143387031Y-82676482D01*
X143387032Y-82676483D01*
X143534169Y-82737430D01*
X143690365Y-82768499D01*
X143690369Y-82768500D01*
X143690370Y-82768500D01*
X143849631Y-82768500D01*
X143849632Y-82768499D01*
X144005831Y-82737430D01*
X144152968Y-82676483D01*
X144285389Y-82588003D01*
X144398003Y-82475389D01*
X144486483Y-82342968D01*
X144547430Y-82195831D01*
X144578500Y-82039630D01*
X144578500Y-81880370D01*
X144547430Y-81724169D01*
X144486483Y-81577032D01*
X144482044Y-81570389D01*
X144398004Y-81444612D01*
X144397998Y-81444605D01*
X144285394Y-81332001D01*
X144285387Y-81331995D01*
X144152969Y-81243517D01*
X144005831Y-81182570D01*
X144005823Y-81182568D01*
X143849634Y-81151500D01*
X143849630Y-81151500D01*
X143690370Y-81151500D01*
X143690365Y-81151500D01*
X143534176Y-81182568D01*
X143534168Y-81182570D01*
X143387030Y-81243517D01*
X143254612Y-81331995D01*
X143254605Y-81332001D01*
X143142001Y-81444605D01*
X143141995Y-81444612D01*
X143053517Y-81577030D01*
X142992570Y-81724168D01*
X142992568Y-81724176D01*
X142961500Y-81880365D01*
X142638517Y-81880365D01*
X142668500Y-81729630D01*
X142668500Y-81570370D01*
X142637430Y-81414169D01*
X142576483Y-81267032D01*
X142563385Y-81247430D01*
X142488004Y-81134612D01*
X142487998Y-81134605D01*
X142375394Y-81022001D01*
X142375387Y-81021995D01*
X142242969Y-80933517D01*
X142095831Y-80872570D01*
X142095823Y-80872568D01*
X141939634Y-80841500D01*
X141939630Y-80841500D01*
X141780370Y-80841500D01*
X141780365Y-80841500D01*
X141624176Y-80872568D01*
X141624168Y-80872570D01*
X141477030Y-80933517D01*
X141344612Y-81021995D01*
X141344605Y-81022001D01*
X141232001Y-81134605D01*
X141231995Y-81134612D01*
X141143517Y-81267030D01*
X141082570Y-81414168D01*
X141082568Y-81414176D01*
X141051500Y-81570365D01*
X140161514Y-81570365D01*
X140206674Y-81502777D01*
X140267621Y-81355640D01*
X140298691Y-81199439D01*
X140298691Y-81040179D01*
X140267621Y-80883978D01*
X140206674Y-80736841D01*
X140202350Y-80730370D01*
X140118195Y-80604421D01*
X140118189Y-80604414D01*
X140005585Y-80491810D01*
X140005578Y-80491804D01*
X139873160Y-80403326D01*
X139726022Y-80342379D01*
X139726014Y-80342377D01*
X139569825Y-80311309D01*
X139569821Y-80311309D01*
X139410561Y-80311309D01*
X139410556Y-80311309D01*
X139254367Y-80342377D01*
X139254359Y-80342379D01*
X139107221Y-80403326D01*
X138974803Y-80491804D01*
X138974796Y-80491810D01*
X138862192Y-80604414D01*
X138862186Y-80604421D01*
X138773708Y-80736839D01*
X138712761Y-80883977D01*
X138712759Y-80883985D01*
X138681691Y-81040174D01*
X137918555Y-81040174D01*
X137948500Y-80889630D01*
X137948500Y-80730370D01*
X137917430Y-80574169D01*
X137856483Y-80427032D01*
X137856462Y-80427001D01*
X137768004Y-80294612D01*
X137767998Y-80294605D01*
X137655394Y-80182001D01*
X137655387Y-80181995D01*
X137623015Y-80160365D01*
X145111500Y-80160365D01*
X145111500Y-80319634D01*
X145142568Y-80475823D01*
X145142570Y-80475831D01*
X145203517Y-80622969D01*
X145291995Y-80755387D01*
X145292001Y-80755394D01*
X145404605Y-80867998D01*
X145404612Y-80868004D01*
X145537030Y-80956482D01*
X145537031Y-80956482D01*
X145537032Y-80956483D01*
X145684169Y-81017430D01*
X145826912Y-81045823D01*
X145840365Y-81048499D01*
X145840369Y-81048500D01*
X145840370Y-81048500D01*
X145999631Y-81048500D01*
X145999632Y-81048499D01*
X146155831Y-81017430D01*
X146257383Y-80975365D01*
X163971500Y-80975365D01*
X163971500Y-81134634D01*
X164002568Y-81290823D01*
X164002570Y-81290831D01*
X164063517Y-81437969D01*
X164151995Y-81570387D01*
X164152001Y-81570394D01*
X164264605Y-81682998D01*
X164264612Y-81683004D01*
X164397030Y-81771482D01*
X164397031Y-81771482D01*
X164397032Y-81771483D01*
X164544169Y-81832430D01*
X164700365Y-81863499D01*
X164700369Y-81863500D01*
X164700370Y-81863500D01*
X164859631Y-81863500D01*
X164859632Y-81863499D01*
X165015831Y-81832430D01*
X165162968Y-81771483D01*
X165295389Y-81683003D01*
X165408003Y-81570389D01*
X165496483Y-81437968D01*
X165557430Y-81290831D01*
X165588500Y-81134630D01*
X165588500Y-80975370D01*
X165557430Y-80819169D01*
X165496483Y-80672032D01*
X165473746Y-80638004D01*
X165408004Y-80539612D01*
X165407998Y-80539605D01*
X165295394Y-80427001D01*
X165295387Y-80426995D01*
X165162969Y-80338517D01*
X165015831Y-80277570D01*
X165015823Y-80277568D01*
X164859634Y-80246500D01*
X164859630Y-80246500D01*
X164700370Y-80246500D01*
X164700365Y-80246500D01*
X164544176Y-80277568D01*
X164544168Y-80277570D01*
X164397030Y-80338517D01*
X164264612Y-80426995D01*
X164264605Y-80427001D01*
X164152001Y-80539605D01*
X164151995Y-80539612D01*
X164063517Y-80672030D01*
X164002570Y-80819168D01*
X164002568Y-80819176D01*
X163971500Y-80975365D01*
X146257383Y-80975365D01*
X146302968Y-80956483D01*
X146302969Y-80956482D01*
X146302970Y-80956482D01*
X146435386Y-80868005D01*
X146435385Y-80868005D01*
X146435389Y-80868003D01*
X146548003Y-80755389D01*
X146636483Y-80622968D01*
X146697430Y-80475831D01*
X146728500Y-80319630D01*
X146728500Y-80160370D01*
X146697430Y-80004169D01*
X146636483Y-79857032D01*
X146580507Y-79773257D01*
X155025540Y-79773257D01*
X155025540Y-79932526D01*
X155056608Y-80088715D01*
X155056610Y-80088723D01*
X155117557Y-80235861D01*
X155206035Y-80368279D01*
X155206041Y-80368286D01*
X155318645Y-80480890D01*
X155318652Y-80480896D01*
X155451070Y-80569374D01*
X155451071Y-80569374D01*
X155451072Y-80569375D01*
X155598209Y-80630322D01*
X155754405Y-80661391D01*
X155754409Y-80661392D01*
X155754410Y-80661392D01*
X155913671Y-80661392D01*
X155913672Y-80661391D01*
X156069871Y-80630322D01*
X156217008Y-80569375D01*
X156349429Y-80480895D01*
X156462043Y-80368281D01*
X156550523Y-80235860D01*
X156611470Y-80088723D01*
X156642540Y-79932522D01*
X156642540Y-79773262D01*
X156611470Y-79617061D01*
X156550523Y-79469924D01*
X156545609Y-79462570D01*
X156462044Y-79337504D01*
X156462038Y-79337497D01*
X156349434Y-79224893D01*
X156349427Y-79224887D01*
X156217009Y-79136409D01*
X156069871Y-79075462D01*
X156069863Y-79075460D01*
X155913674Y-79044392D01*
X155913670Y-79044392D01*
X155754410Y-79044392D01*
X155754405Y-79044392D01*
X155598216Y-79075460D01*
X155598208Y-79075462D01*
X155451070Y-79136409D01*
X155318652Y-79224887D01*
X155318645Y-79224893D01*
X155206041Y-79337497D01*
X155206035Y-79337504D01*
X155117557Y-79469922D01*
X155056610Y-79617060D01*
X155056608Y-79617068D01*
X155025540Y-79773257D01*
X146580507Y-79773257D01*
X146548003Y-79724611D01*
X146548001Y-79724608D01*
X146435394Y-79612001D01*
X146435387Y-79611995D01*
X146302969Y-79523517D01*
X146155831Y-79462570D01*
X146155823Y-79462568D01*
X145999634Y-79431500D01*
X145999630Y-79431500D01*
X145840370Y-79431500D01*
X145840365Y-79431500D01*
X145684176Y-79462568D01*
X145684168Y-79462570D01*
X145537030Y-79523517D01*
X145404612Y-79611995D01*
X145404605Y-79612001D01*
X145292001Y-79724605D01*
X145291995Y-79724612D01*
X145203517Y-79857030D01*
X145142570Y-80004168D01*
X145142568Y-80004176D01*
X145111500Y-80160365D01*
X137623015Y-80160365D01*
X137522969Y-80093517D01*
X137375831Y-80032570D01*
X137375823Y-80032568D01*
X137219634Y-80001500D01*
X137219630Y-80001500D01*
X137060370Y-80001500D01*
X137060365Y-80001500D01*
X136904176Y-80032568D01*
X136904168Y-80032570D01*
X136757030Y-80093517D01*
X136624612Y-80181995D01*
X136624605Y-80182001D01*
X136512001Y-80294605D01*
X136511995Y-80294612D01*
X136423517Y-80427030D01*
X136362570Y-80574168D01*
X136362568Y-80574176D01*
X136331500Y-80730365D01*
X129793596Y-80730365D01*
X129802968Y-80726483D01*
X129935389Y-80638003D01*
X129935394Y-80637998D01*
X129936796Y-80636597D01*
X130047998Y-80525394D01*
X130048003Y-80525389D01*
X130136483Y-80392968D01*
X130197430Y-80245831D01*
X130228500Y-80089630D01*
X130228500Y-79930370D01*
X130197430Y-79774169D01*
X130136483Y-79627032D01*
X130129825Y-79617068D01*
X130048004Y-79494612D01*
X130047998Y-79494605D01*
X129935394Y-79382001D01*
X129935387Y-79381995D01*
X129802969Y-79293517D01*
X129655831Y-79232570D01*
X129655823Y-79232568D01*
X129499634Y-79201500D01*
X129499630Y-79201500D01*
X129340370Y-79201500D01*
X129340365Y-79201500D01*
X129184176Y-79232568D01*
X129184168Y-79232570D01*
X129037030Y-79293517D01*
X128904612Y-79381995D01*
X128904605Y-79382001D01*
X128792001Y-79494605D01*
X128791995Y-79494612D01*
X128703517Y-79627030D01*
X128642570Y-79774168D01*
X128642568Y-79774176D01*
X128611500Y-79930365D01*
X127603758Y-79930365D01*
X127515394Y-79842001D01*
X127515387Y-79841995D01*
X127382969Y-79753517D01*
X127235831Y-79692570D01*
X127235823Y-79692568D01*
X127079634Y-79661500D01*
X127079630Y-79661500D01*
X126920370Y-79661500D01*
X126920365Y-79661500D01*
X126764176Y-79692568D01*
X126764168Y-79692570D01*
X126617030Y-79753517D01*
X126484612Y-79841995D01*
X126484605Y-79842001D01*
X126372001Y-79954605D01*
X126371995Y-79954612D01*
X126283517Y-80087030D01*
X126222570Y-80234168D01*
X126222568Y-80234176D01*
X126191500Y-80390365D01*
X100500500Y-80390365D01*
X100500500Y-79669500D01*
X100520185Y-79602461D01*
X100572989Y-79556706D01*
X100624500Y-79545500D01*
X120385890Y-79545500D01*
X120385892Y-79545500D01*
X120513186Y-79511392D01*
X120627314Y-79445500D01*
X120720500Y-79352314D01*
X120786392Y-79238186D01*
X120820500Y-79110892D01*
X120820500Y-78695365D01*
X132941500Y-78695365D01*
X132941500Y-78854634D01*
X132972568Y-79010823D01*
X132972570Y-79010831D01*
X133033517Y-79157969D01*
X133121995Y-79290387D01*
X133122001Y-79290394D01*
X133234605Y-79402998D01*
X133234612Y-79403004D01*
X133367030Y-79491482D01*
X133367031Y-79491482D01*
X133367032Y-79491483D01*
X133514169Y-79552430D01*
X133670365Y-79583499D01*
X133670369Y-79583500D01*
X133670370Y-79583500D01*
X133829631Y-79583500D01*
X133829632Y-79583499D01*
X133985831Y-79552430D01*
X134132968Y-79491483D01*
X134265389Y-79403003D01*
X134378003Y-79290389D01*
X134414398Y-79235918D01*
X134468010Y-79191114D01*
X134537334Y-79182407D01*
X134600362Y-79212561D01*
X134620600Y-79235916D01*
X134656996Y-79290387D01*
X134657000Y-79290393D01*
X134769605Y-79402998D01*
X134769612Y-79403004D01*
X134902030Y-79491482D01*
X134902031Y-79491482D01*
X134902032Y-79491483D01*
X135049169Y-79552430D01*
X135205365Y-79583499D01*
X135205369Y-79583500D01*
X135205370Y-79583500D01*
X135364631Y-79583500D01*
X135364632Y-79583499D01*
X135520831Y-79552430D01*
X135667968Y-79491483D01*
X135800389Y-79403003D01*
X135913003Y-79290389D01*
X136001483Y-79157968D01*
X136062430Y-79010831D01*
X136093500Y-78854630D01*
X136093500Y-78695370D01*
X136062430Y-78539169D01*
X136001483Y-78392032D01*
X135943905Y-78305860D01*
X135913004Y-78259612D01*
X135912998Y-78259605D01*
X135800391Y-78146998D01*
X135667974Y-78058520D01*
X135667963Y-78058514D01*
X135614549Y-78036389D01*
X135599825Y-78024524D01*
X135582485Y-78016976D01*
X135561583Y-77993706D01*
X135560146Y-77992548D01*
X135558972Y-77990825D01*
X135488003Y-77884611D01*
X135487998Y-77884605D01*
X135446650Y-77843257D01*
X155018040Y-77843257D01*
X155018040Y-78002526D01*
X155049108Y-78158715D01*
X155049110Y-78158723D01*
X155110057Y-78305861D01*
X155198535Y-78438279D01*
X155198541Y-78438286D01*
X155311145Y-78550890D01*
X155311152Y-78550896D01*
X155443570Y-78639374D01*
X155443571Y-78639374D01*
X155443572Y-78639375D01*
X155590709Y-78700322D01*
X155746905Y-78731391D01*
X155746909Y-78731392D01*
X155746910Y-78731392D01*
X155906171Y-78731392D01*
X155906172Y-78731391D01*
X156062371Y-78700322D01*
X156209508Y-78639375D01*
X156341929Y-78550895D01*
X156454543Y-78438281D01*
X156543023Y-78305860D01*
X156603970Y-78158723D01*
X156635040Y-78002522D01*
X156635040Y-77843262D01*
X156603970Y-77687061D01*
X156543023Y-77539924D01*
X156541089Y-77537030D01*
X156454544Y-77407504D01*
X156454538Y-77407497D01*
X156341934Y-77294893D01*
X156341927Y-77294887D01*
X156209509Y-77206409D01*
X156062371Y-77145462D01*
X156062363Y-77145460D01*
X155906174Y-77114392D01*
X155906170Y-77114392D01*
X155746910Y-77114392D01*
X155746905Y-77114392D01*
X155590716Y-77145460D01*
X155590708Y-77145462D01*
X155443570Y-77206409D01*
X155311152Y-77294887D01*
X155311145Y-77294893D01*
X155198541Y-77407497D01*
X155198535Y-77407504D01*
X155110057Y-77539922D01*
X155049110Y-77687060D01*
X155049108Y-77687068D01*
X155018040Y-77843257D01*
X135446650Y-77843257D01*
X135375391Y-77771998D01*
X135360358Y-77761953D01*
X135347916Y-77753640D01*
X135303111Y-77700028D01*
X135298144Y-77686525D01*
X135297432Y-77684179D01*
X135297430Y-77684169D01*
X135236483Y-77537032D01*
X135236480Y-77537028D01*
X135148004Y-77404612D01*
X135147998Y-77404605D01*
X135035394Y-77292001D01*
X135035387Y-77291995D01*
X134902969Y-77203517D01*
X134755831Y-77142570D01*
X134755823Y-77142568D01*
X134599634Y-77111500D01*
X134599630Y-77111500D01*
X134440370Y-77111500D01*
X134440365Y-77111500D01*
X134284176Y-77142568D01*
X134284168Y-77142570D01*
X134137030Y-77203517D01*
X134004612Y-77291995D01*
X134004605Y-77292001D01*
X133892001Y-77404605D01*
X133891995Y-77404612D01*
X133803518Y-77537028D01*
X133749877Y-77666527D01*
X133706035Y-77720930D01*
X133704208Y-77722175D01*
X133644607Y-77761999D01*
X133531998Y-77874608D01*
X133446118Y-78003138D01*
X133392506Y-78047943D01*
X133390474Y-78048806D01*
X133367032Y-78058516D01*
X133367025Y-78058520D01*
X133234608Y-78146998D01*
X133122001Y-78259605D01*
X133121995Y-78259612D01*
X133033517Y-78392030D01*
X132972570Y-78539168D01*
X132972568Y-78539176D01*
X132941500Y-78695365D01*
X120820500Y-78695365D01*
X120820500Y-76960365D01*
X123221500Y-76960365D01*
X123221500Y-77119634D01*
X123252568Y-77275823D01*
X123252570Y-77275831D01*
X123313517Y-77422969D01*
X123401995Y-77555387D01*
X123402001Y-77555394D01*
X123514605Y-77667998D01*
X123514612Y-77668004D01*
X123647030Y-77756482D01*
X123647031Y-77756482D01*
X123647032Y-77756483D01*
X123794169Y-77817430D01*
X123924032Y-77843261D01*
X123950365Y-77848499D01*
X123950369Y-77848500D01*
X123950370Y-77848500D01*
X124109631Y-77848500D01*
X124109632Y-77848499D01*
X124265831Y-77817430D01*
X124412968Y-77756483D01*
X124496955Y-77700365D01*
X128506500Y-77700365D01*
X128506500Y-77859634D01*
X128537568Y-78015823D01*
X128537570Y-78015831D01*
X128598517Y-78162969D01*
X128686995Y-78295387D01*
X128687001Y-78295394D01*
X128799605Y-78407998D01*
X128799612Y-78408004D01*
X128932030Y-78496482D01*
X128932031Y-78496482D01*
X128932032Y-78496483D01*
X129079169Y-78557430D01*
X129235365Y-78588499D01*
X129235369Y-78588500D01*
X129235370Y-78588500D01*
X129394631Y-78588500D01*
X129394632Y-78588499D01*
X129444361Y-78578608D01*
X129499398Y-78567661D01*
X129521410Y-78563282D01*
X129550831Y-78557430D01*
X129697968Y-78496483D01*
X129830389Y-78408003D01*
X129943003Y-78295389D01*
X130031483Y-78162968D01*
X130092430Y-78015831D01*
X130123500Y-77859630D01*
X130123500Y-77700370D01*
X130092430Y-77544169D01*
X130031483Y-77397032D01*
X129961304Y-77292001D01*
X129943004Y-77264612D01*
X129942998Y-77264605D01*
X129830394Y-77152001D01*
X129830387Y-77151995D01*
X129738150Y-77090365D01*
X131051500Y-77090365D01*
X131051500Y-77249634D01*
X131082568Y-77405823D01*
X131082570Y-77405831D01*
X131143517Y-77552969D01*
X131231995Y-77685387D01*
X131232001Y-77685394D01*
X131344605Y-77797998D01*
X131344612Y-77798004D01*
X131477030Y-77886482D01*
X131477031Y-77886482D01*
X131477032Y-77886483D01*
X131624169Y-77947430D01*
X131780365Y-77978499D01*
X131780369Y-77978500D01*
X131780370Y-77978500D01*
X131939631Y-77978500D01*
X131939632Y-77978499D01*
X132095831Y-77947430D01*
X132242968Y-77886483D01*
X132375389Y-77798003D01*
X132488003Y-77685389D01*
X132576483Y-77552968D01*
X132637430Y-77405831D01*
X132668500Y-77249630D01*
X132668500Y-77090370D01*
X132637430Y-76934169D01*
X132576483Y-76787032D01*
X132565317Y-76770321D01*
X132488004Y-76654612D01*
X132487998Y-76654605D01*
X132375394Y-76542001D01*
X132375387Y-76541995D01*
X132242969Y-76453517D01*
X132095831Y-76392570D01*
X132095823Y-76392568D01*
X131939634Y-76361500D01*
X131939630Y-76361500D01*
X131780370Y-76361500D01*
X131780365Y-76361500D01*
X131624176Y-76392568D01*
X131624168Y-76392570D01*
X131477030Y-76453517D01*
X131344612Y-76541995D01*
X131344605Y-76542001D01*
X131232001Y-76654605D01*
X131231995Y-76654612D01*
X131143517Y-76787030D01*
X131082570Y-76934168D01*
X131082568Y-76934176D01*
X131051500Y-77090365D01*
X129738150Y-77090365D01*
X129697969Y-77063517D01*
X129550831Y-77002570D01*
X129550823Y-77002568D01*
X129394634Y-76971500D01*
X129394630Y-76971500D01*
X129235370Y-76971500D01*
X129235365Y-76971500D01*
X129079176Y-77002568D01*
X129079168Y-77002570D01*
X128932030Y-77063517D01*
X128799612Y-77151995D01*
X128799605Y-77152001D01*
X128687001Y-77264605D01*
X128686995Y-77264612D01*
X128598517Y-77397030D01*
X128537570Y-77544168D01*
X128537568Y-77544176D01*
X128506500Y-77700365D01*
X124496955Y-77700365D01*
X124545389Y-77668003D01*
X124546865Y-77666527D01*
X124606796Y-77606597D01*
X124657998Y-77555394D01*
X124658003Y-77555389D01*
X124746483Y-77422968D01*
X124807430Y-77275831D01*
X124838500Y-77119630D01*
X124838500Y-76960370D01*
X124807430Y-76804169D01*
X124746483Y-76657032D01*
X124744865Y-76654611D01*
X124658004Y-76524612D01*
X124657998Y-76524605D01*
X124545394Y-76412001D01*
X124545387Y-76411995D01*
X124412969Y-76323517D01*
X124265831Y-76262570D01*
X124265823Y-76262568D01*
X124109634Y-76231500D01*
X124109630Y-76231500D01*
X123950370Y-76231500D01*
X123950365Y-76231500D01*
X123794176Y-76262568D01*
X123794168Y-76262570D01*
X123647030Y-76323517D01*
X123514612Y-76411995D01*
X123514605Y-76412001D01*
X123402001Y-76524605D01*
X123401995Y-76524612D01*
X123313517Y-76657030D01*
X123252570Y-76804168D01*
X123252568Y-76804176D01*
X123221500Y-76960365D01*
X120820500Y-76960365D01*
X120820500Y-75210365D01*
X124421500Y-75210365D01*
X124421500Y-75369634D01*
X124452568Y-75525823D01*
X124452570Y-75525831D01*
X124513517Y-75672969D01*
X124601995Y-75805387D01*
X124602001Y-75805394D01*
X124714605Y-75917998D01*
X124714612Y-75918004D01*
X124847030Y-76006482D01*
X124847031Y-76006482D01*
X124847032Y-76006483D01*
X124994169Y-76067430D01*
X125150365Y-76098499D01*
X125150369Y-76098500D01*
X125150370Y-76098500D01*
X125309631Y-76098500D01*
X125309632Y-76098499D01*
X125465831Y-76067430D01*
X125612968Y-76006483D01*
X125745389Y-75918003D01*
X125798027Y-75865365D01*
X136081500Y-75865365D01*
X136081500Y-76024634D01*
X136112568Y-76180823D01*
X136112570Y-76180831D01*
X136173517Y-76327969D01*
X136261995Y-76460387D01*
X136262001Y-76460394D01*
X136374605Y-76572998D01*
X136374612Y-76573004D01*
X136507030Y-76661482D01*
X136507031Y-76661482D01*
X136507032Y-76661483D01*
X136654169Y-76722430D01*
X136810365Y-76753499D01*
X136810369Y-76753500D01*
X136810370Y-76753500D01*
X136969631Y-76753500D01*
X136969632Y-76753499D01*
X137125831Y-76722430D01*
X137272968Y-76661483D01*
X137272971Y-76661480D01*
X137278338Y-76658613D01*
X137279184Y-76660197D01*
X137337783Y-76641847D01*
X137401309Y-76659272D01*
X137401662Y-76658613D01*
X137404565Y-76660165D01*
X137405163Y-76660329D01*
X137406599Y-76661252D01*
X137407030Y-76661482D01*
X137407031Y-76661482D01*
X137407032Y-76661483D01*
X137554169Y-76722430D01*
X137710365Y-76753499D01*
X137710369Y-76753500D01*
X137710370Y-76753500D01*
X137869631Y-76753500D01*
X137869632Y-76753499D01*
X138025831Y-76722430D01*
X138172968Y-76661483D01*
X138305389Y-76573003D01*
X138418003Y-76460389D01*
X138506483Y-76327968D01*
X138528783Y-76274133D01*
X143587732Y-76274133D01*
X143587732Y-76433402D01*
X143618800Y-76589591D01*
X143618802Y-76589599D01*
X143679749Y-76736737D01*
X143768227Y-76869155D01*
X143768233Y-76869162D01*
X143880837Y-76981766D01*
X143880844Y-76981772D01*
X144013262Y-77070250D01*
X144013263Y-77070250D01*
X144013264Y-77070251D01*
X144160401Y-77131198D01*
X144264956Y-77151995D01*
X144316597Y-77162267D01*
X144316601Y-77162268D01*
X144316602Y-77162268D01*
X144475863Y-77162268D01*
X144475864Y-77162267D01*
X144632063Y-77131198D01*
X144779200Y-77070251D01*
X144911621Y-76981771D01*
X145024235Y-76869157D01*
X145112715Y-76736736D01*
X145173662Y-76589599D01*
X145204732Y-76433398D01*
X145204732Y-76274138D01*
X145173662Y-76117937D01*
X145112715Y-75970800D01*
X145112715Y-75970799D01*
X145112713Y-75970796D01*
X145074267Y-75913257D01*
X155005540Y-75913257D01*
X155005540Y-76072526D01*
X155036608Y-76228715D01*
X155036610Y-76228723D01*
X155097557Y-76375861D01*
X155186035Y-76508279D01*
X155186041Y-76508286D01*
X155298645Y-76620890D01*
X155298652Y-76620896D01*
X155431070Y-76709374D01*
X155431071Y-76709374D01*
X155431072Y-76709375D01*
X155578209Y-76770322D01*
X155734405Y-76801391D01*
X155734409Y-76801392D01*
X155734410Y-76801392D01*
X155893671Y-76801392D01*
X155893672Y-76801391D01*
X156049871Y-76770322D01*
X156197008Y-76709375D01*
X156329429Y-76620895D01*
X156442043Y-76508281D01*
X156530523Y-76375860D01*
X156591470Y-76228723D01*
X156622540Y-76072522D01*
X156622540Y-75913262D01*
X156591470Y-75757061D01*
X156530523Y-75609924D01*
X156508080Y-75576336D01*
X156442044Y-75477504D01*
X156442038Y-75477497D01*
X156329434Y-75364893D01*
X156329427Y-75364887D01*
X156197009Y-75276409D01*
X156049871Y-75215462D01*
X156049863Y-75215460D01*
X155893674Y-75184392D01*
X155893670Y-75184392D01*
X155734410Y-75184392D01*
X155734405Y-75184392D01*
X155578216Y-75215460D01*
X155578208Y-75215462D01*
X155431070Y-75276409D01*
X155298652Y-75364887D01*
X155298645Y-75364893D01*
X155186041Y-75477497D01*
X155186035Y-75477504D01*
X155097557Y-75609922D01*
X155036610Y-75757060D01*
X155036608Y-75757068D01*
X155005540Y-75913257D01*
X145074267Y-75913257D01*
X145024236Y-75838380D01*
X145024230Y-75838373D01*
X144911626Y-75725769D01*
X144911619Y-75725763D01*
X144779201Y-75637285D01*
X144632063Y-75576338D01*
X144632055Y-75576336D01*
X144475866Y-75545268D01*
X144475862Y-75545268D01*
X144316602Y-75545268D01*
X144316597Y-75545268D01*
X144160408Y-75576336D01*
X144160400Y-75576338D01*
X144013262Y-75637285D01*
X143880844Y-75725763D01*
X143880837Y-75725769D01*
X143768233Y-75838373D01*
X143768227Y-75838380D01*
X143679749Y-75970798D01*
X143618802Y-76117936D01*
X143618800Y-76117944D01*
X143587732Y-76274133D01*
X138528783Y-76274133D01*
X138567430Y-76180831D01*
X138598500Y-76024630D01*
X138598500Y-75865370D01*
X138567430Y-75709169D01*
X138506483Y-75562032D01*
X138418003Y-75429611D01*
X138417998Y-75429605D01*
X138305394Y-75317001D01*
X138305387Y-75316995D01*
X138172969Y-75228517D01*
X138025831Y-75167570D01*
X138025823Y-75167568D01*
X137869634Y-75136500D01*
X137869630Y-75136500D01*
X137710370Y-75136500D01*
X137710365Y-75136500D01*
X137554176Y-75167568D01*
X137554168Y-75167570D01*
X137407030Y-75228517D01*
X137401662Y-75231387D01*
X137400817Y-75229807D01*
X137342191Y-75248153D01*
X137278694Y-75230720D01*
X137278338Y-75231387D01*
X137275397Y-75229815D01*
X137274814Y-75229655D01*
X137273408Y-75228751D01*
X137272969Y-75228517D01*
X137125831Y-75167570D01*
X137125823Y-75167568D01*
X136969634Y-75136500D01*
X136969630Y-75136500D01*
X136810370Y-75136500D01*
X136810365Y-75136500D01*
X136654176Y-75167568D01*
X136654168Y-75167570D01*
X136507030Y-75228517D01*
X136374612Y-75316995D01*
X136374605Y-75317001D01*
X136262001Y-75429605D01*
X136261995Y-75429612D01*
X136173517Y-75562030D01*
X136112570Y-75709168D01*
X136112568Y-75709176D01*
X136081500Y-75865365D01*
X125798027Y-75865365D01*
X125858003Y-75805389D01*
X125946483Y-75672968D01*
X126007430Y-75525831D01*
X126038500Y-75369630D01*
X126038500Y-75210370D01*
X126007430Y-75054169D01*
X125946483Y-74907032D01*
X125858003Y-74774611D01*
X125857998Y-74774605D01*
X125745394Y-74662001D01*
X125745387Y-74661995D01*
X125612969Y-74573517D01*
X125465831Y-74512570D01*
X125465823Y-74512568D01*
X125309634Y-74481500D01*
X125309630Y-74481500D01*
X125150370Y-74481500D01*
X125150365Y-74481500D01*
X124994176Y-74512568D01*
X124994168Y-74512570D01*
X124847030Y-74573517D01*
X124714612Y-74661995D01*
X124714605Y-74662001D01*
X124602001Y-74774605D01*
X124601995Y-74774612D01*
X124513517Y-74907030D01*
X124452570Y-75054168D01*
X124452568Y-75054176D01*
X124421500Y-75210365D01*
X120820500Y-75210365D01*
X120820500Y-73800365D01*
X135521500Y-73800365D01*
X135521500Y-73959634D01*
X135552568Y-74115823D01*
X135552570Y-74115831D01*
X135613517Y-74262969D01*
X135701995Y-74395387D01*
X135702001Y-74395394D01*
X135814605Y-74507998D01*
X135814612Y-74508004D01*
X135947030Y-74596482D01*
X135947031Y-74596482D01*
X135947032Y-74596483D01*
X136094169Y-74657430D01*
X136240225Y-74686482D01*
X136250365Y-74688499D01*
X136250369Y-74688500D01*
X136250370Y-74688500D01*
X136409631Y-74688500D01*
X136409632Y-74688499D01*
X136565831Y-74657430D01*
X136709620Y-74597869D01*
X136779085Y-74590401D01*
X136804520Y-74597869D01*
X136924169Y-74647430D01*
X137080365Y-74678499D01*
X137080369Y-74678500D01*
X137080370Y-74678500D01*
X137239631Y-74678500D01*
X137239632Y-74678499D01*
X137395831Y-74647430D01*
X137542968Y-74586483D01*
X137675389Y-74498003D01*
X137788003Y-74385389D01*
X137876483Y-74252968D01*
X137937430Y-74105831D01*
X137968500Y-73949630D01*
X137968500Y-73790370D01*
X137937430Y-73634169D01*
X137876483Y-73487032D01*
X137825260Y-73410370D01*
X137825257Y-73410365D01*
X148141500Y-73410365D01*
X148141500Y-73569634D01*
X148172568Y-73725823D01*
X148172570Y-73725831D01*
X148233517Y-73872969D01*
X148321995Y-74005387D01*
X148322001Y-74005394D01*
X148434609Y-74118002D01*
X148444095Y-74124340D01*
X148474652Y-74144757D01*
X148519457Y-74198366D01*
X148520323Y-74200406D01*
X148583517Y-74352969D01*
X148671995Y-74485387D01*
X148672001Y-74485394D01*
X148784605Y-74597998D01*
X148784612Y-74598004D01*
X148917030Y-74686482D01*
X148917031Y-74686482D01*
X148917032Y-74686483D01*
X149064169Y-74747430D01*
X149200824Y-74774612D01*
X149220365Y-74778499D01*
X149220369Y-74778500D01*
X149220370Y-74778500D01*
X149379631Y-74778500D01*
X149379632Y-74778499D01*
X149535831Y-74747430D01*
X149682968Y-74686483D01*
X149815389Y-74598003D01*
X149928003Y-74485389D01*
X150016483Y-74352968D01*
X150077430Y-74205831D01*
X150108500Y-74049630D01*
X150108500Y-73890370D01*
X150077430Y-73734169D01*
X150016483Y-73587032D01*
X150004856Y-73569630D01*
X149928002Y-73454609D01*
X149927357Y-73453823D01*
X149927148Y-73453331D01*
X149924619Y-73449546D01*
X149925337Y-73449066D01*
X149900051Y-73389510D01*
X149908658Y-73327716D01*
X149967430Y-73185831D01*
X149998500Y-73029630D01*
X149998500Y-72870370D01*
X149967430Y-72714169D01*
X149906483Y-72567032D01*
X149818003Y-72434611D01*
X149817998Y-72434605D01*
X149705394Y-72322001D01*
X149705387Y-72321995D01*
X149572969Y-72233517D01*
X149425831Y-72172570D01*
X149425823Y-72172568D01*
X149269634Y-72141500D01*
X149269630Y-72141500D01*
X149110370Y-72141500D01*
X149110365Y-72141500D01*
X148954176Y-72172568D01*
X148954168Y-72172570D01*
X148807030Y-72233517D01*
X148674612Y-72321995D01*
X148674605Y-72322001D01*
X148562001Y-72434605D01*
X148561995Y-72434612D01*
X148473517Y-72567030D01*
X148412570Y-72714168D01*
X148412568Y-72714176D01*
X148381500Y-72870365D01*
X148380961Y-72875842D01*
X148354799Y-72940629D01*
X148345239Y-72951368D01*
X148322001Y-72974605D01*
X148321995Y-72974612D01*
X148233517Y-73107030D01*
X148172570Y-73254168D01*
X148172568Y-73254176D01*
X148141500Y-73410365D01*
X137825257Y-73410365D01*
X137788004Y-73354612D01*
X137787998Y-73354605D01*
X137675394Y-73242001D01*
X137675387Y-73241995D01*
X137542969Y-73153517D01*
X137395831Y-73092570D01*
X137395823Y-73092568D01*
X137239634Y-73061500D01*
X137239630Y-73061500D01*
X137080370Y-73061500D01*
X137080365Y-73061500D01*
X136924176Y-73092568D01*
X136924168Y-73092570D01*
X136780382Y-73152129D01*
X136710913Y-73159598D01*
X136685476Y-73152129D01*
X136565831Y-73102570D01*
X136565823Y-73102568D01*
X136409634Y-73071500D01*
X136409630Y-73071500D01*
X136250370Y-73071500D01*
X136250365Y-73071500D01*
X136094176Y-73102568D01*
X136094168Y-73102570D01*
X135947030Y-73163517D01*
X135814612Y-73251995D01*
X135814605Y-73252001D01*
X135702001Y-73364605D01*
X135701995Y-73364612D01*
X135613517Y-73497030D01*
X135552570Y-73644168D01*
X135552568Y-73644176D01*
X135521500Y-73800365D01*
X120820500Y-73800365D01*
X120820500Y-72044365D01*
X124681500Y-72044365D01*
X124681500Y-72203634D01*
X124712568Y-72359823D01*
X124712570Y-72359831D01*
X124773517Y-72506969D01*
X124861995Y-72639387D01*
X124862001Y-72639394D01*
X124974605Y-72751998D01*
X124974612Y-72752004D01*
X125107030Y-72840482D01*
X125107031Y-72840482D01*
X125107032Y-72840483D01*
X125254169Y-72901430D01*
X125410365Y-72932499D01*
X125410369Y-72932500D01*
X125410370Y-72932500D01*
X125569631Y-72932500D01*
X125569632Y-72932499D01*
X125725831Y-72901430D01*
X125872968Y-72840483D01*
X126005389Y-72752003D01*
X126043224Y-72714168D01*
X126112574Y-72644819D01*
X126173897Y-72611334D01*
X126200255Y-72608500D01*
X126239631Y-72608500D01*
X126239632Y-72608499D01*
X126395831Y-72577430D01*
X126542968Y-72516483D01*
X126675389Y-72428003D01*
X126788003Y-72315389D01*
X126876483Y-72182968D01*
X126937430Y-72035831D01*
X126968500Y-71879630D01*
X126968500Y-71720370D01*
X126937430Y-71564169D01*
X126876483Y-71417032D01*
X126788003Y-71284611D01*
X126788002Y-71284610D01*
X126787998Y-71284605D01*
X126736258Y-71232865D01*
X135494000Y-71232865D01*
X135494000Y-71392134D01*
X135525068Y-71548323D01*
X135525070Y-71548331D01*
X135586017Y-71695469D01*
X135674495Y-71827887D01*
X135674501Y-71827894D01*
X135787105Y-71940498D01*
X135787112Y-71940504D01*
X135919530Y-72028982D01*
X135919531Y-72028982D01*
X135919532Y-72028983D01*
X136066669Y-72089930D01*
X136222865Y-72120999D01*
X136222869Y-72121000D01*
X136222870Y-72121000D01*
X136382131Y-72121000D01*
X136382132Y-72120999D01*
X136538331Y-72089930D01*
X136685468Y-72028983D01*
X136685468Y-72028982D01*
X136689282Y-72027403D01*
X136758751Y-72019934D01*
X136805624Y-72038860D01*
X136817032Y-72046483D01*
X136964169Y-72107430D01*
X137120365Y-72138499D01*
X137120369Y-72138500D01*
X137120370Y-72138500D01*
X137279631Y-72138500D01*
X137279632Y-72138499D01*
X137435831Y-72107430D01*
X137582968Y-72046483D01*
X137715389Y-71958003D01*
X137828003Y-71845389D01*
X137916483Y-71712968D01*
X137977430Y-71565831D01*
X138008500Y-71409630D01*
X138008500Y-71250370D01*
X137977430Y-71094169D01*
X137916483Y-70947032D01*
X137857989Y-70859489D01*
X137828004Y-70814612D01*
X137827998Y-70814605D01*
X137715394Y-70702001D01*
X137715387Y-70701995D01*
X137582969Y-70613517D01*
X137435831Y-70552570D01*
X137435823Y-70552568D01*
X137279634Y-70521500D01*
X137279630Y-70521500D01*
X137120370Y-70521500D01*
X137120365Y-70521500D01*
X136964176Y-70552568D01*
X136964164Y-70552571D01*
X136813216Y-70615096D01*
X136743747Y-70622565D01*
X136696876Y-70603639D01*
X136685467Y-70596016D01*
X136538331Y-70535070D01*
X136538323Y-70535068D01*
X136382134Y-70504000D01*
X136382130Y-70504000D01*
X136222870Y-70504000D01*
X136222865Y-70504000D01*
X136066676Y-70535068D01*
X136066668Y-70535070D01*
X135919530Y-70596017D01*
X135787112Y-70684495D01*
X135787105Y-70684501D01*
X135674501Y-70797105D01*
X135674495Y-70797112D01*
X135586017Y-70929530D01*
X135525070Y-71076668D01*
X135525068Y-71076676D01*
X135494000Y-71232865D01*
X126736258Y-71232865D01*
X126675394Y-71172001D01*
X126675387Y-71171995D01*
X126542969Y-71083517D01*
X126395831Y-71022570D01*
X126395823Y-71022568D01*
X126239634Y-70991500D01*
X126239630Y-70991500D01*
X126080370Y-70991500D01*
X126080365Y-70991500D01*
X125924176Y-71022568D01*
X125924168Y-71022570D01*
X125777030Y-71083517D01*
X125644612Y-71171995D01*
X125644605Y-71172001D01*
X125537426Y-71279181D01*
X125476103Y-71312666D01*
X125449745Y-71315500D01*
X125410365Y-71315500D01*
X125254176Y-71346568D01*
X125254168Y-71346570D01*
X125107030Y-71407517D01*
X124974612Y-71495995D01*
X124974605Y-71496001D01*
X124862001Y-71608605D01*
X124861995Y-71608612D01*
X124773517Y-71741030D01*
X124712570Y-71888168D01*
X124712568Y-71888176D01*
X124681500Y-72044365D01*
X120820500Y-72044365D01*
X120820500Y-69820365D01*
X124511500Y-69820365D01*
X124511500Y-69979634D01*
X124542568Y-70135823D01*
X124542570Y-70135831D01*
X124603517Y-70282969D01*
X124691995Y-70415387D01*
X124692001Y-70415394D01*
X124804605Y-70527998D01*
X124804612Y-70528004D01*
X124937030Y-70616482D01*
X124937031Y-70616482D01*
X124937032Y-70616483D01*
X125084169Y-70677430D01*
X125207667Y-70701995D01*
X125240365Y-70708499D01*
X125240369Y-70708500D01*
X125240370Y-70708500D01*
X125399631Y-70708500D01*
X125399632Y-70708499D01*
X125555831Y-70677430D01*
X125702968Y-70616483D01*
X125702967Y-70616483D01*
X125708596Y-70614152D01*
X125709604Y-70616587D01*
X125766760Y-70604624D01*
X125804388Y-70613672D01*
X125934169Y-70667430D01*
X126019992Y-70684501D01*
X126090365Y-70698499D01*
X126090369Y-70698500D01*
X126090370Y-70698500D01*
X126249631Y-70698500D01*
X126249632Y-70698499D01*
X126405831Y-70667430D01*
X126552968Y-70606483D01*
X126685389Y-70518003D01*
X126798003Y-70405389D01*
X126886483Y-70272968D01*
X126947430Y-70125831D01*
X126978500Y-69969630D01*
X126978500Y-69810370D01*
X126947430Y-69654169D01*
X126886483Y-69507032D01*
X126886482Y-69507030D01*
X126886482Y-69507029D01*
X126830449Y-69423170D01*
X126830448Y-69423169D01*
X126798001Y-69374608D01*
X126783758Y-69360365D01*
X136151500Y-69360365D01*
X136151500Y-69519634D01*
X136182568Y-69675823D01*
X136182570Y-69675831D01*
X136243517Y-69822969D01*
X136331995Y-69955387D01*
X136332001Y-69955394D01*
X136444605Y-70067998D01*
X136444612Y-70068004D01*
X136577030Y-70156482D01*
X136577031Y-70156482D01*
X136577032Y-70156483D01*
X136724169Y-70217430D01*
X136880365Y-70248499D01*
X136880369Y-70248500D01*
X136880370Y-70248500D01*
X137039631Y-70248500D01*
X137039632Y-70248499D01*
X137195831Y-70217430D01*
X137342968Y-70156483D01*
X137353810Y-70149238D01*
X137420485Y-70128358D01*
X137470155Y-70137776D01*
X137614169Y-70197430D01*
X137770365Y-70228499D01*
X137770369Y-70228500D01*
X137770370Y-70228500D01*
X137929631Y-70228500D01*
X137929632Y-70228499D01*
X138085831Y-70197430D01*
X138232968Y-70136483D01*
X138365389Y-70048003D01*
X138478003Y-69935389D01*
X138566483Y-69802968D01*
X138627430Y-69655831D01*
X138658500Y-69499630D01*
X138658500Y-69340370D01*
X138627430Y-69184169D01*
X138566483Y-69037032D01*
X138560067Y-69027430D01*
X138478004Y-68904612D01*
X138477998Y-68904605D01*
X138365394Y-68792001D01*
X138365387Y-68791995D01*
X138232969Y-68703517D01*
X138085831Y-68642570D01*
X138085823Y-68642568D01*
X137929634Y-68611500D01*
X137929630Y-68611500D01*
X137770370Y-68611500D01*
X137770365Y-68611500D01*
X137614176Y-68642568D01*
X137614168Y-68642570D01*
X137467030Y-68703517D01*
X137456181Y-68710766D01*
X137389503Y-68731641D01*
X137339842Y-68722222D01*
X137195831Y-68662570D01*
X137195823Y-68662568D01*
X137039634Y-68631500D01*
X137039630Y-68631500D01*
X136880370Y-68631500D01*
X136880365Y-68631500D01*
X136724176Y-68662568D01*
X136724168Y-68662570D01*
X136577030Y-68723517D01*
X136444612Y-68811995D01*
X136444605Y-68812001D01*
X136332001Y-68924605D01*
X136331995Y-68924612D01*
X136243517Y-69057030D01*
X136182570Y-69204168D01*
X136182568Y-69204176D01*
X136151500Y-69360365D01*
X126783758Y-69360365D01*
X126685394Y-69262001D01*
X126685387Y-69261995D01*
X126552969Y-69173517D01*
X126405831Y-69112570D01*
X126405823Y-69112568D01*
X126249634Y-69081500D01*
X126249630Y-69081500D01*
X126090370Y-69081500D01*
X126090365Y-69081500D01*
X125934176Y-69112568D01*
X125934168Y-69112570D01*
X125781404Y-69175848D01*
X125780414Y-69173459D01*
X125722966Y-69185352D01*
X125685606Y-69176324D01*
X125555835Y-69122571D01*
X125555823Y-69122568D01*
X125399634Y-69091500D01*
X125399630Y-69091500D01*
X125240370Y-69091500D01*
X125240365Y-69091500D01*
X125084176Y-69122568D01*
X125084168Y-69122570D01*
X124937030Y-69183517D01*
X124804612Y-69271995D01*
X124804605Y-69272001D01*
X124692001Y-69384605D01*
X124691995Y-69384612D01*
X124603517Y-69517030D01*
X124542570Y-69664168D01*
X124542568Y-69664176D01*
X124511500Y-69820365D01*
X120820500Y-69820365D01*
X120820500Y-67720365D01*
X122411500Y-67720365D01*
X122411500Y-67879634D01*
X122442568Y-68035823D01*
X122442570Y-68035831D01*
X122503517Y-68182969D01*
X122591995Y-68315387D01*
X122592001Y-68315394D01*
X122704605Y-68427998D01*
X122704612Y-68428004D01*
X122837030Y-68516482D01*
X122837031Y-68516482D01*
X122837032Y-68516483D01*
X122984169Y-68577430D01*
X123134986Y-68607429D01*
X123140365Y-68608499D01*
X123140369Y-68608500D01*
X123140370Y-68608500D01*
X123299631Y-68608500D01*
X123299632Y-68608499D01*
X123455831Y-68577430D01*
X123602968Y-68516483D01*
X123735389Y-68428003D01*
X123848003Y-68315389D01*
X123936483Y-68182968D01*
X123997430Y-68035831D01*
X124028500Y-67879630D01*
X124028500Y-67720370D01*
X123997430Y-67564169D01*
X123942522Y-67431611D01*
X123936484Y-67417033D01*
X123880048Y-67332570D01*
X123848003Y-67284611D01*
X123848000Y-67284608D01*
X123847998Y-67284605D01*
X123803758Y-67240365D01*
X128591500Y-67240365D01*
X128591500Y-67399634D01*
X128622568Y-67555823D01*
X128622570Y-67555831D01*
X128683517Y-67702968D01*
X128697298Y-67723594D01*
X128718175Y-67790271D01*
X128699690Y-67857651D01*
X128697300Y-67861370D01*
X128693516Y-67867033D01*
X128632570Y-68014168D01*
X128632568Y-68014176D01*
X128601500Y-68170365D01*
X128601500Y-68329634D01*
X128632568Y-68485823D01*
X128632570Y-68485831D01*
X128693517Y-68632969D01*
X128781995Y-68765387D01*
X128782001Y-68765394D01*
X128894605Y-68877998D01*
X128894612Y-68878004D01*
X129027030Y-68966482D01*
X129027031Y-68966482D01*
X129027032Y-68966483D01*
X129174169Y-69027430D01*
X129322980Y-69057030D01*
X129330365Y-69058499D01*
X129330369Y-69058500D01*
X129330370Y-69058500D01*
X129489631Y-69058500D01*
X129489632Y-69058499D01*
X129645831Y-69027430D01*
X129792968Y-68966483D01*
X129925389Y-68878003D01*
X130038003Y-68765389D01*
X130126483Y-68632968D01*
X130187430Y-68485831D01*
X130218500Y-68329630D01*
X130218500Y-68170370D01*
X130212730Y-68141360D01*
X130212730Y-68141357D01*
X130209130Y-68123258D01*
X130844393Y-68123258D01*
X130844393Y-68282527D01*
X130875461Y-68438716D01*
X130875463Y-68438724D01*
X130936410Y-68585862D01*
X131024888Y-68718280D01*
X131024894Y-68718287D01*
X131137498Y-68830891D01*
X131137505Y-68830897D01*
X131269923Y-68919375D01*
X131269924Y-68919375D01*
X131269925Y-68919376D01*
X131417062Y-68980323D01*
X131573258Y-69011392D01*
X131573262Y-69011393D01*
X131573263Y-69011393D01*
X131732524Y-69011393D01*
X131732525Y-69011392D01*
X131888724Y-68980323D01*
X132035861Y-68919376D01*
X132168282Y-68830896D01*
X132280896Y-68718282D01*
X132369376Y-68585861D01*
X132430323Y-68438724D01*
X132461393Y-68282523D01*
X132461393Y-68123263D01*
X132430323Y-67967062D01*
X132386671Y-67861678D01*
X132385822Y-67853784D01*
X132381650Y-67847030D01*
X132382141Y-67819544D01*
X132379202Y-67792209D01*
X132382788Y-67783328D01*
X132382898Y-67777171D01*
X132390938Y-67760365D01*
X134091500Y-67760365D01*
X134091500Y-67919634D01*
X134122568Y-68075823D01*
X134122570Y-68075831D01*
X134183517Y-68222969D01*
X134271995Y-68355387D01*
X134272001Y-68355394D01*
X134384605Y-68467998D01*
X134384612Y-68468004D01*
X134517030Y-68556482D01*
X134517031Y-68556482D01*
X134517032Y-68556483D01*
X134664169Y-68617430D01*
X134790548Y-68642568D01*
X134820365Y-68648499D01*
X134820369Y-68648500D01*
X134820370Y-68648500D01*
X134979631Y-68648500D01*
X134979632Y-68648499D01*
X135135831Y-68617430D01*
X135282968Y-68556483D01*
X135282986Y-68556470D01*
X135287206Y-68554216D01*
X135355608Y-68539967D01*
X135393125Y-68549007D01*
X135534169Y-68607430D01*
X135662564Y-68632969D01*
X135690365Y-68638499D01*
X135690369Y-68638500D01*
X135690370Y-68638500D01*
X135849631Y-68638500D01*
X135849632Y-68638499D01*
X136005831Y-68607430D01*
X136152968Y-68546483D01*
X136285389Y-68458003D01*
X136398003Y-68345389D01*
X136486483Y-68212968D01*
X136547430Y-68065831D01*
X136554485Y-68030365D01*
X155026500Y-68030365D01*
X155026500Y-68189634D01*
X155057568Y-68345823D01*
X155057570Y-68345831D01*
X155118517Y-68492969D01*
X155206995Y-68625387D01*
X155207001Y-68625394D01*
X155319605Y-68737998D01*
X155319612Y-68738004D01*
X155452030Y-68826482D01*
X155452031Y-68826482D01*
X155452032Y-68826483D01*
X155599169Y-68887430D01*
X155755365Y-68918499D01*
X155755369Y-68918500D01*
X155755370Y-68918500D01*
X155914631Y-68918500D01*
X155914632Y-68918499D01*
X156070831Y-68887430D01*
X156217968Y-68826483D01*
X156350389Y-68738003D01*
X156463003Y-68625389D01*
X156551483Y-68492968D01*
X156612430Y-68345831D01*
X156643500Y-68189630D01*
X156643500Y-68030370D01*
X156612430Y-67874169D01*
X156595727Y-67833845D01*
X169874000Y-67833845D01*
X169874000Y-70406154D01*
X169880511Y-70466702D01*
X169880511Y-70466704D01*
X169912539Y-70552571D01*
X169931611Y-70603704D01*
X170019239Y-70720761D01*
X170136296Y-70808389D01*
X170273299Y-70859489D01*
X170300550Y-70862418D01*
X170333845Y-70865999D01*
X170333862Y-70866000D01*
X172906138Y-70866000D01*
X172906154Y-70865999D01*
X172933192Y-70863091D01*
X172966701Y-70859489D01*
X173103704Y-70808389D01*
X173220761Y-70720761D01*
X173308389Y-70603704D01*
X173359489Y-70466701D01*
X173365005Y-70415394D01*
X173365999Y-70406154D01*
X173366000Y-70406137D01*
X173366000Y-67833862D01*
X173365999Y-67833845D01*
X173361522Y-67792209D01*
X173359489Y-67773299D01*
X173350936Y-67750369D01*
X173322067Y-67672968D01*
X173308389Y-67636296D01*
X173220761Y-67519239D01*
X173103704Y-67431611D01*
X172966703Y-67380511D01*
X172906154Y-67374000D01*
X172906138Y-67374000D01*
X170333862Y-67374000D01*
X170333845Y-67374000D01*
X170273297Y-67380511D01*
X170273295Y-67380511D01*
X170136295Y-67431611D01*
X170019239Y-67519239D01*
X169931611Y-67636295D01*
X169880511Y-67773295D01*
X169880511Y-67773297D01*
X169874000Y-67833845D01*
X156595727Y-67833845D01*
X156551483Y-67727032D01*
X156547028Y-67720365D01*
X156463004Y-67594612D01*
X156462998Y-67594605D01*
X156350394Y-67482001D01*
X156350387Y-67481995D01*
X156217969Y-67393517D01*
X156070831Y-67332570D01*
X156070823Y-67332568D01*
X155914634Y-67301500D01*
X155914630Y-67301500D01*
X155755370Y-67301500D01*
X155755365Y-67301500D01*
X155599176Y-67332568D01*
X155599168Y-67332570D01*
X155452030Y-67393517D01*
X155319612Y-67481995D01*
X155319605Y-67482001D01*
X155207001Y-67594605D01*
X155206995Y-67594612D01*
X155118517Y-67727030D01*
X155057570Y-67874168D01*
X155057568Y-67874176D01*
X155026500Y-68030365D01*
X136554485Y-68030365D01*
X136557705Y-68014176D01*
X136560508Y-68000086D01*
X136560508Y-68000085D01*
X136578499Y-67909634D01*
X136578500Y-67909631D01*
X136578500Y-67750369D01*
X136578499Y-67750365D01*
X136565574Y-67685386D01*
X136547430Y-67594169D01*
X136486483Y-67447032D01*
X136454810Y-67399630D01*
X136398004Y-67314612D01*
X136397998Y-67314605D01*
X136285394Y-67202001D01*
X136285387Y-67201995D01*
X136152969Y-67113517D01*
X136005831Y-67052570D01*
X136005823Y-67052568D01*
X135849634Y-67021500D01*
X135849630Y-67021500D01*
X135690370Y-67021500D01*
X135690365Y-67021500D01*
X135534176Y-67052568D01*
X135534168Y-67052570D01*
X135387023Y-67113520D01*
X135382773Y-67115792D01*
X135314370Y-67130031D01*
X135276873Y-67120992D01*
X135135831Y-67062570D01*
X135135823Y-67062568D01*
X134979634Y-67031500D01*
X134979630Y-67031500D01*
X134820370Y-67031500D01*
X134820365Y-67031500D01*
X134664176Y-67062568D01*
X134664168Y-67062570D01*
X134517030Y-67123517D01*
X134384612Y-67211995D01*
X134384605Y-67212001D01*
X134272001Y-67324605D01*
X134271995Y-67324612D01*
X134183517Y-67457030D01*
X134122570Y-67604168D01*
X134122568Y-67604176D01*
X134091500Y-67760365D01*
X132390938Y-67760365D01*
X132398130Y-67745333D01*
X132438186Y-67685386D01*
X132438188Y-67685384D01*
X132446477Y-67672977D01*
X132446477Y-67672976D01*
X132446483Y-67672968D01*
X132507430Y-67525831D01*
X132538500Y-67369630D01*
X132538500Y-67210370D01*
X132507430Y-67054169D01*
X132446483Y-66907032D01*
X132439434Y-66896483D01*
X132358004Y-66774612D01*
X132357998Y-66774605D01*
X132245394Y-66662001D01*
X132245387Y-66661995D01*
X132112969Y-66573517D01*
X131965831Y-66512570D01*
X131965823Y-66512568D01*
X131809634Y-66481500D01*
X131809630Y-66481500D01*
X131650370Y-66481500D01*
X131650365Y-66481500D01*
X131494176Y-66512568D01*
X131494168Y-66512570D01*
X131347030Y-66573517D01*
X131214612Y-66661995D01*
X131214605Y-66662001D01*
X131102001Y-66774605D01*
X131101995Y-66774612D01*
X131013517Y-66907030D01*
X130952570Y-67054168D01*
X130952568Y-67054176D01*
X130921500Y-67210365D01*
X130921500Y-67369634D01*
X130952568Y-67525823D01*
X130952570Y-67525831D01*
X130996221Y-67631214D01*
X131003690Y-67700684D01*
X130984764Y-67747556D01*
X130936408Y-67819927D01*
X130875463Y-67967061D01*
X130875461Y-67967069D01*
X130844393Y-68123258D01*
X130209130Y-68123258D01*
X130191737Y-68035823D01*
X130187430Y-68014169D01*
X130144130Y-67909634D01*
X130126484Y-67867033D01*
X130112701Y-67846406D01*
X130091824Y-67779729D01*
X130110309Y-67712349D01*
X130112669Y-67708674D01*
X130116483Y-67702968D01*
X130177430Y-67555831D01*
X130208500Y-67399630D01*
X130208500Y-67240370D01*
X130177430Y-67084169D01*
X130116483Y-66937032D01*
X130089389Y-66896483D01*
X130028004Y-66804612D01*
X130027998Y-66804605D01*
X129915394Y-66692001D01*
X129915387Y-66691995D01*
X129782969Y-66603517D01*
X129635831Y-66542570D01*
X129635823Y-66542568D01*
X129479634Y-66511500D01*
X129479630Y-66511500D01*
X129320370Y-66511500D01*
X129320365Y-66511500D01*
X129164176Y-66542568D01*
X129164168Y-66542570D01*
X129017030Y-66603517D01*
X128884612Y-66691995D01*
X128884605Y-66692001D01*
X128772001Y-66804605D01*
X128771995Y-66804612D01*
X128683517Y-66937030D01*
X128622570Y-67084168D01*
X128622568Y-67084176D01*
X128591500Y-67240365D01*
X123803758Y-67240365D01*
X123735394Y-67172001D01*
X123735387Y-67171995D01*
X123602969Y-67083517D01*
X123455831Y-67022570D01*
X123455823Y-67022568D01*
X123299634Y-66991500D01*
X123299630Y-66991500D01*
X123140370Y-66991500D01*
X123140365Y-66991500D01*
X122984176Y-67022568D01*
X122984168Y-67022570D01*
X122837030Y-67083517D01*
X122704612Y-67171995D01*
X122704605Y-67172001D01*
X122592001Y-67284605D01*
X122591995Y-67284612D01*
X122503517Y-67417030D01*
X122442570Y-67564168D01*
X122442568Y-67564176D01*
X122411500Y-67720365D01*
X120820500Y-67720365D01*
X120820500Y-65300365D01*
X123381500Y-65300365D01*
X123381500Y-65459634D01*
X123412568Y-65615823D01*
X123412570Y-65615831D01*
X123473517Y-65762969D01*
X123561995Y-65895387D01*
X123562001Y-65895394D01*
X123674605Y-66007998D01*
X123674612Y-66008004D01*
X123807030Y-66096482D01*
X123807031Y-66096482D01*
X123807032Y-66096483D01*
X123954169Y-66157430D01*
X124110365Y-66188499D01*
X124110369Y-66188500D01*
X124110370Y-66188500D01*
X124269631Y-66188500D01*
X124269632Y-66188499D01*
X124425831Y-66157430D01*
X124572968Y-66096483D01*
X124705389Y-66008003D01*
X124818003Y-65895389D01*
X124906483Y-65762968D01*
X124967430Y-65615831D01*
X124998500Y-65459630D01*
X124998500Y-65450365D01*
X134091500Y-65450365D01*
X134091500Y-65609634D01*
X134122568Y-65765823D01*
X134122570Y-65765831D01*
X134183517Y-65912969D01*
X134271995Y-66045387D01*
X134272001Y-66045394D01*
X134384605Y-66157998D01*
X134384612Y-66158004D01*
X134517030Y-66246482D01*
X134517031Y-66246482D01*
X134517032Y-66246483D01*
X134664169Y-66307430D01*
X134820365Y-66338499D01*
X134820369Y-66338500D01*
X134820370Y-66338500D01*
X134979631Y-66338500D01*
X134979632Y-66338499D01*
X135135831Y-66307430D01*
X135282968Y-66246483D01*
X135282975Y-66246477D01*
X135288335Y-66243614D01*
X135289241Y-66245310D01*
X135347404Y-66227088D01*
X135397089Y-66236506D01*
X135544169Y-66297430D01*
X135700365Y-66328499D01*
X135700369Y-66328500D01*
X135700370Y-66328500D01*
X135859631Y-66328500D01*
X135859632Y-66328499D01*
X136015831Y-66297430D01*
X136162968Y-66236483D01*
X136295389Y-66148003D01*
X136408003Y-66035389D01*
X136496483Y-65902968D01*
X136557430Y-65755831D01*
X136588500Y-65599630D01*
X136588500Y-65440370D01*
X136588123Y-65438474D01*
X136588123Y-65438472D01*
X136588122Y-65438469D01*
X136584521Y-65420365D01*
X151711500Y-65420365D01*
X151711500Y-65579634D01*
X151742568Y-65735823D01*
X151742570Y-65735831D01*
X151803517Y-65882969D01*
X151891995Y-66015387D01*
X151892001Y-66015394D01*
X152004605Y-66127998D01*
X152004612Y-66128004D01*
X152137030Y-66216482D01*
X152137031Y-66216482D01*
X152137032Y-66216483D01*
X152284169Y-66277430D01*
X152434986Y-66307429D01*
X152440365Y-66308499D01*
X152440369Y-66308500D01*
X152440370Y-66308500D01*
X152599631Y-66308500D01*
X152599632Y-66308499D01*
X152755831Y-66277430D01*
X152902968Y-66216483D01*
X153035389Y-66128003D01*
X153063027Y-66100365D01*
X155029000Y-66100365D01*
X155029000Y-66259634D01*
X155060068Y-66415823D01*
X155060070Y-66415831D01*
X155121017Y-66562969D01*
X155209495Y-66695387D01*
X155209501Y-66695394D01*
X155322105Y-66807998D01*
X155322112Y-66808004D01*
X155454530Y-66896482D01*
X155454531Y-66896482D01*
X155454532Y-66896483D01*
X155601669Y-66957430D01*
X155757865Y-66988499D01*
X155757869Y-66988500D01*
X155757870Y-66988500D01*
X155917131Y-66988500D01*
X155917132Y-66988499D01*
X156073331Y-66957430D01*
X156220468Y-66896483D01*
X156352889Y-66808003D01*
X156465503Y-66695389D01*
X156553983Y-66562968D01*
X156614930Y-66415831D01*
X156646000Y-66259630D01*
X156646000Y-66100370D01*
X156614930Y-65944169D01*
X156553983Y-65797032D01*
X156533135Y-65765831D01*
X156465504Y-65664612D01*
X156465498Y-65664605D01*
X156352894Y-65552001D01*
X156352887Y-65551995D01*
X156220469Y-65463517D01*
X156073331Y-65402570D01*
X156073323Y-65402568D01*
X155917134Y-65371500D01*
X155917130Y-65371500D01*
X155757870Y-65371500D01*
X155757865Y-65371500D01*
X155601676Y-65402568D01*
X155601668Y-65402570D01*
X155454530Y-65463517D01*
X155322112Y-65551995D01*
X155322105Y-65552001D01*
X155209501Y-65664605D01*
X155209495Y-65664612D01*
X155121017Y-65797030D01*
X155060070Y-65944168D01*
X155060068Y-65944176D01*
X155029000Y-66100365D01*
X153063027Y-66100365D01*
X153148003Y-66015389D01*
X153236483Y-65882968D01*
X153297430Y-65735831D01*
X153328500Y-65579630D01*
X153328500Y-65420370D01*
X153297430Y-65264169D01*
X153236483Y-65117032D01*
X153222020Y-65095387D01*
X153148004Y-64984612D01*
X153147998Y-64984605D01*
X153035394Y-64872001D01*
X153035387Y-64871995D01*
X152902969Y-64783517D01*
X152755831Y-64722570D01*
X152755823Y-64722568D01*
X152599634Y-64691500D01*
X152599630Y-64691500D01*
X152440370Y-64691500D01*
X152440365Y-64691500D01*
X152284176Y-64722568D01*
X152284168Y-64722570D01*
X152137030Y-64783517D01*
X152004612Y-64871995D01*
X152004605Y-64872001D01*
X151892001Y-64984605D01*
X151891995Y-64984612D01*
X151803517Y-65117030D01*
X151742570Y-65264168D01*
X151742568Y-65264176D01*
X151711500Y-65420365D01*
X136584521Y-65420365D01*
X136580544Y-65400375D01*
X136557430Y-65284169D01*
X136496483Y-65137032D01*
X136483118Y-65117030D01*
X136408004Y-65004612D01*
X136407998Y-65004605D01*
X136295394Y-64892001D01*
X136295387Y-64891995D01*
X136162969Y-64803517D01*
X136015831Y-64742570D01*
X136015823Y-64742568D01*
X135859634Y-64711500D01*
X135859630Y-64711500D01*
X135700370Y-64711500D01*
X135700365Y-64711500D01*
X135544176Y-64742568D01*
X135544168Y-64742570D01*
X135397030Y-64803517D01*
X135391662Y-64806387D01*
X135390758Y-64804697D01*
X135332555Y-64822912D01*
X135282908Y-64813492D01*
X135135831Y-64752570D01*
X135135823Y-64752568D01*
X134979634Y-64721500D01*
X134979630Y-64721500D01*
X134820370Y-64721500D01*
X134820365Y-64721500D01*
X134664176Y-64752568D01*
X134664168Y-64752570D01*
X134517030Y-64813517D01*
X134384612Y-64901995D01*
X134384605Y-64902001D01*
X134272001Y-65014605D01*
X134271995Y-65014612D01*
X134183517Y-65147030D01*
X134122570Y-65294168D01*
X134122568Y-65294176D01*
X134091500Y-65450365D01*
X124998500Y-65450365D01*
X124998500Y-65300370D01*
X124967430Y-65144169D01*
X124906483Y-64997032D01*
X124898184Y-64984612D01*
X124818004Y-64864612D01*
X124817998Y-64864605D01*
X124705394Y-64752001D01*
X124705387Y-64751995D01*
X124572969Y-64663517D01*
X124440965Y-64608839D01*
X124425831Y-64602570D01*
X124425823Y-64602568D01*
X124269634Y-64571500D01*
X124269630Y-64571500D01*
X124110370Y-64571500D01*
X124110365Y-64571500D01*
X123954176Y-64602568D01*
X123954168Y-64602570D01*
X123807030Y-64663517D01*
X123674612Y-64751995D01*
X123674605Y-64752001D01*
X123562001Y-64864605D01*
X123561995Y-64864612D01*
X123473517Y-64997030D01*
X123412570Y-65144168D01*
X123412568Y-65144176D01*
X123381500Y-65300365D01*
X120820500Y-65300365D01*
X120820500Y-64500365D01*
X127971500Y-64500365D01*
X127971500Y-64659634D01*
X128002568Y-64815823D01*
X128002570Y-64815831D01*
X128063517Y-64962969D01*
X128151995Y-65095387D01*
X128152001Y-65095394D01*
X128264605Y-65207998D01*
X128264612Y-65208004D01*
X128397030Y-65296482D01*
X128397031Y-65296482D01*
X128397032Y-65296483D01*
X128544169Y-65357430D01*
X128700365Y-65388499D01*
X128700369Y-65388500D01*
X128700370Y-65388500D01*
X128859631Y-65388500D01*
X128859632Y-65388499D01*
X129015831Y-65357430D01*
X129162968Y-65296483D01*
X129295389Y-65208003D01*
X129408003Y-65095389D01*
X129496483Y-64962968D01*
X129557430Y-64815831D01*
X129588500Y-64659630D01*
X129588500Y-64500370D01*
X129557430Y-64344169D01*
X129496483Y-64197032D01*
X129485349Y-64180369D01*
X129485346Y-64180365D01*
X155029000Y-64180365D01*
X155029000Y-64339634D01*
X155060068Y-64495823D01*
X155060070Y-64495831D01*
X155121017Y-64642969D01*
X155209495Y-64775387D01*
X155209501Y-64775394D01*
X155322105Y-64887998D01*
X155322112Y-64888004D01*
X155454530Y-64976482D01*
X155454531Y-64976482D01*
X155454532Y-64976483D01*
X155601669Y-65037430D01*
X155757865Y-65068499D01*
X155757869Y-65068500D01*
X155757870Y-65068500D01*
X155917131Y-65068500D01*
X155917132Y-65068499D01*
X156073331Y-65037430D01*
X156220468Y-64976483D01*
X156352889Y-64888003D01*
X156465503Y-64775389D01*
X156553983Y-64642968D01*
X156614930Y-64495831D01*
X156646000Y-64339630D01*
X156646000Y-64180370D01*
X156614930Y-64024169D01*
X156607455Y-64006124D01*
X169882500Y-64006124D01*
X169882500Y-64233875D01*
X169882501Y-64233891D01*
X169912228Y-64459693D01*
X169971180Y-64679703D01*
X170058338Y-64890121D01*
X170058343Y-64890132D01*
X170172215Y-65087364D01*
X170172221Y-65087371D01*
X170227296Y-65159148D01*
X170885018Y-64501427D01*
X170888894Y-64510784D01*
X170979181Y-64645907D01*
X171094093Y-64760819D01*
X171229216Y-64851106D01*
X171238571Y-64854981D01*
X170580850Y-65512702D01*
X170580850Y-65512703D01*
X170652626Y-65567778D01*
X170849867Y-65681656D01*
X170849878Y-65681661D01*
X171060296Y-65768819D01*
X171280306Y-65827771D01*
X171506108Y-65857498D01*
X171506125Y-65857500D01*
X171733875Y-65857500D01*
X171733891Y-65857498D01*
X171959693Y-65827771D01*
X172179703Y-65768819D01*
X172390121Y-65681661D01*
X172390132Y-65681656D01*
X172587366Y-65567782D01*
X172587374Y-65567776D01*
X172659148Y-65512702D01*
X172001427Y-64854981D01*
X172010784Y-64851106D01*
X172145907Y-64760819D01*
X172260819Y-64645907D01*
X172351106Y-64510784D01*
X172354981Y-64501427D01*
X173012702Y-65159148D01*
X173067776Y-65087374D01*
X173067782Y-65087366D01*
X173181656Y-64890132D01*
X173181661Y-64890121D01*
X173268819Y-64679703D01*
X173327771Y-64459693D01*
X173357498Y-64233891D01*
X173357500Y-64233875D01*
X173357500Y-64006124D01*
X173357498Y-64006108D01*
X173327771Y-63780306D01*
X173268819Y-63560296D01*
X173181661Y-63349878D01*
X173181656Y-63349867D01*
X173067778Y-63152626D01*
X173012703Y-63080850D01*
X173012702Y-63080850D01*
X172354981Y-63738571D01*
X172351106Y-63729216D01*
X172260819Y-63594093D01*
X172145907Y-63479181D01*
X172010784Y-63388894D01*
X172001427Y-63385018D01*
X172659148Y-62727296D01*
X172659148Y-62727295D01*
X172587371Y-62672221D01*
X172587364Y-62672215D01*
X172390132Y-62558343D01*
X172390121Y-62558338D01*
X172179703Y-62471180D01*
X171959693Y-62412228D01*
X171733891Y-62382501D01*
X171733875Y-62382500D01*
X171506125Y-62382500D01*
X171506108Y-62382501D01*
X171280306Y-62412228D01*
X171060296Y-62471180D01*
X170849878Y-62558338D01*
X170849867Y-62558343D01*
X170652633Y-62672216D01*
X170652619Y-62672226D01*
X170580850Y-62727296D01*
X171238572Y-63385018D01*
X171229216Y-63388894D01*
X171094093Y-63479181D01*
X170979181Y-63594093D01*
X170888894Y-63729216D01*
X170885018Y-63738571D01*
X170227296Y-63080849D01*
X170172226Y-63152619D01*
X170172216Y-63152633D01*
X170058343Y-63349867D01*
X170058338Y-63349878D01*
X169971180Y-63560296D01*
X169912228Y-63780306D01*
X169882501Y-64006108D01*
X169882500Y-64006124D01*
X156607455Y-64006124D01*
X156553983Y-63877032D01*
X156504228Y-63802568D01*
X156465504Y-63744612D01*
X156465498Y-63744605D01*
X156352894Y-63632001D01*
X156352887Y-63631995D01*
X156220469Y-63543517D01*
X156073331Y-63482570D01*
X156073323Y-63482568D01*
X155917134Y-63451500D01*
X155917130Y-63451500D01*
X155757870Y-63451500D01*
X155757865Y-63451500D01*
X155601676Y-63482568D01*
X155601668Y-63482570D01*
X155454530Y-63543517D01*
X155322112Y-63631995D01*
X155322105Y-63632001D01*
X155209501Y-63744605D01*
X155209495Y-63744612D01*
X155121017Y-63877030D01*
X155060070Y-64024168D01*
X155060068Y-64024176D01*
X155029000Y-64180365D01*
X129485346Y-64180365D01*
X129408004Y-64064612D01*
X129407998Y-64064605D01*
X129295394Y-63952001D01*
X129295387Y-63951995D01*
X129162969Y-63863517D01*
X129015831Y-63802570D01*
X129015823Y-63802568D01*
X128859634Y-63771500D01*
X128859630Y-63771500D01*
X128700370Y-63771500D01*
X128700365Y-63771500D01*
X128544176Y-63802568D01*
X128544168Y-63802570D01*
X128397030Y-63863517D01*
X128264612Y-63951995D01*
X128264605Y-63952001D01*
X128152001Y-64064605D01*
X128151995Y-64064612D01*
X128063517Y-64197030D01*
X128002570Y-64344168D01*
X128002568Y-64344176D01*
X127971500Y-64500365D01*
X120820500Y-64500365D01*
X120820500Y-62200365D01*
X128141500Y-62200365D01*
X128141500Y-62359634D01*
X128172568Y-62515823D01*
X128172570Y-62515831D01*
X128233517Y-62662969D01*
X128321995Y-62795387D01*
X128322001Y-62795394D01*
X128434605Y-62907998D01*
X128434612Y-62908004D01*
X128567030Y-62996482D01*
X128567031Y-62996482D01*
X128567032Y-62996483D01*
X128714169Y-63057430D01*
X128870365Y-63088499D01*
X128870369Y-63088500D01*
X128870370Y-63088500D01*
X129029631Y-63088500D01*
X129029632Y-63088499D01*
X129185831Y-63057430D01*
X129332968Y-62996483D01*
X129465389Y-62908003D01*
X129578003Y-62795389D01*
X129666483Y-62662968D01*
X129727430Y-62515831D01*
X129758500Y-62359630D01*
X129758500Y-62200370D01*
X129742209Y-62118468D01*
X129742209Y-62118465D01*
X129738609Y-62100365D01*
X143671500Y-62100365D01*
X143671500Y-62259634D01*
X143702568Y-62415823D01*
X143702570Y-62415831D01*
X143763517Y-62562969D01*
X143851995Y-62695387D01*
X143852001Y-62695394D01*
X143964605Y-62807998D01*
X143964612Y-62808004D01*
X144097030Y-62896482D01*
X144102406Y-62899356D01*
X144101042Y-62901906D01*
X144145846Y-62937857D01*
X144158697Y-62961333D01*
X144163515Y-62972964D01*
X144163520Y-62972974D01*
X144251998Y-63105391D01*
X144364605Y-63217998D01*
X144364612Y-63218004D01*
X144497030Y-63306482D01*
X144497031Y-63306482D01*
X144497032Y-63306483D01*
X144644169Y-63367430D01*
X144800365Y-63398499D01*
X144800369Y-63398500D01*
X144800370Y-63398500D01*
X144959631Y-63398500D01*
X144959632Y-63398499D01*
X145115831Y-63367430D01*
X145262968Y-63306483D01*
X145395389Y-63218003D01*
X145508003Y-63105389D01*
X145596483Y-62972968D01*
X145657430Y-62825831D01*
X145688500Y-62669630D01*
X145688500Y-62510370D01*
X145657430Y-62354169D01*
X145596483Y-62207032D01*
X145594152Y-62201404D01*
X145596577Y-62200399D01*
X145584629Y-62143182D01*
X145593671Y-62105612D01*
X145647430Y-61975831D01*
X145678500Y-61819630D01*
X145678500Y-61660370D01*
X145670543Y-61620365D01*
X148001500Y-61620365D01*
X148001500Y-61779634D01*
X148032568Y-61935823D01*
X148032570Y-61935831D01*
X148093517Y-62082969D01*
X148181995Y-62215387D01*
X148182001Y-62215394D01*
X148294609Y-62328002D01*
X148304095Y-62334340D01*
X148334652Y-62354757D01*
X148379457Y-62408366D01*
X148380323Y-62410406D01*
X148443517Y-62562969D01*
X148531995Y-62695387D01*
X148532001Y-62695394D01*
X148644605Y-62807998D01*
X148644612Y-62808004D01*
X148777030Y-62896482D01*
X148777031Y-62896482D01*
X148777032Y-62896483D01*
X148924169Y-62957430D01*
X149080365Y-62988499D01*
X149080369Y-62988500D01*
X149080370Y-62988500D01*
X149239631Y-62988500D01*
X149239632Y-62988499D01*
X149395831Y-62957430D01*
X149542968Y-62896483D01*
X149675389Y-62808003D01*
X149788003Y-62695389D01*
X149876483Y-62562968D01*
X149937430Y-62415831D01*
X149968500Y-62259630D01*
X149968500Y-62100370D01*
X149937430Y-61944169D01*
X149876483Y-61797032D01*
X149864856Y-61779630D01*
X149788002Y-61664609D01*
X149787357Y-61663823D01*
X149787148Y-61663331D01*
X149784619Y-61659546D01*
X149785337Y-61659066D01*
X149760051Y-61599510D01*
X149768658Y-61537716D01*
X149782554Y-61504169D01*
X149827430Y-61395831D01*
X149858500Y-61239630D01*
X149858500Y-61080370D01*
X149827430Y-60924169D01*
X149766483Y-60777032D01*
X149760067Y-60767430D01*
X149678004Y-60644612D01*
X149677998Y-60644605D01*
X149565394Y-60532001D01*
X149565387Y-60531995D01*
X149432969Y-60443517D01*
X149285831Y-60382570D01*
X149285823Y-60382568D01*
X149129634Y-60351500D01*
X149129630Y-60351500D01*
X148970370Y-60351500D01*
X148970365Y-60351500D01*
X148814176Y-60382568D01*
X148814168Y-60382570D01*
X148667030Y-60443517D01*
X148534612Y-60531995D01*
X148534605Y-60532001D01*
X148422001Y-60644605D01*
X148421995Y-60644612D01*
X148333517Y-60777030D01*
X148272570Y-60924168D01*
X148272568Y-60924176D01*
X148241500Y-61080365D01*
X148240961Y-61085842D01*
X148214799Y-61150629D01*
X148205239Y-61161368D01*
X148182001Y-61184605D01*
X148181995Y-61184612D01*
X148093517Y-61317030D01*
X148032570Y-61464168D01*
X148032568Y-61464176D01*
X148001500Y-61620365D01*
X145670543Y-61620365D01*
X145647430Y-61504169D01*
X145586483Y-61357032D01*
X145508038Y-61239630D01*
X145498004Y-61224612D01*
X145497998Y-61224605D01*
X145385394Y-61112001D01*
X145385387Y-61111995D01*
X145252969Y-61023517D01*
X145105831Y-60962570D01*
X145105823Y-60962568D01*
X144949634Y-60931500D01*
X144949630Y-60931500D01*
X144790370Y-60931500D01*
X144790365Y-60931500D01*
X144634176Y-60962568D01*
X144634168Y-60962570D01*
X144487030Y-61023517D01*
X144354612Y-61111995D01*
X144354605Y-61112001D01*
X144242001Y-61224605D01*
X144241995Y-61224612D01*
X144153517Y-61357030D01*
X144153514Y-61357035D01*
X144128538Y-61417332D01*
X144084697Y-61471735D01*
X144082869Y-61472980D01*
X143964608Y-61551998D01*
X143852001Y-61664605D01*
X143851995Y-61664612D01*
X143763517Y-61797030D01*
X143702570Y-61944168D01*
X143702568Y-61944176D01*
X143671500Y-62100365D01*
X129738609Y-62100365D01*
X129727431Y-62044174D01*
X129727430Y-62044173D01*
X129727430Y-62044169D01*
X129666483Y-61897032D01*
X129599664Y-61797030D01*
X129578004Y-61764612D01*
X129577998Y-61764605D01*
X129465394Y-61652001D01*
X129465387Y-61651995D01*
X129332969Y-61563517D01*
X129185831Y-61502570D01*
X129185823Y-61502568D01*
X129029634Y-61471500D01*
X129029630Y-61471500D01*
X128870370Y-61471500D01*
X128870365Y-61471500D01*
X128714176Y-61502568D01*
X128714168Y-61502570D01*
X128567030Y-61563517D01*
X128434612Y-61651995D01*
X128434605Y-61652001D01*
X128322001Y-61764605D01*
X128321995Y-61764612D01*
X128233517Y-61897030D01*
X128172570Y-62044168D01*
X128172568Y-62044176D01*
X128141500Y-62200365D01*
X120820500Y-62200365D01*
X120820500Y-61199108D01*
X120786392Y-61071814D01*
X120720500Y-60957686D01*
X120627314Y-60864500D01*
X120570250Y-60831554D01*
X120513187Y-60798608D01*
X120449539Y-60781554D01*
X120385892Y-60764500D01*
X120385891Y-60764500D01*
X106339500Y-60764500D01*
X106272461Y-60744815D01*
X106226706Y-60692011D01*
X106215500Y-60640500D01*
X106215500Y-59910365D01*
X122331500Y-59910365D01*
X122331500Y-60069634D01*
X122362568Y-60225823D01*
X122362570Y-60225831D01*
X122423517Y-60372969D01*
X122511995Y-60505387D01*
X122512001Y-60505394D01*
X122624605Y-60617998D01*
X122624612Y-60618004D01*
X122757030Y-60706482D01*
X122757031Y-60706482D01*
X122757032Y-60706483D01*
X122904169Y-60767430D01*
X123060365Y-60798499D01*
X123060369Y-60798500D01*
X123060370Y-60798500D01*
X123219631Y-60798500D01*
X123219632Y-60798499D01*
X123375831Y-60767430D01*
X123522968Y-60706483D01*
X123655389Y-60618003D01*
X123768003Y-60505389D01*
X123856483Y-60372968D01*
X123917430Y-60225831D01*
X123948500Y-60069630D01*
X123948500Y-59910370D01*
X123917430Y-59754169D01*
X123866148Y-59630365D01*
X136221500Y-59630365D01*
X136221500Y-59789634D01*
X136252568Y-59945823D01*
X136252570Y-59945831D01*
X136313517Y-60092969D01*
X136401995Y-60225387D01*
X136402001Y-60225394D01*
X136514605Y-60337998D01*
X136514612Y-60338004D01*
X136647030Y-60426482D01*
X136647031Y-60426482D01*
X136647032Y-60426483D01*
X136794169Y-60487430D01*
X136950365Y-60518499D01*
X136950369Y-60518500D01*
X136950370Y-60518500D01*
X137109631Y-60518500D01*
X137109632Y-60518499D01*
X137265831Y-60487430D01*
X137412968Y-60426483D01*
X137545389Y-60338003D01*
X137658003Y-60225389D01*
X137746483Y-60092968D01*
X137807430Y-59945831D01*
X137838500Y-59789630D01*
X137838500Y-59630370D01*
X137807430Y-59474169D01*
X137746483Y-59327032D01*
X137670001Y-59212568D01*
X137658004Y-59194612D01*
X137657998Y-59194605D01*
X137545394Y-59082001D01*
X137545387Y-59081995D01*
X137412969Y-58993517D01*
X137265831Y-58932570D01*
X137265823Y-58932568D01*
X137109634Y-58901500D01*
X137109630Y-58901500D01*
X136950370Y-58901500D01*
X136950365Y-58901500D01*
X136794176Y-58932568D01*
X136794168Y-58932570D01*
X136647030Y-58993517D01*
X136514612Y-59081995D01*
X136514605Y-59082001D01*
X136402001Y-59194605D01*
X136401995Y-59194612D01*
X136313517Y-59327030D01*
X136252570Y-59474168D01*
X136252568Y-59474176D01*
X136221500Y-59630365D01*
X123866148Y-59630365D01*
X123856483Y-59607032D01*
X123856482Y-59607030D01*
X123856481Y-59607028D01*
X123768004Y-59474612D01*
X123767998Y-59474605D01*
X123655394Y-59362001D01*
X123655387Y-59361995D01*
X123522969Y-59273517D01*
X123375831Y-59212570D01*
X123375823Y-59212568D01*
X123219634Y-59181500D01*
X123219630Y-59181500D01*
X123060370Y-59181500D01*
X123060365Y-59181500D01*
X122904176Y-59212568D01*
X122904168Y-59212570D01*
X122757030Y-59273517D01*
X122624612Y-59361995D01*
X122624605Y-59362001D01*
X122512001Y-59474605D01*
X122511995Y-59474612D01*
X122423517Y-59607030D01*
X122362570Y-59754168D01*
X122362568Y-59754176D01*
X122331500Y-59910365D01*
X106215500Y-59910365D01*
X106215500Y-54290948D01*
X121501500Y-54290948D01*
X121501500Y-54489051D01*
X121532487Y-54684700D01*
X121593703Y-54873101D01*
X121636403Y-54956903D01*
X121683634Y-55049598D01*
X121800070Y-55209858D01*
X121940142Y-55349930D01*
X122100402Y-55466366D01*
X122183790Y-55508854D01*
X122276898Y-55556296D01*
X122276900Y-55556296D01*
X122276903Y-55556298D01*
X122377888Y-55589110D01*
X122465299Y-55617512D01*
X122660949Y-55648500D01*
X122660954Y-55648500D01*
X122859051Y-55648500D01*
X123054700Y-55617512D01*
X123243097Y-55556298D01*
X123419598Y-55466366D01*
X123579858Y-55349930D01*
X123719930Y-55209858D01*
X123836366Y-55049598D01*
X123926298Y-54873097D01*
X123987512Y-54684700D01*
X123997737Y-54620140D01*
X124018500Y-54489051D01*
X124018500Y-54300948D01*
X124566500Y-54300948D01*
X124566500Y-54499051D01*
X124597487Y-54694700D01*
X124658703Y-54883101D01*
X124738648Y-55040000D01*
X124748634Y-55059598D01*
X124865070Y-55219858D01*
X125005142Y-55359930D01*
X125165402Y-55476366D01*
X125248790Y-55518854D01*
X125341898Y-55566296D01*
X125341900Y-55566296D01*
X125341903Y-55566298D01*
X125442888Y-55599110D01*
X125530299Y-55627512D01*
X125725949Y-55658500D01*
X125725954Y-55658500D01*
X125924051Y-55658500D01*
X126119700Y-55627512D01*
X126308097Y-55566298D01*
X126484598Y-55476366D01*
X126644858Y-55359930D01*
X126784930Y-55219858D01*
X126901366Y-55059598D01*
X126991298Y-54883097D01*
X127052512Y-54694700D01*
X127064321Y-54620139D01*
X127083500Y-54499051D01*
X127083500Y-54300947D01*
X127083499Y-54300946D01*
X127081915Y-54290948D01*
X127721500Y-54290948D01*
X127721500Y-54489051D01*
X127752487Y-54684700D01*
X127813703Y-54873101D01*
X127856403Y-54956903D01*
X127903634Y-55049598D01*
X128020070Y-55209858D01*
X128160142Y-55349930D01*
X128320402Y-55466366D01*
X128403790Y-55508854D01*
X128496898Y-55556296D01*
X128496900Y-55556296D01*
X128496903Y-55556298D01*
X128597888Y-55589110D01*
X128685299Y-55617512D01*
X128880949Y-55648500D01*
X128880954Y-55648500D01*
X129079051Y-55648500D01*
X129274700Y-55617512D01*
X129463097Y-55556298D01*
X129639598Y-55466366D01*
X129799858Y-55349930D01*
X129808840Y-55340948D01*
X157321500Y-55340948D01*
X157321500Y-55539051D01*
X157352487Y-55734700D01*
X157413703Y-55923101D01*
X157503634Y-56099598D01*
X157620070Y-56259858D01*
X157760142Y-56399930D01*
X157920402Y-56516366D01*
X158003790Y-56558854D01*
X158096898Y-56606296D01*
X158096900Y-56606296D01*
X158096903Y-56606298D01*
X158197888Y-56639110D01*
X158285299Y-56667512D01*
X158480949Y-56698500D01*
X158480954Y-56698500D01*
X158679051Y-56698500D01*
X158874700Y-56667512D01*
X159063097Y-56606298D01*
X159239598Y-56516366D01*
X159399858Y-56399930D01*
X159539930Y-56259858D01*
X159656366Y-56099598D01*
X159746298Y-55923097D01*
X159807512Y-55734700D01*
X159819581Y-55658500D01*
X159838500Y-55539051D01*
X159838500Y-55340948D01*
X159807512Y-55145299D01*
X159762971Y-55008217D01*
X159746298Y-54956903D01*
X159746296Y-54956900D01*
X159746296Y-54956898D01*
X159656365Y-54780401D01*
X159617393Y-54726761D01*
X159539930Y-54620142D01*
X159399858Y-54480070D01*
X159239598Y-54363634D01*
X159126050Y-54305778D01*
X159063101Y-54273703D01*
X158874700Y-54212487D01*
X158679051Y-54181500D01*
X158679046Y-54181500D01*
X158480954Y-54181500D01*
X158480949Y-54181500D01*
X158285299Y-54212487D01*
X158096898Y-54273703D01*
X157920401Y-54363634D01*
X157878900Y-54393787D01*
X157760142Y-54480070D01*
X157760140Y-54480072D01*
X157760139Y-54480072D01*
X157620072Y-54620139D01*
X157620072Y-54620140D01*
X157620070Y-54620142D01*
X157573166Y-54684700D01*
X157503634Y-54780401D01*
X157413703Y-54956898D01*
X157352487Y-55145299D01*
X157321500Y-55340948D01*
X129808840Y-55340948D01*
X129939930Y-55209858D01*
X130056366Y-55049598D01*
X130146298Y-54873097D01*
X130207512Y-54684700D01*
X130217737Y-54620140D01*
X130238500Y-54489051D01*
X130238500Y-54290948D01*
X130207512Y-54095299D01*
X130149547Y-53916903D01*
X130146298Y-53906903D01*
X130146296Y-53906900D01*
X130146296Y-53906898D01*
X130061461Y-53740402D01*
X130056366Y-53730402D01*
X129939930Y-53570142D01*
X129799858Y-53430070D01*
X129639598Y-53313634D01*
X129463101Y-53223703D01*
X129274700Y-53162487D01*
X129079051Y-53131500D01*
X129079046Y-53131500D01*
X128880954Y-53131500D01*
X128880949Y-53131500D01*
X128685299Y-53162487D01*
X128496898Y-53223703D01*
X128320401Y-53313634D01*
X128284112Y-53340000D01*
X128160142Y-53430070D01*
X128160140Y-53430072D01*
X128160139Y-53430072D01*
X128020072Y-53570139D01*
X128020072Y-53570140D01*
X128020070Y-53570142D01*
X128012807Y-53580139D01*
X127903634Y-53730401D01*
X127813703Y-53906898D01*
X127752487Y-54095299D01*
X127721500Y-54290948D01*
X127081915Y-54290948D01*
X127052512Y-54105299D01*
X126991296Y-53916898D01*
X126901365Y-53740401D01*
X126784930Y-53580142D01*
X126644858Y-53440070D01*
X126484598Y-53323634D01*
X126464972Y-53313634D01*
X126308101Y-53233703D01*
X126119700Y-53172487D01*
X125924051Y-53141500D01*
X125924046Y-53141500D01*
X125725954Y-53141500D01*
X125725949Y-53141500D01*
X125530299Y-53172487D01*
X125341898Y-53233703D01*
X125165401Y-53323634D01*
X125073967Y-53390065D01*
X125005142Y-53440070D01*
X125005140Y-53440072D01*
X125005139Y-53440072D01*
X124865072Y-53580139D01*
X124865072Y-53580140D01*
X124865070Y-53580142D01*
X124815065Y-53648967D01*
X124748634Y-53740401D01*
X124658703Y-53916898D01*
X124597487Y-54105299D01*
X124566500Y-54300948D01*
X124018500Y-54300948D01*
X124018500Y-54290948D01*
X123987512Y-54095299D01*
X123929547Y-53916903D01*
X123926298Y-53906903D01*
X123926296Y-53906900D01*
X123926296Y-53906898D01*
X123841461Y-53740402D01*
X123836366Y-53730402D01*
X123719930Y-53570142D01*
X123579858Y-53430070D01*
X123419598Y-53313634D01*
X123243101Y-53223703D01*
X123054700Y-53162487D01*
X122859051Y-53131500D01*
X122859046Y-53131500D01*
X122660954Y-53131500D01*
X122660949Y-53131500D01*
X122465299Y-53162487D01*
X122276898Y-53223703D01*
X122100401Y-53313634D01*
X122064112Y-53340000D01*
X121940142Y-53430070D01*
X121940140Y-53430072D01*
X121940139Y-53430072D01*
X121800072Y-53570139D01*
X121800072Y-53570140D01*
X121800070Y-53570142D01*
X121792807Y-53580139D01*
X121683634Y-53730401D01*
X121593703Y-53906898D01*
X121532487Y-54095299D01*
X121501500Y-54290948D01*
X106215500Y-54290948D01*
X106215500Y-46014500D01*
X106235185Y-45947461D01*
X106287989Y-45901706D01*
X106339500Y-45890500D01*
X112355854Y-45890500D01*
X112422893Y-45910185D01*
G37*
%TD.AperFunction*%
%TA.AperFunction,Conductor*%
G36*
X175099075Y-97902007D02*
G01*
X175065000Y-98029174D01*
X175065000Y-98160826D01*
X175099075Y-98287993D01*
X175131988Y-98345000D01*
X173458012Y-98345000D01*
X173490925Y-98287993D01*
X173525000Y-98160826D01*
X173525000Y-98029174D01*
X173490925Y-97902007D01*
X173458012Y-97845000D01*
X175131988Y-97845000D01*
X175099075Y-97902007D01*
G37*
%TD.AperFunction*%
%TA.AperFunction,Conductor*%
G36*
X119935000Y-97661988D02*
G01*
X119877993Y-97629075D01*
X119750826Y-97595000D01*
X119619174Y-97595000D01*
X119492007Y-97629075D01*
X119435000Y-97661988D01*
X119435000Y-95988012D01*
X119492007Y-96020925D01*
X119619174Y-96055000D01*
X119750826Y-96055000D01*
X119877993Y-96020925D01*
X119935000Y-95988012D01*
X119935000Y-97661988D01*
G37*
%TD.AperFunction*%
%TA.AperFunction,Conductor*%
G36*
X173275000Y-97661988D02*
G01*
X173217993Y-97629075D01*
X173090826Y-97595000D01*
X172959174Y-97595000D01*
X172832007Y-97629075D01*
X172775000Y-97661988D01*
X172775000Y-95988012D01*
X172832007Y-96020925D01*
X172959174Y-96055000D01*
X173090826Y-96055000D01*
X173217993Y-96020925D01*
X173275000Y-95988012D01*
X173275000Y-97661988D01*
G37*
%TD.AperFunction*%
%TA.AperFunction,Conductor*%
G36*
X175815000Y-97661988D02*
G01*
X175757993Y-97629075D01*
X175630826Y-97595000D01*
X175499174Y-97595000D01*
X175372007Y-97629075D01*
X175315000Y-97661988D01*
X175315000Y-95988012D01*
X175372007Y-96020925D01*
X175499174Y-96055000D01*
X175630826Y-96055000D01*
X175757993Y-96020925D01*
X175815000Y-95988012D01*
X175815000Y-97661988D01*
G37*
%TD.AperFunction*%
%TA.AperFunction,Conductor*%
G36*
X175099075Y-95362007D02*
G01*
X175065000Y-95489174D01*
X175065000Y-95620826D01*
X175099075Y-95747993D01*
X175131988Y-95805000D01*
X173458012Y-95805000D01*
X173490925Y-95747993D01*
X173525000Y-95620826D01*
X173525000Y-95489174D01*
X173490925Y-95362007D01*
X173458012Y-95305000D01*
X175131988Y-95305000D01*
X175099075Y-95362007D01*
G37*
%TD.AperFunction*%
%TA.AperFunction,Conductor*%
G36*
X119935000Y-49401988D02*
G01*
X119877993Y-49369075D01*
X119750826Y-49335000D01*
X119619174Y-49335000D01*
X119492007Y-49369075D01*
X119435000Y-49401988D01*
X119435000Y-47728012D01*
X119492007Y-47760925D01*
X119619174Y-47795000D01*
X119750826Y-47795000D01*
X119877993Y-47760925D01*
X119935000Y-47728012D01*
X119935000Y-49401988D01*
G37*
%TD.AperFunction*%
%TD*%
M02*
