M48
; DRILL file KiCad 10.0.5 date 2026-08-18T06:29:21
; FORMAT={-:-/ absolute / metric / decimal}
; #@! TF.CreationDate,2026-08-18T06:29:21-06:00
; #@! TF.GenerationSoftware,Kicad,Pcbnew,10.0.5
; #@! TF.FileFunction,Plated,1,4,PTH
FMAT,2
METRIC
; #@! TA.AperFunction,Plated,PTH,ViaDrill
T1C0.300
; #@! TA.AperFunction,Plated,PTH,ComponentDrill
T2C0.300
; #@! TA.AperFunction,Plated,PTH,ComponentDrill
T3C0.700
; #@! TA.AperFunction,Plated,PTH,ComponentDrill
T4C0.840
; #@! TA.AperFunction,Plated,PTH,ComponentDrill
T5C1.000
; #@! TA.AperFunction,Plated,PTH,ComponentDrill
T6C1.500
; #@! TA.AperFunction,Plated,PTH,ComponentDrill
T7C1.650
; #@! TA.AperFunction,Plated,PTH,ComponentDrill
T8C1.700
; #@! TA.AperFunction,Plated,PTH,ComponentDrill
T9C3.200
%
G90
G05
T1
X101.04Y-79.93
X101.04Y-82.47
X101.04Y-85.01
X101.04Y-87.55
X101.04Y-90.09
X101.04Y-92.63
X101.04Y-95.17
X103.58Y-79.93
X103.58Y-82.47
X103.58Y-85.01
X103.58Y-87.55
X103.58Y-90.09
X103.58Y-92.63
X103.58Y-95.17
X103.58Y-97.71
X106.12Y-79.93
X106.12Y-82.47
X106.12Y-85.01
X106.12Y-87.55
X106.12Y-90.09
X106.12Y-92.63
X106.12Y-95.17
X106.12Y-97.71
X108.66Y-79.93
X108.66Y-82.47
X108.66Y-85.01
X108.66Y-87.55
X108.66Y-90.09
X108.66Y-92.63
X108.66Y-95.17
X108.66Y-97.71
X111.2Y-79.93
X111.2Y-82.47
X111.2Y-92.63
X111.2Y-95.17
X111.2Y-97.71
X111.242Y-84.788
X111.384Y-83.947
X111.671Y-83.067
X112.091Y-82.241
X112.632Y-81.49
X113.219Y-80.873
X113.282Y-84.58
X113.443Y-84.002
X113.688Y-83.454
X113.74Y-79.93
X113.74Y-85.01
X113.74Y-92.63
X114.047Y-82.904
X114.587Y-79.745
X114.627Y-82.281
X115.25Y-81.701
X115.851Y-81.315
X116.28Y-82.47
X116.28Y-85.01
X116.28Y-87.55
X116.28Y-90.09
X116.28Y-92.63
X116.51Y-81.042
X117.208Y-80.89
X118.82Y-82.47
X118.82Y-85.01
X118.82Y-87.55
X118.82Y-92.63
X119.79Y-80.84
X121.32Y-57.56
X121.32Y-59.06
X121.32Y-60.56
X121.32Y-63.23
X121.32Y-64.73
X121.32Y-66.23
X121.32Y-69.065
X121.32Y-70.565
X121.32Y-72.065
X121.32Y-74.9
X121.32Y-76.4
X121.32Y-77.9
X121.32Y-80.57
X121.32Y-82.07
X121.32Y-83.57
X121.36Y-85.01
X121.36Y-87.55
X121.36Y-92.63
X122.121Y-91.575
X122.54Y-89.41
X122.82Y-57.56
X122.82Y-83.57
X122.843Y-91.413
X123.133Y-89.081
X123.14Y-59.99
X123.22Y-67.8
X123.622Y-88.651
X123.741Y-91.04
X123.82Y-71.41
X123.83Y-69.89
X123.83Y-70.71
X123.9Y-85.01
X123.9Y-87.55
X124.03Y-77.04
X124.052Y-88.162
X124.19Y-65.38
X124.225Y-70.3
X124.225Y-71.806
X124.31Y-82.07
X124.32Y-57.56
X124.32Y-83.57
X124.474Y-87.312
X124.551Y-90.501
X124.597Y-86.7
X124.61Y-85.136
X124.61Y-85.918
X125.029Y-90.058
X125.23Y-75.29
X125.32Y-69.9
X125.472Y-89.58
X125.49Y-72.124
X126.012Y-88.77
X126.16Y-71.8
X126.17Y-69.89
X126.384Y-87.871
X126.44Y-90.09
X126.575Y-86.917
X126.6Y-85.136
X126.6Y-85.918
X126.99Y-57.56
X126.99Y-83.57
X127.0Y-80.47
X127.4Y-81.575
X128.49Y-57.56
X128.49Y-83.57
X128.58Y-85.58
X128.78Y-64.58
X128.87Y-81.565
X128.95Y-62.28
X129.315Y-77.78
X129.4Y-65.94
X129.4Y-67.32
X129.41Y-68.25
X129.42Y-80.01
X129.99Y-57.56
X129.99Y-83.57
X130.22Y-65.94
X130.91Y-65.94
X130.988Y-81.204
X131.242Y-79.68
X131.653Y-68.203
X131.73Y-65.94
X131.73Y-67.29
X131.8Y-85.63
X131.86Y-77.17
X132.258Y-81.204
X132.825Y-57.56
X132.825Y-83.57
X133.34Y-80.7
X133.75Y-78.775
X133.82Y-84.81
X134.15Y-80.7
X134.16Y-78.39
X134.325Y-57.56
X134.325Y-83.57
X134.52Y-77.92
X134.86Y-78.4
X134.86Y-80.71
X134.9Y-65.53
X134.9Y-67.84
X135.285Y-78.775
X135.31Y-88.2
X135.32Y-84.79
X135.67Y-80.7
X135.77Y-67.83
X135.78Y-65.52
X135.825Y-57.56
X135.825Y-83.57
X136.302Y-71.312
X136.33Y-73.88
X136.82Y-84.82
X136.89Y-75.945
X136.96Y-69.44
X137.03Y-59.71
X137.14Y-80.81
X137.16Y-73.87
X137.2Y-71.33
X137.22Y-65.53
X137.22Y-67.02
X137.22Y-67.84
X137.23Y-66.34
X137.79Y-75.945
X137.85Y-69.42
X137.87Y-85.63
X138.38Y-59.34
X138.62Y-71.315
X138.63Y-70.51
X138.64Y-73.87
X138.64Y-74.69
X138.66Y-57.56
X138.66Y-83.57
X138.85Y-59.87
X139.21Y-75.34
X139.22Y-75.945
X139.28Y-69.02
X139.28Y-69.84
X139.38Y-59.34
X139.49Y-81.12
X139.84Y-88.42
X140.16Y-57.56
X140.16Y-83.57
X140.32Y-85.63
X141.62Y-71.49
X141.62Y-72.29
X141.63Y-72.97
X141.63Y-73.78
X141.66Y-57.56
X141.66Y-83.57
X141.86Y-81.65
X142.08Y-88.4
X142.87Y-92.32
X143.77Y-81.96
X143.99Y-60.39
X144.33Y-57.56
X144.33Y-83.57
X144.396Y-76.354
X144.48Y-60.03
X144.48Y-62.18
X144.87Y-61.74
X144.88Y-62.59
X144.91Y-60.38
X144.94Y-92.15
X145.685Y-88.205
X145.83Y-57.56
X145.83Y-83.57
X145.92Y-80.24
X147.33Y-57.56
X147.33Y-59.06
X147.33Y-64.73
X147.33Y-66.23
X147.33Y-69.065
X147.33Y-70.565
X147.33Y-76.4
X147.33Y-77.9
X147.33Y-80.57
X147.33Y-82.07
X147.33Y-83.57
X148.81Y-61.7
X148.95Y-73.49
X149.05Y-61.16
X149.16Y-62.18
X149.19Y-72.95
X149.29Y-65.07
X149.3Y-73.97
X149.3Y-76.82
X149.5Y-86.54
X149.52Y-88.46
X150.09Y-65.08
X150.11Y-76.81
X150.8Y-65.07
X150.82Y-76.8
X151.6Y-65.08
X151.63Y-76.8
X152.45Y-86.6
X152.52Y-65.5
X153.27Y-70.04
X153.27Y-70.85
X153.28Y-58.33
X153.28Y-59.14
X153.53Y-77.29
X153.53Y-78.55
X153.54Y-65.55
X153.54Y-67.49
X153.54Y-68.73
X153.54Y-79.22
X153.54Y-80.48
X153.55Y-66.79
X154.12Y-71.32
X154.15Y-59.79
X154.93Y-71.32
X154.97Y-59.79
X155.814Y-75.993
X155.827Y-77.923
X155.834Y-79.853
X155.835Y-68.11
X155.838Y-64.26
X155.838Y-66.18
X156.43Y-86.98
X156.73Y-89.78
X159.317Y-84.68
X160.07Y-87.55
X164.74Y-83.22
X164.78Y-81.055
X166.06Y-88.15
X166.25Y-90.28
X169.2Y-79.4
X169.35Y-81.75
X169.675Y-88.15
T2
X129.92Y-71.93
X129.92Y-72.743
X129.92Y-73.555
X129.92Y-74.368
X130.733Y-71.93
X130.733Y-72.743
X130.733Y-73.555
X130.733Y-74.368
X131.545Y-71.93
X131.545Y-72.743
X131.545Y-73.555
X131.545Y-74.368
X132.358Y-71.93
X132.358Y-72.743
X132.358Y-73.555
X132.358Y-74.368
X166.925Y-85.218
X166.935Y-83.608
X166.935Y-84.408
X167.575Y-84.418
X167.605Y-85.218
X167.635Y-83.638
X168.255Y-84.398
X168.265Y-85.218
X168.295Y-83.618
T3
X122.76Y-54.39
X125.825Y-54.4
X128.98Y-54.39
X158.58Y-55.44
T4
X118.179Y-89.364
X118.179Y-91.904
X119.449Y-90.634
X120.719Y-89.364
X120.719Y-91.904
T5
X119.685Y-47.295
X119.685Y-49.835
X119.685Y-95.555
X119.685Y-98.095
X122.225Y-47.295
X122.225Y-49.835
X122.225Y-95.555
X122.225Y-98.095
X124.765Y-47.295
X124.765Y-49.835
X124.765Y-95.555
X124.765Y-98.095
X127.305Y-47.295
X127.305Y-49.835
X127.305Y-95.555
X127.305Y-98.095
X129.845Y-47.295
X129.845Y-49.835
X129.845Y-95.555
X129.845Y-98.095
X132.385Y-47.295
X132.385Y-49.835
X132.385Y-95.555
X132.385Y-98.095
X134.925Y-47.295
X134.925Y-49.835
X134.925Y-95.555
X134.925Y-98.095
X137.465Y-47.295
X137.465Y-49.835
X137.465Y-95.555
X137.465Y-98.095
X140.005Y-47.295
X140.005Y-49.835
X140.005Y-95.555
X140.005Y-98.095
X142.545Y-47.295
X142.545Y-49.835
X142.545Y-95.555
X142.545Y-98.095
X145.085Y-47.295
X145.085Y-49.835
X145.085Y-95.555
X145.085Y-98.095
X147.625Y-47.295
X147.625Y-49.835
X147.625Y-95.555
X147.625Y-98.095
X150.165Y-47.295
X150.165Y-49.835
X150.165Y-95.555
X150.165Y-98.095
X152.705Y-47.295
X152.705Y-49.835
X152.705Y-95.555
X152.705Y-98.095
X155.245Y-47.295
X155.245Y-49.835
X155.245Y-95.555
X155.245Y-98.095
X157.785Y-47.295
X157.785Y-49.835
X157.785Y-95.555
X157.785Y-98.095
X160.325Y-47.295
X160.325Y-49.835
X160.325Y-95.555
X160.325Y-98.095
X162.865Y-47.295
X162.865Y-49.835
X162.865Y-95.555
X162.865Y-98.095
X165.405Y-47.295
X165.405Y-49.835
X165.405Y-95.555
X165.405Y-98.095
X167.945Y-47.295
X167.945Y-49.835
X167.945Y-95.555
X167.945Y-98.095
X170.485Y-47.295
X170.485Y-49.835
X170.485Y-95.555
X170.485Y-98.095
X173.025Y-47.295
X173.025Y-49.835
X173.025Y-95.555
X173.025Y-98.095
X175.565Y-47.295
X175.565Y-49.835
X175.565Y-95.555
X175.565Y-98.095
T6
X112.21Y-88.72
T7
X171.62Y-64.12
X171.62Y-69.12
T8
X109.67Y-86.18
X109.67Y-91.26
X114.75Y-86.18
X114.75Y-91.26
T9
X114.62Y-96.81
X114.63Y-48.53
X180.64Y-93.65
X180.68Y-51.74
M30
