%TF.GenerationSoftware,KiCad,Pcbnew,10.0.5*%
%TF.CreationDate,2026-08-18T06:52:16-06:00*%
%TF.ProjectId,L1IFCape,4c314946-4361-4706-952e-6b696361645f,C*%
%TF.SameCoordinates,Original*%
%TF.FileFunction,Paste,Top*%
%TF.FilePolarity,Positive*%
%FSLAX46Y46*%
G04 Gerber Fmt 4.6, Leading zero omitted, Abs format (unit mm)*
G04 Created by KiCad (PCBNEW 10.0.5) date 2026-08-18 06:52:16*
%MOMM*%
%LPD*%
G01*
G04 APERTURE LIST*
G04 Aperture macros list*
%AMRoundRect*
0 Rectangle with rounded corners*
0 $1 Rounding radius*
0 $2 $3 $4 $5 $6 $7 $8 $9 X,Y pos of 4 corners*
0 Add a 4 corners polygon primitive as box body*
4,1,4,$2,$3,$4,$5,$6,$7,$8,$9,$2,$3,0*
0 Add four circle primitives for the rounded corners*
1,1,$1+$1,$2,$3*
1,1,$1+$1,$4,$5*
1,1,$1+$1,$6,$7*
1,1,$1+$1,$8,$9*
0 Add four rect primitives between the rounded corners*
20,1,$1+$1,$2,$3,$4,$5,0*
20,1,$1+$1,$4,$5,$6,$7,0*
20,1,$1+$1,$6,$7,$8,$9,0*
20,1,$1+$1,$8,$9,$2,$3,0*%
%AMOutline5P*
0 Free polygon, 5 corners , with rotation*
0 The origin of the aperture is its center*
0 number of corners: always 5*
0 $1 to $10 corner X, Y*
0 $11 Rotation angle, in degrees counterclockwise*
0 create outline with 5 corners*
4,1,5,$1,$2,$3,$4,$5,$6,$7,$8,$9,$10,$1,$2,$11*%
%AMOutline6P*
0 Free polygon, 6 corners , with rotation*
0 The origin of the aperture is its center*
0 number of corners: always 6*
0 $1 to $12 corner X, Y*
0 $13 Rotation angle, in degrees counterclockwise*
0 create outline with 6 corners*
4,1,6,$1,$2,$3,$4,$5,$6,$7,$8,$9,$10,$11,$12,$1,$2,$13*%
%AMOutline7P*
0 Free polygon, 7 corners , with rotation*
0 The origin of the aperture is its center*
0 number of corners: always 7*
0 $1 to $14 corner X, Y*
0 $15 Rotation angle, in degrees counterclockwise*
0 create outline with 7 corners*
4,1,7,$1,$2,$3,$4,$5,$6,$7,$8,$9,$10,$11,$12,$13,$14,$1,$2,$15*%
%AMOutline8P*
0 Free polygon, 8 corners , with rotation*
0 The origin of the aperture is its center*
0 number of corners: always 8*
0 $1 to $16 corner X, Y*
0 $17 Rotation angle, in degrees counterclockwise*
0 create outline with 8 corners*
4,1,8,$1,$2,$3,$4,$5,$6,$7,$8,$9,$10,$11,$12,$13,$14,$15,$16,$1,$2,$17*%
%AMFreePoly0*
4,1,18,-0.550000,0.120000,-0.370000,0.300000,0.400000,0.300000,0.457403,0.288582,0.506066,0.256066,0.538582,0.207403,0.550000,0.150000,0.550000,-0.150000,0.538582,-0.207403,0.506066,-0.256066,0.457403,-0.288582,0.400000,-0.300000,-0.400000,-0.300000,-0.457403,-0.288582,-0.506066,-0.256066,-0.538582,-0.207403,-0.550000,-0.150000,-0.550000,0.120000,-0.550000,0.120000,$1*%
G04 Aperture macros list end*
%ADD10C,0.100000*%
%ADD11RoundRect,0.243750X-0.243750X-0.456250X0.243750X-0.456250X0.243750X0.456250X-0.243750X0.456250X0*%
%ADD12RoundRect,0.225000X0.225000X0.250000X-0.225000X0.250000X-0.225000X-0.250000X0.225000X-0.250000X0*%
%ADD13RoundRect,0.218750X0.218750X0.256250X-0.218750X0.256250X-0.218750X-0.256250X0.218750X-0.256250X0*%
%ADD14R,1.150000X1.050000*%
%ADD15R,0.700000X1.350000*%
%ADD16R,1.150000X0.700000*%
%ADD17R,0.250000X0.325000*%
%ADD18RoundRect,0.225000X0.250000X-0.225000X0.250000X0.225000X-0.250000X0.225000X-0.250000X-0.225000X0*%
%ADD19RoundRect,0.243750X0.243750X0.456250X-0.243750X0.456250X-0.243750X-0.456250X0.243750X-0.456250X0*%
%ADD20RoundRect,0.225000X-0.225000X-0.250000X0.225000X-0.250000X0.225000X0.250000X-0.225000X0.250000X0*%
%ADD21RoundRect,0.225000X-0.250000X0.225000X-0.250000X-0.225000X0.250000X-0.225000X0.250000X0.225000X0*%
%ADD22R,0.300000X0.950000*%
%ADD23R,0.950000X0.300000*%
%ADD24RoundRect,0.218750X0.256250X-0.218750X0.256250X0.218750X-0.256250X0.218750X-0.256250X-0.218750X0*%
%ADD25RoundRect,0.218750X-0.256250X0.218750X-0.256250X-0.218750X0.256250X-0.218750X0.256250X0.218750X0*%
%ADD26R,0.300000X0.500000*%
%ADD27RoundRect,0.100000X0.375000X0.100000X-0.375000X0.100000X-0.375000X-0.100000X0.375000X-0.100000X0*%
%ADD28Outline5P,-0.381000X0.060960X-0.289560X0.152400X0.381000X0.152400X0.381000X-0.152400X-0.381000X-0.152400X90.000000*%
%ADD29R,0.304800X0.762000*%
%ADD30R,2.311400X2.692400*%
%ADD31RoundRect,0.218750X-0.218750X-0.256250X0.218750X-0.256250X0.218750X0.256250X-0.218750X0.256250X0*%
%ADD32FreePoly0,0.000000*%
%ADD33RoundRect,0.150000X-0.400000X-0.150000X0.400000X-0.150000X0.400000X0.150000X-0.400000X0.150000X0*%
%ADD34R,1.000000X1.000000*%
%ADD35R,1.000000X2.570000*%
%ADD36R,1.000000X3.800000*%
%ADD37R,1.000000X3.470000*%
%ADD38R,2.570000X1.000000*%
%ADD39R,3.800000X1.000000*%
%ADD40R,3.470000X1.000000*%
%ADD41R,0.500000X0.300000*%
G04 APERTURE END LIST*
%TO.C,U2*%
D10*
X129514000Y-71524000D02*
X132764000Y-71524000D01*
X132764000Y-74774000D01*
X129514000Y-74774000D01*
X129514000Y-71524000D01*
G36*
X129514000Y-71524000D02*
G01*
X132764000Y-71524000D01*
X132764000Y-74774000D01*
X129514000Y-74774000D01*
X129514000Y-71524000D01*
G37*
%TD*%
D11*
%TO.C,FB1*%
X153962500Y-64260000D03*
X155837500Y-64260000D03*
%TD*%
D12*
%TO.C,C8*%
X152905000Y-58730000D03*
X151355000Y-58730000D03*
%TD*%
D13*
%TO.C,R19*%
X131357500Y-63100000D03*
X129782500Y-63100000D03*
%TD*%
D14*
%TO.C,X1*%
X142858600Y-59870400D03*
D15*
X141433600Y-60020400D03*
X140233600Y-60020400D03*
D14*
X138808600Y-59870400D03*
D16*
X138808600Y-61045400D03*
D14*
X138808600Y-62220400D03*
D15*
X140233600Y-62070400D03*
X141433600Y-62070400D03*
D14*
X142858600Y-62220400D03*
D16*
X142858600Y-61045400D03*
%TD*%
D17*
%TO.C,X2*%
X130869000Y-80475500D03*
X131369000Y-80763000D03*
X131869000Y-80763000D03*
X131869000Y-80188000D03*
X131369000Y-80188000D03*
%TD*%
D18*
%TO.C,C21*%
X133750000Y-80325000D03*
X133750000Y-78775000D03*
%TD*%
%TO.C,C13*%
X128870000Y-81565000D03*
X128870000Y-80015000D03*
%TD*%
D19*
%TO.C,C31*%
X155837500Y-66180000D03*
X153962500Y-66180000D03*
%TD*%
D20*
%TO.C,C22*%
X136715000Y-74280000D03*
X138265000Y-74280000D03*
%TD*%
D21*
%TO.C,C4*%
X151200000Y-63145000D03*
X151200000Y-64695000D03*
%TD*%
D12*
%TO.C,C9*%
X152888539Y-70443893D03*
X151338539Y-70443893D03*
%TD*%
D20*
%TO.C,C18*%
X139695000Y-73370000D03*
X141245000Y-73370000D03*
%TD*%
D22*
%TO.C,U2*%
X129639000Y-75489000D03*
X130139000Y-75489000D03*
X130639000Y-75489000D03*
X131139000Y-75489000D03*
X131639000Y-75489000D03*
X132139000Y-75489000D03*
X132639000Y-75489000D03*
D23*
X133479000Y-74649000D03*
X133479000Y-74149000D03*
X133479000Y-73649000D03*
X133479000Y-73149000D03*
X133479000Y-72649000D03*
X133479000Y-72149000D03*
X133479000Y-71649000D03*
D22*
X132639000Y-70809000D03*
X132139000Y-70809000D03*
X131639000Y-70809000D03*
X131139000Y-70809000D03*
X130639000Y-70809000D03*
X130139000Y-70809000D03*
X129639000Y-70809000D03*
D23*
X128799000Y-71649000D03*
X128799000Y-72149000D03*
X128799000Y-72649000D03*
X128799000Y-73149000D03*
X128799000Y-73649000D03*
X128799000Y-74149000D03*
X128799000Y-74649000D03*
%TD*%
D24*
%TO.C,R22*%
X137010000Y-62037500D03*
X137010000Y-60462500D03*
%TD*%
D13*
%TO.C,R18*%
X131357500Y-64620000D03*
X129782500Y-64620000D03*
%TD*%
D21*
%TO.C,C7*%
X149702539Y-74873893D03*
X149702539Y-76423893D03*
%TD*%
%TO.C,C10*%
X125350000Y-78305000D03*
X125350000Y-79855000D03*
%TD*%
D12*
%TO.C,C24*%
X136835000Y-65930000D03*
X135285000Y-65930000D03*
%TD*%
D24*
%TO.C,R8*%
X142840000Y-87195000D03*
X142840000Y-85620000D03*
%TD*%
D12*
%TO.C,C26*%
X125775000Y-71806000D03*
X124225000Y-71806000D03*
%TD*%
D21*
%TO.C,C11*%
X123170000Y-78310000D03*
X123170000Y-79860000D03*
%TD*%
D25*
%TO.C,R13*%
X150400000Y-87712500D03*
X150400000Y-89287500D03*
%TD*%
D12*
%TO.C,C39*%
X136835000Y-67430000D03*
X135285000Y-67430000D03*
%TD*%
D18*
%TO.C,C30*%
X149706539Y-73434893D03*
X149706539Y-71884893D03*
%TD*%
D13*
%TO.C,R15*%
X159135000Y-85630000D03*
X157560000Y-85630000D03*
%TD*%
D26*
%TO.C,D2*%
X125605000Y-85120000D03*
X126255000Y-85120000D03*
%TD*%
D12*
%TO.C,C38*%
X138893307Y-69430000D03*
X137343307Y-69430000D03*
%TD*%
D11*
%TO.C,FB2*%
X153939040Y-75992892D03*
X155814040Y-75992892D03*
%TD*%
D25*
%TO.C,R9*%
X144340000Y-85620000D03*
X144340000Y-87195000D03*
%TD*%
D27*
%TO.C,U4*%
X153200000Y-61562499D03*
X153200000Y-60912500D03*
X153200000Y-60262501D03*
X151000000Y-60262501D03*
X151000000Y-61562499D03*
%TD*%
D20*
%TO.C,C17*%
X139695000Y-71890000D03*
X141245000Y-71890000D03*
%TD*%
D13*
%TO.C,R11*%
X147597500Y-86270000D03*
X146022500Y-86270000D03*
%TD*%
D28*
%TO.C,U3*%
X166600000Y-86335400D03*
D29*
X167249998Y-86335400D03*
X167900000Y-86335400D03*
X168549998Y-86335400D03*
X168549998Y-82500000D03*
X167900000Y-82500000D03*
X167249998Y-82500000D03*
X166600000Y-82500000D03*
D30*
X167574999Y-84417700D03*
%TD*%
D12*
%TO.C,C19*%
X131890000Y-78720000D03*
X130340000Y-78720000D03*
%TD*%
D18*
%TO.C,C3*%
X154526539Y-73250893D03*
X154526539Y-71700893D03*
%TD*%
D13*
%TO.C,R21*%
X125767500Y-67810000D03*
X124192500Y-67810000D03*
%TD*%
D31*
%TO.C,R16*%
X157562500Y-87550000D03*
X159137500Y-87550000D03*
%TD*%
D24*
%TO.C,R2*%
X133820000Y-87192500D03*
X133820000Y-85617500D03*
%TD*%
%TO.C,R14*%
X150400000Y-86287500D03*
X150400000Y-84712500D03*
%TD*%
D31*
%TO.C,R20*%
X124192500Y-66300000D03*
X125767500Y-66300000D03*
%TD*%
D13*
%TO.C,L1*%
X124745000Y-81660000D03*
X123170000Y-81660000D03*
%TD*%
D18*
%TO.C,C2*%
X154560000Y-61720000D03*
X154560000Y-60170000D03*
%TD*%
D12*
%TO.C,C23*%
X138245000Y-70920000D03*
X136695000Y-70920000D03*
%TD*%
D25*
%TO.C,R3*%
X135320000Y-85620000D03*
X135320000Y-87195000D03*
%TD*%
D19*
%TO.C,C33*%
X155826540Y-77922892D03*
X153951540Y-77922892D03*
%TD*%
D12*
%TO.C,C27*%
X156025000Y-89087500D03*
X154475000Y-89087500D03*
%TD*%
D25*
%TO.C,R1*%
X132310000Y-85620000D03*
X132310000Y-87195000D03*
%TD*%
D20*
%TO.C,C37*%
X137275000Y-75760000D03*
X138825000Y-75760000D03*
%TD*%
D18*
%TO.C,C15*%
X144450000Y-62193500D03*
X144450000Y-60643500D03*
%TD*%
D25*
%TO.C,R6*%
X139840000Y-85620000D03*
X139840000Y-87195000D03*
%TD*%
D32*
%TO.C,U1*%
X153400000Y-85637500D03*
D33*
X153400000Y-86587500D03*
X153400000Y-87537500D03*
X156000000Y-87537500D03*
X156000000Y-85637500D03*
%TD*%
D31*
%TO.C,R17*%
X167087500Y-89700000D03*
X168662500Y-89700000D03*
%TD*%
D21*
%TO.C,C25*%
X129810000Y-66325000D03*
X129810000Y-67875000D03*
%TD*%
D25*
%TO.C,R5*%
X138330000Y-85620000D03*
X138330000Y-87195000D03*
%TD*%
%TO.C,R4*%
X136820000Y-85620000D03*
X136820000Y-87195000D03*
%TD*%
D27*
%TO.C,U5*%
X153213539Y-73252892D03*
X153213539Y-72602893D03*
X153213539Y-71952894D03*
X151013539Y-71952894D03*
X151013539Y-73252892D03*
%TD*%
D21*
%TO.C,C5*%
X151226539Y-74873893D03*
X151226539Y-76423893D03*
%TD*%
D18*
%TO.C,C20*%
X135260000Y-80325000D03*
X135260000Y-78775000D03*
%TD*%
D12*
%TO.C,C36*%
X125775000Y-70300000D03*
X124225000Y-70300000D03*
%TD*%
D24*
%TO.C,R7*%
X141340000Y-87195000D03*
X141340000Y-85620000D03*
%TD*%
D34*
%TO.C,J1*%
X121320000Y-57560000D03*
D35*
X121320000Y-59345000D03*
D36*
X121320000Y-64730000D03*
D37*
X121320000Y-70565000D03*
D36*
X121320000Y-76400000D03*
D35*
X121320000Y-81785000D03*
D34*
X121320000Y-83570000D03*
D38*
X123105000Y-57560000D03*
X123105000Y-83570000D03*
D39*
X128490000Y-57560000D03*
X128490000Y-83570000D03*
D40*
X134325000Y-57560000D03*
X134325000Y-83570000D03*
D39*
X140160000Y-57560000D03*
X140160000Y-83570000D03*
D38*
X145545000Y-57560000D03*
X145545000Y-83570000D03*
D34*
X147330000Y-57560000D03*
D35*
X147330000Y-59345000D03*
D36*
X147330000Y-64730000D03*
D37*
X147330000Y-70565000D03*
D36*
X147330000Y-76400000D03*
D35*
X147330000Y-81785000D03*
D34*
X147330000Y-83570000D03*
%TD*%
D21*
%TO.C,C6*%
X149690000Y-63145000D03*
X149690000Y-64695000D03*
%TD*%
D20*
%TO.C,C28*%
X167100000Y-88150000D03*
X168650000Y-88150000D03*
%TD*%
D18*
%TO.C,C29*%
X149690000Y-61702500D03*
X149690000Y-60152500D03*
%TD*%
%TO.C,C12*%
X127400000Y-81575000D03*
X127400000Y-80025000D03*
%TD*%
D21*
%TO.C,C16*%
X131320000Y-66325000D03*
X131320000Y-67875000D03*
%TD*%
D12*
%TO.C,C14*%
X138620000Y-63900000D03*
X137070000Y-63900000D03*
%TD*%
D31*
%TO.C,R10*%
X136692500Y-72640000D03*
X138267500Y-72640000D03*
%TD*%
D19*
%TO.C,C34*%
X155834040Y-79852892D03*
X153959040Y-79852892D03*
%TD*%
%TO.C,C32*%
X155835000Y-68110000D03*
X153960000Y-68110000D03*
%TD*%
D31*
%TO.C,R12*%
X146022500Y-89310000D03*
X147597500Y-89310000D03*
%TD*%
D18*
%TO.C,C35*%
X168100000Y-80975000D03*
X168100000Y-79425000D03*
%TD*%
D41*
%TO.C,D1*%
X119780000Y-79855000D03*
X119780000Y-80505000D03*
%TD*%
M02*
